<?xml version="1.0" encoding="UTF-8"?>
<svg width="40px" height="33px" viewBox="0 0 40 33" version="1.1" xmlns="http://www.w3.org/2000/svg" xmlns:xlink="http://www.w3.org/1999/xlink">
    <title>callout 3 orange inverted bottom-left</title>
    <defs>
        <rect id="path-1" x="0" y="0" width="40" height="33"></rect>
    </defs>
    <g id="Page-1" stroke="none" stroke-width="1" fill="none" fill-rule="evenodd">
        <g id="Artboard" transform="translate(-1755.000000, -176.000000)">
            <g id="callout-3-orange-inverted-bottom-left" transform="translate(1755.000000, 176.000000)">
                <mask id="mask-2" fill="white">
                    <use xlink:href="#path-1"></use>
                </mask>
                <g id="Mask"></g>
                <g id="Group" mask="url(#mask-2)">
                    <g transform="translate(-0.052224, -45.053719)">
                        <path d="M221.282841,62.9790564 L26.2392778,62.9790564 C17.1459882,62.9790564 9.77444144,55.6073162 9.77444144,46.513662 L9.77444144,26.1670178 C9.77444144,17.0733636 17.1459882,9.70152131 26.2392778,9.70152131 L221.282841,9.70152131 C230.37613,9.70152131 237.747677,17.0733636 237.747677,26.1670178 L237.747677,46.513662 C237.747677,55.6073162 230.37613,62.9790564 221.282841,62.9790564" id="Fill-1586" fill="#FF5C00"></path>
                        <path d="M32.4661713,15.3749748 C23.7815952,15.3749748 16.7161498,22.4407036 16.7161498,31.1257299 L16.7161498,49.7173778 C16.7161498,58.402302 23.7815952,65.4681329 32.4661713,65.4681329 L227.509836,65.4681329 C236.194514,65.4681329 243.25996,58.402302 243.25996,49.7173778 L243.25996,31.1257299 C243.25996,22.4407036 236.194514,15.3749748 227.509836,15.3749748 L32.4661713,15.3749748 Z M227.509836,66.8976156 L32.4661713,66.8976156 C22.9934713,66.8976156 15.2867244,59.1905596 15.2867244,49.7173778 L15.2867244,31.1257299 C15.2867244,21.652446 22.9934713,13.9454921 32.4661713,13.9454921 L227.509836,13.9454921 C236.982638,13.9454921 244.689385,21.652446 244.689385,31.1257299 L244.689385,49.7173778 C244.689385,59.1905596 236.982638,66.8976156 227.509836,66.8976156 L227.509836,66.8976156 Z" id="Fill-1588" fill="#FFFFFF"></path>
                        <path d="M7.64954955,67.1428638 C7.64954955,68.8395577 6.27403392,70.2151285 4.57730598,70.2151285 C2.88068015,70.2151285 1.50516451,68.8395577 1.50516451,67.1428638 C1.50516451,65.4460678 2.88068015,64.0705992 4.57730598,64.0705992 C6.27403392,64.0705992 7.64954955,65.4460678 7.64954955,67.1428638" id="Fill-1606" fill="#FF5C00"></path>
                        <path d="M3.54334134,63.093027 C2.10921926,63.093027 0.942399739,64.2597912 0.942399739,65.6940729 C0.942399739,67.1282525 2.10921926,68.2950167 3.54334134,68.2950167 C4.97756551,68.2950167 6.14438504,67.1282525 6.14438504,65.6940729 C6.14438504,64.2597912 4.97756551,63.093027 3.54334134,63.093027 M3.54334134,69.2375563 C1.58952103,69.2375563 0,67.6478694 0,65.6940729 C0,63.7400721 1.58952103,62.1504874 3.54334134,62.1504874 C5.49726374,62.1504874 7.08678478,63.7400721 7.08678478,65.6940729 C7.08678478,67.6478694 5.49726374,69.2375563 3.54334134,69.2375563" id="Fill-1608" fill="#FFFFFF"></path>
                        <path d="M32.5469338,78.1526579 L27.9543943,78.1526579 C27.521891,78.1526579 27.1715797,77.8021283 27.1715797,77.3698119 C27.1715797,76.9373934 27.521891,76.5869659 27.9543943,76.5869659 L32.5469338,76.5869659 C32.9792329,76.5869659 33.3297484,76.9373934 33.3297484,77.3698119 C33.3297484,77.8021283 32.9792329,78.1526579 32.5469338,78.1526579" id="Fill-1614" fill="#FFFFFF"></path>
                        <path d="M24.4576624,78.1526579 L22.7877872,78.1526579 C22.3553861,78.1526579 22.0049726,77.8021283 22.0049726,77.3698119 C22.0049726,76.9373934 22.3553861,76.5869659 22.7877872,76.5869659 L24.4576624,76.5869659 C24.8899615,76.5869659 25.240477,76.9373934 25.240477,77.3698119 C25.240477,77.8021283 24.8899615,78.1526579 24.4576624,78.1526579" id="Fill-1616" fill="#FFFFFF"></path>
                    </g>
                </g>
            </g>
        </g>
    </g>
</svg>