<?xml version="1.0" encoding="UTF-8"?>
<svg width="127px" height="64px" viewBox="0 0 127 64" version="1.1" xmlns="http://www.w3.org/2000/svg" xmlns:xlink="http://www.w3.org/1999/xlink">
    <title>Group 9</title>
    <defs>
        <polygon id="path-1" points="0 63.033 126.473 63.033 126.473 0 0 0"></polygon>
    </defs>
    <g id="Page-1" stroke="none" stroke-width="1" fill="none" fill-rule="evenodd">
        <g id="Artboard-Copy" transform="translate(-370.000000, -37.000000)">
            <g id="Group-9" transform="translate(370.000000, 37.000000)">
                <path d="M70.1404,10.8434 C70.1404,8.9494 71.7524,8.5244 72.2334,8.5244 L72.8104,8.5244 L75.4414,8.5244 L77.9364,8.5244 L77.9364,1.4664 L69.5144,1.4664 C61.4474,1.4664 61.7034,10.8434 61.7034,10.8434 L61.7034,16.2514 L58.9064,16.2514 L58.9064,16.2514 C56.5654,16.2514 54.2234,16.2504 51.8814,16.2504 C49.6634,23.9464 45.4584,39.5914 44.9814,39.5914 C44.6664,39.5914 44.0664,37.8094 43.8584,37.2074 C43.4434,35.9994 43.0514,34.7824 42.6484,33.5704 C41.4024,29.8284 40.1564,26.0854 38.9104,22.3424 C38.2344,20.3124 37.5584,18.2814 36.8824,16.2514 L28.7554,16.2514 C29.2504,17.6774 29.7464,19.1024 30.2414,20.5274 C31.4684,24.0544 32.6974,27.5804 33.9294,31.1054 C35.1864,34.7024 36.4454,38.2984 37.7194,41.8894 C38.8164,44.9834 40.8264,48.5844 39.2504,51.7934 C38.3584,53.6114 36.7464,54.9594 34.9114,55.7554 C33.8654,56.2094 32.7114,56.1944 31.5764,56.2434 C30.3114,56.2974 29.0434,56.2974 27.7784,56.2414 C27.7784,58.5044 27.7784,60.7674 27.7784,63.0314 C28.0914,63.0314 28.8044,63.0364 29.7644,63.0284 C31.6074,63.0134 34.1944,63.0329432 36.9624,62.7214 C39.0064,62.5404 41.0434,60.8394 42.6334,59.2604 C45.4554,56.4574 47.3664,52.8594 48.8114,49.1544 C50.2574,45.4494 51.2774,41.5934 52.5834,37.8364 C54.2654,32.9944 56.4404,28.2304 57.7584,23.3094 L61.7034,23.3094 L61.7034,48.5804 L70.1404,48.5804 L70.1404,23.3094 L87.5404,23.3094 L87.5404,16.2514 L70.1404,16.2514 L70.1404,10.8434 Z" id="Fill-1" fill="#FFFFFF"></path>
                <mask id="mask-2" fill="white">
                    <use xlink:href="#path-1"></use>
                </mask>
                <g id="Clip-4"></g>
                <polygon id="Fill-3" fill="#FFFFFF" mask="url(#mask-2)" points="78.739 47.966 87.176 47.966 87.176 26.529 78.739 26.529"></polygon>
                <path d="M29.7027,47.9659 L29.7027,25.2889 C29.7027,18.2369 24.3867,14.6019 18.4287,14.6019 C12.4707,14.6019 8.4377,17.2519 8.4377,17.2519 L8.4377,-0.0001 L-0.0003,-0.0001 L-0.0003,47.9659 L8.4377,47.9659 L8.4377,25.2889 C8.4377,25.2889 8.4377,22.0119 14.3957,22.0119 C20.2007,22.0119 21.2657,24.7489 21.2657,25.2889 C21.5447,25.8759 21.2657,47.9659 21.2657,47.9659 L29.7027,47.9659 Z" id="Fill-5" fill="#FFFFFF" mask="url(#mask-2)"></path>
                <path d="M109.9997,14.6014 C104.0417,14.6014 100.0087,17.2514 100.0087,17.2514 L100.0087,16.2514 L91.5717,16.2514 L91.5717,47.9654 L100.0087,47.9654 L100.0087,25.2894 C100.0087,25.2894 100.0087,22.0114 105.9667,22.0114 C111.7717,22.0114 112.8367,24.7484 112.8367,25.2894 C113.1157,25.8754 112.8367,47.9654 112.8367,47.9654 L121.2737,47.9654 L121.2737,25.2894 C121.2737,18.2374 115.9577,14.6014 109.9997,14.6014" id="Fill-6" fill="#FFFFFF" mask="url(#mask-2)"></path>
                <path d="M123.0216,8.6415 C123.2496,8.6415 123.4296,8.5945 123.5626,8.5005 C123.6956,8.4075 123.7616,8.2385 123.7616,7.9935 C123.7616,7.7305 123.6686,7.5505 123.4836,7.4555 C123.3836,7.4055 123.2506,7.3795 123.0846,7.3795 L121.8966,7.3795 L121.8966,8.6415 L123.0216,8.6415 Z M121.3966,6.9505 L123.0756,6.9505 C123.3516,6.9505 123.5796,6.9915 123.7586,7.0735 C124.0986,7.2315 124.2696,7.5215 124.2696,7.9465 C124.2696,8.1665 124.2236,8.3475 124.1326,8.4885 C124.0416,8.6295 123.9136,8.7425 123.7496,8.8285 C123.8936,8.8865 124.0016,8.9635 124.0746,9.0595 C124.1476,9.1545 124.1886,9.3095 124.1966,9.5245 L124.2136,10.0195 C124.2186,10.1605 124.2306,10.2645 124.2496,10.3325 C124.2796,10.4515 124.3336,10.5265 124.4106,10.5595 L124.4106,10.6425 L123.7966,10.6425 C123.7806,10.6105 123.7666,10.5695 123.7566,10.5195 C123.7476,10.4685 123.7386,10.3715 123.7316,10.2275 L123.7016,9.6125 C123.6906,9.3705 123.6026,9.2085 123.4406,9.1265 C123.3476,9.0815 123.2016,9.0595 123.0026,9.0595 L121.8966,9.0595 L121.8966,10.6425 L121.3966,10.6425 L121.3966,6.9505 Z" id="Fill-7" fill="#FFFFFF" mask="url(#mask-2)"></path>
                <path d="M122.752,5.4589 C120.925,5.4589 119.439,6.9459 119.439,8.7729 C119.439,10.6009 120.925,12.0869 122.752,12.0869 C124.579,12.0869 126.066,10.6009 126.066,8.7729 C126.066,6.9459 124.579,5.4589 122.752,5.4589 M122.752,12.4929 C120.701,12.4929 119.032,10.8239 119.032,8.7729 C119.032,6.7219 120.701,5.0529 122.752,5.0529 C124.804,5.0529 126.473,6.7219 126.473,8.7729 C126.473,10.8239 124.804,12.4929 122.752,12.4929" id="Fill-8" fill="#FFFFFF" mask="url(#mask-2)"></path>
            </g>
        </g>
    </g>
</svg>