<?xml version="1.0" encoding="UTF-8"?>
<svg width="67px" height="62px" viewBox="0 0 67 62" version="1.1" xmlns="http://www.w3.org/2000/svg" xmlns:xlink="http://www.w3.org/1999/xlink">
    <title>Group 29</title>
    <g id="Page-1" stroke="none" stroke-width="1" fill="none" fill-rule="evenodd" stroke-linecap="round" stroke-linejoin="round">
        <g id="Artboard" transform="translate(-1127.000000, -2597.000000)" stroke-width="1.704">
            <g id="Group-7" transform="translate(1100.000000, 2583.000000)">
                <g id="Group-29" transform="translate(28.000000, 15.000000)">
                    <line x1="47.9543814" y1="59.9437" x2="47.9543814" y2="44.3587" id="Stroke-1" stroke="#1B1B3E"></line>
                    <path d="M40.7612814,1.798 C37.9922814,0.643 34.9572814,0 31.7692814,0 C18.8582814,0 8.39228144,10.467 8.39228144,23.378 C8.39228144,23.576 8.41628144,23.767 8.42128144,23.963 C6.02028144,26.389 0.726281436,31.728 0.726281436,31.728 C-0.825718564,33.291 0.274281436,35.966 2.47028144,35.966 L7.19328144,35.966 L7.19328144,47.955 C7.19328144,50.603 9.34028144,52.75 11.9882814,52.75 L21.5792814,52.75 L21.5792814,59.944" id="Stroke-3" stroke="#1B1B3E"></path>
                    <path d="M47.3550814,38.3641 L43.7580814,38.3641 C42.1030814,38.3641 40.7610814,37.0221 40.7610814,35.3671 L40.7610814,31.1711 L50.3520814,31.1711 L50.3520814,35.3671 C50.3520814,37.0221 49.0100814,38.3641 47.3550814,38.3641 Z" id="Stroke-5" stroke="#FF6900"></path>
                    <line x1="33.0977814" y1="14.3868" x2="28.9447814" y2="11.9888" id="Stroke-7" stroke="#FF6900"></line>
                    <line x1="62.1686814" y1="31.1709" x2="58.0156814" y2="28.7729" id="Stroke-9" stroke="#FF6900"></line>
                    <line x1="38.3635814" y1="9.121" x2="35.9655814" y2="4.968" id="Stroke-11" stroke="#FF6900"></line>
                    <line x1="45.5567814" y1="7.1936" x2="45.5567814" y2="2.3986" id="Stroke-13" stroke="#FF6900"></line>
                    <line x1="52.7499814" y1="9.121" x2="55.1479814" y2="4.968" id="Stroke-15" stroke="#FF6900"></line>
                    <line x1="58.0156814" y1="14.3868" x2="62.1686814" y2="11.9888" id="Stroke-17" stroke="#FF6900"></line>
                    <line x1="28.9447814" y1="31.1709" x2="33.0977814" y2="28.7729" id="Stroke-19" stroke="#FF6900"></line>
                    <line x1="59.9431814" y1="21.58" x2="64.7381814" y2="21.58" id="Stroke-21" stroke="#FF6900"></line>
                    <line x1="26.3749814" y1="21.58" x2="31.1699814" y2="21.58" id="Stroke-23" stroke="#FF6900"></line>
                    <path d="M50.3521814,31.1709 C52.2081814,28.6479 55.1471814,26.1659 55.1471814,21.5799 C55.1471814,16.2829 50.8531814,11.9889 45.5571814,11.9889 C40.2601814,11.9889 35.9661814,16.2829 35.9661814,21.5799 C35.9661814,26.1659 38.9051814,28.6479 40.7611814,31.1709 L50.3521814,31.1709 Z" id="Stroke-25" stroke="#FF6900"></path>
                    <path d="M47.3550814,38.3641 C47.3550814,39.3571 46.5500814,40.1621 45.5570814,40.1621 C44.5640814,40.1621 43.7580814,39.3571 43.7580814,38.3641" id="Stroke-27" stroke="#FF6900"></path>
                </g>
            </g>
        </g>
    </g>
</svg>