<?xml version="1.0" encoding="UTF-8"?>
<svg width="48px" height="62px" viewBox="0 0 48 62" version="1.1" xmlns="http://www.w3.org/2000/svg" xmlns:xlink="http://www.w3.org/1999/xlink">
    <title>Group 21</title>
    <g id="Page-1" stroke="none" stroke-width="1" fill="none" fill-rule="evenodd" stroke-linecap="round" stroke-linejoin="round">
        <g id="Artboard" transform="translate(-1183.000000, -2869.000000)" stroke-width="1.704">
            <g id="Group-10" transform="translate(1142.000000, 2855.000000)">
                <g id="Group-21" transform="translate(42.000000, 15.000000)">
                    <path d="M43.1593,13.1872 L43.1593,15.5852 C43.1593,16.2472 42.6223,16.7842 41.9603,16.7842 L32.3693,16.7842 C31.7073,16.7842 31.1703,16.2472 31.1703,15.5852 L31.1703,5.9942 C31.1703,5.3322 31.7073,4.7952 32.3693,4.7952 L39.5623,4.7952" id="Stroke-1" stroke="#1B1B3E"></path>
                    <polyline id="Stroke-3" stroke="#1B1B3E" points="45.557 4.7952 43.16 7.1932 38.363 11.9882 35.966 9.5902"></polyline>
                    <path d="M43.1593,32.3691 L43.1593,34.7671 C43.1593,35.4291 42.6223,35.9661 41.9603,35.9661 L32.3693,35.9661 C31.7073,35.9661 31.1703,35.4291 31.1703,34.7671 L31.1703,25.1761 C31.1703,24.5141 31.7073,23.9771 32.3693,23.9771 L39.5623,23.9771" id="Stroke-5" stroke="#FF6900"></path>
                    <polyline id="Stroke-7" stroke="#FF6900" points="45.557 23.977 43.16 26.375 38.363 31.17 35.966 28.772"></polyline>
                    <path d="M43.1593,51.5509 L43.1593,53.9489 C43.1593,54.6109 42.6223,55.1479 41.9603,55.1479 L32.3693,55.1479 C31.7073,55.1479 31.1703,54.6109 31.1703,53.9489 L31.1703,44.3579 C31.1703,43.6959 31.7073,43.1589 32.3693,43.1589 L39.5623,43.1589" id="Stroke-9" stroke="#1B1B3E"></path>
                    <polyline id="Stroke-11" stroke="#1B1B3E" points="45.557 43.1589 43.16 45.5569 38.363 50.3519 35.966 47.9539"></polyline>
                    <path d="M19.182,39.5623 C21.83,39.5623 23.977,37.4153 23.977,34.7673 L23.977,19.4583 C23.977,17.6443 22.808,16.0343 21.09,15.4553 C20.311,15.1923 17.983,14.3863 17.983,14.3863 L11.989,20.3803 L5.994,14.3863 C5.994,14.3863 3.666,15.1923 2.888,15.4553 C1.17,16.0343 0,17.6443 0,19.4583 L0,34.7673 C0,37.4153 2.147,39.5623 4.796,39.5623" id="Stroke-13" stroke="#1B1B3E"></path>
                    <path d="M17.9831,5.994 C17.9831,9.306 15.2981,11.988 11.9891,11.988 C8.6791,11.988 5.9941,9.306 5.9941,5.994 C5.9941,2.682 8.6791,0 11.9891,0 C15.2981,0 17.9831,2.682 17.9831,5.994 Z" id="Stroke-15" stroke="#1B1B3E"></path>
                    <path d="M19.182,23.977 L19.182,58.744 C19.182,59.406 18.645,59.943 17.983,59.943 L5.994,59.943 C5.332,59.943 4.796,59.406 4.796,58.744 L4.796,23.977" id="Stroke-17" stroke="#1B1B3E"></path>
                    <line x1="11.9888" y1="38.3634" x2="11.9888" y2="59.9434" id="Stroke-19" stroke="#1B1B3E"></line>
                </g>
            </g>
        </g>
    </g>
</svg>