<?xml version="1.0" encoding="UTF-8"?>
<svg width="76px" height="63px" viewBox="0 0 76 63" version="1.1" xmlns="http://www.w3.org/2000/svg" xmlns:xlink="http://www.w3.org/1999/xlink">
    <title>section-3-icon-2</title>
    <g id="Page-1" stroke="none" stroke-width="1" fill="none" fill-rule="evenodd" stroke-linecap="round" stroke-linejoin="round">
        <g id="section-3-icon-2" transform="translate(2.000000, 1.000000)">
            <path d="M24.4275,13.9 C24.2275,14.7 23.9275,15.6 23.7275,16.5 L23.7275,16.5 C23.3275,18.1 23.0275,19.9 22.7275,21.7 L22.7275,21.7 C22.5275,23.3 22.3275,25 22.2275,26.8 C22.1275,27.9 22.1275,29 22.1275,30.2 C22.1275,31.3 22.1275,32.5 22.2275,33.6 C22.3275,35.4 22.4275,37 22.7275,38.7 C22.9275,40.5 23.2275,42.2 23.6275,43.9 C23.8275,44.8 24.0275,45.7 24.3275,46.5 C24.7275,47.8 25.1275,49 25.6275,50.1 C26.1275,51.4 26.7275,52.6 27.3275,53.6 C29.7275,57.9 32.8275,60.4 36.2275,60.4 C39.6275,60.4 42.7275,57.8 45.1275,53.5" id="Path" stroke="#1B1B3E" stroke-width="1.704"></path>
            <path d="M27.3275,6.8 C29.7275,2.5 32.8275,0 36.2275,0 C39.6275,0 42.7275,2.6 45.1275,6.9 C45.7275,7.9 46.2275,9.1 46.8275,10.4 C47.3275,11.5 47.7275,12.7 48.0275,14 C48.2275,14.8 48.5275,15.7 48.7275,16.6 C49.1275,18.3 49.4275,20 49.7275,21.8 L49.7275,21.8 C49.9275,23.4 50.1275,25.1 50.2275,26.9 C50.3275,28 50.3275,29.1 50.3275,30.3 C50.3275,31.4 50.3275,32.6 50.2275,33.7 C50.1275,35.5 50.0275,37.1 49.7275,38.8 L49.7275,38.8 C49.4275,40.6 49.1275,42.4 48.7275,44 C48.5275,44.9 48.3275,45.8 48.0275,46.6" id="Path" stroke="#1B1B3E" stroke-width="1.704"></path>
            <path d="M56.7275,32.8 C55.8275,33.6 54.8275,34.5 53.8275,35.3 C52.5275,36.4 51.1275,37.4 49.7275,38.5 L49.7275,38.5 C48.3275,39.5 46.9275,40.4 45.4275,41.3 C44.7275,41.7 44.1275,42.1 43.4275,42.5 C42.5275,43 41.6275,43.5 40.7275,44 C40.7275,44 40.7275,44 40.7275,44 C39.2275,44.8 37.7275,45.5 36.2275,46.2 C34.6275,46.9 33.0275,47.6 31.4275,48.1 C30.7275,48.4 29.9275,48.6 29.2275,48.8 C28.0275,49.2 26.7275,49.5 25.6275,49.8 C24.3275,50.1 23.0275,50.4 21.8275,50.6 C14.7275,51.7 9.2275,50.5 7.1275,46.8 C5.1275,43.3 6.6275,38.3 10.6275,32.9" id="Path" stroke="#1B1B3E" stroke-width="1.704"></path>
            <path d="M61.8275,27.2 C65.9275,21.9 67.4275,16.8 65.3275,13.3 C63.2275,9.7 57.7275,8.5 50.6275,9.5 C49.4275,9.7 48.1275,9.9 46.8275,10.2 C45.6275,10.5 44.4275,10.8 43.2275,11.2 C42.5275,11.4 41.7275,11.7 41.0275,12 C39.4275,12.5 37.9275,13.2 36.3275,13.9 C34.8275,14.6 33.3275,15.3 31.8275,16.1 C30.9275,16.6 30.0275,17 29.1275,17.6 C28.4275,18 27.8275,18.4 27.1275,18.8 C25.6275,19.7 24.2275,20.7 22.8275,21.6 L22.8275,21.6 C21.3275,22.6 20.0275,23.7 18.7275,24.8 C17.7275,25.6 16.7275,26.5 15.8275,27.4" id="Path" stroke="#1B1B3E" stroke-width="1.704"></path>
            <ellipse id="Oval" stroke="#1B1B3E" stroke-width="1.70396251" transform="translate(36.297600, 30.063600) rotate(-59.999272) translate(-36.297600, -30.063600) " cx="36.2976" cy="30.0636" rx="14.3996832" ry="33.5992608"></ellipse>
            <circle id="Oval" stroke="#FF6900" stroke-width="1.704" cx="36.0275" cy="25.7" r="4.7"></circle>
            <path d="M30.3275,38.7 C30.3275,35.5 32.9275,33 36.0275,33 C39.1275,33 41.7275,35.6 41.7275,38.7" id="Path" stroke="#FF6900" stroke-width="1.704"></path>
        </g>
    </g>
</svg>