<?xml version="1.0" encoding="UTF-8"?>
<svg width="67px" height="62px" viewBox="0 0 67 62" version="1.1" xmlns="http://www.w3.org/2000/svg" xmlns:xlink="http://www.w3.org/1999/xlink">
    <title>Group 11</title>
    <g id="Page-1" stroke="none" stroke-width="1" fill="none" fill-rule="evenodd" stroke-linecap="round" stroke-linejoin="round">
        <g id="Artboard" transform="translate(-1086.000000, -2736.000000)" stroke-width="1.704">
            <g id="Group-8" transform="translate(1047.000000, 2722.000000)">
                <g id="Group-11" transform="translate(40.000000, 15.000000)">
                    <polyline id="Stroke-1" stroke="#FF6900" points="57.5453 50.3521 57.5453 21.5791 64.7383 21.5791 52.7503 4.7951 40.7613 21.5791 47.9543 21.5791 47.9543 45.5571 40.7613 45.5571 40.7613 52.7501 33.5683 52.7501 33.5683 59.9431 14.3863 59.9431"></polyline>
                    <path d="M21.5794,5.994 C21.5794,9.305 18.8954,11.988 15.5854,11.988 C12.2744,11.988 9.5904,9.305 9.5904,5.994 C9.5904,2.683 12.2744,0 15.5854,0 C18.8954,0 21.5794,2.683 21.5794,5.994 Z" id="Stroke-3" stroke="#1B1B3E"></path>
                    <path d="M24.692,41.3251 L19.743,35.4271 C19.38,34.9951 19.182,34.4491 19.182,33.8851 L19.182,20.3801 C19.182,17.0701 16.498,14.3861 13.187,14.3861 L11.577,14.3861 C10.305,14.3861 9.086,14.8911 8.186,15.7911 L1.404,22.5721 C0.505,23.4721 3.55271368e-15,24.6911 3.55271368e-15,25.9631 L3.55271368e-15,33.5681 C3.55271368e-15,34.8921 1.073,35.9661 2.398,35.9661 C3.722,35.9661 4.795,34.8921 4.795,33.5681 L4.795,26.8711 C4.795,26.5531 4.922,26.2481 5.146,26.0241 L9.591,21.5791 L9.591,31.9001 C9.591,33.5921 10.187,35.2291 11.274,36.5241 L18.901,45.6141 C19.082,45.8301 19.182,46.1031 19.182,46.3851 L19.182,56.1431 C19.182,58.0901 20.64,59.8361 22.585,59.9381 C24.659,60.0461 26.375,58.3971 26.375,56.3461 L26.375,45.9491 C26.375,44.2581 25.779,42.6201 24.692,41.3251 Z" id="Stroke-5" stroke="#1B1B3E"></path>
                    <path d="M19.1817,27.3679 L27.0767,35.2629 C28.0137,36.1999 29.5317,36.1999 30.4677,35.2629 C31.4047,34.3269 31.4047,32.8089 30.4677,31.8729 L19.1817,20.5859" id="Stroke-7" stroke="#1B1B3E"></path>
                    <path d="M10.1059,34.5353 L2.6159,55.1153 C1.9359,56.9823 2.8989,59.0453 4.7649,59.7253 C6.6319,60.4043 8.6959,59.4423 9.3749,57.5753 L15.2929,41.3143" id="Stroke-9" stroke="#1B1B3E"></path>
                </g>
            </g>
        </g>
    </g>
</svg>