<svg width="169" height="130" xmlns="http://www.w3.org/2000/svg">
  <g fill="none" fill-rule="evenodd">
    <path d="M148.957 11.778A1419.455 1419.455 0 0042.39 22.238c-7.698 1.091-13.682 7.044-13.381 13.206l2.45 52.35c.3 6.164 6.451 11.522 13.73 12.052 7.728.514 15.448 1.096 23.161 1.745.215.026 1.738.261 3.341 1.704 1.73 1.557 11.4 11.23 11.4 11.23s8.867 9.784 6.618-.765c-.934-4.383-1.388-7.846-1.604-10.361a1331.66 1331.66 0 0157.126 6.907c7.198 1.072 13.353-4.833 13.762-13.274l3.314-70.826c.41-8.439-5.572-14.938-13.349-14.428" fill="#1BA0E3"/>
    <path d="M14.765 93.746c0 .7-.569 1.269-1.268 1.269a1.27 1.27 0 01-1.268-1.269c0-.7.569-1.268 1.268-1.268.7 0 1.268.569 1.268 1.268m-1.268-1.971a1.974 1.974 0 00-1.971 1.971c0 1.087.884 1.972 1.971 1.972a1.974 1.974 0 001.971-1.972 1.974 1.974 0 00-1.97-1.971" fill="#1B1B3E"/>
    <path d="M19.43 18.221a2.451 2.451 0 11-4.903 0 2.451 2.451 0 014.903 0" fill="#1BA0E3"/>
    <path d="M16.265 15.6a2.137 2.137 0 00-2.134 2.135c0 1.177.958 2.134 2.134 2.134a2.137 2.137 0 002.135-2.134 2.137 2.137 0 00-2.135-2.135m0 4.903a2.772 2.772 0 01-2.768-2.768 2.772 2.772 0 012.768-2.769 2.772 2.772 0 012.769 2.769 2.772 2.772 0 01-2.769 2.768" fill="#1B1B3E"/>
    <path d="M157.287 121.602a2.451 2.451 0 11-4.903 0 2.451 2.451 0 014.903 0" fill="#1BA0E3"/>
    <path d="M154.122 118.981a2.137 2.137 0 00-2.134 2.135c0 1.176.958 2.134 2.134 2.134a2.137 2.137 0 002.135-2.134 2.137 2.137 0 00-2.135-2.135m0 4.903a2.772 2.772 0 01-2.768-2.768 2.772 2.772 0 012.768-2.769 2.772 2.772 0 012.769 2.769 2.772 2.772 0 01-2.769 2.768" fill="#231F20"/>
    <path d="M142.985 18.687c-.257 0-.516.009-.776.026h-.005a1412.424 1412.424 0 00-104.8 10.206c-7.12 1.002-12.693 6.381-12.417 11.992l2.41 51.114c.274 5.547 5.974 10.456 12.707 10.942a1333.13 1333.13 0 0128.921 2.241c.364.032.67.29.763.643.037.14.106.257.213.36l22.546 21.661a.763.763 0 00.877.143.764.764 0 00.444-.77l-1.518-18.74a.868.868 0 01.957-.933 1328.157 1328.157 0 0145.3 5.614c2.866.424 5.68-.363 7.932-2.213 2.738-2.25 4.423-5.869 4.621-9.93l3.261-69.15c.191-3.906-1.144-7.567-3.664-10.046-2.086-2.053-4.822-3.16-7.772-3.16M93.082 129.83a2.501 2.501 0 01-1.737-.706l-22.546-21.661a2.525 2.525 0 01-.445-.57 1331.563 1331.563 0 00-28.37-2.194c-7.583-.547-14.005-6.195-14.32-12.59l-2.41-51.114c-.319-6.482 5.923-12.67 13.913-13.794 34.66-4.692 69.962-8.13 104.933-10.22 3.72-.237 7.25 1.047 9.874 3.63 2.872 2.825 4.395 6.968 4.18 11.366l-3.26 69.15c-.223 4.55-2.138 8.628-5.254 11.188-2.636 2.165-5.932 3.084-9.282 2.59a1324.146 1324.146 0 00-44.194-5.495l1.433 17.697a2.498 2.498 0 01-1.43 2.477c-.349.165-.719.246-1.085.246M9.586 44.605H5.41a.712.712 0 110-1.424h4.176a.712.712 0 110 1.424M2.23 44.605H.712a.712.712 0 110-1.424H2.23a.712.712 0 110 1.424M143.86 128.236h-4.176a.712.712 0 110-1.424h4.177a.712.712 0 110 1.424M136.504 128.236h-1.518a.712.712 0 110-1.424h1.518a.712.712 0 110 1.424M164.442 3.286a.491.491 0 00.7.01c.195-.19.2-.504.01-.7l-1.64-1.69a.495.495 0 00-.71.69l1.64 1.69zM166.375 3.436a.49.49 0 00.354-.15l1.64-1.69a.495.495 0 00-.71-.689l-1.64 1.69a.49.49 0 00.011.7c.093.09.215.139.345.139M166.73 4.367a.506.506 0 00-.7-.01.492.492 0 00-.01.699l1.64 1.69a.493.493 0 00.7.01c.195-.19.2-.504.01-.7l-1.64-1.689zM164.442 4.367l-1.64 1.69a.49.49 0 00.01.7.493.493 0 00.7-.011l1.64-1.69a.492.492 0 00-.01-.7.506.506 0 00-.7.011M47.855 118.32a.496.496 0 00-.71.69l1.64 1.689a.491.491 0 00.7.01.493.493 0 00.01-.7l-1.64-1.689zM50.718 120.849a.49.49 0 00.355-.15l1.64-1.69a.491.491 0 00-.01-.7.492.492 0 00-.345-.139h-.007a.49.49 0 00-.348.15l-1.64 1.69a.491.491 0 00.01.7c.094.09.216.139.345.139M51.073 121.78a.506.506 0 00-.7-.01.492.492 0 00-.01.7l1.64 1.689a.493.493 0 00.85-.337.49.49 0 00-.14-.352l-1.64-1.69zM48.786 121.78l-1.64 1.69a.49.49 0 00.01.7.492.492 0 00.7-.011l1.64-1.69a.491.491 0 00-.011-.7.506.506 0 00-.7.011" fill="#1B1B3E"/>
  </g>
</svg>
