<svg width="169" height="130" xmlns="http://www.w3.org/2000/svg">
  <g fill="none" fill-rule="evenodd">
    <path d="M148.957 11.546A1419.455 1419.455 0 0042.39 22.006c-7.698 1.09-13.682 7.044-13.381 13.206l2.45 52.35c.3 6.164 6.451 11.522 13.73 12.051 7.728.515 15.448 1.097 23.161 1.745.215.027 1.738.262 3.341 1.704 1.73 1.557 11.4 11.23 11.4 11.23s8.867 9.784 6.618-.764c-.934-4.384-1.388-7.846-1.604-10.361a1331.333 1331.333 0 0157.126 6.906c7.198 1.072 13.353-4.833 13.762-13.273l3.314-70.827c.41-8.438-5.572-14.938-13.349-14.427" fill="#FF5C00"/>
    <path d="M14.765 93.514c0 .699-.569 1.268-1.268 1.268-.7 0-1.268-.569-1.268-1.268 0-.7.569-1.269 1.268-1.269.7 0 1.268.57 1.268 1.269m-1.268-1.972a1.974 1.974 0 00-1.971 1.972c0 1.087.884 1.971 1.971 1.971a1.974 1.974 0 001.971-1.971 1.974 1.974 0 00-1.97-1.972" fill="#FFF"/>
    <path d="M19.43 17.989a2.451 2.451 0 11-4.903 0 2.451 2.451 0 014.903 0" fill="#FF5C00"/>
    <path d="M16.265 15.368a2.137 2.137 0 00-2.134 2.134c0 1.177.958 2.134 2.134 2.134a2.137 2.137 0 002.135-2.134 2.137 2.137 0 00-2.135-2.134m0 4.903a2.772 2.772 0 01-2.768-2.769 2.772 2.772 0 012.768-2.768 2.772 2.772 0 012.769 2.768 2.772 2.772 0 01-2.769 2.769" fill="#FFF"/>
    <path d="M157.287 121.37a2.451 2.451 0 11-4.903 0 2.451 2.451 0 014.903 0" fill="#FF5C00"/>
    <path d="M154.122 118.749a2.137 2.137 0 00-2.134 2.134c0 1.177.958 2.134 2.134 2.134a2.137 2.137 0 002.135-2.134 2.137 2.137 0 00-2.135-2.134m0 4.903a2.772 2.772 0 01-2.768-2.769 2.772 2.772 0 012.768-2.768 2.772 2.772 0 012.769 2.768 2.772 2.772 0 01-2.769 2.769M142.985 18.455c-.257 0-.516.008-.776.025h-.005a1412.429 1412.429 0 00-104.8 10.207c-7.12 1.001-12.693 6.38-12.417 11.991l2.41 51.114c.274 5.547 5.974 10.456 12.707 10.942 9.219.61 18.951 1.364 28.921 2.242.364.032.67.289.763.642.037.14.106.258.213.36l22.546 21.662c.361.346.762.196.877.142a.764.764 0 00.444-.77l-1.518-18.74a.868.868 0 01.957-.932 1327.865 1327.865 0 0145.3 5.613c2.866.425 5.68-.363 7.932-2.213 2.738-2.25 4.423-5.868 4.621-9.93l3.261-69.15c.191-3.906-1.144-7.567-3.664-10.046-2.086-2.053-4.822-3.16-7.772-3.16M93.082 129.597a2.501 2.501 0 01-1.737-.705l-22.546-21.662a2.523 2.523 0 01-.445-.57 1331.538 1331.538 0 00-28.37-2.194c-7.583-.547-14.005-6.194-14.32-12.59l-2.41-51.113c-.319-6.482 5.923-12.67 13.913-13.794 34.66-4.693 69.962-8.13 104.934-10.22 3.72-.237 7.249 1.046 9.873 3.63 2.872 2.825 4.395 6.967 4.18 11.365l-3.26 69.151c-.223 4.55-2.138 8.628-5.254 11.188-2.635 2.164-5.932 3.084-9.282 2.589a1324.144 1324.144 0 00-44.194-5.494l1.433 17.696a2.498 2.498 0 01-1.43 2.477c-.349.166-.719.246-1.085.246M9.586 44.372H5.41a.712.712 0 010-1.424h4.176a.712.712 0 110 1.424M2.23 44.372H.712a.712.712 0 110-1.424H2.23a.712.712 0 110 1.424M143.86 128.003h-4.176a.712.712 0 010-1.423h4.177a.712.712 0 110 1.423M136.504 128.003h-1.518a.712.712 0 110-1.423h1.518a.712.712 0 110 1.423M164.442 3.054a.491.491 0 00.7.01c.195-.19.2-.504.01-.7l-1.64-1.69a.495.495 0 00-.71.69l1.64 1.69zM166.375 3.203a.49.49 0 00.354-.15l1.64-1.69a.495.495 0 00-.71-.689l-1.64 1.69a.49.49 0 00.011.7c.093.09.215.14.345.14M166.73 4.134a.506.506 0 00-.7-.01.49.49 0 00-.01.7l1.64 1.69a.493.493 0 00.7.01c.195-.19.2-.504.01-.7l-1.64-1.69zM164.442 4.134l-1.64 1.69a.491.491 0 00.01.7.492.492 0 00.7-.01l1.64-1.69a.493.493 0 00-.01-.7.506.506 0 00-.7.01M47.855 118.088a.496.496 0 00-.71.689l1.64 1.69a.49.49 0 00.7.01.492.492 0 00.01-.7l-1.64-1.69zM50.718 120.616a.49.49 0 00.355-.15l1.64-1.69a.491.491 0 00-.01-.699.492.492 0 00-.345-.14h-.007a.49.49 0 00-.348.15l-1.64 1.69a.491.491 0 00.01.7c.094.09.216.14.345.14M51.073 121.548a.506.506 0 00-.7-.011.492.492 0 00-.01.7l1.64 1.69a.493.493 0 00.85-.338.49.49 0 00-.14-.352l-1.64-1.69zM48.786 121.548l-1.64 1.69a.49.49 0 00.01.699.493.493 0 00.7-.01l1.64-1.69a.491.491 0 00-.011-.7.506.506 0 00-.7.01" fill="#FFF"/>
  </g>
</svg>
