<svg data-name="Group 11" xmlns="http://www.w3.org/2000/svg" width="24" height="28">
  <path data-name="Fill 5" d="M13 22a6 6 0 11-6-6 6 6 0 016 6" fill="#4b9edd"/>
  <path data-name="Fill 7" d="M6.5 28a6.5 6.5 0 116.5-6.5A6.507 6.507 0 016.5 28zm0-11.511a5.011 5.011 0 105.011 5.011A5.017 5.017 0 006.5 16.489z" fill="#fff"/>
  <g data-name="Group 4" fill="#fff">
    <path data-name="Fill 42" d="M17.15 5a.856.856 0 01-.61-.253l-3.3-3.333a.822.822 0 01.018-1.179.862.862 0 011.2.017l3.3 3.334a.822.822 0 01-.017 1.178.856.856 0 01-.591.236"/>
    <path data-name="Fill 46" d="M19.85 5a.856.856 0 01-.592-.235.822.822 0 01-.018-1.179l3.3-3.333a.862.862 0 011.2-.017.822.822 0 01.02 1.178l-3.3 3.333a.856.856 0 01-.61.253"/>
    <path data-name="Fill 50" d="M19.85 7a.856.856 0 01.61.253l3.3 3.333a.822.822 0 01-.018 1.178.862.862 0 01-1.2-.018L19.24 8.414a.822.822 0 01.018-1.179A.856.856 0 0119.85 7"/>
    <path data-name="Fill 54" d="M17.15 7a.856.856 0 01.592.235.822.822 0 01.018 1.179l-3.3 3.333a.862.862 0 01-1.2.018.822.822 0 01-.02-1.179l3.3-3.333A.856.856 0 0117.15 7"/>
  </g>
</svg>
