<?xml version="1.0" encoding="utf-8"?>
<svg width="42px" height="42px" viewBox="0 0 42 42" version="1.1" xmlns:xlink="http://www.w3.org/1999/xlink" xmlns="http://www.w3.org/2000/svg">
  <defs>
    <path d="M20.9996 0C9.4017 0 -1.24345e-15 9.40205 -1.24345e-15 21L-1.24345e-15 21C-1.24345e-15 32.5979 9.4017 42 20.9996 42L20.9996 42C32.5976 42 41.9996 32.5979 41.9996 21L41.9996 21C41.9996 9.40205 32.5976 0 20.9996 0Z" id="path_1" />
    <clipPath id="mask_1">
      <use xlink:href="#path_1" />
    </clipPath>
  </defs>
  <g id="Group-9">
    <path d="M21 0C32.5979 0 42 9.40205 42 21C42 32.5979 32.5979 42 21 42C9.40205 42 0 32.5979 0 21C0 9.40205 9.40205 0 21 0" id="Fill-1" fill="#CCCCCC" fill-rule="evenodd" stroke="none" />
    <g id="Group-8" transform="translate(0.000245 0)">
      <path d="M20.9996 0C9.4017 0 -1.24345e-15 9.40205 -1.24345e-15 21L-1.24345e-15 21C-1.24345e-15 32.5979 9.4017 42 20.9996 42L20.9996 42C32.5976 42 41.9996 32.5979 41.9996 21L41.9996 21C41.9996 9.40205 32.5976 0 20.9996 0Z" id="Clip-4" fill="none" fill-rule="evenodd" stroke="none" />
      <g clip-path="url(#mask_1)">
        <path d="M-10.5003 42L52.4996 42L52.4996 0L-10.5003 0L-10.5003 42Z" id="Fill-3" fill="#F0F0F0" fill-rule="evenodd" stroke="none" />
        <path d="M-10.5003 35.539L52.4996 35.539L52.4996 32.3082L-10.5003 32.3082L-10.5003 35.539ZM-10.5003 29.0773L52.4996 29.0773L52.4996 25.8465L-10.5003 25.8465L-10.5003 29.0773ZM-10.5003 22.6156L52.4996 22.6156L52.4996 19.3848L-10.5003 19.3848L-10.5003 22.6156ZM-10.5003 16.1535L52.4996 16.1535L52.4996 12.923L-10.5003 12.923L-10.5003 16.1535ZM-10.5003 9.6922L52.4996 9.6922L52.4996 6.4617L-10.5003 6.4617L-10.5003 9.6922ZM-10.5003 3.2305L52.4996 3.2305L52.4996 0L-10.5003 0L-10.5003 3.2305ZM-10.5003 42L52.4996 42L52.4996 38.7691L-10.5003 38.7691L-10.5003 42Z" id="Fill-5" fill="#FC1D23" fill-rule="evenodd" stroke="none" />
        <path d="M-10.5003 22.6156L21.42 22.6156L21.42 0L-10.5003 0L-10.5003 22.6156Z" id="Fill-6" fill="#0D44A5" fill-rule="evenodd" stroke="none" />
        <path d="M13.8679 6.92454L14.6281 6.37259L13.6884 6.37259L13.3975 5.47799L13.107 6.37259L12.1673 6.37259L12.9282 6.92489L12.6377 7.81844L13.3979 7.26579L14.1584 7.81844L13.8679 6.92454ZM8.57594 6.92454L9.3365 6.37259L8.3964 6.37259L8.1059 5.47799L7.81505 6.37259L6.8753 6.37259L7.6362 6.92489L7.3457 7.81844L8.10625 7.26614L8.86645 7.81844L8.57594 6.92454ZM3.2843 6.92419L4.04449 6.37259L3.10474 6.37259L2.8139 5.47799L2.52339 6.37259L1.58364 6.37259L2.34419 6.92489L2.05369 7.81844L2.81425 7.26614L3.57444 7.81844L3.2843 6.92419ZM19.2236 11.6355L19.9842 11.0836L19.0444 11.0836L18.7543 10.189L18.4631 11.0836L17.5237 11.0836L18.2839 11.6362L17.9941 12.5291L18.7539 11.9771L19.5145 12.5291L19.2236 11.6355ZM13.9316 11.6355L14.6918 11.0836L13.7524 11.0836L13.4616 10.189L13.1711 11.0836L12.2313 11.0836L12.9919 11.6355L12.7014 12.5291L13.4619 11.9768L14.2221 12.5291L13.9316 11.6355ZM19.196 16.0186L19.9562 15.4659L19.0171 15.4659L18.727 14.572L18.4358 15.4659L17.496 15.4659L18.2566 16.0189L17.9664 16.9118L18.7263 16.3591L19.4865 16.9118L19.196 16.0186ZM13.904 16.0189L14.6645 15.4659L13.7248 15.4659L13.4343 14.572L13.1438 15.4659L12.204 15.4659L12.9649 16.0186L12.6744 16.9118L13.4346 16.3591L14.1945 16.9118L13.904 16.0189ZM19.3017 20.424L20.0619 19.8724L19.1218 19.8724L18.8316 18.9785L18.5411 19.8724L17.6014 19.8724L18.3612 20.4247L18.0714 21.3179L18.8316 20.766L19.5922 21.3179L19.3017 20.424ZM14.0093 20.4244L14.7695 19.8724L13.8298 19.8724L13.5396 18.9785L13.2491 19.8724L12.3097 19.8724L13.0699 20.4244L12.7794 21.3179L13.5396 20.7656L14.2998 21.3179L14.0093 20.4244ZM8.71735 20.4247L9.4772 19.8724L8.53815 19.8724L8.248 18.9785L7.95715 19.8724L7.01705 19.8724L7.7776 20.4244L7.4871 21.3179L8.2473 20.766L9.00785 21.3179L8.71735 20.4247ZM8.6127 16.0182L9.37255 15.4659L8.4328 15.4659L8.14194 14.572L7.8518 15.4659L6.91135 15.4659L7.6726 16.0186L7.38175 16.9118L8.14264 16.3595L8.9025 16.9118L8.6127 16.0182ZM8.64 11.6355L9.39985 11.0836L8.46045 11.0836L8.16994 10.189L7.8791 11.0836L6.939 11.0836L7.6999 11.6355L7.40975 12.5291L8.16994 11.9771L8.9298 12.5291L8.64 11.6355ZM-2.00805 6.92454L-1.24786 6.37259L-2.18725 6.37259L-2.47776 5.47799L-2.7686 6.37259L-3.708 6.37259L-2.94815 6.92454L-3.23866 7.81844L-2.47811 7.26579L-1.71756 7.81844L-2.00805 6.92454ZM-7.30005 6.92454L-6.53986 6.37259L-7.47925 6.37259L-7.76975 5.47799L-8.06061 6.37259L-9.00035 6.37259L-8.23981 6.92489L-8.53065 7.81844L-7.76975 7.26579L-7.0099 7.81844L-7.30005 6.92454ZM3.34765 11.6359L4.10855 11.0836L3.1681 11.0836L2.87725 10.189L2.5871 11.0836L1.64735 11.0836L2.40755 11.6355L2.1174 12.5291L2.8776 11.9771L3.6378 12.5291L3.34765 11.6359ZM3.32035 16.0182L4.0809 15.4659L3.14045 15.4659L2.8503 14.572L2.5598 15.4659L1.6197 15.4659L2.3806 16.0189L2.09045 16.9118L2.8503 16.3595L3.61085 16.9118L3.32035 16.0182ZM3.4257 20.4244L4.18589 19.8724L3.24615 19.8724L2.9553 18.9785L2.66514 19.8724L1.7254 19.8724L2.4856 20.4244L2.19545 21.3179L2.95565 20.766L3.71585 21.3179L3.4257 20.4244ZM-1.8663 20.424L-1.1061 19.8724L-2.0462 19.8724L-2.3367 18.9785L-2.6265 19.8724L-3.5666 19.8724L-2.8064 20.4247L-3.09655 21.3179L-2.33635 20.766L-1.57615 21.3179L-1.8663 20.424ZM-1.97165 16.0186L-1.2111 15.4659L-2.1512 15.4659L-2.4417 14.572L-2.73185 15.4659L-3.6716 15.4659L-2.91175 16.0186L-3.2019 16.9118L-2.4417 16.3591L-1.6808 16.9118L-1.97165 16.0186ZM-1.944 11.6355L-1.1838 11.0836L-2.1232 11.0836L-2.41405 10.189L-2.70455 11.0836L-3.6443 11.0836L-2.88445 11.6355L-3.1746 12.5291L-2.41405 11.9771L-1.65385 12.5291L-1.944 11.6355ZM-7.23635 11.6359L-6.4758 11.0836L-7.41521 11.0836L-7.7057 10.189L-7.99655 11.0836L-8.93631 11.0836L-8.1761 11.6355L-8.46626 12.5291L-7.7064 11.9768L-6.9462 12.5291L-7.23635 11.6359ZM-7.264 16.0186L-6.50345 15.4659L-7.4432 15.4659L-7.7337 14.572L-8.02386 15.4659L-8.96395 15.4659L-8.2034 16.0189L-8.49356 16.9118L-7.7337 16.3591L-6.97351 16.9118L-7.264 16.0186ZM-7.159 20.4244L-6.39845 19.8724L-7.33785 19.8724L-7.62836 18.9785L-7.9192 19.8724L-8.8586 19.8724L-8.0984 20.4247L-8.38855 21.3179L-7.62871 20.766L-6.86815 21.3179L-7.159 20.4244ZM16.5139 4.65619L17.2738 4.10389L16.334 4.10389L16.0439 3.21069L15.7537 4.10389L14.8133 4.10389L15.5742 4.65619L15.2833 5.55009L16.0439 4.99779L16.8048 5.55009L16.5139 4.65619ZM11.2219 4.65619L11.9825 4.10389L11.0424 4.10389L10.7519 3.21069L10.4617 4.10389L9.52164 4.10389L10.2818 4.65654L9.9917 5.55009L10.7519 4.99779L11.5128 5.55009L11.2219 4.65619ZM5.92994 4.65619L6.69014 4.10389L5.75039 4.10389L5.46025 3.21069L5.16939 4.10389L4.22964 4.10389L4.99019 4.65654L4.70004 5.55009L5.4599 4.99779L6.22044 5.55009L5.92994 4.65619ZM16.578 9.36719L17.3378 8.81524L16.3977 8.81524L16.1076 7.92064L15.8174 8.81524L14.8773 8.81524L15.6379 9.36754L15.3474 10.2611L16.1079 9.70879L16.8681 10.2611L16.578 9.36719ZM16.5503 13.7506L17.3105 13.1979L16.3708 13.1979L16.0806 12.304L15.7898 13.1979L14.85 13.1979L15.6106 13.7502L15.3201 14.6448L16.0803 14.0915L16.8408 14.6448L16.5503 13.7506ZM16.6553 18.1564L17.4155 17.6037L16.4761 17.6037L16.1853 16.7098L15.8951 17.6037L14.9554 17.6037L15.7156 18.1564L15.4251 19.0503L16.1856 18.498L16.9458 19.0503L16.6553 18.1564ZM11.3633 18.1567L12.1239 17.6037L11.1841 17.6037L10.8936 16.7098L10.6031 17.6037L9.66339 17.6037L10.4236 18.156L10.1331 19.0503L10.8933 18.498L11.6542 19.0503L11.3633 18.1567ZM11.2583 13.7502L12.0189 13.1979L11.0788 13.1979L10.7886 12.304L10.4978 13.1979L9.5584 13.1979L10.3182 13.7499L10.0281 14.6448L10.7883 14.0918L11.5488 14.6448L11.2583 13.7502ZM11.2856 9.36719L12.0458 8.81524L11.1061 8.81524L10.8159 7.92064L10.5254 8.81524L9.58534 8.81524L10.3459 9.36754L10.0554 10.2611L10.8159 9.70879L11.5765 10.2611L11.2856 9.36719ZM0.637945 4.65654L1.39815 4.10389L0.458046 4.10389L0.167895 3.21069L-0.122604 4.10389L-1.06235 4.10389L-0.301455 4.65654L-0.592304 5.55009L0.168245 4.99744L0.928446 5.55009L0.637945 4.65654ZM-4.65405 4.65619L-3.89421 4.10389L-4.83395 4.10389L-5.1241 3.21069L-5.41426 4.10389L-6.3547 4.10389L-5.5938 4.65654L-5.88396 5.55009L-5.12375 4.99779L-4.36425 5.55009L-4.65405 4.65619ZM5.99365 9.36754L6.7542 8.81524L5.81445 8.81524L5.5236 7.92064L5.2331 8.81524L4.2937 8.81524L5.0539 9.36754L4.7634 10.2611L5.5236 9.70879L6.28415 10.2611L5.99365 9.36754ZM5.96635 13.7502L6.72655 13.1979L5.7868 13.1979L5.49665 12.304L5.2058 13.1979L4.26605 13.1979L5.02625 13.7506L4.7361 14.6448L5.4963 14.0918L6.2572 14.6448L5.96635 13.7502ZM6.07135 18.1564L6.83189 17.6037L5.8925 17.6037L5.602 16.7098L5.31114 17.6037L4.3714 17.6037L5.1316 18.156L4.84144 19.0503L5.6013 18.498L6.3622 19.0503L6.07135 18.1564ZM0.779346 18.1567L1.54025 17.6037L0.600145 17.6037L0.309646 16.7098L0.019145 17.6037L-0.920955 17.6037L-0.160055 18.1567L-0.450905 19.0503L0.309646 18.498L1.06985 19.0503L0.779346 18.1567ZM0.674345 13.7502L1.43455 13.1979L0.494795 13.1979L0.203945 12.304L-0.0862045 13.1979L-1.02595 13.1979L-0.265405 13.7506L-0.556254 14.6448L0.204645 14.0915L0.964846 14.6448L0.674345 13.7502ZM0.701646 9.36754L1.46185 8.81524L0.522096 8.81524L0.231945 7.92064L-0.0585546 8.81524L-0.998304 8.81524L-0.238104 9.36754L-0.528255 10.2611L0.231945 9.70879L0.991796 10.2611L0.701646 9.36754ZM19.1599 2.38854L19.9201 1.83589L18.9804 1.83589L18.6899 0.94234L18.3997 1.83589L17.46 1.83589L18.2198 2.38889L17.93 3.28244L18.6899 2.73014L19.4501 3.28244L19.1599 2.38854ZM13.8679 2.38854L14.6281 1.83589L13.6884 1.83589L13.3975 0.94234L13.1074 1.83589L12.1673 1.83589L12.9282 2.38889L12.6377 3.28244L13.3979 2.72979L14.1584 3.28244L13.8679 2.38854ZM-4.59 9.36719L-3.83015 8.81524L-4.7699 8.81524L-5.06005 7.92064L-5.35055 8.81524L-6.29065 8.81524L-5.53045 9.36719L-5.82095 10.2611L-5.06005 9.70879L-4.29985 10.2611L-4.59 9.36719ZM-4.61765 13.7502L-3.8578 13.1979L-4.7972 13.1979L-5.08805 12.304L-5.37785 13.1979L-6.31796 13.1979L-5.5574 13.7506L-5.8479 14.6448L-5.0877 14.0918L-4.32751 14.6448L-4.61765 13.7502ZM-4.51265 18.1564L-3.7521 17.6037L-4.69185 17.6037L-4.98305 16.7098L-5.2732 17.6037L-6.21295 17.6037L-5.4524 18.1564L-5.7429 19.0503L-4.98235 18.498L-4.2225 19.0503L-4.51265 18.1564ZM8.57594 2.38889L9.3365 1.83589L8.3964 1.83589L8.1059 0.94234L7.8154 1.83589L6.8753 1.83589L7.6362 2.38889L7.3457 3.28244L8.10625 2.72979L8.86645 3.28244L8.57594 2.38889ZM3.2843 2.38854L4.04449 1.83589L3.10439 1.83589L2.8139 0.94234L2.52374 1.83589L1.58364 1.83589L2.34419 2.38889L2.05369 3.28244L2.81425 2.72979L3.57444 3.28244L3.2843 2.38854ZM-2.00805 2.38889L-1.24786 1.83589L-2.1876 1.83589L-2.47776 0.94234L-2.76825 1.83589L-3.708 1.83589L-2.94815 2.38854L-3.23866 3.28244L-2.47811 2.72979L-1.71756 3.28244L-2.00805 2.38889ZM-7.30005 2.38854L-6.53986 1.83589L-7.47925 1.83589L-7.76975 0.94234L-8.06061 1.83589L-9.00035 1.83589L-8.23981 2.38889L-8.53065 3.28244L-7.76975 2.72979L-7.0099 3.28244L-7.30005 2.38854ZM18.9804 6.37259L18.6899 5.47799L18.3994 6.37259L17.46 6.37259L18.2198 6.92454L17.93 7.81844L18.6899 7.26614L19.4501 7.81844L19.1599 6.92454L19.9201 6.37259L18.9804 6.37259Z" id="Fill-7" fill="#FBF9F8" fill-rule="evenodd" stroke="none" />
      </g>
    </g>
  </g>
</svg>