<svg width="120" height="120" xmlns="http://www.w3.org/2000/svg" xmlns:xlink="http://www.w3.org/1999/xlink">
  <defs>
    <path id="a" d="M0 0h120v120H0z"/>
    <path d="M59.999 0C26.862 0 0 26.863 0 60c0 33.136 26.862 60 59.999 60s60-26.864 60-60c0-33.137-26.863-60-60-60z" id="c"/>
  </defs>
  <g fill="none" fill-rule="evenodd">
    <g>
      <mask id="b" fill="#fff">
        <use xlink:href="#a"/>
      </mask>
      <path d="M60 0c33.137 0 60 26.863 60 60s-26.863 60-60 60S0 93.137 0 60 26.863 0 60 0" fill="#CCC" mask="url(#b)"/>
    </g>
    <g>
      <mask id="d" fill="#fff">
        <use xlink:href="#c"/>
      </mask>
      <path fill="#FC1D23" mask="url(#d)" d="M-9.93 120h180V0h-180z"/>
      <path d="M52.158 6.223l-.06 4.473 4.24 1.422-4.27 1.325-.043 4.473-2.582-3.653-4.266 1.341 2.677-3.583-2.594-3.643 4.234 1.438 2.664-3.593zm14.725 14.095l-2.584 3.652 2.688 3.575-4.271-1.329-2.569 3.661-.056-4.472-4.276-1.313 4.236-1.435-.074-4.472 2.674 3.585 4.232-1.452zm1.055 19.89l-3.67 2.557 1.315 4.275-3.567-2.7-3.66 2.572 1.467-4.226L56.246 40l4.472.088 1.449-4.231 1.298 4.28 4.473.07zM56.17 54.005l-4.236 1.434.072 4.473-2.674-3.587-4.23 1.45 2.585-3.65L45 50.55l4.27 1.33 2.57-3.66.056 4.472 4.274 1.313zM20.071 12l4.09 12.671 13.314-.025-10.787 7.805 4.14 12.654L20.07 37.26 9.314 45.105l4.139-12.654-10.787-7.805 13.314.025L20.07 12z" fill="#FEF035" mask="url(#d)"/>
    </g>
  </g>
</svg>
