<svg data-name="Group 9" xmlns="http://www.w3.org/2000/svg" width="126.473" height="63.033">
  <defs>
    <clipPath id="a">
      <path data-name="Clip 4" d="M0 63.033h126.473V0H0z" fill="none"/>
    </clipPath>
  </defs>
  <path data-name="Fill 1" d="M70.14 10.843a2.208 2.208 0 012.093-2.319h5.7V1.466h-8.419c-8.067 0-7.811 9.377-7.811 9.377v5.408h-9.825c-2.218 7.7-6.423 23.341-6.9 23.341-.315 0-.915-1.782-1.123-2.384-.415-1.208-.807-2.425-1.21-3.637L38.91 22.342l-2.032-6.091h-8.123l1.486 4.276q1.84 5.29 3.688 10.578 1.885 5.4 3.79 10.784c1.1 3.094 3.107 6.695 1.531 9.9a8.537 8.537 0 01-4.339 3.962 9.232 9.232 0 01-3.335.488q-1.9.081-3.8 0v6.79c.313 0 1.026.005 1.986 0a66.649 66.649 0 007.2-.307c2.044-.181 4.081-1.882 5.671-3.461a28.732 28.732 0 006.178-10.106c1.446-3.7 2.466-7.561 3.772-11.318 1.682-4.842 3.857-9.606 5.175-14.527h3.945v25.27h8.437V23.309h17.4v-7.058h-17.4z" fill="#fff"/>
  <path data-name="Clip 4" d="M0 63.033h126.473V0H0z" fill="none"/>
  <g data-name="Group 9" clip-path="url(#a)" fill="#fff">
    <path data-name="Fill 3" d="M78.739 47.966h8.437V26.529h-8.437z"/>
    <path data-name="Fill 5" d="M29.7 47.966V25.289c0-7.052-5.316-10.687-11.274-10.687a19.65 19.65 0 00-9.991 2.65V0H0v47.966h8.438V25.289s0-3.277 5.958-3.277c5.805 0 6.87 2.737 6.87 3.277.279.587 0 22.677 0 22.677z"/>
    <path data-name="Fill 6" d="M110 14.601a19.65 19.65 0 00-9.991 2.65v-1h-8.437v31.714h8.437V25.289s0-3.278 5.958-3.278c5.805 0 6.87 2.737 6.87 3.278.279.586 0 22.676 0 22.676h8.435V25.289c0-7.052-5.314-10.688-11.272-10.688"/>
    <path data-name="Fill 7" d="M121.897 10.644h-.5V6.951h1.679a1.646 1.646 0 01.682.123.878.878 0 01.512.877.989.989 0 01-.137.542 1 1 0 01-.383.34.758.758 0 01.326.23.832.832 0 01.122.465l.017.495a1.48 1.48 0 00.036.313.307.307 0 00.161.227v.082h-.615a.476.476 0 01-.04-.122 2.806 2.806 0 01-.025-.293l-.035-.617a.522.522 0 00-.261-.486 1.066 1.066 0 00-.438-.068h-1.101v1.584zm0-3.264v1.262h1.125a.923.923 0 00.541-.141.58.58 0 00.2-.507.552.552 0 00-.279-.543.906.906 0 00-.4-.076z"/>
    <path data-name="Fill 8" d="M122.752 12.493a3.72 3.72 0 113.721-3.72 3.724 3.724 0 01-3.721 3.72zm0-7.034a3.314 3.314 0 103.314 3.314 3.317 3.317 0 00-3.314-3.314z"/>
  </g>
</svg>
