<?xml version="1.0" encoding="UTF-8"?>
<svg width="259px" height="117px" viewBox="0 0 259 117" version="1.1" xmlns="http://www.w3.org/2000/svg" xmlns:xlink="http://www.w3.org/1999/xlink">
    <title>Group 12</title>
    <g id="Page-1" stroke="none" stroke-width="1" fill="none" fill-rule="evenodd">
        <g id="Artboard" transform="translate(-61.000000, -71.000000)">
            <g id="Group-12" transform="translate(61.500000, 71.500000)">
                <g id="Group-10" fill-rule="nonzero">
                    <path d="M257,0.5 C257.276142,0.5 257.5,0.723857625 257.5,1 C257.5,1.24545989 257.323125,1.44960837 257.089876,1.49194433 L257,1.5 L1,1.5 C0.723857625,1.5 0.5,1.27614237 0.5,1 C0.5,0.754540111 0.676875161,0.55039163 0.910124368,0.508055669 L1,0.5 L257,0.5 Z" id="Line-2-Copy-2" fill="#EDEDED"></path>
                    <path d="M257,38.5 C257.276142,38.5 257.5,38.7238576 257.5,39 C257.5,39.2454599 257.323125,39.4496084 257.089876,39.4919443 L257,39.5 L1,39.5 C0.723857625,39.5 0.5,39.2761424 0.5,39 C0.5,38.7545401 0.676875161,38.5503916 0.910124368,38.5080557 L1,38.5 L257,38.5 Z" id="Line-2-Copy-8" fill="#EDEDED"></path>
                    <path d="M257,76.5 C257.276142,76.5 257.5,76.7238576 257.5,77 C257.5,77.2454599 257.323125,77.4496084 257.089876,77.4919443 L257,77.5 L1,77.5 C0.723857625,77.5 0.5,77.2761424 0.5,77 C0.5,76.7545401 0.676875161,76.5503916 0.910124368,76.5080557 L1,76.5 L257,76.5 Z" id="Line-2-Copy-14" fill="#EDEDED"></path>
                    <path d="M257,25.5 C257.276142,25.5 257.5,25.7238576 257.5,26 C257.5,26.2454599 257.323125,26.4496084 257.089876,26.4919443 L257,26.5 L1,26.5 C0.723857625,26.5 0.5,26.2761424 0.5,26 C0.5,25.7545401 0.676875161,25.5503916 0.910124368,25.5080557 L1,25.5 L257,25.5 Z" id="Line-2-Copy-6" fill="#EDEDED"></path>
                    <path d="M257,63.5 C257.276142,63.5 257.5,63.7238576 257.5,64 C257.5,64.2454599 257.323125,64.4496084 257.089876,64.4919443 L257,64.5 L1,64.5 C0.723857625,64.5 0.5,64.2761424 0.5,64 C0.5,63.7545401 0.676875161,63.5503916 0.910124368,63.5080557 L1,63.5 L257,63.5 Z" id="Line-2-Copy-11" fill="#EDEDED"></path>
                    <path d="M257,101.5 C257.276142,101.5 257.5,101.723858 257.5,102 C257.5,102.24546 257.323125,102.449608 257.089876,102.491944 L257,102.5 L1,102.5 C0.723857625,102.5 0.5,102.276142 0.5,102 C0.5,101.75454 0.676875161,101.550392 0.910124368,101.508056 L1,101.5 L257,101.5 Z" id="Line-2-Copy-17" fill="#EDEDED"></path>
                    <path d="M257,13.5 C257.276142,13.5 257.5,13.7238576 257.5,14 C257.5,14.2454599 257.323125,14.4496084 257.089876,14.4919443 L257,14.5 L1,14.5 C0.723857625,14.5 0.5,14.2761424 0.5,14 C0.5,13.7545401 0.676875161,13.5503916 0.910124368,13.5080557 L1,13.5 L257,13.5 Z" id="Line-2-Copy-4" fill="#EDEDED"></path>
                    <path d="M257,51.5 C257.276142,51.5 257.5,51.7238576 257.5,52 C257.5,52.2454599 257.323125,52.4496084 257.089876,52.4919443 L257,52.5 L1,52.5 C0.723857625,52.5 0.5,52.2761424 0.5,52 C0.5,51.7545401 0.676875161,51.5503916 0.910124368,51.5080557 L1,51.5 L257,51.5 Z" id="Line-2-Copy-12" fill="#EDEDED"></path>
                    <path d="M257,89.5 C257.276142,89.5 257.5,89.7238576 257.5,90 C257.5,90.2454599 257.323125,90.4496084 257.089876,90.4919443 L257,90.5 L1,90.5 C0.723857625,90.5 0.5,90.2761424 0.5,90 C0.5,89.7545401 0.676875161,89.5503916 0.910124368,89.5080557 L1,89.5 L257,89.5 Z" id="Line-2-Copy-18" fill="#EDEDED"></path>
                    <path d="M44,0.5 C44.2454599,0.5 44.4496084,0.676875161 44.4919443,0.910124368 L44.5,1 L44.5,115 C44.5,115.276142 44.2761424,115.5 44,115.5 C43.7545401,115.5 43.5503916,115.323125 43.5080557,115.089876 L43.5,115 L43.5,1 C43.5,0.723857625 43.7238576,0.5 44,0.5 Z" id="Line-2-Copy-3" fill="#EDEDED"></path>
                    <path d="M86,0.5 C86.2454599,0.5 86.4496084,0.676875161 86.4919443,0.910124368 L86.5,1 L86.5,115 C86.5,115.276142 86.2761424,115.5 86,115.5 C85.7545401,115.5 85.5503916,115.323125 85.5080557,115.089876 L85.5,115 L85.5,1 C85.5,0.723857625 85.7238576,0.5 86,0.5 Z" id="Line-2-Copy-5" fill="#EDEDED"></path>
                    <path d="M9.75768014,76.3059966 C10.270516,76.3059966 10.6931873,76.6920368 10.7509524,77.1893755 L10.7576801,77.3059966 L10.7576801,108.807594 C10.7576801,109.359879 10.3099649,109.807594 9.75768014,109.807594 C9.24484431,109.807594 8.82217298,109.421554 8.76440788,108.924215 L8.75768014,108.807594 L8.75768014,77.3059966 C8.75768014,76.7537118 9.2053954,76.3059966 9.75768014,76.3059966 Z" id="Line" fill="#A5A5A5"></path>
                    <path d="M129,0.5 C129.24546,0.5 129.449608,0.676875161 129.491944,0.910124368 L129.5,1 L129.5,115 C129.5,115.276142 129.276142,115.5 129,115.5 C128.75454,115.5 128.550392,115.323125 128.508056,115.089876 L128.5,115 L128.5,1 C128.5,0.723857625 128.723858,0.5 129,0.5 Z" id="Line-2-Copy-7" fill="#EDEDED"></path>
                    <path d="M18.2683413,67.9675069 C18.7810907,67.9580949 19.2107758,68.3363129 19.2776587,68.8325077 L19.2865256,68.9489857 L19.5373789,82.6151199 C19.5475149,83.1673116 19.1080919,83.6231683 18.5559001,83.6333042 C18.0431507,83.6427162 17.6134656,83.2644982 17.5465827,82.7683034 L17.5377158,82.6518254 L17.2868625,68.9856912 C17.2767265,68.4334995 17.7161495,67.9776428 18.2683413,67.9675069 Z" id="Line" fill="#A5A5A5"></path>
                    <path d="M172,0.5 C172.24546,0.5 172.449608,0.676875161 172.491944,0.910124368 L172.5,1 L172.5,115 C172.5,115.276142 172.276142,115.5 172,115.5 C171.75454,115.5 171.550392,115.323125 171.508056,115.089876 L171.5,115 L171.5,1 C171.5,0.723857625 171.723858,0.5 172,0.5 Z" id="Line-2-Copy-9" fill="#EDEDED"></path>
                    <path d="M26.8032607,58.2389023 C27.3160568,58.232598 27.7435005,58.6133472 27.8074516,59.1099283 L27.8156304,59.2264567 L28.0664838,79.3782139 C28.0733582,79.9304558 27.6312505,80.3837092 27.0790085,80.3906628 C26.5662124,80.3969671 26.1387687,80.0162179 26.0748175,79.5196367 L26.0666387,79.4031084 L25.8157854,59.2513512 C25.808911,58.6991092 26.2510187,58.2458558 26.8032607,58.2389023 Z" id="Line" fill="#A5A5A5"></path>
                    <path d="M214,0.5 C214.24546,0.5 214.449608,0.676875161 214.491944,0.910124368 L214.5,1 L214.5,115 C214.5,115.276142 214.276142,115.5 214,115.5 C213.75454,115.5 213.550392,115.323125 213.508056,115.089876 L213.5,115 L213.5,1 C213.5,0.723857625 213.723858,0.5 214,0.5 Z" id="Line-2-Copy-10" fill="#EDEDED"></path>
                    <path d="M37.4040678,76.325191 C37.9168957,76.322359 38.3417041,76.7060463 38.40223,77.2030565 L38.4096052,77.3196385 L38.5266724,98.3990809 C38.5297234,98.9513572 38.0845011,99.4015516 37.5322248,99.404634 C37.0193969,99.407466 36.5945885,99.0237787 36.5340627,98.5267685 L36.5266875,98.4101865 L36.4096203,77.3307441 C36.4065693,76.7784678 36.8517916,76.3282734 37.4040678,76.325191 Z" id="Line" fill="#A5A5A5"></path>
                    <path d="M257,0.5 C257.24546,0.5 257.449608,0.676875161 257.491944,0.910124368 L257.5,1 L257.5,115 C257.5,115.276142 257.276142,115.5 257,115.5 C256.75454,115.5 256.550392,115.323125 256.508056,115.089876 L256.5,115 L256.5,1 C256.5,0.723857625 256.723858,0.5 257,0.5 Z" id="Line-2-Copy-13" fill="#EDEDED"></path>
                    <path d="M45.8623365,56.6350687 C46.375139,56.6292891 46.8021834,57.0104861 46.865614,57.507134 L46.8736707,57.6236709 L47.124524,79.6284632 C47.1308196,80.1807121 46.6882371,80.6335018 46.1359882,80.6398638 C45.6231857,80.6456434 45.1961413,80.2644464 45.1327107,79.7677985 L45.124654,79.6512616 L44.8738006,57.6464693 C44.867505,57.0942204 45.3100876,56.6414307 45.8623365,56.6350687 Z" id="Line" fill="#A5A5A5"></path>
                    <path d="M55.3913503,70.2612668 C55.9041529,70.2554872 56.3311973,70.6366842 56.3946279,71.1333321 L56.4026846,71.249869 L56.6535379,93.2546613 C56.6598335,93.8069102 56.217251,94.2596999 55.6650021,94.2660619 C55.1521996,94.2718414 54.7251552,93.8906444 54.6617246,93.3939966 L54.6536679,93.2774597 L54.4028145,71.2726674 C54.3965189,70.7204185 54.8391015,70.2676287 55.3913503,70.2612668 Z" id="Line" fill="#A5A5A5"></path>
                    <path d="M64.9134107,69.5266123 C65.4261601,69.5172004 65.8558452,69.8954184 65.9227281,70.3916131 L65.931595,70.5080911 L66.1824484,84.1742253 C66.1925843,84.7264171 65.7531613,85.1822737 65.2009695,85.1924096 C64.6882201,85.2018216 64.258535,84.8236036 64.1916521,84.3274088 L64.1827852,84.2109308 L63.9319319,70.5447966 C63.9217959,69.9926049 64.361219,69.5367482 64.9134107,69.5266123 Z" id="Line" fill="#A5A5A5"></path>
                    <path d="M83.4795977,53.7916181 C83.9923972,53.7855876 84.4196326,54.1665705 84.483312,54.6631866 L84.4914271,54.7797194 L84.7422804,75.8579942 C84.7488527,76.4102398 84.3064971,76.8632513 83.7542514,76.8698958 C83.2414519,76.8759264 82.8142166,76.4949434 82.7505371,75.9983274 L82.742422,75.8817946 L82.4915687,54.8035198 C82.4849964,54.2512742 82.9273521,53.7982627 83.4795977,53.7916181 Z" id="Line" fill="#A5A5A5"></path>
                    <path d="M93.0110948,55.7852289 C93.5239079,55.7804448 93.9501958,56.1624876 94.0126418,56.6592603 L94.0204674,56.7758129 L94.2713208,83.4131931 C94.2765216,83.9654534 93.8330423,84.4173649 93.280782,84.422611 C92.7679689,84.427395 92.3416811,84.0453522 92.2792351,83.5485795 L92.2714095,83.4320269 L92.0205561,56.7946467 C92.0153553,56.2423865 92.4588346,55.790475 93.0110948,55.7852289 Z" id="Line" fill="#A5A5A5"></path>
                    <path d="M102.531774,35.3507218 C103.044529,35.3417791 103.473987,35.7202556 103.540571,36.2164905 L103.549368,36.3329738 L103.800221,50.4623668 C103.810025,51.0145645 103.370328,51.4701567 102.81813,51.4801212 C102.305375,51.4890639 101.875918,51.1105875 101.809333,50.6143525 L101.800537,50.4978692 L101.549683,36.3684762 C101.539879,35.8162785 101.979577,35.3606863 102.531774,35.3507218 Z" id="Line" fill="#A5A5A5"></path>
                    <path d="M110.827686,37.4353896 C111.340522,37.4353896 111.763193,37.8214298 111.820958,38.3187684 L111.827686,38.4353896 L111.827686,51.8698944 C111.827686,52.4221791 111.379971,52.8698944 110.827686,52.8698944 C110.31485,52.8698944 109.892179,52.4838542 109.834414,51.9865155 L109.827686,51.8698944 L109.827686,38.4353896 C109.827686,37.8831048 110.275401,37.4353896 110.827686,37.4353896 Z" id="Line" fill="#A5A5A5"></path>
                    <path d="M119.092478,19.1079117 C119.605268,19.1011467 120.033062,19.4815017 120.097471,19.9780237 L120.105757,20.0945444 L120.356611,38.8565253 C120.363994,39.4087606 119.922305,39.8624214 119.370069,39.8698962 C118.857279,39.8766611 118.429485,39.4963062 118.365076,38.9997842 L118.356789,38.8832635 L118.105936,20.1212826 C118.098553,19.5690472 118.540242,19.1153865 119.092478,19.1079117 Z" id="Line" fill="#A5A5A5"></path>
                    <path d="M128.117571,22.3509055 C128.630314,22.3411634 129.060243,22.7191047 129.127445,23.2152563 L129.136387,23.3317286 L129.38724,36.534604 C129.397732,37.086789 128.958602,37.5429285 128.406417,37.55342 C127.893674,37.5631621 127.463745,37.1852208 127.396543,36.6890692 L127.387601,36.5725969 L127.136748,23.3697215 C127.126256,22.8175364 127.565386,22.3613969 128.117571,22.3509055 Z" id="Line" fill="#A5A5A5"></path>
                    <path d="M137.916435,34.0679774 C138.42927,34.0679774 138.851942,34.4540176 138.909707,34.9513563 L138.916435,35.0679774 L138.916435,52.2085525 C138.916435,52.7608373 138.468719,53.2085525 137.916435,53.2085525 C137.403599,53.2085525 136.980927,52.8225123 136.923162,52.3251736 L136.916435,52.2085525 L136.916435,35.0679774 C136.916435,34.5156927 137.36415,34.0679774 137.916435,34.0679774 Z" id="Line" fill="#A5A5A5"></path>
                    <path d="M146.184281,23.5999252 C146.69709,23.5946903 147.12372,23.9763506 147.186612,24.4730671 L147.194542,24.5896126 L147.445395,48.9106989 C147.451091,49.4629543 147.008017,49.9152633 146.455762,49.9210137 C145.942954,49.9262486 145.516323,49.5445883 145.453432,49.0478718 L145.445502,48.9313263 L145.194648,24.61024 C145.188952,24.0579846 145.632026,23.6056756 146.184281,23.5999252 Z" id="Line" fill="#A5A5A5"></path>
                    <path d="M155.974462,41.0296388 C156.487298,41.0296388 156.909969,41.415679 156.967735,41.9130176 L156.974462,42.0296388 L156.974462,54.0743672 C156.974462,54.626652 156.526747,55.0743672 155.974462,55.0743672 C155.461626,55.0743672 155.038955,54.688327 154.98119,54.1909883 L154.974462,54.0743672 L154.974462,42.0296388 C154.974462,41.477354 155.422178,41.0296388 155.974462,41.0296388 Z" id="Line" fill="#A5A5A5"></path>
                    <path d="M164.51379,31.0072734 C165.026598,31.012617 165.445266,31.4029959 165.497898,31.9009039 L165.503423,32.0175882 L165.25257,56.3386745 C165.246874,56.8909299 164.794565,57.3340037 164.242309,57.3283619 C163.729501,57.3230184 163.310833,56.9326394 163.258201,56.4347314 L163.252676,56.3180471 L163.503529,31.9969609 C163.509225,31.4447055 163.961534,31.0016316 164.51379,31.0072734 Z" id="Line" fill="#A5A5A5"></path>
                    <path d="M172.769469,18.392257 C173.282267,18.3860926 173.709604,18.7669614 173.773416,19.2635604 L173.781563,19.380091 L174.032416,39.995107 C174.039136,40.5473508 173.596901,41.0004806 173.044658,41.0072761 C172.53186,41.0134405 172.104523,40.6325718 172.04071,40.1359728 L172.032564,40.0194421 L171.781711,19.4044262 C171.774991,18.8521823 172.217225,18.3990526 172.769469,18.392257 Z" id="Line" fill="#A5A5A5"></path>
                    <path d="M243.769469,11.392257 C244.282267,11.3860926 244.709604,11.7669614 244.773416,12.2635604 L244.781563,12.380091 L245.032416,32.995107 C245.039136,33.5473508 244.596901,34.0004806 244.044658,34.0072761 C243.53186,34.0134405 243.104523,33.6325718 243.04071,33.1359728 L243.032564,33.0194421 L242.781711,12.4044262 C242.774991,11.8521823 243.217225,11.3990526 243.769469,11.392257 Z" id="Line-Copy-27" fill="#A5A5A5"></path>
                    <path d="M181.79267,18.8397367 C182.305407,18.8296405 182.735596,19.2072848 182.803141,19.7033899 L182.812163,19.8198559 L183.063017,32.5594725 C183.07389,33.1116503 182.635075,33.5680929 182.082898,33.5789657 C181.570161,33.5890619 181.139972,33.2114177 181.072427,32.7153126 L181.063404,32.5988465 L180.812551,19.8592299 C180.801678,19.3070522 181.240493,18.8506096 181.79267,18.8397367 Z" id="Line" fill="#A5A5A5"></path>
                    <path d="M252.79267,11.8397367 C253.305407,11.8296405 253.735596,12.2072848 253.803141,12.7033899 L253.812163,12.8198559 L254.063017,25.5594725 C254.07389,26.1116503 253.635075,26.5680929 253.082898,26.5789657 C252.570161,26.5890619 252.139972,26.2114177 252.072427,25.7153126 L252.063404,25.5988465 L251.812551,12.8592299 C251.801678,12.3070522 252.240493,11.8506096 252.79267,11.8397367 Z" id="Line-Copy-28" fill="#A5A5A5"></path>
                    <path d="M190.330857,27.7213309 C190.843665,27.7159954 191.270371,28.0975703 191.333362,28.5942742 L191.341316,28.7108181 L191.592169,52.5686456 C191.597976,53.1208998 191.154993,53.5732976 190.602738,53.5791607 C190.089931,53.5844962 189.663224,53.2029213 189.600233,52.7062174 L189.59228,52.5896735 L189.341426,28.731846 C189.33562,28.1795918 189.778603,27.727194 190.330857,27.7213309 Z" id="Line" fill="#A5A5A5"></path>
                    <path d="M234.330857,25.7213309 C234.843665,25.7159954 235.270371,26.0975703 235.333362,26.5942742 L235.341316,26.7108181 L235.592169,50.5686456 C235.597976,51.1208998 235.154993,51.5732976 234.602738,51.5791607 C234.089931,51.5844962 233.663224,51.2029213 233.600233,50.7062174 L233.59228,50.5896735 L233.341426,26.731846 C233.33562,26.1795918 233.778603,25.727194 234.330857,25.7213309 Z" id="Line-Copy-26" fill="#A5A5A5"></path>
                    <path d="M198.859221,11.6542381 C199.372025,11.6485763 199.79898,12.0298737 199.862293,12.5265365 L199.870323,12.6430752 L200.121176,35.1111263 C200.127342,35.6633767 199.684653,36.1160624 199.132403,36.1222918 C198.619599,36.1279536 198.192644,35.7466563 198.12933,35.2499935 L198.121301,35.1334547 L197.870447,12.6654036 C197.864282,12.1131533 198.306971,11.6604675 198.859221,11.6542381 Z" id="Line" fill="#A5A5A5"></path>
                    <path d="M208.381648,5.42739911 C208.894403,5.41845646 209.32386,5.79693289 209.390445,6.29316781 L209.399241,6.40965114 L209.650095,20.5390441 C209.659898,21.0912418 209.220201,21.546834 208.668003,21.5567986 C208.155248,21.5657412 207.725791,21.1872648 207.659207,20.6910299 L207.65041,20.5745465 L207.399556,6.44515356 C207.389753,5.89295583 207.82945,5.43736364 208.381648,5.42739911 Z" id="Line" fill="#A5A5A5"></path>
                    <path d="M217.179266,12.2628656 C217.692102,12.2628656 218.114773,12.6489058 218.172538,13.1462445 L218.179266,13.2628656 L218.179266,27.1606292 C218.179266,27.7129139 217.731551,28.1606292 217.179266,28.1606292 C216.66643,28.1606292 216.243759,27.774589 216.185994,27.2772503 L216.179266,27.1606292 L216.179266,13.2628656 C216.179266,12.7105809 216.626981,12.2628656 217.179266,12.2628656 Z" id="Line" fill="#A5A5A5"></path>
                    <path d="M226.719002,5.06478133 C227.231808,5.0703387 227.650316,5.46088862 227.702746,5.95881808 L227.708223,6.07550464 L227.457369,29.4700733 C227.451448,30.0223263 226.998958,30.4652154 226.446705,30.4593524 C225.933898,30.4537951 225.51539,30.0632451 225.462961,29.5653157 L225.457484,29.4486291 L225.708338,6.05406044 C225.714259,5.50180744 226.166749,5.05891837 226.719002,5.06478133 Z" id="Line" fill="#A5A5A5"></path>
                    <path d="M74.9519701,59.3507239 C75.4647776,59.3453884 75.8914843,59.7269633 75.9544752,60.2236672 L75.9624287,60.3402111 L76.2132821,84.1980386 C76.2190888,84.7502928 75.7761055,85.2026906 75.2238513,85.2085537 C74.7110438,85.2138892 74.284337,84.8323142 74.2213461,84.3356104 L74.2133926,84.2190664 L73.9625393,60.361239 C73.9567326,59.8089847 74.3997159,59.356587 74.9519701,59.3507239 Z" id="Line" fill="#A5A5A5"></path>
                    <path d="M257,114 C257.552285,114 258,114.447715 258,115 C258,115.512836 257.61396,115.935507 257.116621,115.993272 L257,116 L1,116 C0.44771525,116 1.13686838e-13,115.552285 1.13686838e-13,115 C1.13686838e-13,114.487164 0.38604019,114.064493 0.883378875,114.006728 L1,114 L257,114 Z" id="Line-2" fill="#D5D5D5"></path>
                    <path d="M1,0 C1.51283584,0 1.93550716,0.38604019 1.99327227,0.883378875 L2,1 L2,115 C2,115.552285 1.55228475,116 1,116 C0.487164161,116 0.0644928393,115.61396 0.00672773133,115.116621 L0,115 L0,1 C0,0.44771525 0.44771525,0 1,0 Z" id="Line-2-Copy" fill="#D5D5D5"></path>
                </g>
                <rect id="Rectangle" fill="#4B9EDD" x="7.5" y="81.7069551" width="4.51536029" height="12.5079872" rx="2.25768014"></rect>
                <rect id="Rectangle" fill="#FF6900" x="16.0290139" y="73.3682969" width="4.51536029" height="12.5079872" rx="2.25768014"></rect>
                <rect id="Rectangle" fill="#4B9EDD" x="24.5580278" y="63.6398624" width="4.51536029" height="12.5079872" rx="2.25768014"></rect>
                <rect id="Rectangle" fill="#FF6900" x="35.0870416" y="71.3012043" width="4.51536029" height="12.5079872" rx="2.25768014"></rect>
                <rect id="Rectangle" fill="#4B9EDD" x="43.6160555" y="62.0360285" width="4.51536029" height="12.5079872" rx="2.25768014"></rect>
                <rect id="Rectangle" fill="#FF6900" x="53.1450694" y="75.6622266" width="4.51536029" height="12.5079872" rx="2.25768014"></rect>
                <rect id="Rectangle" fill="#4B9EDD" x="62.6740833" y="74.9274023" width="4.51536029" height="12.5079872" rx="2.25768014"></rect>
                <rect id="Rectangle" fill="#4B9EDD" x="81.2338177" y="59.1925781" width="4.51536029" height="12.5079872" rx="2.25768014"></rect>
                <rect id="Rectangle" fill="#FF6900" x="90.7628316" y="61.1861883" width="4.51536029" height="12.5079872" rx="2.25768014"></rect>
                <rect id="Rectangle" fill="#4B9EDD" x="100.291846" y="40.7516835" width="4.51536029" height="12.5079872" rx="2.25768014"></rect>
                <rect id="Rectangle" fill="#4B9EDD" x="108.820859" y="34.2660605" width="4.51536029" height="12.5079872" rx="2.25768014"></rect>
                <rect id="Rectangle" fill="#4B9EDD" x="117.349873" y="24.508872" width="4.51536029" height="12.5079872" rx="2.25768014"></rect>
                <rect id="Rectangle" fill="#4B9EDD" x="125.878887" y="27.7516835" width="4.51536029" height="12.5079872" rx="2.25768014"></rect>
                <rect id="Rectangle" fill="#FF6900" x="135.407901" y="31.3619071" width="4.51536029" height="12.5079872" rx="2.25768014"></rect>
                <rect id="Rectangle" fill="#4B9EDD" x="143.936915" y="29.0008848" width="4.51536029" height="12.5079872" rx="2.25768014"></rect>
                <rect id="Rectangle" fill="#FF6900" x="153.465929" y="38.7868273" width="4.51536029" height="12.5079872" rx="2.25768014"></rect>
                <rect id="Rectangle" fill="#4B9EDD" x="161.994943" y="29.2277218" width="4.51536029" height="12.5079872" rx="2.25768014"></rect>
                <rect id="Rectangle" fill="#4B9EDD" x="170.523957" y="23.793217" width="4.51536029" height="12.5079872" rx="2.25768014"></rect>
                <rect id="Rectangle-Copy-27" fill="#4B9EDD" x="241.523957" y="16.793217" width="4.51536029" height="12.5079872" rx="2.25768014"></rect>
                <rect id="Rectangle" fill="#4B9EDD" x="179.554677" y="24.2405014" width="4.51536029" height="12.5079872" rx="2.25768014"></rect>
                <rect id="Rectangle-Copy-28" fill="#4B9EDD" x="250.554677" y="17.2405014" width="4.51536029" height="12.5079872" rx="2.25768014"></rect>
                <rect id="Rectangle" fill="#FF6900" x="188.083691" y="33.1222905" width="4.51536029" height="12.5079872" rx="2.25768014"></rect>
                <rect id="Rectangle-Copy-26" fill="#FF6900" x="232.083691" y="31.1222905" width="4.51536029" height="12.5079872" rx="2.25768014"></rect>
                <rect id="Rectangle" fill="#4B9EDD" x="196.612705" y="17.0551979" width="4.51536029" height="12.5079872" rx="2.25768014"></rect>
                <rect id="Rectangle" fill="#4B9EDD" x="206.141719" y="10.8283608" width="4.51536029" height="12.5079872" rx="2.25768014"></rect>
                <rect id="Rectangle" fill="#4B9EDD" x="214.670733" y="9.55679532" width="4.51536029" height="12.5079872" rx="2.25768014"></rect>
                <rect id="Rectangle" fill="#4B9EDD" x="224.199747" y="2.35871225" width="4.51536029" height="12.5079872" rx="2.25768014"></rect>
                <rect id="Rectangle" fill="#4B9EDD" x="72.7048039" y="64.7516835" width="4.51536029" height="12.5079872" rx="2.25768014"></rect>
            </g>
        </g>
    </g>
</svg>