<?xml version="1.0" encoding="UTF-8"?>
<svg width="40px" height="33px" viewBox="0 0 40 33" version="1.1" xmlns="http://www.w3.org/2000/svg" xmlns:xlink="http://www.w3.org/1999/xlink">
    <title>callout 3 blue bottom-right</title>
    <defs>
        <rect id="path-1" x="0" y="0" width="40" height="33"></rect>
    </defs>
    <g id="Page-1" stroke="none" stroke-width="1" fill="none" fill-rule="evenodd">
        <g id="Artboard" transform="translate(-2384.000000, -374.000000)">
            <g id="callout-3-blue-bottom-right" transform="translate(2384.000000, 374.000000)">
                <mask id="mask-2" fill="white">
                    <use xlink:href="#path-1"></use>
                </mask>
                <g id="Mask"></g>
                <g id="Group" mask="url(#mask-2)">
                    <g transform="translate(-205.052224, -45.053719)">
                        <path d="M221.282841,62.9790564 L26.2392778,62.9790564 C17.1459882,62.9790564 9.77444144,55.6073162 9.77444144,46.513662 L9.77444144,26.1670178 C9.77444144,17.0733636 17.1459882,9.70152131 26.2392778,9.70152131 L221.282841,9.70152131 C230.37613,9.70152131 237.747677,17.0733636 237.747677,26.1670178 L237.747677,46.513662 C237.747677,55.6073162 230.37613,62.9790564 221.282841,62.9790564" id="Fill-1586" fill="#1BA0E3"></path>
                        <path d="M32.4661713,15.3749748 C23.7815952,15.3749748 16.7161498,22.4407036 16.7161498,31.1257299 L16.7161498,49.7173778 C16.7161498,58.402302 23.7815952,65.4681329 32.4661713,65.4681329 L227.509836,65.4681329 C236.194514,65.4681329 243.25996,58.402302 243.25996,49.7173778 L243.25996,31.1257299 C243.25996,22.4407036 236.194514,15.3749748 227.509836,15.3749748 L32.4661713,15.3749748 Z M32.4661713,66.8976156 C22.9934713,66.8976156 15.2867244,59.1905596 15.2867244,49.7173778 L15.2867244,31.1257299 C15.2867244,21.652446 22.9934713,13.9454921 32.4661713,13.9454921 L227.509836,13.9454921 C236.982638,13.9454921 244.689385,21.652446 244.689385,31.1257299 L244.689385,49.7173778 C244.689385,59.1905596 236.982638,66.8976156 227.509836,66.8976156 L32.4661713,66.8976156 Z" id="Fill-1588" fill="#1B1B3E"></path>
                        <path d="M221.037051,73.834691 C220.924331,73.834691 220.812019,73.7908875 220.727478,73.7037912 L219.051681,71.9773845 C218.885664,71.8063571 218.889646,71.5332238 219.060666,71.3671996 C219.232299,71.2011754 219.504809,71.2053618 219.670827,71.3761849 L221.346624,73.1025916 C221.512641,73.2737211 221.508761,73.5467523 221.337639,73.7127765 C221.253609,73.794257 221.145483,73.834691 221.037051,73.834691" id="Fill-1590" fill="#1B1B3E"></path>
                        <path d="M222.648942,73.834691 C222.54051,73.834691 222.432385,73.794257 222.348355,73.7127765 C222.177232,73.5467523 222.173352,73.2737211 222.33937,73.1025916 L224.015167,71.3761849 C224.181184,71.2053618 224.454205,71.2011754 224.625225,71.3671996 C224.796348,71.5332238 224.80033,71.8063571 224.634312,71.9773845 L222.958515,73.7037912 C222.873975,73.7908875 222.761561,73.834691 222.648942,73.834691" id="Fill-1592" fill="#1B1B3E"></path>
                        <path d="M222.648942,74.7803653 C222.761663,74.7803653 222.873975,74.8241687 222.958515,74.9111629 L224.634312,76.6375696 C224.80033,76.8088012 224.796348,77.0818324 224.625225,77.2478566 C224.453694,77.4138808 224.181184,77.4096945 224.015167,77.2388713 L222.33937,75.5124646 C222.173352,75.3413351 222.177232,75.0683039 222.348355,74.9022797 C222.432282,74.8207992 222.54051,74.7803653 222.648942,74.7803653" id="Fill-1594" fill="#1B1B3E"></path>
                        <path d="M221.037051,74.7803653 C221.145483,74.7803653 221.253609,74.8207992 221.337639,74.9022797 C221.508761,75.0683039 221.512641,75.3413351 221.346624,75.5124646 L219.670827,77.2388713 C219.504809,77.4096945 219.231687,77.4138808 219.060666,77.2478566 C218.889646,77.0818324 218.885664,76.8088012 219.051681,76.6375696 L220.727478,74.9111629 C220.812019,74.8241687 220.924331,74.7803653 221.037051,74.7803653" id="Fill-1596" fill="#1B1B3E"></path>
                    </g>
                </g>
            </g>
        </g>
    </g>
</svg>