<?xml version="1.0" encoding="UTF-8"?>
<svg width="40px" height="32px" viewBox="0 0 40 32" version="1.1" xmlns="http://www.w3.org/2000/svg" xmlns:xlink="http://www.w3.org/1999/xlink">
    <title>callout 3 navy inverted top-right</title>
    <defs>
        <rect id="path-1" x="0" y="0" width="40" height="32"></rect>
    </defs>
    <g id="Page-1" stroke="none" stroke-width="1" fill="none" fill-rule="evenodd">
        <g id="Artboard" transform="translate(-1960.000000, -752.000000)">
            <g id="callout-3-navy-inverted-top-right" transform="translate(1960.000000, 752.000000)">
                <mask id="mask-2" fill="white">
                    <use xlink:href="#path-1"></use>
                </mask>
                <g id="Mask"></g>
                <g id="Group" mask="url(#mask-2)">
                    <g transform="translate(-205.052224, -0.053719)">
                        <path d="M26.2392778,62.9790564 C17.1459882,62.9790564 9.77444144,55.6073162 9.77444144,46.513662 L9.77444144,26.1670178 C9.77444144,17.0733636 17.1459882,9.70152131 26.2392778,9.70152131 L221.282841,9.70152131 C230.37613,9.70152131 237.747677,17.0733636 237.747677,26.1670178 L237.747677,46.513662 C237.747677,55.6073162 230.37613,62.9790564 221.282841,62.9790564 L26.2392778,62.9790564 Z" id="Fill-1586" fill="#FFFFFF"></path>
                        <path d="M32.4661713,15.3749748 C23.7815952,15.3749748 16.7161498,22.4407036 16.7161498,31.1257299 L16.7161498,49.7173778 C16.7161498,58.402302 23.7815952,65.4681329 32.4661713,65.4681329 L227.509836,65.4681329 C236.194514,65.4681329 243.25996,58.402302 243.25996,49.7173778 L243.25996,31.1257299 C243.25996,22.4407036 236.194514,15.3749748 227.509836,15.3749748 L32.4661713,15.3749748 Z M32.4661713,66.8976156 C22.9934713,66.8976156 15.2867244,59.1905596 15.2867244,49.7173778 L15.2867244,31.1257299 C15.2867244,21.652446 22.9934713,13.9454921 32.4661713,13.9454921 L227.509836,13.9454921 C236.982638,13.9454921 244.689385,21.652446 244.689385,31.1257299 L244.689385,49.7173778 C244.689385,59.1905596 236.982638,66.8976156 227.509836,66.8976156 L32.4661713,66.8976156 Z" id="Fill-1588" fill="#1BA0E3"></path>
                        <path d="M238.500239,8.06453898 C236.803613,8.06453898 235.428097,6.68907031 235.428097,4.99227434 C235.428097,3.29558048 236.803613,1.92000969 238.500239,1.92000969 C240.196967,1.92000969 241.57238,3.29558048 241.57238,4.99227434 C241.57238,6.68907031 240.196967,8.06453898 238.500239,8.06453898 Z" id="Fill-1610" fill="#FFFFFF"></path>
                        <path d="M237.466274,0.942437525 C236.032152,0.942437525 234.865333,2.10930383 234.865333,3.54348341 C234.865333,4.97766298 236.032152,6.14442719 237.466274,6.14442719 C238.900498,6.14442719 240.067216,4.97766298 240.067216,3.54348341 C240.067216,2.10930383 238.900498,0.942437525 237.466274,0.942437525 M237.466274,7.08696682 C235.512454,7.08696682 233.922933,5.49738205 233.922933,3.54348341 C233.922933,1.58948266 235.512454,0 237.466274,0 C239.420094,0 241.009718,1.58948266 241.009718,3.54348341 C241.009718,5.49738205 239.420094,7.08696682 237.466274,7.08696682" id="Fill-1612" fill="#1BA0E3"></path>
                    </g>
                </g>
            </g>
        </g>
    </g>
</svg>