<?xml version="1.0" encoding="utf-8"?>
<!-- Generator: Adobe Illustrator 26.2.1, SVG Export Plug-In . SVG Version: 6.00 Build 0)  -->
<svg version="1.1" id="Layer_1" xmlns="http://www.w3.org/2000/svg" xmlns:xlink="http://www.w3.org/1999/xlink" x="0px" y="0px"
	 viewBox="0 0 66 64" style="enable-background:new 0 0 66 64;" xml:space="preserve">
<style type="text/css">
	.st0{fill:none;stroke:#2B293A;stroke-width:1.535;stroke-linecap:round;}
	.st1{fill:none;stroke:#FFFFFF;stroke-width:1.535;stroke-linecap:round;stroke-linejoin:round;}
	.st2{fill:none;stroke:#1B1B3C;stroke-width:1.3725;stroke-linecap:round;stroke-linejoin:round;}
</style>
<path class="st0" d="M53.5,36.2c6.1-2.6,10.4-8.8,10.4-15.9C63.9,10.8,56.1,3,46.6,3s-17.3,7.8-17.3,17.3c0,2,0.3,3.8,1,5.7"/>
<path class="st1" d="M29.5,6.7C26.6,4.4,23,3,19,3C9.5,3,1.8,10.8,1.8,20.3S9.5,37.6,19,37.6c5.7,0,10.6-2.7,13.8-6.9"/>
<path class="st0" d="M15.6,41.9c0,0.4-0.1,1-0.1,1.4c0,9.5,7.8,17.3,17.3,17.3s17.3-7.8,17.3-17.3c0-8.6-6.3-15.8-14.7-17.1"/>
<path class="st1" d="M15.5,24.9h4.6c1.3,0,2.3-1,2.3-2.3c0-1.3-1-2.3-2.3-2.3h-2.3c-1.3,0-2.3-1-2.3-2.3c0-1.3,1-2.3,2.3-2.3h4.6"/>
<line class="st1" x1="19" y1="27.2" x2="19" y2="24.9"/>
<line class="st1" x1="19" y1="15.7" x2="19" y2="13.4"/>
<line class="st0" x1="46.6" y1="21.5" x2="46.6" y2="26.2"/>
<line class="st2" x1="43.2" y1="21.4" x2="50.1" y2="21.4"/>
<polyline class="st0" points="43.2,14.5 46.6,21.4 50.1,14.5 "/>
<line class="st0" x1="32.8" y1="43.3" x2="27" y2="43.3"/>
<path class="st0" d="M37.4,39.9c-1-1.4-2.4-2.3-4-2.3c-2.8,0-5.1,2.6-5.1,5.8c0,3.2,2.3,5.8,5.1,5.8c1.6,0,3.2-0.9,4-2.3"/>
</svg>
