<svg xmlns="http://www.w3.org/2000/svg" width="66" height="64">
  <g fill="none" fill-rule="evenodd" stroke-width="1.535">
    <g stroke="#2B293A">
      <path d="M1 56.5h63.318H1zM32.658 1l31.659 15.022v7.152H1v-7.152z"/>
    </g>
    <path stroke="#2B293A" d="M16.83 29.51v20.654V29.51zm-6.332 20.654V29.51v20.654zM7.332 29.51h12.663v-6.335H7.332zM7.332 56.5h12.663v-6.336H7.332zM35.824 29.51v20.654V29.51zm-6.331 20.654V29.51v20.654zM26.326 29.51H38.99v-6.335H26.326zM26.326 56.5H38.99v-6.336H26.326zM54.82 29.51v20.654V29.51zm-6.332 20.654V29.51v20.654zM45.321 29.51h12.664v-6.335H45.321zM45.321 56.5h12.664v-6.336H45.321z"/>
    <path stroke="#FF6900" d="M15.246 16.762H50.07 15.246z"/>
    <path stroke="#2B293A" d="M1 62.835h63.318H1z"/>
  </g>
</svg>
