<?xml version="1.0" encoding="utf-8"?>
<!-- Generator: Adobe Illustrator 26.2.1, SVG Export Plug-In . SVG Version: 6.00 Build 0)  -->
<svg version="1.1" id="Layer_1" xmlns="http://www.w3.org/2000/svg" xmlns:xlink="http://www.w3.org/1999/xlink" x="0px" y="0px"
	 viewBox="0 0 66 64" style="enable-background:new 0 0 66 64;" xml:space="preserve">
<style type="text/css">
	.st0{fill:none;stroke:#2B293A;stroke-width:1.535;stroke-linecap:round;}
	.st1{fill:none;stroke:#FF6900;stroke-width:1.535;stroke-linecap:round;stroke-linejoin:round;}
</style>
<circle class="st0" cx="21.3" cy="22.6" r="17.6"/>
<g>
	<path class="st0" d="M48.2,36.7h-4.7c-1.3,0-2.3,1-2.3,2.3s1,2.3,2.3,2.3h2.3c1.3,0,2.3,1,2.3,2.3s-1,2.3-2.3,2.3h-4.7"/>
	<line class="st0" x1="44.7" y1="34.3" x2="44.7" y2="36.7"/>
	<line class="st0" x1="44.7" y1="46" x2="44.7" y2="48.4"/>
</g>
<polyline class="st1" points="62.3,14.4 57.6,21.5 52.9,14.4 "/>
<path class="st1" d="M38.9,2.7h9.4c5.2,0,9.4,4.2,9.4,9.4v9.4"/>
<polyline class="st1" points="3.8,49.6 8.4,42.5 13.1,49.6 "/>
<path class="st1" d="M27.2,61.3h-9.4c-5.2,0-9.4-4.2-9.4-9.4v-9.4"/>
<path class="st0" d="M27.4,44c1.3,8.4,8.5,14.9,17.3,14.9c9.7,0,17.6-7.9,17.6-17.6s-7.9-17.6-17.6-17.6c-0.4,0-0.8,0-1.2,0.1"/>
<line class="st0" x1="21.3" y1="35.5" x2="21.3" y2="35.5"/>
<line class="st0" x1="8.4" y1="22.6" x2="8.4" y2="22.6"/>
<line class="st0" x1="34.2" y1="22.6" x2="34.2" y2="22.6"/>
<polyline class="st0" points="21.3,9.8 21.3,22.6 29.5,27.4 "/>
</svg>
