<svg data-name="Group 3" xmlns="http://www.w3.org/2000/svg" width="37" height="37">
  <defs>
    <clipPath id="a">
      <path data-name="Clip 2" d="M0 0h37v37H0z" fill="none"/>
    </clipPath>
  </defs>
  <path data-name="Clip 2" d="M0 0h37v37H0z" fill="none"/>
  <g data-name="Group 3" clip-path="url(#a)">
    <path data-name="Fill 1" d="M18.5 37A18.494 18.494 0 015.419 5.419 18.5 18.5 0 1125.7 35.546 18.372 18.372 0 0118.5 37zm0-14.931a10.329 10.329 0 00-5.807 1.773 10.425 10.425 0 00-3.766 4.572 10.31 10.31 0 00-.769 3.04.893.893 0 01-.062.255 16.774 16.774 0 0020.806 0 .867.867 0 01-.063-.255 10.31 10.31 0 00-.769-3.04 10.429 10.429 0 00-5.529-5.53 10.328 10.328 0 00-4.041-.815zm0-16.193a7.9 7.9 0 013.588 14.941 12.2 12.2 0 018.4 9.473A16.817 16.817 0 101.679 18.5a16.714 16.714 0 004.837 11.79 12.193 12.193 0 018.4-9.473A7.9 7.9 0 0118.5 5.876zm0 1.789a6.088 6.088 0 102.378.48 6.066 6.066 0 00-2.378-.48z" fill="#fff"/>
  </g>
</svg>
