<?xml version="1.0" encoding="UTF-8"?>
<svg width="52px" height="63px" viewBox="0 0 52 63" version="1.1" xmlns="http://www.w3.org/2000/svg" xmlns:xlink="http://www.w3.org/1999/xlink">
    <title>Group 12</title>
    <g id="Page-1" stroke="none" stroke-width="1" fill="none" fill-rule="evenodd" stroke-linecap="round" stroke-linejoin="round">
        <g id="Artboard" transform="translate(-1067.000000, -1998.000000)" stroke-width="1.704">
            <g id="Group-12" transform="translate(1068.000000, 1999.000000)">
                <line x1="40.5736" y1="54.971" x2="37.9556" y2="54.971" id="Stroke-1" stroke="#FF6900"></line>
                <line x1="23.5586" y1="49.7357" x2="18.3236" y2="49.7357" id="Stroke-2" stroke="#FF6900"></line>
                <g id="Group-11" stroke="#1B1B3E">
                    <path d="M28.794,54.971 L2.617,54.971 C1.171,54.971 0,53.799 0,52.353 L0,2.617 C0,1.172 1.171,0 2.617,0 L39.265,0 C40.71,0 41.882,1.172 41.882,2.617 L41.882,20.941" id="Stroke-3"></path>
                    <path d="M28.794,57.5887 C28.794,59.0347 29.966,60.2067 31.412,60.2067 L47.118,60.2067 C48.563,60.2067 49.735,59.0347 49.735,57.5887 L49.735,23.5587 C49.735,22.1137 48.563,20.9407 47.118,20.9407 L31.412,20.9407 C29.966,20.9407 28.794,22.1137 28.794,23.5587 L28.794,57.5887 Z" id="Stroke-5"></path>
                    <line x1="13.0879" y1="7.8528" x2="7.8529" y2="13.0878" id="Stroke-7"></line>
                    <line x1="20.941" y1="7.8528" x2="7.853" y2="20.9408" id="Stroke-9"></line>
                </g>
            </g>
        </g>
    </g>
</svg>