<?xml version="1.0" encoding="utf-8"?>
<!-- Generator: Adobe Illustrator 26.2.1, SVG Export Plug-In . SVG Version: 6.00 Build 0)  -->
<svg version="1.1" id="Layer_1" xmlns="http://www.w3.org/2000/svg" xmlns:xlink="http://www.w3.org/1999/xlink" x="0px" y="0px"
	 viewBox="0 0 116.6 116.6" style="enable-background:new 0 0 116.6 116.6;" xml:space="preserve">
<style type="text/css">
	.st0{fill:none;stroke:#1B1B3E;stroke-width:3.0071;stroke-linecap:round;stroke-linejoin:round;}
	.st1{fill:none;stroke:#FF6900;stroke-width:3.0071;stroke-linecap:round;stroke-linejoin:round;}
</style>
<path class="st0" d="M79.3,85.6H37.3c-3.5,0-6.3-2.8-6.3-6.3V37.3c0-3.5,2.8-6.3,6.3-6.3h42.1c3.5,0,6.3,2.8,6.3,6.3v42.1
	C85.6,82.8,82.8,85.6,79.3,85.6z"/>
<polyline class="st1" points="43.6,68.8 52,47.8 60.4,68.8 "/>
<line class="st1" x1="46.1" y1="62.5" x2="57.9" y2="62.5"/>
<line class="st1" x1="68.8" y1="47.8" x2="68.8" y2="68.8"/>
<polyline class="st0" points="35.2,104.6 43.6,104.6 43.6,85.6 "/>
<polyline class="st0" points="81.4,104.6 73,104.6 73,85.6 "/>
<circle class="st0" cx="87.7" cy="104.6" r="6.3"/>
<circle class="st0" cx="28.8" cy="104.6" r="6.3"/>
<circle class="st0" cx="58.3" cy="108.8" r="6.3"/>
<line class="st0" x1="58.3" y1="85.6" x2="58.3" y2="102.5"/>
<polyline class="st0" points="35.2,12 43.6,12 43.6,31 "/>
<polyline class="st0" points="81.4,12 73,12 73,31 "/>
<circle class="st0" cx="87.7" cy="12" r="6.3"/>
<circle class="st0" cx="28.8" cy="12" r="6.3"/>
<circle class="st0" cx="58.3" cy="7.8" r="6.3"/>
<line class="st0" x1="58.3" y1="31" x2="58.3" y2="14.1"/>
<polyline class="st0" points="12,35.2 12,43.6 31,43.6 "/>
<polyline class="st0" points="12,81.4 12,73 31,73 "/>
<circle class="st0" cx="12" cy="87.7" r="6.3"/>
<circle class="st0" cx="12" cy="28.8" r="6.3"/>
<circle class="st0" cx="7.8" cy="58.3" r="6.3"/>
<line class="st0" x1="31" y1="58.3" x2="14.1" y2="58.3"/>
<polyline class="st0" points="104.6,35.2 104.6,43.6 85.6,43.6 "/>
<polyline class="st0" points="104.6,81.4 104.6,73 85.6,73 "/>
<circle class="st0" cx="104.6" cy="87.7" r="6.3"/>
<circle class="st0" cx="104.6" cy="28.8" r="6.3"/>
<circle class="st0" cx="108.8" cy="58.3" r="6.3"/>
<line class="st0" x1="85.6" y1="58.3" x2="102.5" y2="58.3"/>
</svg>
