<?xml version="1.0" encoding="UTF-8"?>
<svg width="63px" height="63px" viewBox="0 0 63 63" version="1.1" xmlns="http://www.w3.org/2000/svg" xmlns:xlink="http://www.w3.org/1999/xlink">
    <title>Group 15</title>
    <g id="Page-1" stroke="none" stroke-width="1" fill="none" fill-rule="evenodd" stroke-linecap="round" stroke-linejoin="round">
        <g id="Artboard" transform="translate(-1117.000000, -1770.000000)" stroke-width="1.704">
            <g id="Group-15" transform="translate(1118.000000, 1771.000000)">
                <path d="M28.8987,32.512 C28.8987,33.177 28.3597,33.716 27.6947,33.716 C27.0297,33.716 26.4907,33.177 26.4907,32.512 C26.4907,31.847 27.0297,31.308 27.6947,31.308 C28.3597,31.308 28.8987,31.847 28.8987,32.512 Z" id="Stroke-1" stroke="#1B1B3E"></path>
                <path d="M47.278,12.9286 C42.266,7.9166 35.342,4.8166 27.695,4.8166 C12.399,4.8166 0,17.2166 0,32.5116 C0,47.8076 12.399,60.2066 27.695,60.2066 C42.99,60.2066 55.39,47.8076 55.39,32.5116 C55.39,26.6046 53.534,21.1326 50.382,16.6366" id="Stroke-3" stroke="#1B1B3E"></path>
                <path d="M40.4663,19.7403 C37.1973,16.4713 32.6823,14.4503 27.6943,14.4503 C17.7193,14.4503 9.6323,22.5363 9.6323,32.5123 C9.6323,42.4873 17.7193,50.5743 27.6943,50.5743 C37.6703,50.5743 45.7563,42.4873 45.7563,32.5123 C45.7563,29.2743 44.8943,26.2433 43.4023,23.6163" id="Stroke-5" stroke="#1B1B3E"></path>
                <path d="M33.6548,26.5518 C32.1298,25.0268 30.0218,24.0828 27.6948,24.0828 C23.0398,24.0828 19.2658,27.8568 19.2658,32.5118 C19.2658,37.1668 23.0398,40.9408 27.6948,40.9408 C32.3498,40.9408 36.1238,37.1668 36.1238,32.5118 C36.1238,32.0068 36.0708,31.5138 35.9858,31.0328" id="Stroke-7" stroke="#1B1B3E"></path>
                <line x1="56.5938" y1="3.6128" x2="27.6948" y2="32.5118" id="Stroke-9" stroke="#FF6900"></line>
                <polyline id="Stroke-11" stroke="#FF6900" points="55.3896 4.817 60.2066 7.225 55.3896 12.042 48.1646 12.042"></polyline>
                <polyline id="Stroke-13" stroke="#FF6900" points="55.3896 4.817 52.9816 0 48.1646 4.817 48.1646 12.042"></polyline>
            </g>
        </g>
    </g>
</svg>