<?xml version="1.0" encoding="UTF-8"?>
<svg width="40px" height="32px" viewBox="0 0 40 32" version="1.1" xmlns="http://www.w3.org/2000/svg" xmlns:xlink="http://www.w3.org/1999/xlink">
    <title>callout 3 blue inverted top-left</title>
    <defs>
        <rect id="path-1" x="0" y="0" width="40" height="32"></rect>
    </defs>
    <g id="Page-1" stroke="none" stroke-width="1" fill="none" fill-rule="evenodd">
        <g id="Artboard" transform="translate(-1755.000000, -297.000000)">
            <g id="callout-3-blue-inverted-top-left" transform="translate(1755.000000, 297.000000)">
                <mask id="mask-2" fill="white">
                    <use xlink:href="#path-1"></use>
                </mask>
                <g id="Mask"></g>
                <g id="Group" mask="url(#mask-2)">
                    <g transform="translate(-0.052224, -0.053719)">
                        <path d="M26.2392778,62.9790564 C17.1459882,62.9790564 9.77444144,55.6073162 9.77444144,46.513662 L9.77444144,26.1670178 C9.77444144,17.0733636 17.1459882,9.70152131 26.2392778,9.70152131 L221.282841,9.70152131 C230.37613,9.70152131 237.747677,17.0733636 237.747677,26.1670178 L237.747677,46.513662 C237.747677,55.6073162 230.37613,62.9790564 221.282841,62.9790564 L26.2392778,62.9790564 Z" id="Fill-1586" fill="#1BA0E3"></path>
                        <path d="M32.4661713,15.3749748 C23.7815952,15.3749748 16.7161498,22.4407036 16.7161498,31.1257299 L16.7161498,49.7173778 C16.7161498,58.402302 23.7815952,65.4681329 32.4661713,65.4681329 L227.509836,65.4681329 C236.194514,65.4681329 243.25996,58.402302 243.25996,49.7173778 L243.25996,31.1257299 C243.25996,22.4407036 236.194514,15.3749748 227.509836,15.3749748 L32.4661713,15.3749748 Z M32.4661713,66.8976156 C22.9934713,66.8976156 15.2867244,59.1905596 15.2867244,49.7173778 L15.2867244,31.1257299 C15.2867244,21.652446 22.9934713,13.9454921 32.4661713,13.9454921 L227.509836,13.9454921 C236.982638,13.9454921 244.689385,21.652446 244.689385,31.1257299 L244.689385,49.7173778 C244.689385,59.1905596 236.982638,66.8976156 227.509836,66.8976156 L32.4661713,66.8976156 Z" id="Fill-1588" fill="#FFFFFF"></path>
                        <path d="M6.84359868,4.03224397 C6.73087827,4.03224397 6.61856628,3.98833843 6.53402598,3.90134419 L4.85822891,2.17493751 C4.69221136,2.00380801 4.69619333,1.73077681 4.86721387,1.5646505 C5.03884702,1.3986263 5.31135676,1.40291475 5.47737431,1.57373793 L7.15317137,3.3000425 C7.31918892,3.471172 7.31530905,3.74430531 7.14418641,3.91032951 C7.06015662,3.99181003 6.9520308,4.03224397 6.84359868,4.03224397" id="Fill-1598" fill="#FFFFFF"></path>
                        <path d="M8.45549022,4.03224397 C8.34705809,4.03224397 8.23883017,3.99181003 8.15490248,3.91032951 C7.98377984,3.74430531 7.97989997,3.471172 8.14591752,3.3000425 L9.82171458,1.57373793 C9.98773213,1.40291475 10.2607524,1.3986263 10.4317729,1.5646505 C10.6028956,1.73077681 10.6067754,2.00380801 10.44086,2.17493751 L8.76506291,3.90134419 C8.68052261,3.98833843 8.56810852,4.03224397 8.45549022,4.03224397" id="Fill-1600" fill="#FFFFFF"></path>
                        <path d="M8.45549022,4.97791825 C8.56821062,4.97791825 8.68052261,5.02172168 8.76506291,5.10871591 L10.44086,6.8351226 C10.6068775,7.0062521 10.6028956,7.2793854 10.4317729,7.4454096 C10.2602419,7.61143381 9.98773213,7.60724747 9.82171458,7.43642428 L8.14591752,5.7100176 C7.97989997,5.5388881 7.98377984,5.26585691 8.15490248,5.09973059 C8.23883017,5.01835219 8.34705809,4.97791825 8.45549022,4.97791825" id="Fill-1602" fill="#FFFFFF"></path>
                        <path d="M6.84359868,4.97791825 C6.9520308,4.97791825 7.06015662,5.01835219 7.14418641,5.09973059 C7.31530905,5.26585691 7.31918892,5.5388881 7.15317137,5.7100176 L5.47737431,7.43642428 C5.31135676,7.60724747 5.03823441,7.61143381 4.86721387,7.4454096 C4.69619333,7.2793854 4.69221136,7.0062521 4.85822891,6.8351226 L6.53402598,5.10871591 C6.61856628,5.02172168 6.73087827,4.97791825 6.84359868,4.97791825" id="Fill-1604" fill="#FFFFFF"></path>
                    </g>
                </g>
            </g>
        </g>
    </g>
</svg>