<svg xmlns="http://www.w3.org/2000/svg" width="26.825" height="35.799">
  <defs>
    <clipPath id="a">
      <path data-name="Clip 20" d="M0 0h-8v3h8z" fill="none"/>
    </clipPath>
  </defs>
  <g data-name="Group 12">
    <path d="M22.214 29.799a6 6 0 11-6-6 6 6 0 016 6z" fill="#fff"/>
    <g data-name="Group 2">
      <path data-name="Fill 17" d="M3.371 16.767l10.98-6.339c1.034-.597 1.536-1.661 1.121-2.38s-1.587-.815-2.621-.218L1.87 14.17C.837 14.765.335 15.83.75 16.548s1.587.815 2.621.218" fill="#fff"/>
      <g data-name="Group 21">
        <path data-name="Clip 20" d="M25.325 0l-6.928 4 1.5 2.598 6.928-4z" fill="none"/>
        <g data-name="Group 21" clip-path="url(#a)" transform="rotate(-30 12.662 -47.257)">
          <path data-name="Fill 19" d="M-6.065 3h4.129A1.76 1.76 0 000 1.5 1.76 1.76 0 00-1.936 0h-4.129A1.76 1.76 0 00-8 1.5 1.76 1.76 0 00-6.065 3" fill="#fff"/>
        </g>
      </g>
    </g>
  </g>
</svg>
