<?xml version="1.0" encoding="utf-8"?>
<svg width="42px" height="42px" viewBox="0 0 42 42" version="1.1" xmlns:xlink="http://www.w3.org/1999/xlink" xmlns="http://www.w3.org/2000/svg">
  <defs>
    <path d="M0 21.0002C0 32.5982 9.4024 42 21 42L21 42C32.5979 42 42 32.5982 42 21.0002L42 21.0002C42 9.40248 32.5979 0 21 0L21 0C9.4024 0 0 9.40248 0 21.0002L0 21.0002Z" id="path_1" />
    <clipPath id="mask_1">
      <use xlink:href="#path_1" />
    </clipPath>
  </defs>
  <g id="Group-15">
    <path d="M0 21.0002C0 32.5982 9.4024 42 21 42L21 42C32.5979 42 42 32.5982 42 21.0002L42 21.0002C42 9.40248 32.5979 0 21 0L21 0C9.4024 0 0 9.40248 0 21.0002L0 21.0002Z" id="Clip-2" fill="none" fill-rule="evenodd" stroke="none" />
    <g clip-path="url(#mask_1)">
      <path d="M-10.6465 42.1339L52.6486 42.1339L52.6486 -0.132813L-10.6465 -0.132813L-10.6465 42.1339Z" id="Fill-1" fill="#063795" fill-rule="evenodd" stroke="none" />
      <path d="M21.0011 4.59229L21.5356 6.1904L23.2198 6.1904L21.8597 7.22676L22.3994 8.79232L21.0011 7.80986L19.6354 8.79232L20.1646 7.22676L18.793 6.1687L20.4992 6.17885L21.0011 4.59229Z" id="Fill-3" fill="#FDCA2F" fill-rule="evenodd" stroke="none" />
      <path d="M13.9184 6.51416L14.4528 8.11227L16.137 8.11227L14.7766 9.14898L15.3166 10.7142L13.9184 9.73174L12.5527 10.7142L13.0819 9.14898L11.7109 8.09057L13.4161 8.10072L13.9184 6.51416Z" id="Fill-4" fill="#FDCA2F" fill-rule="evenodd" stroke="none" />
      <path d="M8.76479 11.6387L9.29924 13.2368L10.9834 13.2368L9.62299 14.2731L10.1623 15.838L8.76479 14.8559L7.39909 15.838L7.92829 14.2731L6.55664 13.2151L8.26254 13.2252L8.76479 11.6387Z" id="Fill-5" fill="#FDCA2F" fill-rule="evenodd" stroke="none" />
      <path d="M6.90862 18.6777L7.44307 20.2755L9.12727 20.2755L7.76682 21.3119L8.30687 22.8774L6.90862 21.895L5.54292 22.8774L6.07212 21.3119L4.70117 20.2538L6.40672 20.2639L6.90862 18.6777Z" id="Fill-6" fill="#FDCA2F" fill-rule="evenodd" stroke="none" />
      <path d="M8.78042 25.7593L9.31487 27.3574L10.9984 27.3574L9.63862 28.3937L10.178 29.9593L8.78042 28.9769L7.41472 29.9593L7.94322 28.3937L6.57227 27.3357L8.27817 27.3458L8.78042 25.7593Z" id="Fill-7" fill="#FDCA2F" fill-rule="evenodd" stroke="none" />
      <path d="M13.9335 30.8555L14.4665 32.4529L16.1507 32.4529L14.7903 33.4896L15.3303 35.0548L13.9335 34.0723L12.5664 35.0548L13.0956 33.4896L11.7246 32.4319L13.4302 32.442L13.9335 30.8555Z" id="Fill-8" fill="#FDCA2F" fill-rule="evenodd" stroke="none" />
      <path d="M28.1034 6.51416L27.569 8.11227L25.8848 8.11227L27.2449 9.14898L26.7052 10.7142L28.1034 9.73174L29.4691 10.7142L28.9399 9.14898L30.3109 8.09057L28.6053 8.10072L28.1034 6.51416Z" id="Fill-9" fill="#FDCA2F" fill-rule="evenodd" stroke="none" />
      <path d="M33.2563 11.6387L32.7233 13.2368L31.0391 13.2368L32.3995 14.2731L31.8602 15.838L33.2563 14.8559L34.6234 15.838L34.0942 14.2731L35.4652 13.2151L33.76 13.2252L33.2563 11.6387Z" id="Fill-10" fill="#FDCA2F" fill-rule="evenodd" stroke="none" />
      <path d="M35.1118 18.6777L34.5787 20.2755L32.8945 20.2755L34.255 21.3119L33.7149 22.8774L35.1118 21.895L36.4789 22.8774L35.9497 21.3119L37.3206 20.2538L35.6151 20.2639L35.1118 18.6777Z" id="Fill-11" fill="#FDCA2F" fill-rule="evenodd" stroke="none" />
      <path d="M33.2421 25.7593L32.7076 27.3574L31.0234 27.3574L32.3839 28.3937L31.8445 29.9593L33.2421 28.9769L34.6078 29.9593L34.0793 28.3937L35.4495 27.3357L33.744 27.3458L33.2421 25.7593Z" id="Fill-12" fill="#FDCA2F" fill-rule="evenodd" stroke="none" />
      <path d="M28.0897 30.8555L27.5549 32.4529L25.8711 32.4529L27.2312 33.4896L26.6915 35.0548L28.0897 34.0723L29.4554 35.0548L28.9262 33.4896L30.2972 32.4319L28.5916 32.442L28.0897 30.8555Z" id="Fill-13" fill="#FDCA2F" fill-rule="evenodd" stroke="none" />
      <path d="M20.9946 32.7847L21.5294 34.3824L23.2132 34.3824L21.8531 35.4188L22.3928 36.9844L20.9946 36.0019L19.6289 36.9844L20.1581 35.4188L18.7871 34.3607L20.4927 34.3709L20.9946 32.7847Z" id="Fill-14" fill="#FDCA2F" fill-rule="evenodd" stroke="none" />
    </g>
  </g>
</svg>