<?xml version="1.0" encoding="utf-8"?>
<!-- Generator: Adobe Illustrator 26.2.1, SVG Export Plug-In . SVG Version: 6.00 Build 0)  -->
<svg version="1.1" id="Layer_1" xmlns="http://www.w3.org/2000/svg" xmlns:xlink="http://www.w3.org/1999/xlink" x="0px" y="0px"
	 viewBox="0 0 66 64" style="enable-background:new 0 0 66 64;" xml:space="preserve">
<style type="text/css">
	.st0{fill:none;stroke:#1B1B3C;stroke-width:1.535;stroke-linecap:round;stroke-linejoin:round;}
	.st1{fill:none;stroke:#FFFFFF;stroke-width:1.535;stroke-linecap:round;stroke-linejoin:round;stroke-miterlimit:10;}
</style>
<path class="st0" d="M33.5,62.3c0,0,4.7-2.7,7.9-3.5c3.2-0.7,16.2-0.6,20.8-11.6c4.2-10.1-0.6-16.4-1.9-17.7
	c-1.3-1.3-1.8-7.2-0.1-8.8c1.7-1.6,3.1-3.6,3.1-4.7c0-1.1-9-10.6-11-12.6c-2-2-3.4-2.1-5.1-0.4c-1.8,1.8-4.1,2.4-5.5,2.4
	c-1.4,0-6.5-2-8.2-3.6c-1.6,1.6-6.7,3.6-8.2,3.6c-1.4,0-3.7-0.6-5.5-2.4c-1.8-1.8-3.2-1.6-5.1,0.4c-2,2-11,11.5-11,12.6
	c0,1.1,1.5,2.7,3.1,4.7c1.5,1.8,1.2,7.5-0.1,8.8c-1.3,1.3-6.1,7.6-1.9,17.7c4.6,11,17.6,10.9,20.8,11.6
	C28.8,59.6,33.5,62.3,33.5,62.3z"/>
<polygon class="st1" points="33.5,17.2 38.5,25.1 47.5,27.5 41.6,34.7 42.2,44 33.5,40.6 24.7,44 25.3,34.7 19.4,27.5 28.4,25.1 "/>
</svg>
