<?xml version="1.0" encoding="UTF-8"?>
<svg width="259px" height="117px" viewBox="0 0 259 117" version="1.1" xmlns="http://www.w3.org/2000/svg" xmlns:xlink="http://www.w3.org/1999/xlink">
    <title>Group 13</title>
    <g id="Page-1" stroke="none" stroke-width="1" fill="none" fill-rule="evenodd">
        <g id="Artboard" transform="translate(-372.000000, -70.000000)">
            <g id="Group-13" transform="translate(372.500000, 70.500000)">
                <g id="Group-11" fill-rule="nonzero">
                    <path d="M257,114 C257.552285,114 258,114.447715 258,115 C258,115.512836 257.61396,115.935507 257.116621,115.993272 L257,116 L1,116 C0.44771525,116 1.13686838e-13,115.552285 1.13686838e-13,115 C1.13686838e-13,114.487164 0.38604019,114.064493 0.883378875,114.006728 L1,114 L257,114 Z" id="Line-2-Copy-15" fill="#D5D5D5"></path>
                    <path d="M257,0.5 C257.276142,0.5 257.5,0.723857625 257.5,1 C257.5,1.24545989 257.323125,1.44960837 257.089876,1.49194433 L257,1.5 L1,1.5 C0.723857625,1.5 0.5,1.27614237 0.5,1 C0.5,0.754540111 0.676875161,0.55039163 0.910124368,0.508055669 L1,0.5 L257,0.5 Z" id="Line-2-Copy-16" fill="#EDEDED"></path>
                    <path d="M257,43.25 C257.276142,43.25 257.5,43.4738576 257.5,43.75 C257.5,43.9954599 257.323125,44.1996084 257.089876,44.2419443 L257,44.25 L1,44.25 C0.723857625,44.25 0.5,44.0261424 0.5,43.75 C0.5,43.5045401 0.676875161,43.3003916 0.910124368,43.2580557 L1,43.25 L257,43.25 Z" id="Line-2-Copy-19" fill="#EDEDED"></path>
                    <path d="M257,86 C257.276142,86 257.5,86.2238576 257.5,86.5 C257.5,86.7454599 257.323125,86.9496084 257.089876,86.9919443 L257,87 L1,87 C0.723857625,87 0.5,86.7761424 0.5,86.5 C0.5,86.2545401 0.676875161,86.0503916 0.910124368,86.0080557 L1,86 L257,86 Z" id="Line-2-Copy-20" fill="#EDEDED"></path>
                    <path d="M257,29 C257.276142,29 257.5,29.2238576 257.5,29.5 C257.5,29.7454599 257.323125,29.9496084 257.089876,29.9919443 L257,30 L1,30 C0.723857625,30 0.5,29.7761424 0.5,29.5 C0.5,29.2545401 0.676875161,29.0503916 0.910124368,29.0080557 L1,29 L257,29 Z" id="Line-2-Copy-21" fill="#EDEDED"></path>
                    <path d="M257,71.75 C257.276142,71.75 257.5,71.9738576 257.5,72.25 C257.5,72.4954599 257.323125,72.6996084 257.089876,72.7419443 L257,72.75 L1,72.75 C0.723857625,72.75 0.5,72.5261424 0.5,72.25 C0.5,72.0045401 0.676875161,71.8003916 0.910124368,71.7580557 L1,71.75 L257,71.75 Z" id="Line-2-Copy-22" fill="#EDEDED"></path>
                    <path d="M257,14.75 C257.276142,14.75 257.5,14.9738576 257.5,15.25 C257.5,15.4954599 257.323125,15.6996084 257.089876,15.7419443 L257,15.75 L1,15.75 C0.723857625,15.75 0.5,15.5261424 0.5,15.25 C0.5,15.0045401 0.676875161,14.8003916 0.910124368,14.7580557 L1,14.75 L257,14.75 Z" id="Line-2-Copy-24" fill="#EDEDED"></path>
                    <path d="M257,57.5 C257.276142,57.5 257.5,57.7238576 257.5,58 C257.5,58.2454599 257.323125,58.4496084 257.089876,58.4919443 L257,58.5 L1,58.5 C0.723857625,58.5 0.5,58.2761424 0.5,58 C0.5,57.7545401 0.676875161,57.5503916 0.910124368,57.5080557 L1,57.5 L257,57.5 Z" id="Line-2-Copy-25" fill="#EDEDED"></path>
                    <path d="M257,100.25 C257.276142,100.25 257.5,100.473858 257.5,100.75 C257.5,100.99546 257.323125,101.199608 257.089876,101.241944 L257,101.25 L1,101.25 C0.723857625,101.25 0.5,101.026142 0.5,100.75 C0.5,100.50454 0.676875161,100.300392 0.910124368,100.258056 L1,100.25 L257,100.25 Z" id="Line-2-Copy-26" fill="#EDEDED"></path>
                    <path d="M44,0.5 C44.2454599,0.5 44.4496084,0.676875161 44.4919443,0.910124368 L44.5,1 L44.5,115 C44.5,115.276142 44.2761424,115.5 44,115.5 C43.7545401,115.5 43.5503916,115.323125 43.5080557,115.089876 L43.5,115 L43.5,1 C43.5,0.723857625 43.7238576,0.5 44,0.5 Z" id="Line-2-Copy-28" fill="#EDEDED"></path>
                    <path d="M86,0.5 C86.2454599,0.5 86.4496084,0.676875161 86.4919443,0.910124368 L86.5,1 L86.5,115 C86.5,115.276142 86.2761424,115.5 86,115.5 C85.7545401,115.5 85.5503916,115.323125 85.5080557,115.089876 L85.5,115 L85.5,1 C85.5,0.723857625 85.7238576,0.5 86,0.5 Z" id="Line-2-Copy-29" fill="#EDEDED"></path>
                    <path d="M129,0.5 C129.24546,0.5 129.449608,0.676875161 129.491944,0.910124368 L129.5,1 L129.5,115 C129.5,115.276142 129.276142,115.5 129,115.5 C128.75454,115.5 128.550392,115.323125 128.508056,115.089876 L128.5,115 L128.5,1 C128.5,0.723857625 128.723858,0.5 129,0.5 Z" id="Line-2-Copy-30" fill="#EDEDED"></path>
                    <path d="M172,0.5 C172.24546,0.5 172.449608,0.676875161 172.491944,0.910124368 L172.5,1 L172.5,115 C172.5,115.276142 172.276142,115.5 172,115.5 C171.75454,115.5 171.550392,115.323125 171.508056,115.089876 L171.5,115 L171.5,1 C171.5,0.723857625 171.723858,0.5 172,0.5 Z" id="Line-2-Copy-31" fill="#EDEDED"></path>
                    <path d="M214,0.5 C214.24546,0.5 214.449608,0.676875161 214.491944,0.910124368 L214.5,1 L214.5,115 C214.5,115.276142 214.276142,115.5 214,115.5 C213.75454,115.5 213.550392,115.323125 213.508056,115.089876 L213.5,115 L213.5,1 C213.5,0.723857625 213.723858,0.5 214,0.5 Z" id="Line-2-Copy-32" fill="#EDEDED"></path>
                    <path d="M111.404068,61.325191 C111.916896,61.322359 112.341704,61.7060463 112.40223,62.2030565 L112.409605,62.3196385 L112.526672,83.3990809 C112.529723,83.9513572 112.084501,84.4015516 111.532225,84.404634 C111.019397,84.407466 110.594589,84.0237787 110.534063,83.5267685 L110.526687,83.4101865 L110.40962,62.3307441 C110.406569,61.7784678 110.851792,61.3282734 111.404068,61.325191 Z" id="Line-Copy-57" fill="#A5A5A5"></path>
                    <path d="M257,0.5 C257.24546,0.5 257.449608,0.676875161 257.491944,0.910124368 L257.5,1 L257.5,115 C257.5,115.276142 257.276142,115.5 257,115.5 C256.75454,115.5 256.550392,115.323125 256.508056,115.089876 L256.5,115 L256.5,1 C256.5,0.723857625 256.723858,0.5 257,0.5 Z" id="Line-2-Copy-33" fill="#D5D5D5"></path>
                    <path d="M44.8623365,35.6350687 C45.375139,35.6292891 45.8021834,36.0104861 45.865614,36.507134 L45.8736707,36.6236709 L46.124524,58.6284632 C46.1308196,59.1807121 45.6882371,59.6335018 45.1359882,59.6398638 C44.6231857,59.6456434 44.1961413,59.2644464 44.1327107,58.7677985 L44.124654,58.6512616 L43.8738006,36.6464693 C43.867505,36.0942204 44.3100876,35.6414307 44.8623365,35.6350687 Z" id="Line-Copy-33" fill="#A5A5A5"></path>
                    <path d="M53.3913503,43.2612668 C53.9041529,43.2554872 54.3311973,43.6366842 54.3946279,44.1333321 L54.4026846,44.249869 L54.6535379,66.2546613 C54.6598335,66.8069102 54.217251,67.2596999 53.6650021,67.2660619 C53.1521996,67.2718414 52.7251552,66.8906444 52.6617246,66.3939966 L52.6536679,66.2774597 L52.4028145,44.2726674 C52.3965189,43.7204185 52.8391015,43.2676287 53.3913503,43.2612668 Z" id="Line-Copy-34" fill="#A5A5A5"></path>
                    <path d="M62.9134107,39.5266123 C63.4261601,39.5172004 63.8558452,39.8954184 63.9227281,40.3916131 L63.931595,40.5080911 L64.1824484,54.1742253 C64.1925843,54.7264171 63.7531613,55.1822737 63.2009695,55.1924096 C62.6882201,55.2018216 62.258535,54.8236036 62.1916521,54.3274088 L62.1827852,54.2109308 L61.9319319,40.5447966 C61.9217959,39.9926049 62.361219,39.5367482 62.9134107,39.5266123 Z" id="Line-Copy-35" fill="#A5A5A5"></path>
                    <path d="M82.4795977,28.7916181 C82.9923972,28.7855876 83.4196326,29.1665705 83.483312,29.6631866 L83.4914271,29.7797194 L83.7422804,50.8579942 C83.7488527,51.4102398 83.3064971,51.8632513 82.7542514,51.8698958 C82.2414519,51.8759264 81.8142166,51.4949434 81.7505371,50.9983274 L81.742422,50.8817946 L81.4915687,29.8035198 C81.4849964,29.2512742 81.9273521,28.7982627 82.4795977,28.7916181 Z" id="Line-Copy-36" fill="#A5A5A5"></path>
                    <path d="M92.0110948,47.7852289 C92.5239079,47.7804448 92.9501958,48.1624876 93.0126418,48.6592603 L93.0204674,48.7758129 L93.2713208,75.4131931 C93.2765216,75.9654534 92.8330423,76.4173649 92.280782,76.422611 C91.7679689,76.427395 91.3416811,76.0453522 91.2792351,75.5485795 L91.2714095,75.4320269 L91.0205561,48.7946467 C91.0153553,48.2423865 91.4588346,47.790475 92.0110948,47.7852289 Z" id="Line-Copy-37" fill="#A5A5A5"></path>
                    <path d="M101.531774,43.3507218 C102.044529,43.3417791 102.473987,43.7202556 102.540571,44.2164905 L102.549368,44.3329738 L102.800221,58.4623668 C102.810025,59.0145645 102.370328,59.4701567 101.81813,59.4801212 C101.305375,59.4890639 100.875918,59.1105875 100.809333,58.6143525 L100.800537,58.4978692 L100.549683,44.3684762 C100.539879,43.8162785 100.979577,43.3606863 101.531774,43.3507218 Z" id="Line-Copy-38" fill="#A5A5A5"></path>
                    <path d="M120.092478,46.1079117 C120.605268,46.1011467 121.033062,46.4815017 121.097471,46.9780237 L121.105757,47.0945444 L121.356611,65.8565253 C121.363994,66.4087606 120.922305,66.8624214 120.370069,66.8698962 C119.857279,66.8766611 119.429485,66.4963062 119.365076,65.9997842 L119.356789,65.8832635 L119.105936,47.1212826 C119.098553,46.5690472 119.540242,46.1153865 120.092478,46.1079117 Z" id="Line-Copy-40" fill="#A5A5A5"></path>
                    <path d="M130.117571,60.3509055 C130.630314,60.3411634 131.060243,60.7191047 131.127445,61.2152563 L131.136387,61.3317286 L131.38724,74.534604 C131.397732,75.086789 130.958602,75.5429285 130.406417,75.55342 C129.893674,75.5631621 129.463745,75.1852208 129.396543,74.6890692 L129.387601,74.5725969 L129.136748,61.3697215 C129.126256,60.8175364 129.565386,60.3613969 130.117571,60.3509055 Z" id="Line-Copy-41" fill="#A5A5A5"></path>
                    <path d="M138.916435,76.0679774 C139.42927,76.0679774 139.851942,76.4540176 139.909707,76.9513563 L139.916435,77.0679774 L139.916435,94.2085525 C139.916435,94.7608373 139.468719,95.2085525 138.916435,95.2085525 C138.403599,95.2085525 137.980927,94.8225123 137.923162,94.3251736 L137.916435,94.2085525 L137.916435,77.0679774 C137.916435,76.5156927 138.36415,76.0679774 138.916435,76.0679774 Z" id="Line-Copy-42" fill="#A5A5A5"></path>
                    <path d="M146.184281,59.5999252 C146.69709,59.5946903 147.12372,59.9763506 147.186612,60.4730671 L147.194542,60.5896126 L147.445395,84.9106989 C147.451091,85.4629543 147.008017,85.9152633 146.455762,85.9210137 C145.942954,85.9262486 145.516323,85.5445883 145.453432,85.0478718 L145.445502,84.9313263 L145.194648,60.61024 C145.188952,60.0579846 145.632026,59.6056756 146.184281,59.5999252 Z" id="Line-Copy-43" fill="#A5A5A5"></path>
                    <path d="M155.974462,77.0296388 C156.487298,77.0296388 156.909969,77.415679 156.967735,77.9130176 L156.974462,78.0296388 L156.974462,90.0743672 C156.974462,90.626652 156.526747,91.0743672 155.974462,91.0743672 C155.461626,91.0743672 155.038955,90.688327 154.98119,90.1909883 L154.974462,90.0743672 L154.974462,78.0296388 C154.974462,77.477354 155.422178,77.0296388 155.974462,77.0296388 Z" id="Line-Copy-44" fill="#A5A5A5"></path>
                    <path d="M164.51379,58.0072734 C165.026598,58.012617 165.445266,58.4029959 165.497898,58.9009039 L165.503423,59.0175882 L165.25257,83.3386745 C165.246874,83.8909299 164.794565,84.3340037 164.242309,84.3283619 C163.729501,84.3230184 163.310833,83.9326394 163.258201,83.4347314 L163.252676,83.3180471 L163.503529,58.9969609 C163.509225,58.4447055 163.961534,58.0016316 164.51379,58.0072734 Z" id="Line-Copy-45" fill="#A5A5A5"></path>
                    <path d="M172.770608,32.2628288 C173.283413,32.2572351 173.710316,32.6385904 173.773562,33.1352617 L173.781576,33.2518016 L174.032429,55.996246 C174.03852,56.5484972 173.59577,57.0011228 173.043519,57.0072758 C172.530714,57.0128696 172.103811,56.6315143 172.040564,56.1348429 L172.032551,56.0183031 L171.781698,33.2738587 C171.775607,32.7216075 172.218357,32.2689818 172.770608,32.2628288 Z" id="Line-Copy-46" fill="#A5A5A5"></path>
                    <path d="M181.79267,42.8397367 C182.305407,42.8296405 182.735596,43.2072848 182.803141,43.7033899 L182.812163,43.8198559 L183.063017,56.5594725 C183.07389,57.1116503 182.635075,57.5680929 182.082898,57.5789657 C181.570161,57.5890619 181.139972,57.2114177 181.072427,56.7153126 L181.063404,56.5988465 L180.812551,43.8592299 C180.801678,43.3070522 181.240493,42.8506096 181.79267,42.8397367 Z" id="Line-Copy-48" fill="#A5A5A5"></path>
                    <path d="M190.330857,53.7213309 C190.843665,53.7159954 191.270371,54.0975703 191.333362,54.5942742 L191.341316,54.7108181 L191.592169,78.5686456 C191.597976,79.1208998 191.154993,79.5732976 190.602738,79.5791607 C190.089931,79.5844962 189.663224,79.2029213 189.600233,78.7062174 L189.59228,78.5896735 L189.341426,54.731846 C189.33562,54.1795918 189.778603,53.727194 190.330857,53.7213309 Z" id="Line-Copy-50" fill="#A5A5A5"></path>
                    <path d="M198.859221,43.6542381 C199.372025,43.6485763 199.79898,44.0298737 199.862293,44.5265365 L199.870323,44.6430752 L200.121176,67.1111263 C200.127342,67.6633767 199.684653,68.1160624 199.132403,68.1222918 C198.619599,68.1279536 198.192644,67.7466563 198.12933,67.2499935 L198.121301,67.1334547 L197.870447,44.6654036 C197.864282,44.1131533 198.306971,43.6604675 198.859221,43.6542381 Z" id="Line-Copy-52" fill="#A5A5A5"></path>
                    <path d="M208.381648,37.4273991 C208.894403,37.4184565 209.32386,37.7969329 209.390445,38.2931678 L209.399241,38.4096511 L209.650095,52.5390441 C209.659898,53.0912418 209.220201,53.546834 208.668003,53.5567986 C208.155248,53.5657412 207.725791,53.1872648 207.659207,52.6910299 L207.65041,52.5745465 L207.399556,38.4451536 C207.389753,37.8929558 207.82945,37.4373636 208.381648,37.4273991 Z" id="Line-Copy-53" fill="#A5A5A5"></path>
                    <path d="M72.9519701,19.3507239 C73.4647776,19.3453884 73.8914843,19.7269633 73.9544752,20.2236672 L73.9624287,20.3402111 L74.2132821,44.1980386 C74.2190888,44.7502928 73.7761055,45.2026906 73.2238513,45.2085537 C72.7110438,45.2138892 72.284337,44.8323142 72.2213461,44.3356104 L72.2133926,44.2190664 L71.9625393,20.361239 C71.9567326,19.8089847 72.3997159,19.356587 72.9519701,19.3507239 Z" id="Line-Copy-56" fill="#A5A5A5"></path>
                    <path d="M257,114 C257.552285,114 258,114.447715 258,115 C258,115.512836 257.61396,115.935507 257.116621,115.993272 L257,116 L1,116 C0.44771525,116 1.13686838e-13,115.552285 1.13686838e-13,115 C1.13686838e-13,114.487164 0.38604019,114.064493 0.883378875,114.006728 L1,114 L257,114 Z" id="Line-2-Copy-23" fill="#D5D5D5"></path>
                    <path d="M1,0 C1.51283584,0 1.93550716,0.38604019 1.99327227,0.883378875 L2,1 L2,115 C2,115.552285 1.55228475,116 1,116 C0.487164161,116 0.0644928393,115.61396 0.00672773133,115.116621 L0,115 L0,1 C0,0.44771525 0.44771525,0 1,0 Z" id="Line-2-Copy-27" fill="#D5D5D5"></path>
                </g>
                <g id="Group" transform="translate(7.500000, 10.074367)">
                    <line x1="2.25768014" y1="0.231629393" x2="2.25768014" y2="31.7332268" id="Line-Copy-29" stroke="#A5A5A5" stroke-width="2" stroke-linecap="round"></line>
                    <rect id="Rectangle-Copy-30" fill="#4B9EDD" x="0" y="4.63258786" width="4.51536029" height="12.5079872" rx="2.25768014"></rect>
                </g>
                <g id="Group-2" transform="translate(16.029014, 18.735709)">
                    <line x1="2.25768014" y1="0.231629393" x2="2.50853349" y2="13.8977636" id="Line-Copy-30" stroke="#A5A5A5" stroke-width="2" stroke-linecap="round"></line>
                    <rect id="Rectangle-Copy-31" fill="#FF6900" x="0" y="4.63258786" width="4.51536029" height="12.5079872" rx="2.25768014"></rect>
                </g>
                <g id="Group-3" transform="translate(24.558028, 8.007275)">
                    <line x1="2.25768014" y1="0.231629393" x2="2.50853349" y2="20.3833866" id="Line-Copy-31" stroke="#A5A5A5" stroke-width="2" stroke-linecap="round"></line>
                    <rect id="Rectangle-Copy-32" fill="#4B9EDD" x="0" y="4.63258786" width="4.51536029" height="12.5079872" rx="2.25768014"></rect>
                </g>
                <g id="Group-4" transform="translate(34.087042, 30.301204)">
                    <line x1="2.32257894" y1="6.02398702" x2="2.43963041" y2="27.1034294" id="Line-Copy-32" stroke="#A5A5A5" stroke-width="2" stroke-linecap="round"></line>
                    <rect id="Rectangle-Copy-33" fill="#FF6900" x="0" y="0" width="4.51536029" height="12.5079872" rx="2.25768014"></rect>
                </g>
                <g id="Group-7" transform="translate(241.523957, 69.160629)">
                    <line x1="2.25768014" y1="0.231629393" x2="2.50853349" y2="20.8466454" id="Line-Copy-47" stroke="#A5A5A5" stroke-width="2" stroke-linecap="round"></line>
                    <rect id="Rectangle-Copy-48" fill="#4B9EDD" x="0" y="4.63258786" width="4.51536029" height="12.5079872" rx="2.25768014"></rect>
                </g>
                <g id="Group-8" transform="translate(249.554677, 85.607914)">
                    <line x1="2.25768014" y1="0.231629393" x2="2.50853349" y2="12.971246" id="Line-Copy-49" stroke="#A5A5A5" stroke-width="2" stroke-linecap="round"></line>
                    <rect id="Rectangle-Copy-50" fill="#FF6900" x="0" y="4.63258786" width="4.51536029" height="12.5079872" rx="2.25768014"></rect>
                </g>
                <g id="Group-6" transform="translate(233.083691, 79.489703)">
                    <line x1="2.25768014" y1="0.231629393" x2="2.50853349" y2="24.0894569" id="Line-Copy-51" stroke="#A5A5A5" stroke-width="2" stroke-linecap="round"></line>
                    <rect id="Rectangle-Copy-52" fill="#FF6900" x="0" y="4.63258786" width="4.51536029" height="12.5079872" rx="2.25768014"></rect>
                </g>
                <g id="Group-9" transform="translate(214.670733, 58.556795)">
                    <line x1="2.50853349" y1="3.70607029" x2="2.50853349" y2="17.6038339" id="Line-Copy-54" stroke="#A5A5A5" stroke-width="2" stroke-linecap="round"></line>
                    <rect id="Rectangle-Copy-55" fill="#4B9EDD" x="0" y="-2.84217094e-14" width="4.51536029" height="12.5079872" rx="2.25768014"></rect>
                </g>
                <g id="Group-5" transform="translate(224.199747, 68.358712)">
                    <line x1="2.50853349" y1="3.70607029" x2="2.25768014" y2="27.100639" id="Line-Copy-55" stroke="#A5A5A5" stroke-width="2" stroke-linecap="round"></line>
                    <rect id="Rectangle-Copy-56" fill="#FF6900" x="0" y="0" width="4.51536029" height="12.5079872" rx="2.25768014"></rect>
                </g>
                <rect id="Rectangle-Copy-58" fill="#FF6900" x="109.087042" y="56.3012043" width="4.51536029" height="12.5079872" rx="2.25768014"></rect>
                <rect id="Rectangle-Copy-34" fill="#4B9EDD" x="42.6160555" y="41.0360285" width="4.51536029" height="12.5079872" rx="2.25768014"></rect>
                <rect id="Rectangle-Copy-35" fill="#FF6900" x="51.1450694" y="48.6622266" width="4.51536029" height="12.5079872" rx="2.25768014"></rect>
                <rect id="Rectangle-Copy-36" fill="#4B9EDD" x="60.6740833" y="44.9274023" width="4.51536029" height="12.5079872" rx="2.25768014"></rect>
                <rect id="Rectangle-Copy-37" fill="#4B9EDD" x="80.2338177" y="34.1925781" width="4.51536029" height="12.5079872" rx="2.25768014"></rect>
                <rect id="Rectangle-Copy-38" fill="#FF6900" x="89.7628316" y="53.1861883" width="4.51536029" height="12.5079872" rx="2.25768014"></rect>
                <rect id="Rectangle-Copy-39" fill="#4B9EDD" x="99.2918455" y="48.7516835" width="4.51536029" height="12.5079872" rx="2.25768014"></rect>
                <rect id="Rectangle-Copy-41" fill="#4B9EDD" x="118.349873" y="51.508872" width="4.51536029" height="12.5079872" rx="2.25768014"></rect>
                <rect id="Rectangle-Copy-42" fill="#FF6900" x="127.878887" y="65.7516835" width="4.51536029" height="12.5079872" rx="2.25768014"></rect>
                <rect id="Rectangle-Copy-43" fill="#FF6900" x="136.407901" y="73.3619071" width="4.51536029" height="12.5079872" rx="2.25768014"></rect>
                <rect id="Rectangle-Copy-44" fill="#4B9EDD" x="143.936915" y="65.0008848" width="4.51536029" height="12.5079872" rx="2.25768014"></rect>
                <rect id="Rectangle-Copy-45" fill="#FF6900" x="153.465929" y="74.7868273" width="4.51536029" height="12.5079872" rx="2.25768014"></rect>
                <rect id="Rectangle-Copy-46" fill="#4B9EDD" x="161.994943" y="56.2277218" width="4.51536029" height="12.5079872" rx="2.25768014"></rect>
                <rect id="Rectangle-Copy-47" fill="#4B9EDD" x="170.523957" y="38.1183857" width="4.51536029" height="13.8" rx="2.25768014"></rect>
                <rect id="Rectangle-Copy-49" fill="#4B9EDD" x="179.554677" y="48.2405014" width="4.51536029" height="12.5079872" rx="2.25768014"></rect>
                <rect id="Rectangle-Copy-51" fill="#FF6900" x="188.083691" y="59.1222905" width="4.51536029" height="12.5079872" rx="2.25768014"></rect>
                <rect id="Rectangle-Copy-53" fill="#4B9EDD" x="196.612705" y="49.0551979" width="4.51536029" height="12.5079872" rx="2.25768014"></rect>
                <rect id="Rectangle-Copy-54" fill="#4B9EDD" x="206.141719" y="42.8283608" width="4.51536029" height="12.5079872" rx="2.25768014"></rect>
                <rect id="Rectangle-Copy-57" fill="#4B9EDD" x="70.7048039" y="24.7516835" width="4.51536029" height="12.5079872" rx="2.25768014"></rect>
            </g>
        </g>
    </g>
</svg>