<?xml version="1.0" encoding="UTF-8"?>
<svg width="86px" height="40px" viewBox="0 0 86 40" version="1.1" xmlns="http://www.w3.org/2000/svg" xmlns:xlink="http://www.w3.org/1999/xlink">
    <title>callout 1 orange inverted top right</title>
    <defs>
        <rect id="path-1" x="0" y="0" width="86" height="40"></rect>
        <rect id="path-3" x="0" y="0" width="179" height="40"></rect>
    </defs>
    <g id="Page-1" stroke="none" stroke-width="1" fill="none" fill-rule="evenodd">
        <g id="Artboard" transform="translate(-2997.000000, -1387.000000)">
            <g id="callout-1-orange-inverted-top-right" transform="translate(2997.000000, 1387.000000)">
                <mask id="mask-2" fill="white">
                    <use xlink:href="#path-1"></use>
                </mask>
                <g id="Mask"></g>
                <g id="callout-1-orange-inverted-top-2" mask="url(#mask-2)">
                    <g transform="translate(-93.000000, 0.000000)" id="callout-1-orange-inverted-top">
                        <mask id="mask-4" fill="white">
                            <use xlink:href="#path-3"></use>
                        </mask>
                        <g id="Mask"></g>
                        <g id="Group-3" mask="url(#mask-4)">
                            <g transform="translate(0.051318, 0.862068)">
                                <path d="M33.2010899,7.37722534 C30.1407923,7.37722534 27.6368474,9.78559737 27.6368474,12.7291065 L27.6368474,90.553208 C27.6368474,93.4968192 30.1407923,95.9051912 33.2010899,95.9051912 L45.9589157,95.3946617 C47.3654703,95.3946617 48.5638393,96.3076927 48.9843967,97.5802386 L49.2194351,100.950755 L49.2398554,101.616996 C49.2438374,101.750448 49.262522,101.877672 49.29254,101.999178 L49.5367675,105.503351 C49.6842025,106.473357 50.9260669,106.916496 51.7497222,106.293038 C56.8832993,101.940365 62.1159151,95.5873355 69.2681472,95.3626004 C81.0054653,94.9936918 91.8247861,95.9051912 103.577317,95.9051912 L136.752953,95.9051912 L146.471821,95.9051912 C149.532119,95.9051912 152.036063,93.4968192 152.036063,90.553208 L152.036063,12.7291065 C152.036063,9.78559737 149.532119,7.37722534 146.471821,7.37722534 L33.2010899,7.37722534 Z" id="Fill-266" fill="#FF5C00"></path>
                                <path d="M174.468159,35.9861264 C174.468159,37.5260876 173.219862,38.7744345 171.679962,38.7744345 C170.140063,38.7744345 168.891664,37.5260876 168.891664,35.9861264 C168.891664,34.4461651 170.140063,33.1977161 171.679962,33.1977161 C173.219862,33.1977161 174.468159,34.4461651 174.468159,35.9861264" id="Fill-272" fill="#FF5C00"></path>
                                <path d="M170.868467,33.0052159 C169.529912,33.0052159 168.440894,34.0942775 168.440894,35.4328859 C168.440894,36.7714944 169.529912,37.860556 170.868467,37.860556 C172.207022,37.860556 173.295938,36.7714944 173.295938,35.4328859 C173.295938,34.0942775 172.207022,33.0052159 170.868467,33.0052159 M170.868467,38.5819342 C169.132124,38.5819342 167.719545,37.169299 167.719545,35.4328859 C167.719545,33.696575 169.132124,32.2839397 170.868467,32.2839397 C172.604811,32.2839397 174.017389,33.696575 174.017389,35.4328859 C174.017389,37.169299 172.604811,38.5819342 170.868467,38.5819342" id="Fill-274" fill="#FFFFFF"></path>
                                <path d="M166.92065,12.4728513 C166.70205,12.2480141 166.341426,12.2429088 166.116291,12.4607007 C166.007247,12.5666866 165.945986,12.7085117 165.943739,12.8603432 C165.941493,13.0122768 165.998466,13.1560419 166.104346,13.265091 L168.032538,15.2515614 C168.14046,15.3628569 168.285342,15.4241204 168.440639,15.4241204 C168.589504,15.4241204 168.7302,15.3670432 168.836998,15.2634057 C168.945941,15.1575219 169.007304,15.0156968 169.009448,14.8637632 C169.011695,14.7121359 168.954722,14.5682687 168.848842,14.4593217 L166.92065,12.4728513 Z" id="Fill-286" fill="#FFFFFF"></path>
                                <path d="M170.29539,15.424151 C170.450687,15.424151 170.595672,15.3627854 170.703491,15.2515921 L172.631684,13.2650195 C172.737563,13.1560725 172.794638,13.0123074 172.792392,12.8603738 C172.790146,12.7084402 172.728783,12.5667172 172.61984,12.4607313 C172.513042,12.3570938 172.372754,12.3000166 172.224196,12.3000166 C172.22103,12.3000166 172.218274,12.3000166 172.215108,12.3002208 C172.063385,12.3025693 171.921362,12.3638328 171.815482,12.4728819 L169.887289,14.4593523 C169.78141,14.5682993 169.724335,14.7120645 169.726581,14.8637938 C169.728827,15.0157274 169.790088,15.1575525 169.899133,15.2634364 C170.006136,15.3669717 170.146832,15.424151 170.29539,15.424151" id="Fill-288" fill="#FFFFFF"></path>
                                <path d="M170.703501,16.540332 C170.491946,16.3222338 170.116926,16.3169243 169.899143,16.5281814 C169.789894,16.6340652 169.728837,16.7761966 169.726591,16.9281302 C169.724345,17.0797575 169.78142,17.2235226 169.887299,17.3325717 L171.815492,19.3190421 C171.926681,19.4337071 172.075035,19.4909885 172.223593,19.4909885 C172.366229,19.4909885 172.509376,19.4378934 172.61985,19.3311928 C172.728793,19.2252068 172.790156,19.0833817 172.792402,18.9314481 C172.794649,18.7796166 172.737574,18.6357494 172.631694,18.5267003 L170.703501,16.540332 Z" id="Fill-290" fill="#FFFFFF"></path>
                                <path d="M168.032549,16.540332 L166.104356,18.5267003 C165.998476,18.6357494 165.941503,18.7796166 165.94375,18.9314481 C165.945894,19.0833817 166.007257,19.2252068 166.1162,19.3311928 C166.22647,19.4381997 166.369616,19.4912948 166.512253,19.4912948 C166.660811,19.4912948 166.809062,19.4337071 166.92066,19.3190421 L168.848853,17.3325717 C168.954732,17.2235226 169.011705,17.0797575 169.009459,16.9281302 C169.007212,16.7761966 168.946258,16.6340652 168.836907,16.5281814 C168.619226,16.3169243 168.243797,16.3222338 168.032549,16.540332" id="Fill-292" fill="#FFFFFF"></path>
                                <path d="M142.616722,0.106406623 C142.527485,0.0295208747 142.411701,-0.0091772642 142.295918,0.0018501738 C142.178705,0.0108354936 142.072009,0.0650537304 141.995739,0.154294293 L140.845051,1.49657855 L139.961054,0.19329875 C139.958297,0.18931662 139.954723,0.186355548 139.951865,0.182373418 C139.942777,0.170018603 139.932567,0.158480636 139.922153,0.147044774 C139.912657,0.136527866 139.903162,0.125908851 139.89285,0.116413002 C139.889378,0.113247719 139.886724,0.1094698 139.88315,0.106406623 C139.875594,0.0998718448 139.867018,0.0955833967 139.859156,0.08976336 C139.847312,0.080982252 139.835571,0.0722011439 139.823012,0.0646453068 C139.809637,0.0565789401 139.795955,0.0500441621 139.781967,0.043509384 C139.77043,0.0381998768 139.758994,0.0327882637 139.74715,0.0284998156 C139.731733,0.0228839907 139.716214,0.0186976485 139.700388,0.014817624 C139.688748,0.0120607645 139.677211,0.00920179912 139.665367,0.00736389279 C139.649439,0.00481124511 139.633613,0.00368808013 139.617583,0.00287123287 C139.605127,0.00225859742 139.592875,0.00174806789 139.580418,0.00225859742 C139.564797,0.00276912696 139.549583,0.00460703329 139.534268,0.00675125735 C139.521505,0.00858916368 139.508947,0.01042707 139.496286,0.0133881413 C139.480767,0.017063954 139.465656,0.0219650375 139.450545,0.0272745447 C139.438905,0.031358781 139.427367,0.0353409114 139.416034,0.0404462068 C139.400106,0.0475936203 139.385097,0.0562726224 139.369986,0.0653600482 C139.363145,0.0694442844 139.355794,0.0722011439 139.349055,0.0767959098 C139.345788,0.0789401338 139.343338,0.0817990992 139.340173,0.0841475351 C139.326899,0.0937454904 139.314545,0.104772928 139.302293,0.115902472 C139.291878,0.125296216 139.281464,0.134485747 139.272275,0.144696338 C139.269008,0.148167939 139.265128,0.150720587 139.262065,0.154294293 L138.111479,1.49657855 L137.22738,0.19329875 C137.224929,0.189725043 137.221662,0.18707029 137.219109,0.183394477 C137.20941,0.170120709 137.198485,0.157868 137.187254,0.14541108 C137.178269,0.135608912 137.169488,0.125704639 137.159788,0.116821425 C137.156215,0.113554036 137.153458,0.109571906 137.149782,0.106406623 C137.142023,0.0997697389 137.133344,0.0953791849 137.125278,0.0894570423 C137.113434,0.0806759343 137.101692,0.0718948262 137.089134,0.0643389891 C137.076167,0.0565789401 137.062894,0.0502483739 137.049518,0.0439178076 C137.037266,0.0383019827 137.025116,0.0325840519 137.012455,0.0279892861 C136.997957,0.0227818848 136.983356,0.0189018603 136.968552,0.0152260477 C136.955891,0.0121628704 136.94323,0.00899758731 136.930366,0.00705757507 C136.915561,0.0047091392 136.900858,0.00379018603 136.885951,0.00297333878 C136.872372,0.00225859742 136.858894,0.00164596198 136.845417,0.00215649152 C136.830918,0.00276912696 136.816624,0.00460703329 136.802228,0.00644493963 C136.788546,0.00838495186 136.775069,0.0103249641 136.761591,0.0134902472 C136.746786,0.017063954 136.732594,0.0217608257 136.718198,0.0267640152 C136.705844,0.0310524633 136.693694,0.0352388055 136.681748,0.0407525245 C136.666228,0.0476957262 136.651525,0.0561705165 136.636823,0.0650537304 C136.629778,0.0693421785 136.622222,0.072099038 136.615381,0.0767959098 C136.612114,0.0789401338 136.609664,0.0817990992 136.606499,0.0841475351 C136.593123,0.0937454904 136.580871,0.104772928 136.568619,0.115902472 C136.558307,0.125296216 136.547892,0.134485747 136.538601,0.144594232 C136.535334,0.148167939 136.531454,0.150720587 136.528391,0.154294293 L135.377805,1.49657855 L134.493706,0.19329875 C134.491051,0.18931662 134.487375,0.186253442 134.484517,0.182373418 C134.475634,0.170120709 134.465526,0.158786953 134.455315,0.147555304 C134.445514,0.136629971 134.435814,0.125806745 134.425195,0.116106684 C134.421826,0.113043507 134.419274,0.109367694 134.415802,0.106406623 C134.408451,0.100076057 134.400078,0.0958897144 134.392523,0.0900696777 C134.380475,0.0811864638 134.368529,0.0723032499 134.355766,0.0645432009 C134.342391,0.0565789401 134.328709,0.0499420561 134.314823,0.0434072781 C134.303286,0.0381998768 134.291953,0.0328903696 134.280007,0.0284998156 C134.264589,0.0228839907 134.248968,0.0186976485 134.233244,0.014817624 C134.221604,0.0120607645 134.210067,0.00920179912 134.198223,0.00736389279 C134.182397,0.00481124511 134.166572,0.00368808013 134.150542,0.00287123287 C134.137983,0.00225859742 134.125731,0.00174806789 134.113274,0.00225859742 C134.097755,0.00276912696 134.082542,0.00460703329 134.067124,0.00675125735 C134.054362,0.00858916368 134.041803,0.01042707 134.029143,0.0133881413 C134.013521,0.017063954 133.998512,0.0219650375 133.983401,0.0272745447 C133.971761,0.031358781 133.960122,0.0353409114 133.948686,0.0404462068 C133.932963,0.0474915144 133.917954,0.0561705165 133.903047,0.0651558363 C133.896002,0.0693421785 133.888548,0.072099038 133.881707,0.0767959098 C133.87844,0.0789401338 133.87599,0.0819012051 133.872723,0.084249641 C133.859449,0.0937454904 133.847299,0.104670822 133.835047,0.115800366 C133.824633,0.12519411 133.814218,0.134383642 133.804927,0.144696338 C133.801762,0.148167939 133.79778,0.150720587 133.794717,0.154294293 L132.644438,1.49657855 L131.760032,0.19329875 C131.62342,-0.00774778149 131.348561,-0.0597196883 131.148034,0.0767959098 C130.947301,0.213209402 130.895025,0.487363763 131.031127,0.688512401 L132.239094,2.46811626 C132.315364,2.5811475 132.44248,2.65343848 132.579399,2.66079011 L132.603699,2.66160695 C132.732245,2.66160695 132.853951,2.60565292 132.938083,2.50763125 L134.088464,1.16534699 L134.972767,2.46811626 C135.049038,2.5811475 135.176052,2.65343848 135.313073,2.66079011 L135.337373,2.66160695 C135.465919,2.66160695 135.587625,2.60565292 135.671756,2.50763125 L136.822138,1.16544909 L137.706441,2.46811626 C137.782711,2.5811475 137.909726,2.65343848 138.046747,2.66079011 L138.071047,2.66160695 C138.199491,2.66160695 138.321299,2.60565292 138.40543,2.50763125 L139.555812,1.16534699 L140.440115,2.46811626 C140.516385,2.5811475 140.6434,2.65343848 140.780421,2.66079011 L140.804415,2.66160695 C140.933165,2.66160695 141.054972,2.60565292 141.139104,2.50763125 L142.664505,0.727823175 C142.741388,0.638480506 142.778553,0.524632419 142.769568,0.407414838 C142.760583,0.289890938 142.706265,0.183190265 142.616722,0.106406623 L142.616722,0.106406623 Z" id="Fill-310" fill="#FFFFFF"></path>
                                <path d="M47.8783073,116.420157 C47.2637565,116.420157 46.64553,116.28262 46.0665106,116.003361 C44.640863,115.315269 43.7404271,113.904778 43.7161269,112.321932 L43.5701213,102.697634 C43.5500072,101.382101 42.4635418,100.311827 41.14796,100.311827 L27.0503542,100.311827 C24.7578622,100.311827 22.8926662,98.4469646 22.8926662,96.1542786 L22.8926662,14.4677148 C22.8926662,12.1751309 24.7578622,10.3101665 27.0503542,10.3101665 L35.3431656,10.3101665 L35.3431656,12.0454564 L27.0503542,12.0454564 C25.7147604,12.0454564 24.6279887,13.1320674 24.6279887,14.4677148 L24.6279887,96.1542786 C24.6279887,97.4900281 25.7147604,98.576537 27.0503542,98.576537 L41.14796,98.576537 C43.4060437,98.576537 45.2709333,100.413218 45.3053416,102.671188 L45.4513472,112.295487 C45.4655394,113.231696 45.97758,114.033533 46.8206346,114.440528 C47.6651187,114.848339 48.6103773,114.74899 49.3515344,114.177911 L68.4836785,99.4402509 C69.2069678,98.8832632 70.1080163,98.576537 71.0208065,98.576537 L115.074574,98.576537 L115.074574,100.311827 L71.0208065,100.311827 C70.4889581,100.311827 69.9639506,100.490614 69.5428827,100.815209 L50.4106365,115.552869 C49.6658038,116.126194 48.7763949,116.420157 47.8783073,116.420157" id="Fill-312" fill="#FFFFFF"></path>
                                <path d="M151.292834,100.311847 L142.156763,100.311847 L142.156763,98.5765574 L151.292834,98.5765574 C152.628427,98.5765574 153.714995,97.4899464 153.714995,96.154299 L153.714995,14.4677352 C153.714995,13.1320879 152.628427,12.0454768 151.292834,12.0454768 L62.425253,12.0454768 L62.425253,10.3101869 L151.292834,10.3101869 C153.585326,10.3101869 155.450215,12.1751513 155.450215,14.4677352 L155.450215,96.154299 C155.450215,98.4468829 153.585326,100.311847 151.292834,100.311847" id="Fill-314" fill="#FFFFFF"></path>
                            </g>
                        </g>
                    </g>
                </g>
            </g>
        </g>
    </g>
</svg>