<?xml version="1.0" encoding="UTF-8"?>
<svg width="86px" height="40px" viewBox="0 0 86 40" version="1.1" xmlns="http://www.w3.org/2000/svg" xmlns:xlink="http://www.w3.org/1999/xlink">
    <title>callout 1 orange inverted bottom right</title>
    <defs>
        <rect id="path-1" x="0" y="0" width="86" height="40"></rect>
        <rect id="path-3" x="0" y="0" width="179" height="35"></rect>
    </defs>
    <g id="Page-1" stroke="none" stroke-width="1" fill="none" fill-rule="evenodd">
        <g id="Artboard" transform="translate(-2997.000000, -1435.000000)">
            <g id="callout-1-orange-inverted-bottom-right" transform="translate(2997.000000, 1435.000000)">
                <mask id="mask-2" fill="white">
                    <use xlink:href="#path-1"></use>
                </mask>
                <g id="Mask"></g>
                <g id="callout-1-orange-inverted-bottom" mask="url(#mask-2)">
                    <g transform="translate(-93.000000, 0.000000)">
                        <mask id="mask-4" fill="white">
                            <use xlink:href="#path-3"></use>
                        </mask>
                        <g id="Mask" stroke="none" fill="none"></g>
                        <g id="Group-3" stroke="none" stroke-width="1" fill="none" fill-rule="evenodd" mask="url(#mask-4)">
                            <g transform="translate(0.051318, -82.137932)">
                                <path d="M146.471821,7.37722534 L33.2010899,7.37722534 C30.1407923,7.37722534 27.6368474,9.78559737 27.6368474,12.7291065 L27.6368474,90.553208 C27.6368474,93.4968192 30.1407923,95.9051912 33.2010899,95.9051912 L45.9589157,95.3946617 C47.3654703,95.3946617 48.5638393,96.3076927 48.9843967,97.5802386 L49.2194351,100.950755 L49.2398554,101.616996 C49.2438374,101.750448 49.262522,101.877672 49.29254,101.999178 L49.5367675,105.503351 C49.6842025,106.473357 50.9260669,106.916496 51.7497222,106.293038 C56.8832993,101.940365 62.1159151,95.5873355 69.2681472,95.3626004 C81.0054653,94.9936918 91.8247861,95.9051912 103.577317,95.9051912 L136.752953,95.9051912 L146.471821,95.9051912 C149.532119,95.9051912 152.036063,93.4968192 152.036063,90.553208 L152.036063,12.7291065 C152.036063,9.78559737 149.532119,7.37722534 146.471821,7.37722534" id="Fill-266" fill="#FF5C00"></path>
                                <path d="M176.072219,103.88925 C174.935111,103.88925 174.010069,104.814432 174.010069,105.951483 C174.010069,107.088637 174.935111,108.013716 176.072219,108.013716 C177.209327,108.013716 178.134369,107.088637 178.134369,105.951483 C178.134369,104.814432 177.209327,103.88925 176.072219,103.88925 M176.072219,108.761029 C174.52313,108.761029 173.262785,107.500634 173.262785,105.951483 C173.262785,104.402333 174.52313,103.142039 176.072219,103.142039 C177.621308,103.142039 178.881652,104.402333 178.881652,105.951483 C178.881652,107.500634 177.621308,108.761029 176.072219,108.761029" id="Fill-280" fill="#FFFFFF"></path>
                                <path d="M161.669594,108.670676 C161.326736,108.670676 161.048917,108.392744 161.048917,108.049974 C161.048917,107.707103 161.326736,107.429272 161.669594,107.429272 L165.310851,107.429272 C165.653607,107.429272 165.931528,107.707103 165.931528,108.049974 C165.931528,108.392744 165.653607,108.670676 165.310851,108.670676 L161.669594,108.670676 Z" id="Fill-282" fill="#FFFFFF"></path>
                                <path d="M158.897224,108.670676 L157.573167,108.670676 C157.230411,108.670676 156.952592,108.392744 156.952592,108.049974 C156.952592,107.707103 157.230411,107.429272 157.573167,107.429272 L158.897224,107.429272 C159.239979,107.429272 159.5179,107.707103 159.5179,108.049974 C159.5179,108.392744 159.239979,108.670676 158.897224,108.670676" id="Fill-284" fill="#FFFFFF"></path>
                                <path d="M47.8783073,116.420157 C47.2637565,116.420157 46.64553,116.28262 46.0665106,116.003361 C44.640863,115.315269 43.7404271,113.904778 43.7161269,112.321932 L43.5701213,102.697634 C43.5500072,101.382101 42.4635418,100.311827 41.14796,100.311827 L27.0503542,100.311827 C24.7578622,100.311827 22.8926662,98.4469646 22.8926662,96.1542786 L22.8926662,14.4677148 C22.8926662,12.1751309 24.7578622,10.3101665 27.0503542,10.3101665 L35.3431656,10.3101665 L35.3431656,12.0454564 L27.0503542,12.0454564 C25.7147604,12.0454564 24.6279887,13.1320674 24.6279887,14.4677148 L24.6279887,96.1542786 C24.6279887,97.4900281 25.7147604,98.576537 27.0503542,98.576537 L41.14796,98.576537 C43.4060437,98.576537 45.2709333,100.413218 45.3053416,102.671188 L45.4513472,112.295487 C45.4655394,113.231696 45.97758,114.033533 46.8206346,114.440528 C47.6651187,114.848339 48.6103773,114.74899 49.3515344,114.177911 L68.4836785,99.4402509 C69.2069678,98.8832632 70.1080163,98.576537 71.0208065,98.576537 L115.074574,98.576537 L115.074574,100.311827 L71.0208065,100.311827 C70.4889581,100.311827 69.9639506,100.490614 69.5428827,100.815209 L50.4106365,115.552869 C49.6658038,116.126194 48.7763949,116.420157 47.8783073,116.420157" id="Fill-312" fill="#FFFFFF"></path>
                                <path d="M151.292834,100.311847 L142.156763,100.311847 L142.156763,98.5765574 L151.292834,98.5765574 C152.628427,98.5765574 153.714995,97.4899464 153.714995,96.154299 L153.714995,14.4677352 C153.714995,13.1320879 152.628427,12.0454768 151.292834,12.0454768 L62.425253,12.0454768 L62.425253,10.3101869 L151.292834,10.3101869 C153.585326,10.3101869 155.450215,12.1751513 155.450215,14.4677352 L155.450215,96.154299 C155.450215,98.4468829 153.585326,100.311847 151.292834,100.311847" id="Fill-314" fill="#FFFFFF"></path>
                                <path d="M118.940424,100.324917 C119.72426,101.199556 120.886893,101.701917 122.431489,101.830775 C121.936091,103.137424 120.955403,104.555267 119.488609,106.084303 C119.090105,106.499976 118.676797,106.897168 118.256648,107.286191 L122.767711,107.286191 C123.445973,106.591156 124.077371,105.868349 124.655165,105.114092 C125.75327,103.68073 126.594589,102.198254 127.178611,100.66544 C127.763042,99.1331367 127.956116,97.6173745 127.757324,96.1161114 C127.577319,94.7571839 126.937753,93.625442 125.840669,92.7206815 C124.742462,91.8172485 123.466598,91.4606946 122.014199,91.6529601 C120.653591,91.833177 119.521894,92.4728705 118.618395,93.5698964 C117.714284,94.667637 117.358867,95.9434503 117.551227,97.3962131 C117.694169,98.4754726 118.156282,99.4519114 118.940424,100.324917" id="Fill-320" fill="#FFFFFF"></path>
                                <path d="M131.057234,100.324917 C131.840968,101.199556 133.003703,101.701917 134.5483,101.830775 C134.052902,103.137424 133.072214,104.555267 131.605419,106.084303 C131.206916,106.499976 130.793608,106.897168 130.373459,107.286191 L134.884521,107.286191 C135.562681,106.591156 136.194181,105.868349 136.771975,105.114092 C137.87008,103.68073 138.711399,102.198254 139.295319,100.66544 C139.879852,99.1331367 140.072825,97.6173745 139.874134,96.1161114 C139.694129,94.7571839 139.054563,93.625442 137.957479,92.7206815 C136.859272,91.8172485 135.583408,91.4606946 134.131009,91.6529601 C132.770401,91.833177 131.638704,92.4728705 130.735103,93.5698964 C129.831094,94.667637 129.475575,95.9434503 129.668037,97.3962131 C129.810878,98.4754726 130.273092,99.4519114 131.057234,100.324917" id="Fill-322" fill="#FFFFFF"></path>
                            </g>
                        </g>
                    </g>
                </g>
            </g>
        </g>
    </g>
</svg>