<?xml version="1.0" encoding="UTF-8"?>
<svg width="86px" height="40px" viewBox="0 0 86 40" version="1.1" xmlns="http://www.w3.org/2000/svg" xmlns:xlink="http://www.w3.org/1999/xlink">
    <title>callout 1 orange inverted top left</title>
    <defs>
        <rect id="path-1" x="0" y="0" width="86" height="40"></rect>
        <rect id="path-3" x="0" y="0" width="179" height="40"></rect>
    </defs>
    <g id="Page-1" stroke="none" stroke-width="1" fill="none" fill-rule="evenodd">
        <g id="Artboard" transform="translate(-2903.000000, -1387.000000)">
            <g id="callout-1-orange-inverted-top-left" transform="translate(2903.000000, 1387.000000)">
                <mask id="mask-2" fill="white">
                    <use xlink:href="#path-1"></use>
                </mask>
                <g id="Mask"></g>
                <g id="callout-1-orange-inverted-top-2" mask="url(#mask-2)">
                    <g id="callout-1-orange-inverted-top">
                        <mask id="mask-4" fill="white">
                            <use xlink:href="#path-3"></use>
                        </mask>
                        <g id="Mask"></g>
                        <g id="Group-3" mask="url(#mask-4)">
                            <g transform="translate(0.051318, 0.862068)">
                                <path d="M33.2010899,7.37722534 C30.1407923,7.37722534 27.6368474,9.78559737 27.6368474,12.7291065 L27.6368474,90.553208 C27.6368474,93.4968192 30.1407923,95.9051912 33.2010899,95.9051912 L45.9589157,95.3946617 C47.3654703,95.3946617 48.5638393,96.3076927 48.9843967,97.5802386 L49.2194351,100.950755 L49.2398554,101.616996 C49.2438374,101.750448 49.262522,101.877672 49.29254,101.999178 L49.5367675,105.503351 C49.6842025,106.473357 50.9260669,106.916496 51.7497222,106.293038 C56.8832993,101.940365 62.1159151,95.5873355 69.2681472,95.3626004 C81.0054653,94.9936918 91.8247861,95.9051912 103.577317,95.9051912 L136.752953,95.9051912 L146.471821,95.9051912 C149.532119,95.9051912 152.036063,93.4968192 152.036063,90.553208 L152.036063,12.7291065 C152.036063,9.78559737 149.532119,7.37722534 146.471821,7.37722534 L33.2010899,7.37722534 Z" id="Fill-266" fill="#FF5C00"></path>
                                <path d="M6.61541133,22.6336858 C6.51116538,22.6336858 6.40702153,22.5931498 6.32881154,22.5124861 L4.77737449,20.9141202 C4.62360915,20.7556518 4.62728482,20.5029397 4.78574683,20.3491682 C4.94461726,20.1954988 5.19680874,20.1993789 5.35057407,20.3575409 L6.90201112,21.9558047 C7.05567435,22.1141709 7.05210079,22.3670873 6.89374088,22.5207567 C6.81593929,22.5962129 6.71577742,22.6336858 6.61541133,22.6336858" id="Fill-294" fill="#FFFFFF"></path>
                                <path d="M8.10771102,22.6336858 C8.00734494,22.6336858 7.90718306,22.5962129 7.82938147,22.5207567 C7.67102156,22.3670873 7.6673459,22.1141709 7.82111123,21.9558047 L9.37254828,20.3575409 C9.52621151,20.1993789 9.7790156,20.1954988 9.93737552,20.3491682 C10.0958375,20.5029397 10.0994111,20.7556518 9.94574787,20.9141202 L8.39431081,22.5124861 C8.31610082,22.5931498 8.21195697,22.6336858 8.10771102,22.6336858" id="Fill-298" fill="#FFFFFF"></path>
                                <path d="M8.10771102,23.5091623 C8.21195697,23.5091623 8.31610082,23.5495962 8.39431081,23.630362 L9.94574787,25.2286257 C10.0995132,25.3870941 10.0958375,25.6398062 9.93737552,25.7935777 C9.7785051,25.9472471 9.52621151,25.9433671 9.37254828,25.785205 L7.82111123,24.1869413 C7.6673459,24.028575 7.67102156,23.7756587 7.82938147,23.6219893 C7.90718306,23.546533 8.00734494,23.5091623 8.10771102,23.5091623" id="Fill-302" fill="#FFFFFF"></path>
                                <path d="M6.61541133,23.5091623 C6.71577742,23.5091623 6.81593929,23.546533 6.89374088,23.6219893 C7.05210079,23.7756587 7.05567435,24.028575 6.90201112,24.1869413 L5.35057407,25.785205 C5.19680874,25.9433671 4.94410675,25.9472471 4.78574683,25.7935777 C4.62728482,25.6398062 4.62360915,25.3870941 4.77737449,25.2286257 L6.32881154,23.630362 C6.40702153,23.5495962 6.51116538,23.5091623 6.61541133,23.5091623" id="Fill-306" fill="#FFFFFF"></path>
                                <path d="M47.8783073,116.420157 C47.2637565,116.420157 46.64553,116.28262 46.0665106,116.003361 C44.640863,115.315269 43.7404271,113.904778 43.7161269,112.321932 L43.5701213,102.697634 C43.5500072,101.382101 42.4635418,100.311827 41.14796,100.311827 L27.0503542,100.311827 C24.7578622,100.311827 22.8926662,98.4469646 22.8926662,96.1542786 L22.8926662,14.4677148 C22.8926662,12.1751309 24.7578622,10.3101665 27.0503542,10.3101665 L35.3431656,10.3101665 L35.3431656,12.0454564 L27.0503542,12.0454564 C25.7147604,12.0454564 24.6279887,13.1320674 24.6279887,14.4677148 L24.6279887,96.1542786 C24.6279887,97.4900281 25.7147604,98.576537 27.0503542,98.576537 L41.14796,98.576537 C43.4060437,98.576537 45.2709333,100.413218 45.3053416,102.671188 L45.4513472,112.295487 C45.4655394,113.231696 45.97758,114.033533 46.8206346,114.440528 C47.6651187,114.848339 48.6103773,114.74899 49.3515344,114.177911 L68.4836785,99.4402509 C69.2069678,98.8832632 70.1080163,98.576537 71.0208065,98.576537 L115.074574,98.576537 L115.074574,100.311827 L71.0208065,100.311827 C70.4889581,100.311827 69.9639506,100.490614 69.5428827,100.815209 L50.4106365,115.552869 C49.6658038,116.126194 48.7763949,116.420157 47.8783073,116.420157" id="Fill-312" fill="#FFFFFF"></path>
                                <path d="M151.292834,100.311847 L142.156763,100.311847 L142.156763,98.5765574 L151.292834,98.5765574 C152.628427,98.5765574 153.714995,97.4899464 153.714995,96.154299 L153.714995,14.4677352 C153.714995,13.1320879 152.628427,12.0454768 151.292834,12.0454768 L62.425253,12.0454768 L62.425253,10.3101869 L151.292834,10.3101869 C153.585326,10.3101869 155.450215,12.1751513 155.450215,14.4677352 L155.450215,96.154299 C155.450215,98.4468829 153.585326,100.311847 151.292834,100.311847" id="Fill-314" fill="#FFFFFF"></path>
                                <path d="M58.8022008,8.14202921 C58.0183651,7.26739001 56.8557318,6.76513105 55.3111356,6.63617129 C55.8065336,5.329522 56.7872215,3.91167937 58.2540161,2.3826434 C58.6525195,1.96697026 59.0658277,1.56977828 59.4859766,1.18075477 L54.9749143,1.18075477 C54.2966519,1.87578968 53.6652543,2.5985974 53.0874602,3.35285374 C51.9893552,4.78621646 51.1480362,6.26869213 50.5640138,7.80150601 C49.9795831,9.33391147 49.7865085,10.8495716 49.9853008,12.3508347 C50.1652042,13.7097622 50.804872,14.8415041 51.901956,15.7462646 C53.0001631,16.6496976 54.2760274,17.0062515 55.7284257,16.813986 C57.0890344,16.6337691 58.2207309,15.9940756 59.1242299,14.8970497 C60.0283414,13.7994112 60.3837579,12.5234958 60.191398,11.070733 C60.0484555,9.99157562 59.5863427,9.01503472 58.8022008,8.14202921" id="Fill-316" fill="#FFFFFF"></path>
                                <path d="M46.6853906,8.14202921 C45.9016571,7.26739001 44.7389216,6.76513105 43.1943254,6.63617129 C43.6897234,5.329522 44.6704113,3.91167937 46.1372059,2.3826434 C46.5357093,1.96697026 46.9490175,1.56977828 47.3691664,1.18075477 L42.8581041,1.18075477 C42.1799438,1.87578968 41.5484441,2.5985974 40.97065,3.35285374 C39.872545,4.78621646 39.031226,6.26869213 38.4473057,7.80150601 C37.8627729,9.33391147 37.6696983,10.8495716 37.8684906,12.3508347 C38.0484961,13.7097622 38.6880618,14.8415041 39.7851458,15.7462646 C40.8833529,16.6496976 42.1592172,17.0062515 43.6116155,16.813986 C44.9722242,16.6337691 46.1039207,15.9940756 47.0075218,14.8970497 C47.9115313,13.7994112 48.2669477,12.5234958 48.0745878,11.070733 C47.9317474,9.99157562 47.4695325,9.01503472 46.6853906,8.14202921" id="Fill-318" fill="#FFFFFF"></path>
                            </g>
                        </g>
                    </g>
                </g>
            </g>
        </g>
    </g>
</svg>