<?xml version="1.0" encoding="UTF-8"?>
<svg width="1440px" height="366px" viewBox="0 0 1440 366" version="1.1" xmlns="http://www.w3.org/2000/svg" xmlns:xlink="http://www.w3.org/1999/xlink">
    <title>Artboard</title>
    <g id="Artboard" stroke="none" stroke-width="1" fill="none" fill-rule="evenodd" opacity="0.05">
        <g id="Group" transform="translate(0.000000, -0.500000)" fill="#036AE2" fill-rule="nonzero">
            <polygon id="Path" points="913 79.0791855 913 6.87134942e-14 750.111563 6.87134942e-14 702.688347 6.87134942e-14 671.347787 6.87134942e-14 661.038392 6.87134942e-14 573.202349 6.87134942e-14 493.613821 126.278281 406.190154 6.87134942e-14 315.46748 6.87134942e-14 305.158085 6.87134942e-14 226.394309 6.87134942e-14 226.394309 143.253394 89.0731707 143.253394 89.0731707 6.87134942e-14 0 6.87134942e-14 0 366 89.0731707 366 89.0731707 223.988688 226.394309 223.988688 226.394309 366 315.46748 366 315.46748 14.9049774 448.66486 204.115385 448.66486 366 538.150407 366 538.150407 202.873303 661.038392 16.1470588 661.038392 366 750.111563 366 750.111563 226.058824 892.38121 226.058824 892.38121 151.11991 750.111563 151.11991 750.111563 79.0791855"></polygon>
            <path d="M1352.98315,0.5 L1352.98315,87.8597285 C1352.98315,99.4524887 1352.98315,109.803167 1352.98315,120.153846 L1352.98315,224.074661 L1189.01311,0.5 L1109.5,0.5 L1109.5,366.5 L1144.51873,366.5 L1196.42884,366.5 L1196.42884,246.432127 L1196.42884,147.065611 L1358.75094,366.5 L1439.5,366.5 L1439.5,0.5 L1352.98315,0.5 Z" id="Path"></path>
            <rect id="Rectangle" x="967" y="9.50182148e-15" width="89" height="366"></rect>
        </g>
    </g>
</svg>