<svg width="245" height="32" xmlns="http://www.w3.org/2000/svg" xmlns:xlink="http://www.w3.org/1999/xlink" preserveAspectRatio="none">
  <defs>
    <path id="a" d="M0 0h245v32H0z"/>
  </defs>
  <g fill="none" fill-rule="evenodd">
    <mask id="b" fill="#fff">
      <use xlink:href="#a"/>
    </mask>
    <g mask="url(#b)">
      <path d="M221.23 62.925H26.188c-9.093 0-16.465-7.371-16.465-16.465V26.113c0-9.093 7.372-16.465 16.465-16.465h195.044c9.093 0 16.464 7.372 16.464 16.465V46.46c0 9.094-7.371 16.465-16.464 16.465" fill="#EFDBC1"/>
      <path d="M32.414 15.321c-8.685 0-15.75 7.066-15.75 15.751v18.592c0 8.685 7.065 15.75 15.75 15.75h195.044c8.684 0 15.75-7.065 15.75-15.75V31.072c0-8.685-7.066-15.75-15.75-15.75H32.414zm195.044 51.523H32.414c-9.473 0-17.18-7.707-17.18-17.18V31.072c0-9.473 7.707-17.18 17.18-17.18h195.044c9.472 0 17.18 7.707 17.18 17.18v18.592c0 9.473-7.708 17.18-17.18 17.18zM6.791 3.979a.43.43 0 01-.31-.131L4.807 2.12a.432.432 0 01.62-.601L7.1 3.246a.432.432 0 01-.31.733M8.403 3.979a.432.432 0 01-.31-.732L9.77 1.52a.431.431 0 11.62.601L8.713 3.848a.43.43 0 01-.31.13M8.403 4.924a.43.43 0 01.31.131l1.676 1.726a.432.432 0 01-.62.602L8.094 5.656a.432.432 0 01.31-.732M6.791 4.924a.43.43 0 01.31.732L5.425 7.383a.432.432 0 01-.619-.602l1.676-1.726a.43.43 0 01.31-.13" fill="#FFF"/>
      <path d="M241.52 4.939a3.072 3.072 0 11-6.144 0 3.072 3.072 0 016.144 0" fill="#EFDBC1"/>
      <path d="M237.414.889a2.604 2.604 0 00-2.6 2.6c0 1.435 1.166 2.602 2.6 2.602 1.434 0 2.601-1.167 2.601-2.601a2.604 2.604 0 00-2.6-2.601m0 6.144a3.547 3.547 0 01-3.544-3.543 3.547 3.547 0 013.543-3.544 3.547 3.547 0 013.543 3.544 3.547 3.547 0 01-3.543 3.543" fill="#FFF"/>
    </g>
  </g>
</svg>
