<?xml version="1.0" encoding="utf-8"?>
<svg width="42px" height="42px" viewBox="0 0 42 42" version="1.1" xmlns:xlink="http://www.w3.org/1999/xlink" xmlns="http://www.w3.org/2000/svg">
  <defs>
    <path d="M21 0C9.40204 0 0 9.40205 0 21L0 21C0 32.5979 9.40204 42 21 42L21 42C32.5979 42 42 32.5979 42 21L42 21C42 9.40205 32.5979 0 21 0Z" id="path_1" />
    <clipPath id="mask_1">
      <use xlink:href="#path_1" />
    </clipPath>
  </defs>
  <g id="Group-13">
    <path d="M21 0C32.598 0 42 9.40205 42 21C42 32.5979 32.598 42 21 42C9.40208 42 3.5e-05 32.5979 3.5e-05 21C3.5e-05 9.40205 9.40208 0 21 0" id="Fill-1" fill="#CCCCCC" fill-rule="evenodd" stroke="none" />
    <g id="Group-12">
      <g id="Group-5">
        <path d="M21 0C9.40204 0 0 9.40205 0 21L0 21C0 32.5979 9.40204 42 21 42L21 42C32.5979 42 42 32.5979 42 21L42 21C42 9.40205 32.5979 0 21 0Z" id="Clip-4" fill="none" fill-rule="evenodd" stroke="none" />
        <g clip-path="url(#mask_1)">
          <path d="M-10.5 14.0616L-10.5 5.1954L2.7993 14.0616L-10.5 14.0616ZM-10.5 36.8046L-10.5 27.9384L2.7993 27.9384L-10.5 36.8046ZM15.7962 42L-2.7069 42L15.7962 29.6646L15.7962 42ZM44.7069 42L26.2038 42L26.2038 29.6646L44.7069 42ZM52.5 27.9384L52.5 36.8046L39.2007 27.9384L52.5 27.9384ZM52.5 5.1954L52.5 14.0616L39.2007 14.0616L52.5 5.1954ZM26.2038 0L44.7069 0L26.2038 12.3354L26.2038 0ZM-2.7069 0L15.7962 0L15.7962 12.3354L-2.7069 0Z" id="Fill-3" fill="#0D44A5" fill-rule="evenodd" stroke="none" />
        </g>
      </g>
      <g id="Group-8">
        <path d="M21 0C9.40204 0 0 9.40205 0 21L0 21C0 32.5979 9.40204 42 21 42L21 42C32.5979 42 42 32.5979 42 21L42 21C42 9.40205 32.5979 0 21 0Z" id="Clip-7" fill="none" fill-rule="evenodd" stroke="none" />
        <g clip-path="url(#mask_1)">
          <path d="M17.7515 42L15.7961 42L15.7961 29.6646L-2.707 42L-7.5776 42L13.5148 27.9384L7.66979 27.9384L-10.5001 40.0516L-10.5001 36.8046L2.79919 27.9384L-10.5001 27.9384L-10.5001 25.3312L17.7515 25.3312L17.7515 42ZM52.4999 25.3312L52.4999 27.9384L39.2006 27.9384L52.4999 36.8046L52.4999 40.0516L34.33 27.9384L28.4853 27.9384L49.5774 42L44.7068 42L26.2037 29.6646L26.2037 42L24.2486 42L24.2486 25.3312L52.4999 25.3312ZM24.2486 0L26.2037 0L26.2037 12.3354L44.7068 0L49.5774 0L28.485 14.0616L34.33 14.0616L52.4999 1.9481L52.4999 5.1954L39.2006 14.0616L52.4999 14.0616L52.4999 16.6688L24.2486 16.6688L24.2486 0ZM15.7961 0L17.7515 0L17.7515 16.6688L-10.5001 16.6688L-10.5001 14.0616L2.79919 14.0616L-10.5001 5.1954L-10.5001 1.9481L7.67014 14.0616L13.5151 14.0616L-7.5776 0L-2.707 0L15.7961 12.3354L15.7961 0Z" id="Fill-6" fill="#F0F0F0" fill-rule="evenodd" stroke="none" />
        </g>
      </g>
      <g id="Group-11">
        <path d="M21 0C9.40204 0 0 9.40205 0 21L0 21C0 32.5979 9.40204 42 21 42L21 42C32.5979 42 42 32.5979 42 21L42 21C42 9.40205 32.5979 0 21 0Z" id="Clip-10" fill="none" fill-rule="evenodd" stroke="none" />
        <g clip-path="url(#mask_1)">
          <path d="M7.66993 27.9384L-10.5 40.0516L-10.5 42L-7.57746 42L13.5149 27.9384L7.66993 27.9384ZM13.5149 14.0616L-7.57746 3.5e-05L-10.5 3.5e-05L-10.5 1.94813L7.66993 14.0616L13.5149 14.0616ZM34.3301 14.0616L52.5 1.94813L52.5 3.5e-05L49.5775 3.5e-05L28.4851 14.0616L34.3301 14.0616ZM52.5 40.0516L34.3301 27.9384L28.4851 27.9384L49.5775 42L52.5 42L52.5 40.0516ZM24.2484 3.5e-05L24.2484 16.6688L52.5 16.6688L52.5 25.3313L24.2484 25.3313L24.2484 42L21 42L17.7517 42L17.7517 25.3313L-10.5 25.3313L-10.5 16.6688L17.7517 16.6688L17.7517 3.5e-05L21 3.5e-05L24.2484 3.5e-05Z" id="Fill-9" fill="#FC1D23" fill-rule="evenodd" stroke="none" />
        </g>
      </g>
    </g>
  </g>
</svg>