<svg width="120" height="120" xmlns="http://www.w3.org/2000/svg" xmlns:xlink="http://www.w3.org/1999/xlink">
  <defs>
    <path id="a" d="M0 0h120v120H0z"/>
    <path d="M60 0C26.864 0 0 26.863 0 60s26.864 60 60 60c33.137 0 60-26.863 60-60S93.137 0 60 0z" id="c"/>
  </defs>
  <g fill="none" fill-rule="evenodd">
    <g>
      <mask id="b" fill="#fff">
        <use xlink:href="#a"/>
      </mask>
      <path d="M60 0c33.137 0 60 26.863 60 60s-26.863 60-60 60C26.862 120 0 93.137 0 60S26.862 0 60 0" fill="#CCC" mask="url(#b)"/>
    </g>
    <mask id="d" fill="#fff">
      <use xlink:href="#c"/>
    </mask>
    <path fill="#F4F5F7" mask="url(#d)" d="M-30 120h180V0H-30z"/>
    <path d="M46.253 38.27c1.185.74 2.296 1.184 3.222 1.295.925.11 1.184.444 1.888.481.703.037 1.147-.74 2.073-.37.925.37.482.518 1.629.296 1.148-.222 1.222.37 2.073.556.852.185 1-.667 2.333-.185 1.333.481 1.185.592 2.332.444 1.058-.136 3.312.373 4.925-.222.703-.26 1.48.074 2.332-.408.852-.481.963-.592 1.666-.481.704.11 1.334.11 1.925-.334.593-.443 1.89-1.925 3-1.925s.87.242 1.925.111c1.055-.129 5.98-1.647 7.127-2.572 1.148-.926 2.333-.926 3.295-1.703.963-.778 1.333-2.555 2.036-2.555.704 0 .815.519 2.185 0s1.74-.37 2.703-1.334c.963-.962.814-1.591 1.925-1.776 1.11-.186 1.26-.038 1.815-.593.554-.555.184-.258 1.48-.48 1.296-.223 3.443-1.667 3.925-1.742.481-.074.11 1.667-.519 1.853-.629.185-1.184-.334-2.184.48-1 .815-2.592 1.519-2.85 2.184-.26.667-.297 1.186-.927 1.593-.63.407-1.925.482-2.406 1.333-.482.852-.778 1.665-1.592 1.74-.815.074-2.37.481-3.444 1.333-1.073.85-3.183 2.147-3.368 3.035-.186.89-.186 1.519-1 2-.814.481-1.74-.185-2.926.37-1.184.556-1.073 1.111-1.443 1.889-.37.777-.778.221-1.036 1.666-.26 1.443-.037 2.814.591 3.924.63 1.111 1.315.944 1.704 2.11.389 1.167.907 1.426 1.906 2.13 1 .704.26.704.815 1.332.556.63 1.296 1.667 1.036 2.259-.258.592-.814-.556-1.74-.593-.925-.037-1.48-.184-2.036-.073-.556.11-1.74-.185-2.036.295-.296.482-.185 1.186-1.037 1.26-.851.074-.74-.89-2.444-1.149-1.703-.259-2.813-.85-3.961-.11-1.147.74-1.925 1.925-1.925 3.48s0 1.48-.408 2.333c-.407.85-.444 1.036-1.777 1.073-1.332.037-1.85 1.333-2.555 1.519-.703.185-1.952.341-2.527.88-.573.536-.406.647-.777.72-.37.075-.926.167-1.314.555-.39.39-.556-.055-.963.316-.408.37.241.351-.63.462-.87.111-1.036-.314-1.684-.129-.647.185-.352.482-.926.629-.573.148.02.222-1.443-.018s-1.435-.343-2.397-.158c-.963.185-1.482.704-2.093.926-.61.222-.889.037-1.26.277-.368.242-1.628 1.611-1.776 2.278-.148.666 1.24 2.444.981 2.758-.26.314-.796-.407-1.814-.111s-1.24.351-1.388-.222c-.149-.574.481-.574-.112-1.63-.591-1.054-.88-1.897-2.045-2.23-1.167-.333-1.444.167-2.129.13-.684-.037-.63-.5-1.26-.204-.628.296-.795.796-1.406.796-.61 0-.129-.389-.907 0-.777.39-1.819-.273-2.41-.45-.593-.175-1.482-.24-1.658-.545-1.1-1.91-2.108-.869-2.647-1.278-.268-.203-.12-.36-.444-.37-.324-.008-1.014.144-1.356-.3-.343-.445-.296-.547-.63-.853-.333-.304-1.583-.472-1.786-1.008-.203-.537.01-.564-.176-1.028-.415-1.037-.478-2.45-.828-2.799-.204-.204-1.245-.523-1.44-.856-.194-.334 0-.482-.287-.88-.286-.398-.639-.231-.528-.583.111-.352.37-.444.361-.889-.008-.444-.355-.523-.448-1.069-.141-.828.495-1.788-.223-2.582-.259-.287-.985-1.319-1.05-1.856-.065-.537.055-1.75.398-1.888.342-.14.037.444.426.74.388.297 1.064.472 1.36.89.297.415-.194.563.63.767 1.954.483 1.661.332 3.957-1.161.555-.361.814-.297 1.083-.603.268-.304.412-1.447.949-2.253 1.289-1.933.861-1.199 1.85-1.37.537-.092.88-.666 1.917-.777 3.34-.359 3.757.914 6.238 1.777.852.296.797.388 1.89-.167 1.091-.555 1.905-1.426 2.127-2.129.345-1.093.718-5.1.361-6.433-.277-1.036-.592-2.148-.018-1.842" fill="#F29534" mask="url(#d)"/>
    <path d="M38.469 75.682c-.297.833-.704 5.443 1.944 6.979 0 0 1.647-3.536-1.944-6.979m3.628 2.907c-.149.407-1.499 2.814 1.462 6.535 0 0 1.833-2.666-1.462-6.535m3.313 2.277c0 .796-1.018 4.128 2.018 6.627 0 0 1.945-2.888-2.018-6.627m3.397 1.824c0 .813-.74 3.905 2.518 6.608 0 0 1.63-2.906-2.518-6.608m3.573 1.295c-.018 1.703-.129 3.647 3.166 6.775 0 0 .649-4.998-3.166-6.775m-19.372-.842c1.129-.055 4.072-1.037 7.368 1.702 0 0-3.5 2.5-7.368-1.702M43.16 86.91c-1.258-.26-4.053-1.703-6.368.37 0 0 3.776 2.296 6.368-.37m-2.452 3.786c.444-.556 2.628-3.444 6.497-1.888 0 0-2.684 3.183-6.497 1.888m3.84 1.878c.853-.665 2.667-2.887 6.443-1.702 0 0-1.777 3.572-6.442 1.702m3.703 2.444c.629-.888 2.054-3.091 6.238-3.072 0 0-1.167 3.813-6.238 3.072m39.273-18.151c.037.666-1.185 4.276-5.813 5.202 0 0 .333-4.22 5.813-5.202m-6.332-1.185c.297.833.704 5.443-1.943 6.979 0 0-1.648-3.536 1.943-6.979m-3.628 2.907c.149.407 1.5 2.814-1.462 6.535 0 0-1.833-2.666 1.462-6.535m-3.313 2.277c0 .796 1.018 4.128-2.018 6.627 0 0-1.944-2.888 2.018-6.627m-3.397 1.824c0 .813.74 3.905-2.518 6.608 0 0-1.629-2.906 2.518-6.608m-3.573 1.295c.019 1.703.13 3.647-3.166 6.775 0 0-.647-4.998 3.166-6.775m19.372-.842c-1.129-.055-4.072-1.037-7.367 1.702 0 0 3.5 2.5 7.367-1.702M76.502 86.91c1.26-.26 4.054-1.703 6.368.37 0 0-3.776 2.296-6.368-.37m2.453 3.786c-.445-.556-2.629-3.444-6.498-1.888 0 0 2.685 3.183 6.498 1.888m-3.842 1.878c-.85-.665-2.666-2.887-6.442-1.702 0 0 1.777 3.572 6.442 1.702m-3.702 2.444c-.63-.888-2.055-3.091-6.239-3.072 0 0 1.167 3.813 6.24 3.072m-4.99-4.23l-5.624 1.73c1.389.369 3.403 1.64 3.403 1.64l-4.369-1.343-4.369 1.343s2.014-1.271 3.403-1.64l-5.624-1.73c.007-.007 4.462 1.02 6.59 1.506 2.128-.487 6.582-1.513 6.59-1.506M32.138 76.867c-.037.666 1.184 4.276 5.812 5.202 0 0-.333-4.22-5.812-5.202" fill="#4BB42C" mask="url(#d)"/>
  </g>
</svg>
