<?xml version="1.0" encoding="utf-8"?>
<svg width="47px" height="44.279297px" viewBox="0 0 47 44.279297" version="1.1" xmlns:xlink="http://www.w3.org/1999/xlink" xmlns="http://www.w3.org/2000/svg">
  <g id="Group-9" transform="translate(1 1)">
    <path d="M26 19.2794L22 15.7964" id="Stroke-1" fill="none" fill-rule="evenodd" stroke="#B7B7B7" stroke-width="2" />
    <g id="Group-8">
      <path d="M15.2023 12.2794C14.1603 5.1124 8.9523 0.696399 5.2023 0.279399C2.9523 3.5914 2.7853 10.1544 8.2023 14.2794" id="Stroke-2" fill="none" fill-rule="evenodd" stroke="#B7B7B7" stroke-width="2" stroke-linecap="round" stroke-linejoin="round" />
      <path d="M4 9.2794L0 9.2794" id="Stroke-4" fill="none" fill-rule="evenodd" stroke="#B7B7B7" stroke-width="2" stroke-linecap="round" stroke-linejoin="round" />
      <path d="M15 4.2794C16.417 2.4464 18.778 1.4094 23.202 0.279399C28.75 -1.1376 38.292 3.4044 45 1.2794C44.625 4.9874 31.922 5.7434 27.202 7.2794C24.024 8.3134 24.597 10.0294 26.202 11.2794C32.305 14.2174 31.327 16.2174 31.202 19.2794C32.549 21.6494 37.563 25.5084 40.202 28.2794C41.869 30.0294 43.619 31.3624 42.785 33.0184C40.817 36.9274 36.083 41.2794 34 41.2794C32.589 41.2794 9.869 40.0294 7.211 38.4834C6.418 38.9234 2.202 42.2794 2.202 42.2794" id="Stroke-6" fill="none" fill-rule="evenodd" stroke="#B7B7B7" stroke-width="2" stroke-linecap="round" stroke-linejoin="round" />
    </g>
  </g>
</svg>