<?xml version="1.0" encoding="utf-8"?>
<!-- Generator: Adobe Illustrator 26.2.1, SVG Export Plug-In . SVG Version: 6.00 Build 0)  -->
<svg version="1.1" id="Layer_1" xmlns="http://www.w3.org/2000/svg" xmlns:xlink="http://www.w3.org/1999/xlink" x="0px" y="0px"
	 viewBox="0 0 66 64" style="enable-background:new 0 0 66 64;" xml:space="preserve">
<style type="text/css">
	.st0{fill:none;stroke:#1B1B3C;stroke-width:1.535;stroke-linecap:round;stroke-linejoin:round;}
	.st1{fill:none;stroke:#FF6900;stroke-width:1.535;stroke-miterlimit:10;}
</style>
<rect x="2.7" y="55.9" transform="matrix(0.7071 -0.7071 0.7071 0.7071 -39.9222 21.152)" class="st0" width="5.6" height="5.6"/>
<rect x="5.3" y="48.5" transform="matrix(0.7071 -0.7071 0.7071 0.7071 -32.4699 24.283)" class="st0" width="15.5" height="5.6"/>
<g>
	<polyline class="st0" points="50.9,54.6 60.5,54.6 60.5,44.1 	"/>
	<polyline class="st0" points="21.5,1.2 11.9,1.2 11.9,11.8 	"/>
	<polyline class="st0" points="60.5,11.8 60.5,1.2 50.9,1.2 	"/>
</g>
<line class="st0" x1="22.2" y1="42.2" x2="18.6" y2="45.8"/>
<g>
	<path class="st0" d="M51.7,27.9c-3.8,2.8-7.9,7.6-15.5,7.6c-7.6,0-11.7-5.4-15.5-7.6c3.8-2.2,7.9-7.6,15.5-7.6
		C43.8,20.3,47.9,25.7,51.7,27.9z"/>
	<path class="st0" d="M43.3,27.9c0,3.9-3.2,7.1-7.1,7.1s-7.1-3.2-7.1-7.1s3.2-7.1,7.1-7.1C40.1,20.9,43.3,24,43.3,27.9z"/>
	<line class="st0" x1="34.5" y1="24.8" x2="34.5" y2="27.6"/>
</g>
<path class="st1" d="M50.1,14C42.4,6.2,30,6.2,22.2,14s-7.7,20.2,0,27.9s20.2,7.7,27.9,0C57.9,34.1,57.9,21.7,50.1,14z"/>
</svg>
