<?xml version="1.0" encoding="utf-8"?>
<!-- Generator: Adobe Illustrator 26.2.1, SVG Export Plug-In . SVG Version: 6.00 Build 0)  -->
<svg version="1.1" id="Layer_1" xmlns="http://www.w3.org/2000/svg" xmlns:xlink="http://www.w3.org/1999/xlink" x="0px" y="0px"
	 viewBox="0 0 66 64" style="enable-background:new 0 0 66 64;" xml:space="preserve">
<style type="text/css">
	.st0{fill:none;stroke:#1B1B3C;stroke-width:1.535;stroke-linecap:round;stroke-linejoin:round;}
	.st1{fill:none;stroke:#FF6900;stroke-width:1.535;stroke-linecap:round;stroke-linejoin:round;}
</style>
<g>
	<polyline class="st0" points="1.1,49.3 6,44.3 20.9,59.2 17.2,63 	"/>
	<path class="st0" d="M48.1,43.6l9.4-4.9c1.6-0.8,3.5-0.5,4.6,0.8c1.6,1.8,1.1,4.5-0.9,5.7L43.1,56.5c-1.6,1-3.4,1.5-5.3,1.5h-14
		c-1.1,0-2.2,0.4-3,1.3l0,0"/>
	<path class="st0" d="M28.3,48.1h15.9c2,0,3.8-1.5,3.9-3.5c0.1-2.2-1.6-3.9-3.7-3.9h-12c-0.9,0-1.7-0.2-2.6-0.8
		c-1.2-0.8-3.7-1.7-7.6-1.7c-8.7,0-14.8,7.4-14.8,7.4"/>
	<path class="st1" d="M55.5,34c2.4-3.4,3.8-7.5,3.8-11.9C59.3,10.5,49.8,1,38.2,1s-21,9.5-21,21.1c0,4.1,1.2,8,3.2,11.2"/>
	<path class="st1" d="M41.9,18.4H37c-1.4,0-2.5,1.1-2.5,2.5c0,1.4,1.1,2.5,2.5,2.5h2.5c1.4,0,2.5,1.1,2.5,2.5c0,1.4-1.1,2.5-2.5,2.5
		h-4.9"/>
	<line class="st1" x1="38.3" y1="14.7" x2="38.3" y2="18.4"/>
	<line class="st1" x1="38.3" y1="28.3" x2="38.3" y2="32"/>
</g>
</svg>
