<svg xmlns="http://www.w3.org/2000/svg" width="51" height="51">
  <g fill="none" fill-rule="evenodd" stroke="#1B1B3C" stroke-linecap="round" stroke-linejoin="round" stroke-width="2">
    <path d="M49.495 25.5c0 13.255-10.745 24-24 24s-24-10.745-24-24 10.745-24 24-24 24 10.745 24 24z"/>
    <path d="M27.803 32.885H13.957a2.462 2.462 0 01-2.462-2.462v-9.845a2.462 2.462 0 012.462-2.462h13.846a2.462 2.462 0 012.462 2.462v9.845a2.462 2.462 0 01-2.462 2.462z"/>
    <path d="M36.757 33.24l-6.493-3.896v-7.687l6.493-3.896c1.205-.723 2.738.145 2.738 1.55V31.69c0 1.405-1.533 2.273-2.738 1.55z"/>
  </g>
</svg>
