<?xml version="1.0" encoding="utf-8"?>
<!-- Generator: Adobe Illustrator 26.2.1, SVG Export Plug-In . SVG Version: 6.00 Build 0)  -->
<svg version="1.1" id="Layer_1" xmlns="http://www.w3.org/2000/svg" xmlns:xlink="http://www.w3.org/1999/xlink" x="0px" y="0px"
	 viewBox="0 0 66 64" style="enable-background:new 0 0 66 64;" xml:space="preserve">
<style type="text/css">
	.st0{fill:none;stroke:#1B1B3C;stroke-width:1.535;stroke-miterlimit:10;}
	.st1{fill:none;stroke:#1B1B3C;stroke-width:1.535;stroke-linecap:round;stroke-linejoin:round;stroke-miterlimit:10;}
	.st2{fill:none;stroke:#FFFFFF;stroke-width:1.535;stroke-miterlimit:10;}
	.st3{fill:none;stroke:#FFFFFF;stroke-width:1.535;stroke-linecap:round;stroke-linejoin:round;stroke-miterlimit:10;}
</style>
<g>
	<path class="st0" d="M62.2,59.6c0,1.4-1.2,2.7-2.7,2.7H38.2c-1.4,0-2.7-1.2-2.7-2.7V38.2c0-1.4,1.2-2.7,2.7-2.7h21.4
		c1.4,0,2.7,1.2,2.7,2.7V59.6z"/>
	<path class="st1" d="M53.1,51.2C52.3,53.4,50.3,54,49,54c-1.4,0-4.1-0.7-4.1-5.1s3.2-5.2,4.1-5.2c0,0,3-0.2,4,2.6"/>
</g>
<path class="st0" d="M30.5,55.7c0,1.4-1.2,2.7-2.7,2.7H6.4c-1.4,0-2.7-1.2-2.7-2.7V34.3c0-1.4,1.2-2.7,2.7-2.7h21.4
	c1.4,0,2.7,1.2,2.7,2.7V55.7z"/>
<g>
	<line class="st1" x1="13.5" y1="49.9" x2="13.5" y2="39.9"/>
	<path class="st1" d="M13.5,39.9c0,0,5.8-1.2,5.8,2.5c0,3.7-5.8,2.5-5.8,2.5"/>
	<path class="st1" d="M13.5,45.4c0,0,6.6-1.2,6.6,2.5c0,3.7-6.6,2.5-6.6,2.5"/>
</g>
<path class="st2" d="M50.5,30.2c-0.3,1.4-1.7,2.4-3.2,2.1l-21-4.2c-1.4-0.3-2.4-1.7-2.1-3.2l4.2-21c0.3-1.4,1.7-2.4,3.2-2.1l21,4.2
	c1.4,0.3,2.4,1.7,2.2,3.2L50.5,30.2z"/>
<g>
	<polyline class="st3" points="33.8,22 40.4,11.4 42.7,23.8 	"/>
	<line class="st3" x1="36.2" y1="18.1" x2="41.9" y2="19.3"/>
</g>
</svg>
