<svg width="245" height="2" xmlns="http://www.w3.org/2000/svg" xmlns:xlink="http://www.w3.org/1999/xlink">
  <defs>
    <path id="a" d="M0 0h245v2H0z"/>
  </defs>
  <g fill="none" fill-rule="evenodd">
    <mask id="b" fill="#fff">
      <use xlink:href="#a"/>
    </mask>
    <g mask="url(#b)">
      <path d="M26.187 30.925c-9.093 0-16.465-7.371-16.465-16.465V-5.887c0-9.093 7.372-16.465 16.465-16.465h195.044c9.093 0 16.464 7.372 16.464 16.465V14.46c0 9.094-7.371 16.465-16.464 16.465H26.187z" fill="#EFDBC1"/>
      <path d="M32.414-16.679c-8.685 0-15.75 7.066-15.75 15.751v18.592c0 8.685 7.065 15.75 15.75 15.75h195.044c8.684 0 15.75-7.065 15.75-15.75V-.928c0-8.685-7.066-15.75-15.75-15.75H32.414zm195.044 51.523H32.414c-9.473 0-17.18-7.707-17.18-17.18V-.928c0-9.473 7.707-17.18 17.18-17.18h195.044c9.472 0 17.18 7.707 17.18 17.18v18.592c0 9.473-7.708 17.18-17.18 17.18z" fill="#1B1B3E"/>
    </g>
  </g>
</svg>
