<svg width="245" height="33" xmlns="http://www.w3.org/2000/svg" xmlns:xlink="http://www.w3.org/1999/xlink">
  <defs>
    <path id="a" d="M0 0h245v33H0z"/>
  </defs>
  <g fill="none" fill-rule="evenodd">
    <mask id="b" fill="#fff">
      <use xlink:href="#a"/>
    </mask>
    <g mask="url(#b)">
      <path d="M221.23 17.925H26.188c-9.093 0-16.465-7.371-16.465-16.465v-20.347c0-9.093 7.372-16.465 16.465-16.465h195.044c9.093 0 16.464 7.372 16.464 16.465V1.46c0 9.094-7.371 16.465-16.464 16.465" fill="#EFDBC1"/>
      <path d="M32.414-29.679c-8.685 0-15.75 7.066-15.75 15.751V4.664c0 8.685 7.065 15.75 15.75 15.75h195.044c8.684 0 15.75-7.065 15.75-15.75v-18.592c0-8.685-7.066-15.75-15.75-15.75H32.414zm195.044 51.523H32.414c-9.473 0-17.18-7.707-17.18-17.18v-18.592c0-9.473 7.707-17.18 17.18-17.18h195.044c9.472 0 17.18 7.707 17.18 17.18V4.664c0 9.473-7.708 17.18-17.18 17.18zM220.985 28.781a.43.43 0 01-.31-.13L219 26.923a.431.431 0 11.62-.602l1.675 1.727a.431.431 0 01-.31.732M222.597 28.781a.431.431 0 01-.31-.732l1.676-1.727a.431.431 0 01.62.602l-1.677 1.726a.43.43 0 01-.31.131M222.597 29.727a.43.43 0 01.31.13l1.675 1.727a.432.432 0 01-.62.601l-1.675-1.726a.431.431 0 01.31-.732M220.985 29.727a.431.431 0 01.31.732l-1.676 1.726a.432.432 0 01-.62-.601l1.676-1.727a.43.43 0 01.31-.13" fill="#FFF"/>
      <path d="M7.597 22.09a3.072 3.072 0 11-6.144-.001 3.072 3.072 0 016.144 0" fill="#EFDBC1"/>
      <path d="M3.491 18.04a2.604 2.604 0 00-2.6 2.6c0 1.435 1.166 2.601 2.6 2.601a2.604 2.604 0 002.601-2.6 2.604 2.604 0 00-2.6-2.602m0 6.145A3.547 3.547 0 01-.053 20.64a3.547 3.547 0 013.543-3.543 3.547 3.547 0 013.544 3.543 3.547 3.547 0 01-3.544 3.544M32.495 33.099h-4.593a.783.783 0 110-1.566h4.593a.783.783 0 110 1.566M24.405 33.099h-1.67a.783.783 0 110-1.566h1.67a.783.783 0 110 1.566" fill="#FFF"/>
    </g>
  </g>
</svg>
