<svg data-name="Group 13" xmlns="http://www.w3.org/2000/svg" width="31" height="38">
  <path data-name="Fill 5" d="M31 8a7 7 0 11-7-7 7 7 0 017 7" fill="#4b9edd"/>
  <path data-name="Fill 7" d="M23.5 15A7.5 7.5 0 1131 7.5a7.509 7.509 0 01-7.5 7.5zm0-13.282A5.782 5.782 0 1029.281 7.5 5.788 5.788 0 0023.5 1.718z" fill="#fff"/>
  <g data-name="Group 4" fill="#fff">
    <path data-name="Fill 42" d="M10.19 32a1.307 1.307 0 01.854.3l4.62 4a.891.891 0 01-.025 1.417 1.355 1.355 0 01-1.682-.017l-4.62-4a.891.891 0 01.024-1.414A1.313 1.313 0 0110.19 32"/>
    <path data-name="Fill 46" d="M5.81 32a1.314 1.314 0 01.829.283.891.891 0 01.025 1.417l-4.62 4a1.355 1.355 0 01-1.683.017.891.891 0 01-.025-1.417l4.62-4a1.307 1.307 0 01.854-.3"/>
    <path data-name="Fill 50" d="M5.81 29a1.307 1.307 0 01-.854-.3l-4.62-4a.892.892 0 01.025-1.414 1.355 1.355 0 011.682.014l4.62 4a.891.891 0 01-.024 1.417A1.313 1.313 0 015.81 29"/>
    <path data-name="Fill 54" d="M10.19 29a1.313 1.313 0 01-.829-.283.891.891 0 01-.025-1.417l4.62-4a1.355 1.355 0 011.682-.021.892.892 0 01.026 1.421l-4.62 4a1.307 1.307 0 01-.854.3"/>
  </g>
</svg>
