<?xml version="1.0" encoding="utf-8"?>
<svg width="52px" height="52px" viewBox="0 0 52 52" version="1.1" xmlns:xlink="http://www.w3.org/1999/xlink" xmlns="http://www.w3.org/2000/svg">
  <defs>
    <path d="M0 0L52 0L52 52L0 52L0 0Z" id="path_1" />
    <clipPath id="mask_1">
      <use xlink:href="#path_1" />
    </clipPath>
  </defs>
  <g id="Group-6">
    <g id="Group-3">
      <path d="M0 0L52 0L52 52L0 52L0 0Z" id="Clip-2" fill="none" fill-rule="evenodd" stroke="none" />
      <g clip-path="url(#mask_1)">
        <path d="M26.0017 0C11.6407 0 -6.86651e-05 11.6394 -6.86651e-05 26.0001C-6.86651e-05 40.3583 11.6407 52.0001 26.0017 52.0001C40.3592 52.0001 52 40.3583 52 26.0001C52 11.6394 40.3592 0 26.0017 0M26.0017 2.17366C39.1394 2.17366 49.8274 12.8623 49.8274 26.0001C49.8274 39.1378 39.1394 49.8261 26.0017 49.8261C12.8623 49.8261 2.17249 39.1378 2.17249 26.0001C2.17249 12.8623 12.8623 2.17366 26.0017 2.17366" id="Fill-1" fill="#FFFFFF" fill-rule="evenodd" stroke="none" />
      </g>
    </g>
    <path d="M40.3278 13.479C39.1252 14.233 37.7924 14.7788 36.3748 15.0746C35.2411 13.7978 33.6241 12.9999 31.8329 12.9999C28.3973 12.9999 25.6108 15.9388 25.6108 19.5651C25.6108 20.0797 25.6661 20.5795 25.7708 21.0604C20.5993 20.7856 16.0142 18.1736 12.9445 14.2018C12.4096 15.1704 12.1013 16.2992 12.1013 17.5031C12.1013 19.7795 13.2024 21.7876 14.8709 22.9644C13.8519 22.9311 12.8913 22.6353 12.0522 22.1434L12.0522 22.2269C12.0522 25.4053 14.1977 28.0588 17.0449 28.6627C16.5216 28.8128 15.9727 28.8942 15.4041 28.8942C15.0031 28.8942 14.6141 28.8523 14.233 28.7754C15.0268 31.3832 17.3233 33.2807 20.0462 33.3346C17.9159 35.0947 15.2342 36.1444 12.3166 36.1444C11.8129 36.1444 11.3196 36.1132 10.8317 36.0527C13.5872 37.9148 16.8595 38.9999 20.3724 38.9999C31.8192 38.9999 38.0766 29.0004 38.0766 20.3253C38.0766 20.0419 38.0729 19.7568 38.0612 19.4755C39.2752 18.5508 40.3319 17.3949 41.1652 16.0783C40.0494 16.6011 38.8508 16.9532 37.5912 17.1115C38.8766 16.2992 39.8619 15.0141 40.3278 13.479" id="Fill-4" fill="#FFFFFF" fill-rule="evenodd" stroke="none" />
  </g>
</svg>