<?xml version="1.0" encoding="utf-8"?>
<svg width="46.970703px" height="48.308105px" viewBox="0 0 46.970703 48.308105" version="1.1" xmlns:xlink="http://www.w3.org/1999/xlink" xmlns="http://www.w3.org/2000/svg">
  <g id="Group-9" transform="translate(1 1)">
    <path d="M12.513 8.69952C12.513 8.69952 13.455 7.92952 13.475 6.77452C13.496 5.61952 12.874 0.397519 11.55 0.0365195C10.227 -0.324481 4.692 2.00152 2.888 6.54352L0 7.73652" id="Stroke-1" fill="none" fill-rule="evenodd" stroke="#B7B7B7" stroke-width="2" stroke-linecap="round" />
    <path d="M25.8282 20.0336C25.8282 20.0336 24.5662 18.2206 20.7612 17.6196" id="Stroke-3" fill="none" fill-rule="evenodd" stroke="#B7B7B7" stroke-width="2" stroke-linecap="round" />
    <path d="M39.7233 26.0381C39.8793 27.6551 40.7233 30.0381 40.7233 30.0381L44.4113 30.7381" id="Stroke-5" fill="none" fill-rule="evenodd" stroke="#B7B7B7" stroke-width="2" stroke-linecap="round" />
    <path d="M13.3457 5.05812C18.2297 6.42712 29.5207 13.7551 29.5207 13.7551L31.5897 19.3981C31.5897 19.3981 43.7097 25.2721 44.8017 26.0281C45.8057 28.6991 41.9997 36.9721 41.9997 36.9721C41.9997 36.9721 29.0417 42.6211 26.9997 43.0381C24.9587 43.4551 20.7197 44.1001 17.6607 42.2481L13.7257 46.3081" id="Stroke-7" fill="none" fill-rule="evenodd" stroke="#B7B7B7" stroke-width="2" stroke-linecap="round" stroke-linejoin="round" />
  </g>
</svg>