<svg xmlns="http://www.w3.org/2000/svg" width="56" height="53">
  <g fill="none" fill-rule="evenodd">
    <path stroke="#1B1B3C" stroke-linecap="round" stroke-width="2" d="M19 32.25v4h-4v-4h-4v-4h4v-4h4v4h4v4z"/>
    <path fill="#1B1B3C" d="M41.5 25.628c0 .392-.117.775-.336 1.102l-.664.989a1.206 1.206 0 01-2 0l-.664-.99a1.98 1.98 0 01-.336-1.101v-.392c0-1.097.895-1.986 2-1.986 1.104 0 2 .889 2 1.986v.392zm-4 8.244c0-.392.117-.775.336-1.102l.664-.989a1.206 1.206 0 012 0l.664.99c.219.326.336.71.336 1.101v.392a1.993 1.993 0 01-2 1.986c-1.105 0-2-.889-2-1.986v-.392zm6.121-2.122c-.39 0-.775-.117-1.102-.336l-.988-.664a1.205 1.205 0 010-2l.988-.664a1.982 1.982 0 011.102-.336h.393c1.095 0 1.986.895 1.986 2 0 1.104-.89 2-1.986 2h-.393zm-8.244-4c.393 0 .775.117 1.102.336l.99.664a1.205 1.205 0 010 2l-.99.664a1.977 1.977 0 01-1.102.336h-.393a1.993 1.993 0 01-1.984-2c0-1.105.889-2 1.984-2h.393z"/>
    <path stroke="#1B1B3C" stroke-linecap="round" stroke-linejoin="round" stroke-width="2" d="M41.365 17.25c3.23 0 6.09 2.08 7.084 5.15l6.187 19.1a7.437 7.437 0 01-4.582 9.295 7.803 7.803 0 01-9.31-3.328l-2.787-4.639a7.448 7.448 0 00-6.387-3.613h-7.14a7.448 7.448 0 00-6.387 3.613l-2.787 4.639a7.804 7.804 0 01-9.312 3.328 7.434 7.434 0 01-4.58-9.295L7.55 22.4a7.448 7.448 0 017.086-5.15h26.73z"/>
    <path stroke="#1B1B3C" stroke-linecap="square" stroke-linejoin="round" stroke-width="2" d="M28 17.25v-4a4 4 0 014-4h5a4 4 0 004-4v-4"/>
  </g>
</svg>
