<?xml version="1.0" encoding="utf-8"?>
<!-- Generator: Adobe Illustrator 26.2.1, SVG Export Plug-In . SVG Version: 6.00 Build 0)  -->
<svg version="1.1" id="Layer_1" xmlns="http://www.w3.org/2000/svg" xmlns:xlink="http://www.w3.org/1999/xlink" x="0px" y="0px"
	 viewBox="0 0 66 64" style="enable-background:new 0 0 66 64;" xml:space="preserve">
<style type="text/css">
	.st0{fill:none;stroke:#FFFFFF;stroke-width:1.535;stroke-linecap:round;stroke-linejoin:round;stroke-miterlimit:10;}
	.st1{fill:none;stroke:#1B1B3C;stroke-width:1.535;stroke-linecap:round;stroke-linejoin:round;stroke-miterlimit:10;}
</style>
<g>
	<g>
		<polygon class="st0" points="33,27.4 33,10.5 18.4,2.1 3.7,10.5 3.7,27.4 18.4,35.9 		"/>
		<polyline class="st0" points="3.7,10.5 18.4,19 33,10.5 		"/>
		<line class="st0" x1="18.4" y1="35.9" x2="18.4" y2="19"/>
	</g>
</g>
<g>
	<g>
		<polygon class="st0" points="62.3,27.4 62.3,10.5 47.6,2.1 33,10.5 33,27.4 47.6,35.9 		"/>
		<polyline class="st0" points="33,10.5 47.6,19 62.3,10.5 		"/>
		<line class="st0" x1="47.6" y1="35.9" x2="47.6" y2="19"/>
	</g>
</g>
<g>
	<g>
		<polyline class="st1" points="8.2,34.5 3.7,37.1 3.7,54.1 18.4,62.5 33,54.1 33,37.1 28.3,34.4 		"/>
		<polyline class="st1" points="3.7,37.1 18.4,45.7 33,37.1 		"/>
		<line class="st1" x1="18.4" y1="62.5" x2="18.4" y2="45.7"/>
	</g>
</g>
<g>
	<g>
		<polyline class="st1" points="37.4,34.6 33,37.1 33,54.1 47.6,62.5 62.3,54.1 62.3,37.1 57.7,34.4 		"/>
		<polyline class="st1" points="33,37.1 47.6,45.7 62.3,37.1 		"/>
		<line class="st1" x1="47.6" y1="62.5" x2="47.6" y2="45.7"/>
	</g>
</g>
</svg>
