<?xml version="1.0" encoding="UTF-8"?>
<svg width="137px" height="117px" viewBox="0 0 137 117" version="1.1" xmlns="http://www.w3.org/2000/svg" xmlns:xlink="http://www.w3.org/1999/xlink">
    <title>Group 11</title>
    <g id="Page-1" stroke="none" stroke-width="1" fill="none" fill-rule="evenodd" stroke-linecap="round" stroke-linejoin="round">
        <g id="Artboard" transform="translate(-1015.000000, -4554.000000)" stroke-width="3">
            <g id="Group-22" transform="translate(0.000000, 4092.000000)">
                <g id="Group-11" transform="translate(1017.000000, 464.000000)">
                    <path d="M64,51.8159894 C64,75.1467021 31.9990449,91.7887074 31.9990449,113 C31.9990449,91.7887074 0,75.1467021 0,51.8159894 C0,34.2453135 14.32622,20 31.9990449,20 C49.67378,20 64,34.2453135 64,51.8159894 Z" id="Stroke-1" stroke="#1B1B3E"></path>
                    <path d="M42,52 C42,57.5227934 37.5223591,62 31.99903,62 C26.4776409,62 22,57.5227934 22,52 C22,46.4772066 26.4776409,42 31.99903,42 C37.5223591,42 42,46.4772066 42,52 Z" id="Stroke-3" stroke="#1B1B3E"></path>
                    <path d="M98.3874036,74 L76.3225193,74 C70.906178,74 66.5152699,78.3654881 66.5152699,83.7504729 C66.5152699,89.1335661 70.906178,93.4990543 76.3225193,93.4990543 L108.194653,93.4990543 C113.609092,93.4990543 118,97.8645424 118,103.249527 C118,108.634512 113.609092,113 108.194653,113 L42,113" id="Stroke-5" stroke="#FF6900"></path>
                    <path d="M133,24.6673047 C133,43.1673047 108.499049,56.7346094 108.499049,74 C108.499049,56.7346094 84,43.1673047 84,24.6673047 C84,11.0444904 94.9681062,0 108.499049,0 C122.029993,0 133,11.0444904 133,24.6673047 Z" id="Stroke-7" stroke="#1B1B3E"></path>
                    <path d="M116,24.5 C116,28.6418779 112.641878,32 108.5,32 C104.358122,32 101,28.6418779 101,24.5 C101,20.3581221 104.358122,17 108.5,17 C112.641878,17 116,20.3581221 116,24.5 Z" id="Stroke-9" stroke="#1B1B3E"></path>
                </g>
            </g>
        </g>
    </g>
</svg>