<?xml version="1.0" encoding="UTF-8"?>
<svg width="48px" height="66px" viewBox="0 0 48 66" version="1.1" xmlns="http://www.w3.org/2000/svg" xmlns:xlink="http://www.w3.org/1999/xlink">
    <title>Group 14</title>
    <g id="Page-1" stroke="none" stroke-width="1" fill="none" fill-rule="evenodd" stroke-linecap="round" stroke-linejoin="round">
        <g id="Artboard" transform="translate(-1113.000000, -2484.000000)" stroke-width="1.704">
            <g id="Group-6" transform="translate(1072.000000, 2470.000000)">
                <g id="Group-14" transform="translate(42.000000, 15.000000)">
                    <line x1="16.8816" y1="12.235" x2="28.9406" y2="12.235" id="Stroke-1" stroke="#1B1B3E"></line>
                    <line x1="7.2348" y1="19.4701" x2="38.5868" y2="19.4701" id="Stroke-2" stroke="#1B1B3E"></line>
                    <line x1="7.2348" y1="26.7053" x2="38.5868" y2="26.7053" id="Stroke-3" stroke="#1B1B3E"></line>
                    <line x1="7.2348" y1="33.9404" x2="38.5868" y2="33.9404" id="Stroke-4" stroke="#1B1B3E"></line>
                    <line x1="7.2348" y1="45.999" x2="16.8818" y2="45.999" id="Stroke-5" stroke="#1B1B3E"></line>
                    <line x1="7.2348" y1="53.2341" x2="16.8818" y2="53.2341" id="Stroke-6" stroke="#1B1B3E"></line>
                    <g id="Group-13">
                        <path d="M38.587,46.4107 C38.587,50.4087 35.346,53.6457 31.352,53.6457 C27.358,53.6457 24.117,50.4087 24.117,46.4107 C24.117,42.4127 27.358,39.1757 31.352,39.1757 C35.346,39.1757 38.587,42.4127 38.587,46.4107 Z" id="Stroke-7" stroke="#FF6900"></path>
                        <polyline id="Stroke-9" stroke="#FF6900" points="26.5285 51.7927 26.5285 63.2927 31.3515 60.8807 36.1755 63.2927 36.1755 51.7927"></polyline>
                        <path d="M21.705,57.881 L3.617,57.881 C1.619,57.881 0,56.261 0,54.263 L0,3.617 C0,1.619 1.619,0 3.617,0 L42.205,0 C44.203,0 45.822,1.619 45.822,3.617 L45.822,54.263 C45.822,56.261 44.203,57.881 42.205,57.881 L40.999,57.881" id="Stroke-11" stroke="#1B1B3E"></path>
                    </g>
                </g>
            </g>
        </g>
    </g>
</svg>