<?xml version="1.0" encoding="UTF-8"?>
<svg width="2px" height="32px" viewBox="0 0 2 32" version="1.1" xmlns="http://www.w3.org/2000/svg" xmlns:xlink="http://www.w3.org/1999/xlink">
    <title>callout 3 taupe top-horizontal</title>
    <defs>
        <rect id="path-1" x="0" y="0" width="2" height="32"></rect>
    </defs>
    <g id="Page-1" stroke="none" stroke-width="1" fill="none" fill-rule="evenodd">
        <g id="Artboard" transform="translate(-2239.000000, -504.000000)">
            <g id="callout-3-taupe-top-horizontal" transform="translate(2239.000000, 504.000000)">
                <mask id="mask-2" fill="white">
                    <use xlink:href="#path-1"></use>
                </mask>
                <g id="Mask"></g>
                <g id="Group" mask="url(#mask-2)">
                    <g transform="translate(-60.052224, -0.053719)">
                        <path d="M26.2392778,62.9790564 C17.1459882,62.9790564 9.77444144,55.6073162 9.77444144,46.513662 L9.77444144,26.1670178 C9.77444144,17.0733636 17.1459882,9.70152131 26.2392778,9.70152131 L221.282841,9.70152131 C230.37613,9.70152131 237.747677,17.0733636 237.747677,26.1670178 L237.747677,46.513662 C237.747677,55.6073162 230.37613,62.9790564 221.282841,62.9790564 L26.2392778,62.9790564 Z" id="Fill-1586" fill="#EFDBC1"></path>
                        <path d="M32.4661713,15.3749748 C23.7815952,15.3749748 16.7161498,22.4407036 16.7161498,31.1257299 L16.7161498,49.7173778 C16.7161498,58.402302 23.7815952,65.4681329 32.4661713,65.4681329 L227.509836,65.4681329 C236.194514,65.4681329 243.25996,58.402302 243.25996,49.7173778 L243.25996,31.1257299 C243.25996,22.4407036 236.194514,15.3749748 227.509836,15.3749748 L32.4661713,15.3749748 Z M32.4661713,66.8976156 C22.9934713,66.8976156 15.2867244,59.1905596 15.2867244,49.7173778 L15.2867244,31.1257299 C15.2867244,21.652446 22.9934713,13.9454921 32.4661713,13.9454921 L227.509836,13.9454921 C236.982638,13.9454921 244.689385,21.652446 244.689385,31.1257299 L244.689385,49.7173778 C244.689385,59.1905596 236.982638,66.8976156 227.509836,66.8976156 L32.4661713,66.8976156 Z" id="Fill-1588" fill="#1B1B3E"></path>
                    </g>
                </g>
            </g>
        </g>
    </g>
</svg>