<svg data-name="Group 8" xmlns="http://www.w3.org/2000/svg" width="1439.999" height="748.005">
  <g data-name="Group 8" opacity=".05" fill="#036ae2">
    <path data-name="Fill 4" d="M934.937 569.21h100.183V314.817H934.937z"/>
    <path data-name="Fill 1" d="M832.841 128.681c0-22.482 19.135-27.521 24.847-27.521h67.719V17.41H825.401c-95.77 0-92.743 111.271-92.743 111.271v64.172h-33.2q-41.711 0-83.422-.008c-26.335 91.323-76.261 276.991-81.927 276.991-3.739 0-10.87-21.157-13.329-28.307-4.934-14.331-9.583-28.762-14.37-43.146q-22.191-66.626-44.39-133.245-12.038-36.139-24.076-72.285h-96.503q8.812 25.379 17.647 50.743 21.843 62.778 43.789 125.524 22.388 64.026 45 127.975c13.029 36.713 36.889 79.451 18.179 117.527-10.594 21.573-29.725 37.576-51.525 47.022-12.42 5.386-26.119 5.208-39.6 5.786q-22.539.971-45.1-.02v80.575c3.731.008 12.188.062 23.583-.031 21.887-.177 52.6.054 85.465-3.652 24.277-2.15 48.461-22.328 67.349-41.066 33.512-33.261 56.193-75.953 73.362-119.923s29.272-89.729 44.776-134.315c19.982-57.449 45.808-113.988 61.45-172.388h46.842v299.882h100.183V276.61h206.61v-83.757h-206.61z"/>
    <path data-name="Fill 6" d="M352.686 569.205V300.1c0-83.68-63.124-126.827-133.872-126.827s-118.631 31.45-118.631 31.45V0H0v569.205h100.183V300.1s0-38.893 70.748-38.893c68.929 0 81.572 32.483 81.572 38.893 3.315 6.965 0 269.1 0 269.1z"/>
    <path data-name="Fill 7" d="M1306.127 173.277c-70.74 0-118.631 31.45-118.631 31.45v-11.872h-100.19v376.35h100.19v-269.1s0-38.885 70.741-38.885c68.929 0 81.572 32.475 81.572 38.885 3.323 6.965 0 269.1 0 269.1h100.19v-269.1c0-83.682-63.131-126.828-133.872-126.828"/>
  </g>
</svg>
