<?xml version="1.0" encoding="UTF-8"?>
<svg width="749px" height="1440px" viewBox="0 0 749 1440" version="1.1" xmlns="http://www.w3.org/2000/svg" xmlns:xlink="http://www.w3.org/1999/xlink">
    <title>bg-hifin</title>
    <g id="Page-1" stroke="none" stroke-width="1" fill="none" fill-rule="evenodd" opacity="0.05">
        <g id="bg-hifin" transform="translate(373.999500, 720.003918) rotate(-90.000000) translate(-373.999500, -720.003918) translate(-346.000000, 346.000000)" fill="#036AE2" fill-rule="nonzero">
            <g id="Group">
                <polygon id="Path" points="934.937 569.21 1035.12 569.21 1035.12 314.817 934.937 314.817"></polygon>
                <path d="M832.841,128.681 C832.841,106.199 851.976,101.16 857.688,101.16 L925.407,101.16 L925.407,17.41 L825.401,17.41 C729.631,17.41 732.658,128.681 732.658,128.681 L732.658,192.853 L699.458,192.853 C671.650667,192.853 643.843333,192.850333 616.036,192.845 C589.701,284.168 539.775,469.836 534.109,469.836 C530.37,469.836 523.239,448.679 520.78,441.529 C515.846,427.198 511.197,412.767 506.41,398.383 C491.616,353.965667 476.819333,309.550667 462.02,265.138 C453.994667,241.045333 445.969333,216.950333 437.944,192.853 L341.441,192.853 C347.315667,209.772333 353.198,226.686667 359.088,243.596 C373.65,285.448 388.246333,327.289333 402.877,369.12 C417.802333,411.804 432.802333,454.462333 447.877,497.095 C460.906,533.808 484.766,576.546 466.056,614.622 C455.462,636.195 436.331,652.198 414.531,661.644 C402.111,667.03 388.412,666.852 374.931,667.43 C359.905,668.077333 344.871667,668.070667 329.831,667.41 L329.831,747.985 C333.562,747.993 342.019,748.047 353.414,747.954 C375.301,747.777 406.014,748.007835 438.879,744.302 C463.156,742.152 487.34,721.974 506.228,703.236 C539.74,669.975 562.421,627.283 579.59,583.313 C596.759,539.343 608.862,493.584 624.366,448.998 C644.348,391.549 670.174,335.01 685.816,276.61 L732.658,276.61 L732.658,576.492 L832.841,576.492 L832.841,276.61 L1039.451,276.61 L1039.451,192.853 L832.841,192.853 L832.841,128.681 Z" id="Path"></path>
                <path d="M352.686,569.205 L352.686,300.1 C352.686,216.42 289.562,173.273 218.814,173.273 C148.066,173.273 100.183,204.723 100.183,204.723 L100.183,0 L0,0 L0,569.205 L100.183,569.205 L100.183,300.1 C100.183,300.1 100.183,261.207 170.931,261.207 C239.86,261.207 252.503,293.69 252.503,300.1 C255.818,307.065 252.503,569.205 252.503,569.205 L352.686,569.205 Z" id="Path"></path>
                <path d="M1306.127,173.277 C1235.387,173.277 1187.496,204.727 1187.496,204.727 L1187.496,192.855 L1087.306,192.855 L1087.306,569.205 L1187.496,569.205 L1187.496,300.105 C1187.496,300.105 1187.496,261.22 1258.237,261.22 C1327.166,261.22 1339.809,293.695 1339.809,300.105 C1343.132,307.07 1339.809,569.205 1339.809,569.205 L1439.999,569.205 L1439.999,300.105 C1439.999,216.423 1376.868,173.277 1306.127,173.277" id="Path"></path>
            </g>
        </g>
    </g>
</svg>