<?xml version="1.0" encoding="UTF-8"?><svg id="a" xmlns="http://www.w3.org/2000/svg" xmlns:xlink="http://www.w3.org/1999/xlink" viewBox="0 0 120 120"><defs><style>.d{clip-rule:evenodd;}.d,.e{fill:#ccc;}.f,.g{fill:#fc1d23;}.h,.i{fill:#f0f0f0;}.g,.j,.e,.i{fill-rule:evenodd;}.j{fill:#4dac2d;}.k{clip-path:url(#c);}.l{clip-path:url(#b);}</style><clipPath id="b"><path class="d" d="M-80.9,0C-47.77,0-20.9,26.86-20.9,60s-26.86,60-60,60-60-26.86-60-60S-114.04,0-80.9,0h0Z"/></clipPath><clipPath id="c"><path class="d" d="M60,0c33.14,0,60,26.86,60,60s-26.86,60-60,60S0,93.14,0,60,26.86,0,60,0h0Z"/></clipPath></defs><g><path class="e" d="M-80.9,0C-47.77,0-20.9,26.86-20.9,60s-26.86,60-60,60-60-26.86-60-60S-114.04,0-80.9,0h0Z"/><g class="l"><polygon class="g" points="-170.9 40 9.1 40 9.1 0 -170.9 0 -170.9 40 -170.9 40"/><polygon class="i" points="-170.9 80 9.1 80 9.1 40 -170.9 40 -170.9 80 -170.9 80"/><polygon class="j" points="-170.9 120 9.1 120 9.1 80 -170.9 80 -170.9 120 -170.9 120"/></g></g><g><path class="e" d="M60,0c33.14,0,60,26.86,60,60s-26.86,60-60,60S0,93.14,0,60,26.86,0,60,0h0Z"/><g class="k"><g><polygon class="h" points="150 0 -30 0 -30 60 150 60 150 0 150 0"/><polygon class="f" points="150 60 -30 60 -30 120 150 120 150 60 150 60"/></g></g></g></svg>