<?xml version="1.0" encoding="UTF-8"?><svg id="a" xmlns="http://www.w3.org/2000/svg" xmlns:xlink="http://www.w3.org/1999/xlink" viewBox="0 0 120 120"><defs><style>.c{clip-rule:evenodd;}.c,.d{fill:#ccc;}.e{fill:#fc1d23;}.e,.f,.d,.g{fill-rule:evenodd;}.f{fill:#1657b9;}.g{fill:#f0f0f0;}.h{clip-path:url(#b);}</style><clipPath id="b"><path class="c" d="M60,0c33.14,0,60,26.86,60,60s-26.86,60-60,60S0,93.14,0,60,26.86,0,60,0h0Z"/></clipPath></defs><path class="d" d="M60,0c33.14,0,60,26.86,60,60s-26.86,60-60,60S0,93.14,0,60,26.86,0,60,0h0Z"/><g class="h"><g><polygon class="g" points="-30 0 150 0 150 40 -30 40 -30 0 -30 0"/><polygon class="f" points="-30 80 150 80 150 40 -30 40 -30 80 -30 80"/><polygon class="e" points="-30 80 150 80 150 120 -30 120 -30 80 -30 80"/></g></g></svg>