<?xml version="1.0" encoding="UTF-8"?><svg id="a" xmlns="http://www.w3.org/2000/svg" xmlns:xlink="http://www.w3.org/1999/xlink" viewBox="0 0 120 120"><defs><style>.c{clip-rule:evenodd;}.c,.d{fill:#ccc;}.e{fill:#fc1d23;}.e,.d,.f{fill-rule:evenodd;}.f{fill:#f0f0f0;}.g{clip-path:url(#b);}</style><clipPath id="b"><path class="c" d="M60.78,.07C93.64,.07,120.28,26.94,120.28,60.07s-26.64,60-59.5,60S1.28,93.21,1.28,60.07,27.92,.07,60.78,.07h0Z"/></clipPath></defs><path class="d" d="M60.78,.07C93.64,.07,120.28,26.94,120.28,60.07s-26.64,60-59.5,60S1.28,93.21,1.28,60.07,27.92,.07,60.78,.07h0Z"/><g class="g"><g><polygon class="f" points="16.09 .07 105.48 .07 105.48 120.07 16.09 120.07 16.09 .07 16.09 .07"/><polygon class="e" points="-28.47 .07 16.09 .07 16.09 120.07 -28.47 120.07 -28.47 .07 -28.47 .07"/><polygon class="e" points="105.48 .07 150.03 .07 150.03 120.07 105.48 120.07 105.48 .07 105.48 .07"/><path class="e" d="M25.9,60.92l15.87,13.87c2.91,2.55,.65,5.14-.74,7.6l18.22-2.26-.56,18.37h3.92l-.84-18.37,18.22,2.26c-1.31-2.64-2.88-5.84-.14-8.18l15.55-13.29c-1.49-.6-3.24-.82-3.59-2.51-.6-2.88,1.63-8.83,2.73-12.03-3.15,1.28-7.27,2.27-9.94,2-1.46-.15-2.3-3.95-2.91-5.26l-8.19,8.74c-2.18,2.33-3.01,1.25-2.4-1.73l3.84-18.59-5.48,3.13c-1.61,.92-2.14,1.02-3.05-.87l-5.75-11.87-5.91,11.91c-.91,1.84-1,1.88-2.73,.93l-5.37-2.96,3.29,18.39c.52,2.91-.03,3.96-2.31,1.44l-7.71-8.52c-.75,2-1.68,4.52-3.08,5.37-1.68,.56-6.45-1.04-9.81-1.98,1.09,3.16,3.64,8.6,3.19,11.56-.29,1.92-2.58,2.18-4.31,2.85h0Z"/></g></g></svg>