<?xml version="1.0" encoding="UTF-8"?><svg id="a" xmlns="http://www.w3.org/2000/svg" xmlns:xlink="http://www.w3.org/1999/xlink" viewBox="0 0 120 120"><defs><style>.c{clip-rule:evenodd;}.c,.d{fill:#ccc;}.e{fill:#fc1d23;}.e,.d,.f{fill-rule:evenodd;}.f{fill:#fef035;}.g{clip-path:url(#b);}</style><clipPath id="b"><path class="c" d="M60,0c33.14,0,60,26.86,60,60s-26.86,60-60,60S0,93.14,0,60,26.86,0,60,0h0Z"/></clipPath></defs><path class="d" d="M60,0c33.14,0,60,26.86,60,60s-26.86,60-60,60S0,93.14,0,60,26.86,0,60,0h0Z"/><g class="g"><polygon class="e" points="-9.93 120 170.07 120 170.07 0 -9.93 0 -9.93 120 -9.93 120"/><path class="f" d="M20.07,12l4.09,12.67,13.31-.03-10.79,7.81,4.14,12.66-10.76-7.85-10.76,7.85,4.14-12.66L2.67,24.65l13.31,.03,4.09-12.67h0ZM56.17,54l-4.24,1.43,.07,4.47-2.67-3.59-4.23,1.45,2.58-3.65-2.69-3.58,4.27,1.33,2.57-3.66,.05,4.47,4.28,1.31h0Zm11.77-13.8l-3.67,2.56,1.31,4.28-3.57-2.7-3.66,2.57,1.47-4.23-3.58-2.69,4.47,.09,1.45-4.23,1.3,4.28,4.47,.07h0Zm-1.06-19.89l-2.58,3.65,2.69,3.57-4.27-1.33-2.57,3.66-.06-4.47-4.28-1.31,4.24-1.44-.07-4.47,2.67,3.59,4.23-1.45h0Zm-14.72-14.09l-.06,4.47,4.24,1.42-4.27,1.33-.04,4.47-2.58-3.65-4.27,1.34,2.68-3.58-2.59-3.64,4.24,1.44,2.66-3.59h0Z"/></g></svg>