<?xml version="1.0" encoding="UTF-8"?><svg id="a" xmlns="http://www.w3.org/2000/svg" xmlns:xlink="http://www.w3.org/1999/xlink" viewBox="0 0 120 120"><defs><style>.e{clip-rule:evenodd;}.e,.f{fill:#ccc;}.g,.h{fill:#fc1d23;}.i,.j{fill:#f0f0f0;}.k{fill:#fcd150;}.l{fill:#b5222a;}.h,.f,.j{fill-rule:evenodd;}.m{clip-path:url(#c);}.n{clip-path:url(#b);}.o{clip-path:url(#d);}</style><clipPath id="b"><path class="e" d="M-80.9,0C-47.77,0-20.9,26.86-20.9,60s-26.86,60-60,60-60-26.86-60-60S-114.04,0-80.9,0h0Z"/></clipPath><clipPath id="c"><path class="e" d="M200.9,0c33.14,0,60,26.86,60,60s-26.86,60-60,60-60-26.86-60-60S167.77,0,200.9,0h0Z"/></clipPath><clipPath id="d"><path class="e" d="M60,0c33.14,0,60,26.86,60,60s-26.86,60-60,60S0,93.14,0,60,26.86,0,60,0h0Z"/></clipPath></defs><g><path class="f" d="M-80.9,0C-47.77,0-20.9,26.86-20.9,60s-26.86,60-60,60-60-26.86-60-60S-114.04,0-80.9,0h0Z"/><g class="n"><polygon class="j" points="-170.9 0 9.1 0 9.1 80.05 -170.9 80.05 -170.9 0 -170.9 0"/><polygon class="h" points="-170.9 120 9.1 120 9.1 80.05 -170.9 80.05 -170.9 120 -170.9 120"/></g></g><g><path class="f" d="M200.9,0c33.14,0,60,26.86,60,60s-26.86,60-60,60-60-26.86-60-60S167.77,0,200.9,0h0Z"/><g class="m"><polygon class="l" points="118.05 90 298.05 90 298.05 120 118.05 120 118.05 90 118.05 90"/><polygon class="k" points="118.05 30 298.05 30 298.05 90 118.05 90 118.05 30 118.05 30"/><polygon class="l" points="118.05 0 298.05 0 298.05 30 118.05 30 118.05 0 118.05 0"/></g></g><g><path class="f" d="M60,0c33.14,0,60,26.86,60,60s-26.86,60-60,60S0,93.14,0,60,26.86,0,60,0h0Z"/><g class="o"><polygon class="g" points="0 0 120 0 120 120 0 120 0 0 0 0"/><polygon class="i" points="48 20 72 20 72 48 100 48 100 72 72 72 72 100 48 100 48 72 20 72 20 48 48 48 48 20 48 20"/></g></g></svg>