<?xml version="1.0" encoding="utf-8"?>
<svg width="42px" height="42px" viewBox="0 0 42 42" version="1.1" xmlns:xlink="http://www.w3.org/1999/xlink" xmlns="http://www.w3.org/2000/svg">
  <defs>
    <path d="M0 0L42 0L42 41.9996L0 41.9996L0 0Z" id="path_1" />
    <path d="M20.9996 0C9.4017 0 -1.24345e-15 9.40232 -1.24345e-15 21.0002L-1.24345e-15 21.0002C-1.24345e-15 32.598 9.4017 42 20.9996 42L20.9996 42C32.5976 42 41.9996 32.598 41.9996 21.0002L41.9996 21.0002C41.9996 9.40232 32.5976 0 20.9996 0Z" id="path_2" />
    <clipPath id="mask_1">
      <use xlink:href="#path_1" />
    </clipPath>
    <clipPath id="mask_2">
      <use xlink:href="#path_2" />
    </clipPath>
  </defs>
  <g id="Group-8">
    <g id="Group-3" transform="translate(0 0.00034999708)">
      <path d="M0 0L42 0L42 41.9996L0 41.9996L0 0Z" id="Clip-2" fill="none" fill-rule="evenodd" stroke="none" />
      <g clip-path="url(#mask_1)">
        <path d="M21 -6.99994e-05C32.5979 -6.99994e-05 42 9.4019 42 20.9998C42 32.5976 32.5979 41.9996 21 41.9996C9.40205 41.9996 0 32.5976 0 20.9998C0 9.4019 9.40205 -6.99994e-05 21 -6.99994e-05" id="Fill-1" fill="#CCCCCC" fill-rule="evenodd" stroke="none" />
      </g>
    </g>
    <g id="Group-7" transform="translate(0.00021 0)">
      <path d="M20.9996 0C9.4017 0 -1.24345e-15 9.40232 -1.24345e-15 21.0002L-1.24345e-15 21.0002C-1.24345e-15 32.598 9.4017 42 20.9996 42L20.9996 42C32.5976 42 41.9996 32.598 41.9996 21.0002L41.9996 21.0002C41.9996 9.40232 32.5976 0 20.9996 0Z" id="Clip-5" fill="none" fill-rule="evenodd" stroke="none" />
      <g clip-path="url(#mask_2)">
        <path d="M-10.5003 42L52.4996 42L52.4996 0.000349997L-10.5003 0.000349997L-10.5003 42Z" id="Fill-4" fill="#F0F0F0" fill-rule="evenodd" stroke="none" />
        <path d="M33.5997 21.0002C33.5997 14.0415 27.9584 8.40028 20.9996 8.40028C14.0409 8.40028 8.39965 14.0415 8.39965 21.0002C8.39965 27.9588 14.0409 33.6001 20.9996 33.6001C27.9584 33.6001 33.5997 27.9588 33.5997 21.0002" id="Fill-6" fill="#FC1D23" fill-rule="evenodd" stroke="none" />
      </g>
    </g>
  </g>
</svg>