<?xml version="1.0" encoding="UTF-8"?><svg id="a" xmlns="http://www.w3.org/2000/svg" xmlns:xlink="http://www.w3.org/1999/xlink" viewBox="0 0 120 120"><defs><style>.c{clip-rule:evenodd;}.c,.d{fill:#ccc;}.e{fill:#fc1d23;}.f{fill:#fcd150;}.g{fill:#131313;}.h{fill:#10831b;}.i{fill:#0d44a5;}.d,.j{fill-rule:evenodd;}.j{fill:#f0f0f0;}.k{clip-path:url(#b);}</style><clipPath id="b"><path class="c" d="M60-.02C93.14-.02,120,26.84,120,59.98s-26.86,60-60,60S0,93.11,0,59.98,26.86-.02,60-.02h0Z"/></clipPath></defs><path class="d" d="M60-.02C93.14-.02,120,26.84,120,59.98s-26.86,60-60,60S0,93.11,0,59.98,26.86-.02,60-.02h0Z"/><g class="k"><polygon class="j" points="-17.1 .03 162.9 .03 162.9 120.03 -17.1 120.03 -17.1 .03 -17.1 .03"/><polygon class="e" points="79.3 39.98 19.5 -.02 162.85 .03 162.9 39.98 79.3 39.98 79.3 39.98"/><polygon class="f" points="-17.1 105.57 -17.1 95.98 36.5 59.98 -17.1 24.17 -17.1 14.38 50.7 59.98 -17.1 105.57 -17.1 105.57"/><polygon class="h" points="-17.1 14.38 -17.1 -.02 4.92 0 76.16 48.04 162.9 48 162.85 72.03 76.3 71.98 4.9 119.98 -17.1 119.98 -17.1 105.57 50.7 59.98 -17.1 14.38 -17.1 14.38"/><polygon class="i" points="19.5 119.98 79.23 79.91 162.83 80.04 162.9 120.08 19.5 119.98 19.5 119.98"/><polygon class="g" points="-17.1 24.18 36.5 59.98 -17.1 95.98 -17.1 24.18 -17.1 24.18"/></g></svg>