<svg width="120" height="120" xmlns="http://www.w3.org/2000/svg" xmlns:xlink="http://www.w3.org/1999/xlink">
  <defs>
    <path id="a" d="M0 0h120v120H0z"/>
    <path d="M60 0C26.864 0 0 26.863 0 60c0 33.136 26.864 60 60 60 33.137 0 60-26.864 60-60 0-33.137-26.863-60-60-60z" id="c"/>
    <path d="M60 0C26.864 0 0 26.863 0 60c0 33.136 26.864 60 60 60 33.137 0 60-26.864 60-60 0-33.137-26.863-60-60-60z" id="e"/>
  </defs>
  <g fill="none" fill-rule="evenodd">
    <g>
      <mask id="b" fill="#fff">
        <use xlink:href="#a"/>
      </mask>
      <path d="M60 0c33.137 0 60 26.863 60 60s-26.863 60-60 60C26.862 120 0 93.137 0 60S26.862 0 60 0" fill="#CCC" mask="url(#b)"/>
    </g>
    <mask id="d" fill="#fff">
      <use xlink:href="#c"/>
    </mask>
    <path fill="#4DAC2D" mask="url(#d)" d="M90 0H-30v120z"/>
    <mask id="f" fill="#fff">
      <use xlink:href="#e"/>
    </mask>
    <path fill="#FEED35" mask="url(#f)" d="M-30 120L90 0h60L30 120z"/>
    <path fill="#FC1D23" mask="url(#f)" d="M150 0v120H30z"/>
  </g>
</svg>
