<?xml version="1.0" encoding="UTF-8"?><svg id="a" xmlns="http://www.w3.org/2000/svg" xmlns:xlink="http://www.w3.org/1999/xlink" viewBox="0 0 120 120"><defs><style>.e{fill:url(#c);}.e,.f,.g,.h,.i,.j,.k,.l,.m,.n,.o,.p,.q,.r,.s,.t,.u,.v,.w,.x,.y,.a`,.aa,.ab,.ac,.ad,.ae,.af,.ag,.ah{fill-rule:evenodd;}.ai{clip-rule:evenodd;}.ai,.v{fill:#ccc;}.f{stroke:#231f20;stroke-miterlimit:2.41;stroke-width:.23px;}.f,.af{fill:#f69531;}.aj,.r{fill:#231f20;}.g{fill:#f8a654;}.h{fill:#fc1d23;}.i{fill:#2a7e60;}.j{fill:#5b9f59;}.k{fill:#613308;}.l{fill:#274e8e;}.m{fill:#4dac2d;}.n{fill:#0d7540;}.o{fill:#0a6811;}.p{fill:#0a6631;}.q{fill:#107f5e;}.s{fill:#1cacdc;}.t{fill:#e1892d;}.u{fill:#cd1c27;}.w{fill:#d1d3d4;}.x{fill:#864c0f;}.y{fill:#9fb134;}.a`{fill:#905837;}.aa{fill:#f0f0f0;}.ab{fill:#ee5c4d;}.ac{fill:#fff8b1;}.ad{fill:#fcdc43;}.ae{fill:#e8bc6d;}.ag{fill:#feeb89;}.ah{fill:#fef035;}.ak{clip-path:url(#b);}.al{clip-path:url(#d);}</style><clipPath id="b"><path class="ai" d="M-106.08,0c33.14,0,60,26.86,60,60s-26.86,60-60,60-60-26.86-60-60S-139.22,0-106.08,0h0Z"/></clipPath><linearGradient id="c" x1="-641.29" y1="-210.01" x2="-453.82" y2="-196.9" gradientTransform="translate(471.54 123.47) scale(1 .31)" gradientUnits="userSpaceOnUse"><stop offset="0" stop-color="#000"/><stop offset=".47" stop-color="#231f20"/><stop offset=".6" stop-color="#231f20"/><stop offset="1" stop-color="#000"/></linearGradient><clipPath id="d"><path class="ai" d="M60,0c33.14,0,60,26.86,60,60s-26.86,60-60,60S0,93.14,0,60,26.86,0,60,0h0Z"/></clipPath></defs><g><path class="v" d="M-106.08,0c33.14,0,60,26.86,60,60s-26.86,60-60,60-60-26.86-60-60S-139.22,0-106.08,0h0Z"/><g class="ak"><g><polygon class="e" points="-166.01 78.7 13.99 78.7 13.99 41.25 -166.01 41.25 -166.01 78.7 -166.01 78.7"/><polygon class="aa" points="-166.01 41.25 13.99 41.25 13.99 37.5 -166.01 37.5 -166.01 41.25 -166.01 41.25"/><polygon class="o" points="-166.01 37.5 13.99 37.5 13.99 0 -166.01 0 -166.01 37.5 -166.01 37.5"/><polygon class="aa" points="-166.01 82.5 13.99 82.5 13.99 78.7 -166.01 78.7 -166.01 82.5 -166.01 82.5"/><polygon class="ad" points="-166.01 120 13.99 120 13.99 82.5 -166.01 82.5 -166.01 120 -166.01 120"/></g></g></g><g><path class="v" d="M60,0c33.14,0,60,26.86,60,60s-26.86,60-60,60S0,93.14,0,60,26.86,0,60,0h0Z"/><g class="al"><g><polygon class="aa" points="30.7 0 91.26 0 91.26 120 30.7 120 30.7 0 30.7 0"/><polygon class="m" points="-29.3 0 30.7 0 30.7 120 -29.3 120 -29.3 0 -29.3 0"/><polygon class="h" points="91.26 0 150.7 0 150.7 120 91.26 120 91.26 0 91.26 0"/><g><path class="s" d="M56.11,71.19l-1.2-.31-1.46-1.62-.33,.85s-1.37-.24-2-.73c-.64-.49-2.4-.64-2.4-.64,0,0,1.65,.97,1.86,1.55,.21,.59-.38,.92-.38,.92,0,0,.78,.45,1.77,.42,.99-.02,1.93,.75,1.93,.75l-1.08,1.25s.75,.28,1.48,.33c.73,.05,2.33,.05,2.33,.05l-.52-2.83h0Z"/><polygon class="s" points="63.63 71.71 68.62 71.36 66.12 72.79 66.94 73.59 65.91 74.18 62 74.18 63.63 71.71 63.63 71.71"/><path class="q" d="M66.16,68.3c.23,.07,1.22,.52,1.62,.16,.4-.35,.56-1.41,1.48-1.74,.92-.33,1.08-.61,1.55-.42,.47,.19,1.13,1.74,1.06,2.21-.07,.47-.68,1.15-1.46,1.39-.78,.24-2.64,.42-3.2,.24-.56-.19-2.02-1.15-2.02-1.15l.97-.68h0Z"/><path class="aj" d="M66.17,68.26s.09,.03,.15,.05c.36,.13,1.11,.4,1.43,.12,.13-.12,.24-.32,.37-.55,.24-.44,.52-.98,1.13-1.2,.3-.11,.53-.21,.7-.3,.37-.17,.55-.26,.88-.13,.23,.09,.5,.49,.71,.93,.24,.5,.41,1.07,.37,1.32-.04,.26-.23,.57-.52,.85-.26,.25-.59,.46-.97,.57-.42,.13-1.14,.24-1.81,.29-.59,.04-1.15,.04-1.42-.05-.57-.19-2.03-1.16-2.04-1.16l-.05-.03,.05-.03,.97-.68h.04Zm.13,.12h0c-.05-.02-.1-.03-.13-.05l-.9,.64c.26,.17,1.47,.95,1.97,1.12,.26,.09,.8,.09,1.39,.05,.66-.05,1.38-.16,1.79-.28,.36-.11,.69-.32,.93-.55,.28-.26,.46-.56,.5-.8,.04-.24-.13-.79-.36-1.28-.21-.43-.46-.81-.67-.89-.3-.12-.47-.04-.82,.12-.18,.08-.4,.19-.71,.3-.58,.21-.86,.73-1.09,1.16-.13,.24-.24,.45-.38,.58-.36,.32-1.14,.03-1.51-.1h0Z"/><path class="q" d="M49.36,64.59c-.38-.82-.17-1.79-.82-2.19-.66-.4-1.72-1.34-2.12-1.11-.4,.24-1.37,.38-1.34,1.06,.02,.68-.31,1.32,.54,1.88,.85,.57,3.39,1.25,3.39,1.25l.35-.89h0Z"/><path class="aj" d="M49.31,64.59c-.14-.32-.2-.66-.25-.98-.08-.5-.16-.94-.55-1.18-.18-.11-.38-.25-.59-.4-.57-.41-1.21-.86-1.48-.7-.1,.06-.24,.12-.39,.17-.43,.17-.95,.37-.93,.85,0,.16,0,.32-.02,.48-.04,.49-.08,.96,.55,1.38,.79,.52,3.04,1.15,3.34,1.23l.33-.84h0Zm-.17-.99h0c.05,.32,.11,.66,.25,.97v.03l-.35,.89v.03h-.05s-2.55-.69-3.4-1.26c-.67-.45-.63-.93-.58-1.45,.01-.15,.03-.31,.02-.47-.02-.54,.53-.75,.98-.93,.15-.06,.28-.11,.38-.17,.32-.19,.98,.28,1.57,.71,.21,.15,.42,.3,.59,.4,.42,.25,.5,.72,.59,1.24h0Z"/><path class="q" d="M54.7,66.03c-.56-.38-.61-.61-1.34-1.22-.73-.61-1.22-1.29-1.86-1.29s-1.69-.21-2.09,.4c-.4,.61-1.32,1.41-.73,2.05,.59,.64,1.62,1.67,2.33,1.72,.71,.05,3.88-.35,3.88-.35l-.19-1.29h0Z"/><path class="aj" d="M54.67,66.05c-.3-.2-.45-.36-.64-.56-.16-.17-.35-.37-.69-.65-.19-.16-.37-.33-.54-.49-.46-.43-.84-.8-1.3-.8-.12,0-.26,0-.41-.02-.6-.03-1.34-.08-1.65,.4-.09,.13-.19,.27-.31,.41-.41,.52-.87,1.11-.43,1.58,.29,.32,.7,.73,1.12,1.08,.42,.34,.84,.61,1.19,.63,.66,.04,3.46-.3,3.84-.35l-.18-1.24h0Zm-.59-.62h0c.19,.2,.34,.36,.65,.56h.01v.03l.19,1.29v.04h-.04s-3.18,.41-3.89,.36c-.36-.02-.81-.3-1.23-.65-.42-.35-.83-.76-1.12-1.08-.49-.53,0-1.14,.42-1.69,.11-.14,.22-.28,.3-.41,.34-.51,1.1-.47,1.72-.43,.15,0,.28,.02,.4,.02,.48,0,.88,.37,1.35,.82,.17,.16,.34,.32,.54,.48,.34,.28,.53,.49,.69,.66h0Z"/><path class="q" d="M62.28,67.39l-1.39-.75s-1.48-1.37-2.54-1.65c-1.06-.28-2.59-.64-3.15-.12-.57,.52-1.25,1.27-1.04,1.88,.21,.61,.28,1.48,1.22,1.84,.94,.35,2.12,.75,3.11,.52,.99-.24,3.3-.96,3.3-.96l.49-.75h0Z"/><path class="aj" d="M62.23,67.41l-1.35-.73h0s-1.47-1.36-2.53-1.64c-.53-.14-1.17-.3-1.76-.36-.58-.06-1.09-.02-1.36,.23-.28,.26-.59,.57-.8,.9-.21,.32-.32,.65-.22,.94,.04,.11,.07,.22,.1,.34,.16,.55,.34,1.19,1.1,1.47,.47,.18,1,.36,1.53,.48,.53,.11,1.07,.15,1.55,.04,.95-.22,3.09-.9,3.28-.96l.46-.7h0Zm-1.31-.8h0l1.39,.75,.04,.02-.02,.04-.49,.75h0v.02s-2.32,.73-3.31,.97c-.5,.12-1.05,.08-1.59-.04-.54-.12-1.07-.3-1.54-.48-.8-.3-.98-.95-1.15-1.52-.03-.12-.07-.23-.1-.34-.11-.32,0-.67,.23-1.01,.22-.33,.53-.65,.82-.91,.29-.27,.83-.31,1.42-.25,.59,.06,1.24,.22,1.77,.36,1.04,.28,2.46,1.57,2.55,1.65h0Z"/><path class="ah" d="M49.99,44.66c.3,.17,.56,1.06,.5,1.18-.06,.12,.28-.7-.04-1.14-.32-.44-.29-.53-.29-.53l-.17,.49h0Z"/><path class="q" d="M50.51,44.77s.19-1.06-.28-.84c-.47,.22-1.92,1.24-2.17,1.53-.24,.29-.57,.72-.43,1.05,.14,.34,.47,.81,.51,.82,.04,.02-.02,.83,.14,1.14,.16,.31,.29,.58,.69,.61,.41,.02,1.75-.01,1.75-.01,0,0,1.15,.38,1.33,.64,.18,.26,.35,.55,.09,.78-.26,.22-3.76,2.69-3.58,5.05,.19,2.37,1.75,2.77,3.41,2.65,0,0-2.51-.33-2.14-2.3,.37-1.97,2.77-3.3,3.17-3.63,.4-.33,.95-2.17-.72-3.27-1.67-1.09-1.38-1.32-1.38-1.32,0,0-.18-.06-.58-.06s-.84,.05-.75-.49c0-.03,.05-.03,.05-.03,0,0,1-.29,1.21-.5,.21-.21,.24-.71,.24-.71,0,0-.54,.57-.88,.62-.34,.05-.95,.19-.68-.18,.26-.37,.36-.41,.36-.41l.3-1.13,.33-.02h0Z"/><path class="x" d="M52.34,52.58s.53-.19,.76-.35c.24-.16,1.05-1.19,1.05-1.84s-.44-1.74-.76-2.07c-.33-.33-2.01-.6-2.01-.6l-.6-.08-.39,.67,1.85,1.33,.54,1.07-.44,1.87h0Z"/><path class="q" d="M50.54,60.24c-.38-.01-.54,.04-.78-.36-.24-.4-.38-1-.53-1.53-.15-.53-1.39-1.07-1.49-1.65-.18-1.15,1.41-3.62-1.1-4.14-1.59-.33-.53,1.07-.53,1.07,0,0,.92,.58,.73,1.05-.19,.47-.92,1.51-.72,2.47,.2,.97,1.39,1.24,1.81,2.04,.18,.34,.41,.68,.46,.99,.32,1.9,1.48,2.67,3.25,1.27,1.6-1.27-1.01-1.22-1.11-1.2h0Z"/><path class="af" d="M45.73,53.93s.68-.19,.86-.6c.22-.51,.28-1.57-.62-1.11,0,0-.04-.34-.59-.08,0,0-.28-.54-1.04-.02-.75,.52,.01,.77,.21,.68,0,0-.07,1.3,.76,.78,0,0,.06,.42,.41,.35h0Z"/><polygon class="ag" points="44.53 52.47 44.87 52.2 44.48 52.2 44.53 52.47 44.53 52.47"/><polygon class="ag" points="45.02 52.49 45.01 52.84 45.4 52.79 45.35 52.47 45.02 52.49 45.02 52.49"/><path class="ag" d="M45.93,52.79s.08,.39,.11,.39c.03,0,.52-.05,.52-.05l-.62-.34h0Z"/><path class="ag" d="M46.83,53.27s.76-.19,.76-.19l-.21,.51-.65,.28,.54-.51-.45-.08h0Z"/><polygon class="ag" points="47.16 54.4 47.78 54.27 47.88 53.77 47.43 53.96 47.63 54.06 47.16 54.4 47.16 54.4"/><polygon class="ag" points="47.24 54.92 46.91 54.77 47.36 54.47 47.17 54.71 47.45 54.79 47.24 54.92 47.24 54.92"/><polygon class="ag" points="46.88 55.01 47.41 55.11 47.76 55.34 47.28 55.28 46.88 55.01 46.88 55.01"/><polygon class="ag" points="47.58 55.65 47.22 55.44 46.58 55.41 47.1 55.64 47.58 55.65 47.58 55.65"/><polygon class="ag" points="46.42 55.81 47.1 55.91 47.63 56.12 47 56.16 46.42 55.81 46.42 55.81"/><polygon class="ag" points="47.59 56.49 46.78 56.47 47.33 56.77 47.59 56.49 47.59 56.49"/><polygon class="ag" points="46.44 57.08 46.68 56.63 46.2 57 46.44 57.08 46.44 57.08"/><polygon class="ag" points="47.28 57.33 46.96 58.03 47.45 57.57 48.01 57.37 47.28 57.33 47.28 57.33"/><path class="ag" d="M47.81,58.7s.66-.28,.66-.28h-.77l.21-.57-.41,.45,.07,.29,.24,.11h0Z"/><polygon class="ag" points="48.14 57.83 48.52 57.72 48.73 57.92 48.14 57.83 48.14 57.83"/><polygon class="ag" points="48.12 59.05 48.15 59.27 48.59 59.01 48.12 59.05 48.12 59.05"/><polygon class="ag" points="48.99 60.16 48.68 60.86 49.16 60.92 48.94 60.69 48.99 60.16 48.99 60.16"/><polygon class="ag" points="50.44 61.28 50.21 61.83 49.77 62.02 49.67 61.16 49.83 60.73 49.94 61.71 50.44 61.28 50.44 61.28"/><polygon class="ag" points="48.98 61.12 49.05 61.58 49.58 61.4 49.16 61.32 48.98 61.12 48.98 61.12"/><path class="ag" d="M51.94,50.84s.22,.55,.25,.55,1.08-.13,1.08-.13l-.85-.18-.24-.42-.23,.18h0Z"/><polygon class="ag" points="51.63 51.29 51.87 52.23 52.72 52.19 52.63 51.89 52 51.91 51.63 51.29 51.63 51.29"/><polygon class="ag" points="50.74 51.9 50.98 52.84 52.08 52.76 51.24 52.47 51 51.94 51.6 51.83 50.98 51.69 50.74 51.9 50.74 51.9"/><polygon class="ag" points="50.12 53.14 50.09 52.58 50.36 52.41 50.83 52.75 51.32 53.32 50.42 52.86 50.12 53.14 50.12 53.14"/><polygon class="ag" points="49.58 53.2 49.71 53.65 49.85 53.51 49.84 53.26 50.49 53.37 50.77 53.81 50.72 53.26 49.92 53 49.58 53.2 49.58 53.2"/><path class="ag" d="M48.54,48.52c.06,0,.81,0,.81,0l-.87,.24,.05-.24h0Z"/><polygon class="ag" points="49.96 48.42 50.17 47.75 49.89 47.99 49.96 48.42 49.96 48.42"/><polygon class="ag" points="49.6 47.68 49.39 48.42 49.3 47.76 48.72 47.95 49.36 47.22 49.47 47.74 49.6 47.68 49.6 47.68"/><path class="ag" d="M48.3,47.51s.43-.47,.43-.47l.45,.22-.54,.15-.05,.42-.29-.32h0Z"/><polygon class="r" points="49.28 44.79 49.29 45.2 49.65 44.8 49.28 44.79 49.28 44.79"/><polygon class="y" points="50.37 44.11 50.41 44.57 49.87 44.97 50.37 44.11 50.37 44.11"/><path class="y" d="M48.82,45l-.75,.71s-.31,.59-.24,.58c.07,0,.67-.03,.67-.03l.51-.76-.18-.5h0Z"/><polygon class="y" points="49.73 45.39 48.99 46.29 49.09 46.79 49.5 46.07 49.73 45.39 49.73 45.39"/><path class="y" d="M49.57,46.74l-.03,.25s-.38,.03-.34,0c.05-.04,.3-.35,.3-.35l.07,.11h0Z"/><polygon class="r" points="52.21 49.04 52.83 48.43 52.71 48.93 52.21 49.04 52.21 49.04"/><path class="r" d="M52.93,49.48c.06-.01,.64-.49,.64-.49l-.22,.49h-.41Z"/><polygon class="r" points="53.6 50.15 53.99 50.06 54.02 50.38 53.6 50.15 53.6 50.15"/><polygon class="r" points="53.47 51.15 53.75 51.22 53.61 51.5 53.36 51.5 53.47 51.15 53.47 51.15"/><path class="q" d="M59.89,71.69s.12-2.42,.75-3.27c.64-.85,1.67-1.86,1.67-1.86l2.1-.66,1.62,.33s.82,.54,.8,1.13c-.02,.59-.14,1.18-.66,1.51-.52,.33-3.25,1.34-3.25,1.34l-.82,1.55-2.21-.07h0Z"/><path class="aj" d="M59.85,71.69s.12-2.44,.76-3.3c.64-.85,1.67-1.86,1.68-1.86h.02l2.1-.67h.02l1.62,.33h.01s.84,.56,.82,1.17c-.01,.3-.05,.6-.15,.86-.1,.27-.26,.51-.53,.68h0c-.5,.32-3.03,1.26-3.24,1.34l-.82,1.54v.02h-.04l-2.21-.07h-.04v-.04h0Zm.83-3.25h0c-.58,.77-.72,2.89-.74,3.21l2.15,.07,.81-1.53h0v-.02s2.74-1.01,3.26-1.34c.25-.16,.4-.38,.5-.64,.1-.26,.13-.55,.14-.84,.02-.54-.7-1.04-.78-1.09l-1.61-.33-2.08,.65c-.09,.09-1.06,1.04-1.66,1.85h0Z"/><polygon class="r" points="59.22 67.35 58.69 67.28 58.42 67.63 58.92 67.72 59.22 67.35 59.22 67.35"/><path class="r" d="M56.84,66.7c.18,.04,.74,.28,.74,.28l-.41,.54-.33-.82h0Z"/><path class="r" d="M55.38,67.48c.09,0,.85,.09,.85,.09l-.56,.45-.28-.54h0Z"/><path class="r" d="M56.63,65.38c.11,.04,.63,.64,.63,.64l.14-.4-.78-.24h0Z"/><path class="r" d="M58.51,65.61c.02,.07,.36,.67,.36,.67l.18-.37-.54-.31h0Z"/><path class="r" d="M55.51,64.23c.07,.07,.39,.8,.51,.75,.12-.05,.44-.51,.44-.51l-.94-.25h0Z"/><path class="r" d="M54.89,68.06h-1s.06,.76,.14,.69c.08-.07,.86-.69,.86-.69h0Z"/><path class="r" d="M56.24,69.43c.15-.08,1-.6,1-.6,0,0-.4-.13-.59-.2-.28-.1-.44,.81-.41,.8h0Z"/><path class="r" d="M58.86,68.88c.15,.18,.45,.45,.45,.45l.02-.79-.47,.34h0Z"/><path class="r" d="M61.29,70.21c.05-.06,.27-.79,.27-.79,0,0,.89,.04,.85,.09-.05,.06-.52,.6-.52,.6l-.6,.09h0Z"/><polygon class="r" points="63.1 68.35 63.07 68.87 63.6 68.5 63.1 68.35 63.1 68.35"/><path class="r" d="M64.43,68.72c.13,.07,.52,.19,.52,.19l.18-.41-.69,.22h0Z"/><path class="r" d="M65.36,67.93c.15-.08,.46-.33,.46-.33l.45,.09-.32,.4-.59-.16h0Z"/><polygon class="r" points="64.04 69.53 64.63 70.15 64.39 69.27 64.04 69.53 64.04 69.53"/><path class="r" d="M60.7,68.76c.11,.01,.66,.06,.66,.06l-.62,.41-.04-.47h0Z"/><path class="r" d="M66.71,69.71c.01,.07,.33,.76,.33,.76l.05-.68-.38-.08h0Z"/><polygon class="r" points="67.32 68.98 67.32 69.33 67.81 69.04 67.32 68.98 67.32 68.98"/><polygon class="r" points="68.74 68.98 68.75 69.34 69.31 69.01 68.74 68.98 68.74 68.98"/><polygon class="r" points="70.06 68.1 70.66 68.11 70.63 67.74 70.06 68.1 70.06 68.1"/><polygon class="r" points="69.16 67.59 69.62 67.34 69.53 66.93 69.26 67.2 69.16 67.59 69.16 67.59"/><path class="r" d="M69.88,69.72c.05,.05,.68,.46,.68,.46l-.21-.48-.47,.02h0Z"/><polygon class="r" points="71.51 68.72 72.05 68.76 72.42 69.18 71.91 69.16 71.51 68.72 71.51 68.72"/><path class="r" d="M70.11,68.98s.62-.39,.62-.39l.31,.21-.36,.31-.56-.13h0Z"/><polygon class="r" points="70.3 65.88 70.05 66.67 70.48 66.47 70.3 65.88 70.3 65.88"/><polygon class="r" points="55.11 66.42 55.46 66.22 55.84 66.57 55.11 66.42 55.11 66.42"/><polygon class="r" points="52.86 67.31 52.56 67.89 53.08 67.71 52.86 67.31 52.86 67.31"/><path class="r" d="M51.48,67c.08,0,.62,.3,.62,.3v-.32l-.62,.02h0Z"/><path class="r" d="M49.85,66.12c.08,.04,.62,.42,.62,.42l.23-.39-.85-.02h0Z"/><polygon class="r" points="50.48 67.78 51.03 67.43 51.08 67.65 50.93 67.79 50.48 67.78 50.48 67.78"/><polygon class="r" points="49.48 65.03 50.04 65.39 49.99 65.04 49.48 65.03 49.48 65.03"/><path class="r" d="M50.64,64.22c.05,.03,.34,.51,.34,.51l.19-.3-.52-.21h0Z"/><path class="r" d="M48.74,66.52s.62-.24,.62-.24l-.09,.41-.54-.16h0Z"/><path class="r" d="M45.91,62.98s.08,.35,.08,.35l.34-.02-.41-.33h0Z"/><path class="r" d="M44.48,62.99s.7,.38,.7,.38l.17-.21-.87-.17h0Z"/><path class="r" d="M45.64,64.42s.52-.12,.52-.12l-.05,.35-.47-.22h0Z"/><path class="r" d="M47.75,64.9s-.26,.35-.24,.35,.61-.21,.61-.21l-.37-.14h0Z"/><polygon class="r" points="47.82 64.05 48.15 64.45 48.15 64.07 47.82 64.05 47.82 64.05"/><path class="r" d="M48.15,62.76s-.05,.32-.02,.32,.39,.04,.39,.04l-.37-.37h0Z"/><polygon class="r" points="47.18 62.09 47.12 62.51 47.57 62.45 47.18 62.09 47.18 62.09"/><polygon class="r" points="49.18 63.02 48.78 63.44 49.21 63.54 49.18 63.02 49.18 63.02"/><polygon class="r" points="50.24 63.04 50.28 63.58 50.77 63.67 50.24 63.04 50.24 63.04"/><path class="ab" d="M43.97,60.78s-.39,.35,.04,.72c.43,.37,1.54,.63,1.54,.63l.98-.59s-.07-1-.43-1.29c-.36-.29-.33-.38-.33-.38l.18-.84h-.6l-.41,.48-.15-.42s-.41-.39-.64-.94c-.22-.55-.24-.66-.42-.49-.19,.16-.13,.6,.08,.81,.21,.21,.38,.91,.38,.91l-.45,.24-.49,.66,.57,.13,.39,.04-.24,.35h0Z"/><path class="ac" d="M43.68,60.01s.33-.34,.39-.28c.06,.06,.43,.61,.43,.61l-.54-.05-.28-.28h0Z"/><polygon class="ac" points="44.33 59.46 44.8 59.33 45.09 59.96 44.7 60.06 44.34 59.81 44.33 59.46 44.33 59.46"/><polygon class="ac" points="45.41 59.15 45.8 59.2 45.54 59.79 45.27 59.8 45.41 59.15 45.41 59.15"/><polygon class="ac" points="44.84 60.25 45.48 60.09 45.97 60.6 45.86 61.36 45.24 61.59 44.3 61.05 44.27 60.7 44.84 60.25 44.84 60.25"/><path class="ab" d="M51.57,65.51s-.42-.82-.11-1.43c.31-.61,.51-.81,.51-.81,0,0-.25-.62-.09-.76,.15-.14,.79,.16,.79,.16v.33l.33-.25,.19,.04s-.04-.68,.41-.85c.44-.17,.31,.37,.31,.37l-.38,.62,.14,.11-.36,.72s.69-.41,.72-.41,.23,.62,.23,.62l-.82,.2-.22-.21s.22,.73,.04,.99c-.18,.26-.82,.88-.82,.88l-.87-.32h0Z"/><polygon class="ac" points="52.08 62.79 52.22 63.41 52.47 63.43 52.55 62.86 52.08 62.79 52.08 62.79"/><polygon class="ac" points="52.96 62.91 52.83 63.31 53.11 63.58 53.46 63.21 53.26 62.85 52.96 62.91 52.96 62.91"/><polygon class="ac" points="53.51 63.83 54.09 63.65 54.02 63.93 53.43 64.02 53.51 63.83 53.51 63.83"/><polygon class="ac" points="51.83 63.87 51.53 64.84 51.98 65.57 52.49 65.16 53.04 64.14 52.53 63.78 51.83 63.87 51.83 63.87"/><polygon class="ac" points="53.5 62.15 53.37 62.67 53.79 62.15 53.5 62.15 53.5 62.15"/><path class="ab" d="M70.65,67.47c.04-.39,.29-.97,.72-1.25,.42-.28,.8-.42,.8-.42l.11,.13s.02-.72,.27-.87c.25-.15,.84,.64,.84,.64,0,0,.12,.12,.33-.18,.21-.29,.8-.72,1.02-.62,.22,.09,.52,.27,.14,.56-.38,.29-1.04,.6-1.04,.6,0,0-.22,.44-.34,.46-.12,.02,.47,.19,.47,.19l-.24,.61-.72-.12-.04-.22s-.92,1.14-1.39,1.14-.8-.16-.94-.65h0Z"/><polygon class="ac" points="72.45 65.99 72.51 65.41 72.99 65.38 72.96 65.58 72.45 65.99 72.45 65.99"/><path class="ac" d="M72.71,66.39c.03-.09,.44-.49,.44-.49l.22,.27-.46,.28-.19-.06h0Z"/><polygon class="ac" points="73.2 66.83 73.7 66.77 73.58 67.14 73.22 67.05 73.2 66.83 73.2 66.83"/><path class="ac" d="M70.89,67.55c.13-.29,.25-.84,.48-.99,.23-.16,.97-.31,.97-.31l.16,.37-.02,.44s-.11,.32-.45,.42c-.34,.1-.82,.32-.82,.32l-.32-.24h0Z"/><path class="ac" d="M73.81,65.73c.25-.31,.75-.62,.75-.62l.31,.09s-.42,.41-.47,.41-.59,.11-.59,.11h0Z"/><path class="t" d="M57.3,70.45c1.79-.14,2.47-.07,3.13-.05,.66,.02,2.5,.32,2.5,.32,0,0,.64-.51,1.07-.06,.44,.45,.06,1.32,.06,1.32,0,0,.34,.97,.07,1.45,0,0,.75,1.44-.58,1.39,0,0-1.44,.58-3.14,.39-1.71-.19-3.35-.52-3.35-.52,0,0-1.2,.49-1.39-.15-.19-.65,.51-.98,.51-.98,0,0-.76-.65-.6-1.15,.16-.51,.31-.89,.31-.89,0,0-.79-1.08,.09-1.31,.88-.22,1.33,.25,1.33,.25h0Z"/><path class="ae" d="M47.47,68.01c.35-.25,1.2-.36,1.55,0,.35,.37,.46,.95,.46,.95l-.6,.42s-.8,.08-1.04-.42c-.24-.51-.38-.95-.38-.95h0Z"/><path class="ae" d="M51.18,73.96c.34-.46,.75-.88,1.33-.89,.58-.01,.93,.52,.93,.52,0,0,.13,.48-.41,.79-.54,.31-1.67,.15-1.67,.15l-.18-.56h0Z"/><path class="ae" d="M67.74,71.6c-.01-.2-.01-.47,.22-.71,.23-.24,1.73-.27,2.01-.01,.28,.26-.29,.66-.29,.66l-.24,.31s-1.09,.82-1.71-.25h0Z"/><path class="i" d="M39.48,61.52l-.94-.61-.09-.47s-.85-.38-.8-1.26l.85,.14-.28-.94,.32-.75s.54,.34,.62,.31c.08-.04-.22-.39,.22-.81,.45-.42,1.34-.59,1.34-.59,0,0,.08,.71-.14,.93-.22,.22,.59,.17,.59,.17,0,0-.36,1.22-.84,1.33-.47,.11,.84,.05,.84,.05,0,0-.14,.97-.62,1.09-.48,.13-.35,.95-.35,.95l-.44,.75-.28-.29h0Z"/><path class="i" d="M40.79,64.22l-.85,.52s-.19,.62,.06,.97c.25,.34,.21,.73,.21,.73l-.89-.35,.38,1.19s.6,.04,.74,.35c.14,.32-.25,.27-.25,.27l-.49,.28s.92,.67,1.31,.59c.39-.08,1.42,.53,1.42,.53h.61l-.25-1.12s-.46-.02-.36-.58c.09-.55,.02-1.34,.02-1.34l-.8,.41s.88-1.2,0-1.98l-.57,.58-.05-1.01-.25-.04h0Z"/><path class="i" d="M44.17,70.65c-.29,.42-.78,.85-.42,1.2,.35,.35,.76,.45,.75,.81l-.9,.32,.71,.93,.81-.04-.2,.49-.42,.14,.28,.27,1.54-.18,1.58-.29-.4-.85h-.27s-.06-1.54-.52-1.68c-.46-.14-.78,.94-.78,.94,0,0-.05-1.66-.46-1.91l-.48,.87s-.02-.97-.82-1.04h0Z"/><path class="i" d="M50.06,75.04l-.13,.53s.24,.66,.2,1c-.04,.34,.12,.77,.73,.87,.61,.11,1.02,.38,1.02,.38l-.75,.54s.01,.57,.68,.57,1.34-.27,1.34-.27h.54l-.41,.39,.04,.67s1.41-.39,1.57-.97c.15-.58,2.2-1.73,2.2-1.73,0,0-1.13-.11-1.31-.36-.18-.26-.96-.44-.96-.44,0,0-.62-.94-.95-.93-.33,.01-.49,1.11-.49,1.11,0,0-.53-1.12-1.21-1.17-.68-.05-.69,.15-.69,.15l.18,.47s-.42,.01-.73-.34c-.31-.35-.85-.47-.85-.47h0Z"/><path class="g" d="M38.64,62.52s.65-.08,.65-.08l.02,.72-.67,.55-.71-.47,.41-.54-.19-.26,.11-.39,.41,.16-.05,.3h0Z"/><polygon class="g" points="40.79 62.91 40.2 62.2 40.63 61.77 41.34 61.97 41.34 61.64 41.72 61.58 41.89 62.08 41.64 62.18 41.9 62.76 41.21 63 40.79 62.91 40.79 62.91"/><polygon class="g" points="43.3 68.49 43.99 68.34 43.81 67.81 44.35 67.82 44.49 68.41 44.77 69 44.16 69.22 43.25 68.97 43.3 68.49 43.3 68.49"/><polygon class="g" points="42.17 69.41 42.46 69.96 42.42 70.33 42.13 70.62 41.63 70.68 41.32 70.4 41.44 69.82 41.3 69.81 41.45 69.24 41.75 69.46 42.17 69.41 42.17 69.41"/><path class="g" d="M48.71,74.36l.61,.34,.61-.32,.15-.53-.25-.61-.37-.25-.43,.22,.06,.19s-.37,.51-.37,.62-.02,.33-.02,.33h0Z"/><polygon class="g" points="48.77 75.74 47.99 75.06 47.98 75.51 47.24 75.81 47.52 76.27 48.14 76.6 48.84 76.31 48.77 75.74 48.77 75.74"/><polygon class="a`" points="49.52 74.45 50.21 75.59 49.72 74.29 49.52 74.45 49.52 74.45"/><path class="a`" d="M48.59,75.78s1.2-.21,1.2-.21l-1.12,.49-.08-.28h0Z"/><path class="a`" d="M42.19,70.06s1.5,.34,1.5,.34l-1.4-.18-.1-.16h0Z"/><polygon class="a`" points="43.81 69 43.58 70.21 43.56 68.83 43.81 69 43.81 69"/><polygon class="a`" points="39.05 63.1 40.27 63.86 39.01 63.25 39.05 63.1 39.05 63.1"/><polygon class="a`" points="40.93 62.78 40.35 64.07 41.13 62.82 40.93 62.78 40.93 62.78"/><polygon class="p" points="39.62 61.4 40.39 65.13 40.72 64.68 39.62 61.4 39.62 61.4"/><polygon class="p" points="44.08 71.25 42.64 68.94 44.28 70.99 44.08 71.25 44.08 71.25"/><polygon class="p" points="50.13 75.6 47.44 74.05 47.17 74.18 50.31 76.01 50.13 75.6 50.13 75.6"/><polygon class="p" points="55.68 76.78 58.53 77.04 55.93 77.16 55.68 76.78 55.68 76.78"/><path class="j" d="M79.54,63.96c0-.09,.13-.99-.27-1.79-.4-.8-.32-1.65-.32-1.65l-.12-1.7,1.15,1.33s-.22-.84,.13-1.51c.35-.67,.87-1.19,.87-1.19l.49,1.79,.46-.44s.59,1.25,.37,2.18c-.22,.93-1.85,2.17-1.85,2.17l-.73,.93-.19-.13h0Z"/><path class="n" d="M79.08,59.71s-.22,.78,.11,1.54c.33,.77,.33,.82,.33,.82l-.21-1.73-.22-.64h0Z"/><path class="n" d="M80.75,58.07c-.46,.42-.55,.8-.58,1.06-.02,.26-.2,2.33-.2,2.33l.54-2.11,.08-.66,.15-.62h0Z"/><path class="n" d="M81.76,59.29c-.33,.47-.42,.8-.47,1.26-.05,.46-.8,2.14-.8,2.14l1.05-1.57,.27-1-.05-.84h0Z"/><path class="j" d="M78.01,64.95c-.78,.8-1.32,1.15-1.39,1.62-.07,.47-.24,1.6-.19,2.26,.05,.66,.12,1.55,.12,1.55,0,0,1.7-.71,2.07-.99,.38-.28,1.27-.57,1.6-1.6,.33-1.04,.85-2.28,.85-2.28l-1.62,.61,.16-1.6s-.73,.33-.97,.85c-.24,.52-.73,1.32-.73,1.32,0,0-.02-.82,.09-1.13,.12-.31,0-.61,0-.61h0Z"/><path class="n" d="M77.37,66.07s-.64,1.21-.67,1.82c-.04,.61,.07,1.48,.07,1.48,0,0,.79,.14,1.15-.13,.36-.27,2.33-2.65,2.33-2.65l-.82-.27-.43,1.34-1.75,1.44,.45-1.47,1.39-1.68-1.39,1.13-.69,1.52,.24-1.78,.14-.75h0Z"/><path class="j" d="M70.53,75.24c.6-.42,.86-1.29,1.02-1.66,.16-.36,.49-1.22,.99-1.58,.49-.35,1.39-1.75,1.39-1.75l.28,.05s-.69,1.8-.68,2.07c0,0,1.41-1.53,2.58-1.37l-.75,1.69,.59-.28s-.26,2.28-1.29,2.48c-1.04,.2-3.28,.14-3.28,.14l-.68,.52-.15-.32h0Z"/><path class="n" d="M73.44,71.25l-1.07,1.27-.78,1.87s1.07-1.66,1.09-1.72c.02-.06,.75-1.42,.75-1.42h0Z"/><polygon class="n" points="75.54 71.24 74.21 72.02 73.57 72.81 72.43 73.67 74.08 72.84 74.63 72.06 75.54 71.24 75.54 71.24"/><polygon class="n" points="75.34 73.04 72.38 74.75 74.04 74.29 75.34 73.04 75.34 73.04"/><path class="j" d="M61.1,76.76c.08-.02,1.61-.02,1.61-.02,0,0,1.25,.01,1.34-.04,.09-.05,1.21-.95,1.21-.95l2.89-.8-2.61,1.39s.69-.38,2.18-.38,2.24,.25,2.24,.25l-2.18,1.24,1.55,.29s-1.04,.2-1.83,.69c-.79,.49-1.75,1.02-2.75,.36-1-.66-2.94-1.65-2.94-1.65l-.74-.06,.02-.33h0Z"/><path class="n" d="M64.7,78.37h.09c.76-.08,2.63-.23,2.72-.28,.09-.06,.32-.38,.32-.38,0,0-2.55,.09-2.84,.12-.28,.02-1.37-.09-1.37-.09l1.07,.64h0Z"/><path class="n" d="M68.02,76.14c-.88,.2-2.82,.45-2.82,.45l-.53,.6s-2.15-.13-1.91-.08c.25,.05,1.92,.34,1.92,.34h1.11l.31-.48,1.93-.82h0Z"/><path class="l" d="M59.36,76.33c-.06,.87,0,1.51,0,1.51,0,0-.51,.06-.62-.54s.62-.97,.62-.97h0Z"/><path class="u" d="M60.18,76.38c.04,.73-.1,1.48,.01,1.42,.11-.06,.76-.19,.56-.73-.2-.54-.58-.69-.58-.69h0Z"/><path class="l" d="M58.82,78c.06,.02,.49,.24,.49,.24,0,0-.85,.22-1.47,.81-.62,.59-1.06,1.02-1.06,1.02l.14-.89,1.9-1.18h0Z"/><path class="u" d="M60.09,78.19c-.26,.22-1.53,1.24-1.53,1.24l-.44,.67,.35,.52s.71-.6,1.26-1.04c.55-.44,.92-.99,.92-.99,0,0,.15,.58,.61,.74,.46,.16,1.24,.62,1.24,.62l.87-.02s-1.4-.52-1.74-.85c-.34-.33-.89-1.21-.89-1.21l-.65,.32h0Z"/><polygon class="g" points="69.77 73.55 69.57 74.55 69.93 74.83 70.5 74.33 69.77 73.55 69.77 73.55"/><polygon class="g" points="70.97 76.12 71.22 76.91 72.04 76.2 71.41 75.94 70.97 76.12 70.97 76.12"/><path class="g" d="M75.21,68.69c-.25,.33-.27,.78-.06,1.13l.62-.26v-.55l-.57-.32h0Z"/><polygon class="g" points="77.19 70.89 77.39 70.53 77.87 70.58 78.04 71.12 77.64 71.49 77.06 71.29 77.19 70.89 77.19 70.89"/><polygon class="g" points="78.64 62.73 78.85 63.04 78.73 63.69 78.17 63.78 77.93 63.53 78.01 62.84 78.64 62.73 78.64 62.73"/><path class="g" d="M81.47,63.52v.67l-.65,.51s-.56-1.06,.65-1.18h0Z"/><g><path class="r" d="M52.21,49.68s-3.65,.68-1.04-3.08c0,0,.13-.86,.95-1.33,.82-.47,1.24-1.52,.75-1.86,0,0,.66,.07,.69,.36,0,0,.48-.64,.42-1.22,0,0,.48,1.04,.49,1.34,0,0,.42-.96,.53-1.53,0,0,.21,.54,.22,.93,0,0,.69-.18,.49-.94,0,0,.92,.46,.81,1.01,0,0,.45-.19,1.44,.29,.99,.48,1.38,.2,1.38,.2,0,0-.1,.31-.22,.36,0,0,.99,.6,1.34,1.12,0,0,.48-.87-.32-1.48-.8-.61-2.66-.97-2.42-1.79,.24-.82,.94-1.17,1.57-.99,0,0,.12-.93,1.27-.85,1.15,.08,4.26,.39,6.12,1.49,1.86,1.11,2.5,1.53,3.58,1.2,0,0,.02,.63-.23,.84,0,0,2.84,2.23,3.86,4.4,.8,1.72,.96,3.55,2.71,4.59,0,0-.09,.18-.64,.3,0,0,.45,3.2-.33,5.72,0,0-.28,4.17-.89,5.27,0,0,.19-7.63-.8-8.38,0,0,.4,5.98-.07,7.37,0,0-.26-4.19-.75-4.9,0,0,.09,3.39-.35,4.19,0,0-.57-4.54-1.18-5.11,0,0,.26,1.6,0,2.38,0,0-.49-2.52-1.15-2.99,0,0,.28,1.65,.24,2.35,0,0-1.18-2.61-1.84-2.97,0,0,.54,1.7,.59,2.14,0,0-1.46-2.73-1.79-2.83,0,0,.49,1.84,.82,2.33,0,0-1.32-1.84-1.91-2.02-.59-.19-.52,.21-.85-.19-.33-.4-.71-.92-1.15-.71,0,0,1.08,2.52,.8,3.44,0,0,6.5,4.5,7.25,5.32,.75,.82-.59,.92-.97,1.01-.38,.09-.89-.09-.89-.09,0,0-.23,.64-1.29,.61,0,0-1.01,.54-1.65-.17,0,0-.9,.33-1.62-.47-.73-.8-1.13-1.11-1.13-1.11,0,0-.29,.37-.03,.84l-.56-.27s-.04,.38,.04,.57c.07,.19,.61,.74,.94,.86,.33,.12,1.09,0,1.27,.35,.18,.35,.05,.53,.05,.53l-.58,.87s-.78,.47-1.04-.57l-1.77-.05-.82,.82-.61,.05-.49-.63v-.47l-.71,.02-.28-.92s-.12-.33,.16-.33,.97,.21,1.37,.07c.4-.14,.59-.73,.54-.99l-.47,.52-1.24-1.89-.13,.48-1.31-1.73s.14,1.25-.19,1.44c-.33,.19-.68-.67-.68-.67,0,0-1.22,.38-1.66,.44-.43,.06-1.25,.15-.65-.44l-2.24-.57,.57-.54-.66-.07s.42,.33-.12,.38c-.54,.05-.68-.09-.8-.11-.12-.01-.73,.04-.73,.04,0,0-1.01,.44-1.36,.32-.35-.12-.89-1.33-.8-1.66s.36-.4,.47-.34c0,0-.13-.99,.61-.6,0,0,.05-1.02,1.07-.56l.53-.21s1.95,.48,2.21,.71c.26,.24,.48,.35,.41,.93l.91,.02s-.96-.88-.91-1.35c0,0,.41-.15,.58-.11,.16,.05-.81-.88-.54-1.9,0,0-.31-.4-.31-.61l-.54,.24s-.41-1.7-.7-2.82c-.28-1.13,.66-2,.66-2,0,0-.3-.05-.14-.36,.16-.31,.93-1.44,.99-1.6l-.29-.02s.29-.45,.58-.87c.28-.42,.33-.61,.33-.61l-.27,.04-.32-.25s-1.4,.8-1.72,.8-.43,.04-.64-.22c-.43-.56-1.09-.44-1.4-.09-.36,.4-.3,1.11,.58,1.53h0Z"/><path class="ah" d="M52.6,46.5l1.13-.55s.15-.25-.14-.48c-.29-.24-.49-.4-.49-.4l.28,.73-.31-.2-.29,.34,.13,.14-.31,.42h0Z"/><path class="af" d="M51.72,46.54c.55,.32,2.79,.74,3.3,.58,.22,.48,.06,.56-.07,.66,0,0-1.01,.6-1.26,.59,0,0,.03-.2,.26-.23,.22-.04,.51-.16,.53-.24,.02-.08,.04-.24,.04-.24,0,0-.69-.34-1.17-.17-.48,.16-.69,.24-1.07,.29-.38,.04-.79,.2-.88,.46-.09,.26-.17,1.02,.28,1.36,0,0-1.23-.01-1.34-.81-.11-.8,1.05-2.39,1.4-2.24h0Z"/><path class="ah" d="M53.13,48.2s.38-.38,.49-.46c.11-.09,.15-.11,.31-.11s.43,.05,.43,.05l-1.22,.52h0Z"/><path class="af" d="M60.53,65.16c.09,.18,.27,.86,.28,.93,0,.07,.68,.01,.77-.03,.09-.04,1.04-.42,1.21-.59,.17-.17,.52-.29,.48-.46-.05-.18-.68-.49-.68-.49,0,0-.11,.32-.31,.48-.21,.15-.57,.24-.91,.19-.35-.05-.87-.24-.82-.02h0Z"/><path class="af" d="M66.42,65.55c-.23,0-.5,.05-.81-.04-.31-.09-.93-.65-1.05-.75-.12-.1-.65-.32-.65-.32l-.52,.87s.36,.33,.61,.34c.25,0,.95,.09,1.04,.27,.09,.18,.19,.7,.34,.81,.14,.11,.32,.36,.65,.26l.67-.94s0-.46-.28-.5h0Z"/><path class="af" d="M61.68,66.19c.17-.06,1.58-.8,1.58-.8,0,0,.38,.48,.5,.48s.91-.03,1,.01c.09,.04,.25,.45,.25,.45l-1.66-.04-.85,.84-.48,.04s-.45-.45-.47-.53c-.02-.08,0-.45,.13-.45h0Z"/><path class="aj" d="M60.37,65.23s.26,.84,.27,.91c.03,.11-.05,.14-.16,.18-.17,.07-.51,.21-.49,.64l.02,.45-.22-.39s-.67-1.12,.42-1.85l.12-.08,.04,.14h0Zm.07,.96h0c-.01-.05-.15-.51-.22-.76-.45,.37-.44,.84-.36,1.15,.13-.28,.4-.39,.55-.45,.01,0,.06,.13,.04,.06h0Z"/><path class="w" d="M60.27,65.26s.25,.84,.27,.91c.02,.07-.69,.13-.65,.81,0,0-.62-1.04,.38-1.71h0Z"/><path class="aj" d="M61.43,66.77l.42,.57,.08,.11-.13,.05s-.48,.17-.39,.95l.05,.44-.24-.37s-.76-1.14,.07-1.77l.09-.07,.06,.09h0Zm.18,.59h0l-.28-.37c-.31,.3-.23,.73-.12,1.03,.06-.38,.27-.57,.4-.66h0Z"/><path class="w" d="M61.34,66.84l.42,.57s-.55,.2-.46,1.06c0,0-.71-1.06,.04-1.62h0Z"/><path class="aj" d="M66.3,66.97l.49-.75,.08-.13,.09,.12s.58,.75,.09,1.58l-.16,.26-.04-.3s-.1-.71-.44-.62l-.27,.08,.16-.24h0Zm.58-.5h0l-.29,.45c.21,.06,.34,.29,.41,.49,.13-.4-.01-.76-.11-.94h0Z"/><path class="w" d="M66.39,67.03l.49-.75s.54,.69,.08,1.46c0,0-.12-.84-.58-.71h0Z"/><path class="f" d="M50.14,60.08c.08,.26,.38,1.22,.68,1.43,.31,.21,.54-.23,.54-.23l-.74-1.49s-.46-.22-.48,.29h0Z"/><path class="f" d="M50.73,59.06c-.06,.09-.13,.44-.09,.59,.04,.15,.71,1.52,.8,1.58,.09,.05,.1,.15,.21,.15s.31-.1,.38-.14c.07-.04-.27-.69-.35-.91-.08-.21-.1-.63-.16-.75-.07-.12-.18-.08-.23-.26-.05-.19-.35-.29-.56-.26h0Z"/><path class="f" d="M51.56,58.47c-.12,.06-.28,.33-.29,.48,0,.15,.17,.4,.31,.49,.15,.09,.05,.6,.18,.85,.13,.25,.25,.79,.44,.86,.19,.07,.44,.09,.47,.04,.03-.05-.29-.77-.37-.99-.08-.23-.09-.81-.05-1.08,.04-.27,.05-.49-.04-.54-.08-.05-.3-.24-.66-.11h0Z"/><path class="f" d="M53.2,60c.16,.12,.49,.6,.51,.75,.01,.15,.19,.24,.16,.39-.04,.15-.68,.2-.94,.06-.26-.14-.34-.4-.37-.58-.03-.18-.18-.48-.18-.48,0,0,.42-.18,.58-.21,.15-.03,.25,.07,.25,.07h0Z"/><path class="x" d="M51.81,46.46c.39,.01,.5,.06,.58,.02,.04-.02,.3-.31,.48-.71,.2-.45,.33-1.11,.36-1.45,0,0-.16,.6-.63,.87-.47,.27-.63,.32-.74,.56-.11,.25-.22,.41-.22,.41l-.02,.33,.2-.03h0Zm8.5-4.72h0l-.35-.94,.37-.35,1.33,.02,2.41,.4,2.12,.8s1.33,.77,1.45,.86c.12,.09,1.02,.49,1.02,.49l1.47,.24-.42,.53-.8,.41-1.2-.14-.34-1.47-.18,1.22-.89-.29-.28-.26-1.27-1.78,.22,1.35-1.25-1.22-1.01-.27,1.06,1.18-.98-.41h-1.05l-1.42-.36h0Zm4.67,1.46h0l.15,.95,.94-.05-.48-.87s-.55-.04-.61-.04h0Zm1.12,1.34h0l.85,.12,.48,.73,.64-.09v-.76l-1.19-.61-.78,.62h0Zm-.89-.02h0l.46,.19,1.07,.31,.91,.81,.04,.88-.56-.62-2-.69,.09-.87h0Zm-.01,1.82h0l.55,1.2,.85,.61,.51,.47,.59-.49-.35-1.14-.85-.49-1.29-.15h0Zm-.06,1.99h0l.38-.12,.67,.31,.64,.72-.26,.57-.8-.05-.65-.67,.02-.75h0Zm-.86,1.92h0l-.2,.41,.64,.58,.81,.07-.05-.87-.67-.65-.53,.46h0Zm.67,1.8h0l.47-.35,.47,.55-.22,.54-.73-.29v-.45h.01Zm3.54-6.37h0l.41-.45,1.04,.75,.64,.98,.31,1.15,.98,2.17-1.34-2.02-.45-.93-1.29-1.12-.28-.53h0Zm-.55,1.6h0l.22,.95,1.05,1.52,1.27,1.15,.24-.29-.12-.98-.72-1.12-1.42-1.6-.52,.37h0Zm-.67,1.93h0l.53,1.12,1.12,.75-.73-1.2-.42-.92-.49,.25h0Zm-1.27,1.46h0l1.25-.46,.18,1.05-.13,1.32-1.06-1.13-.23-.78h0Zm8.21,1.6h0l1.71,.16-.81-1.09-.99-2.39-.68-1.41-1.01-1.33-1.47-1.51-1.04-.64-1.05,.52,2.21,.84-.76,.32,1.39,.84-.71,.2,2.02,1-.71,.18,1.38,1.02-.58,.14,.07,.67,1.33,1.46,.16,.73-.48,.29h0Zm-1.97-.6h0l.49,.65,.62-.15-.13-1.59-1.77-2.25,1.11,2.85-.33,.49h0Zm-1.32,.87h0l.91-.05v-.86l-.85-1.91,.21,1.35-.18,.59-.48,.18-.07,.52,.46,.18h0Zm-1.94-.35h0l.86,.06,.02-1.2-1.27-1.65,.52,1.51,.08,.74-.21,.54h0Zm-1.68,.86h0l.46-.53v-.91l-.27-1.33,.98,1.73-.11,.97s-.98,.06-1.06,.07h0Zm-1.76,.78h0l.78,.13,.31-.71-.56-1.47,.13,1.05-.65,1h0Zm-.17,.41h.75l.08,.31,1.55,1.51-1.66-.92-.72-.9h0Zm1.18-.16h0l.48-.27,.51,.81,.83,.74-1.21-.48-.61-.8h0Zm7.37-1.49h0l.83,.26v1.4l-.12,.28-.35-.18-.16-.72-.19-1.04h0Zm1.32,.29h0l.55,.24s.26,2.14,.26,2.2-.05,2.3-.05,2.3l-.92-2.72,.15-2.01h0Zm-2.09-.21h0l.31,1.5,1.24,1.48-.87-1.71-.24-1.17-.44-.11h0Zm-5.31,.69h0l.32,1.24,1.91,1.64-.75-1.25-.51-1.59-.97-.03h0Zm1.55-.54h0l.62-.06,.54,1.92,1,1.58-.4,.36-1.01-1.37-.75-2.44h0Zm2.11,.23h0l-.02,1.35,.72,1.41,.78,1.6-.08-1.28-.81-1.7,.15-1.39h-.73Zm-6.95-.06h0l.08,1.47h.4l.12-.95-.6-.52h0Zm-.87-.13h0l.31-.38-.02-.73-.31-.46,.18-.34,.59,.48,.22,.77-.61,1.06-.35-.4h0Zm-1.24-3.84h0c0-.06,.33-1.14,.33-1.14l-.72-1.44,.66,.39,.25-.14-.18-.73-1.26-.84,.63-.02,.77,.54-.75-1.32-.87-.41,.75-.07-1.15-.73h-.88l.34-.34-.53-.35-.91,.11,.99-.46-.44-.25-.54-.11,.61-.2-.14-.25-.61,.07-.41,.34-.22,.48,.21,.48,.66,.31,1,.46,.58,.39,.31,.54,.15,.87v.55l.82,1.8s.56,1.42,.55,1.46h0Zm.04,.39h0l.65-.48,.4-.94,.09-1.44-.31-1.6-.53-.88-.95-1.22-.84-.34,.89,.81,.94,1.3,.41,1.27,.04,1.71-.26,1.01s-.54,.79-.54,.79h0Zm.76,.26h-.8l-.06,1.74,1.14-.35,.52-.8-.8-.59h0Zm.53-1.25h0l1.07,.41-.2,.84h-.41l-.97-.53,.51-.72h0Zm.29-1.61h0l.88,.39v1.02l-.69,.05-.47-.39,.28-1.07h0Zm-.23-1.95h0l1.07,.42-.07,1.05-.21,.39-.79-.26v-1.6h0Zm-1.58-2.02h0l.86,1.49,.84,.28,.8,.21-.2-1.53-.89-.4-1.4-.06h0Zm-9.05,18.18h0l.65-.29,.12,.26-.07,.3-.46-.03-.24-.24h0Zm1.09-.81h0l-.42,.27,.15,.12,.26,.29,.67-.39-.28-.31h-.38Zm1.04-.74h0l.09,.49-.19,.33-.52-.26,.53-.79,.09,.24h0Zm-.77,1.49h0l.58-.36,.42,.45-1.01-.08h0Zm2.97,.29h0l-.47-.98-.64-.18-1.21,.41,.64,.56,1.25,.49,.42-.29h0Zm-2.91,.35h0l.08-.26,.26-.21,1.98,.51-.44,.45-1.88-.48h0Zm3.56-.62h0l.45,1.12-1.34,.37-.85,.02,.52-.65,.93-.61,.28-.26h0Zm1.65,.16h0l.59,.63,.34,.56-.28,.02-.68-.94,.03-.28h0Zm-1.34-1.38h0l.53,.04,.41,.93-.97-.65,.03-.31h0Zm-.07,.54h0l.06,.52,.25,.82,.54,1.03,.2-1.09v-.33l-1.05-.94h0Zm6.9,1.67h0l3.48,3.11-.51-.09-3.05-2.84v-.26l.07,.08h0Zm.32-1.35h0l-.07,.45,4.18,3.79,.65-.09-4.76-4.14h0Zm.22-1.1h0l-.11-.1v.45l5.29,4.45,.48,.12,.46-.13-6.12-4.79h0Zm.06-.78h0l.02,.34,6.89,5.03-.13-.45-6.78-4.92h0Zm-1.64,2.73h0l-.04,.65,.2,.22,.1,.68,.37,.78,.14-1.3,.1-1.14-.19-.28-.3,.82-.37-.44h0Zm-.89,1.11h0l.03-.44,.81,.4,.16,.53,.05,1.08-.44-.51-.6-1.07h0Zm-1.14-.69h0l.12,.95,.44,.9,.76,.97,.36-.57-.43-.86-1.25-1.38h0Zm-1.08,.7h0l.84,.23,.44,.75-.09,.75s-1.15-1.72-1.19-1.74h0Zm-5.13-3.93h0l.87,.42-.14,.79-.55-.43-.32-.56,.15-.23h0Zm1.03-.11h0l.69,.88,.43,.27-.1,.89-.41,.53-.41-.75-.25-.26,.05-1.55h0Zm7.65-3.1h0l-.27,1.82,.42,.98,.24,1.72-.06,.65,.25,.36,.22-1.21-.08-1.27-.06-.44-.04-.86-.63-1.75h0Zm-1.39,1.38h0l.87,.54,.51,1.11,.16,1.52-.14,1.29-.44-.38-.99-3.11,.02-.98h0Zm-1.37,.39h0l1.12,.72,.45,1.26,.6,2-.15,.88-.42-.33-1.53-2.97-.06-1.57h0Zm-1.41,1.07h0l.05,.97,1.25,1.54,1.31,1.6,.15-.41-.8-1.62-.72-1.38-1.24-.69h0Zm-1.22,.51h0l-.11,.99,.38,.87,.95,1.01,1.58,.86-.42-1.52-1.04-1.39-1.34-.82h0Zm-3.49-1.92h0l-.13,.4,.34,.72,.61,.75,.08-.46-.47-1.07-.44-.34h0Zm-.22-1.47h0l-.11,.44,.21,.51,.67,.42,.52,1.09,1.21,1.44,.88,.33-.25-1.37-1.34-1.55-.58-.37-1.22-.94h0Zm6.88-3.52h0l.19,1.08-.21,1.01,.56,1.46,.31,1.04,.89,.54,.26-1.44-.12-1.29-.64-.92-.33-.49v-.47l-.92-.52h0Zm-.94,2.28h0l-.21,.98,.51,1.52,1.16,.98-.2-1.84-.42-1.41-.84-.22h0Zm-1.64,.69h0l1.07,.45,.72,1.74,.08,1.68-1.33-.85-.22-1.05-.64-.74,.32-1.24h0Zm-2.27,.16h0l-.06,1.31,1.02,1.49,1.62,1.12s-.24-1.78-.27-1.84c-.04-.06-.87-.94-.87-.94l-.74-.34-.71-.8h0Zm3.49-3.33h0c.07,0,.78,.02,.78,.02l.39,1.29-.1,1.15-.64-.53-.2-.73-.19-.87-.05-.34h0Zm-.97-.41h0l-.27,.41-.19,.89,.13,1.04,.07,.87,.87,.47,.47-1.13v-.6l-.27-1.28-.81-.67h0Zm-4.57,.08h0l-.34,1.93,.12,1.6-.09,.86-.4,.24-.43-1.62-.26-1.38,.19-.73,.39-.66,.2-.26,.67-.1-.03,.12h0Zm.11,.82h0l1.17-.33,.45-.35-.02,2,.09,1.02-.25,1.78s-1.35-.91-1.39-1.13c-.04-.22-.34-1.71-.34-1.71l.29-1.28h0Zm1.91-.15h0l.63,.78,.56-.05,.71-.51,.14,1.48-.15,1.37-.23,.85-1.08-.91-.59-1.57,.03-1.45h0Zm-3.7-5.9h0l.85,.59,.98,.08,.62,.32-.38,.56-.44-.23-.13-.44h-1.08l-1.47-.21,1.05-.68h0Zm.37-.32h0l-.24,.1,.78,.65,.61-.09,.73,.38,.5-.15-.39-.67-.47-.09-.98,.15-.55-.28h0Zm1.54,3.76h0l.18,.15-.38,1.35-.87,.05,1.07-1.55h0Zm1.31-.61h0l-.91,.46-.58,2.53,1.31-.42,.67-1.34-.06-.71-.44-.52h0Zm-.53-1.82h0l-.2,.69-.47,1.33,.79-.22,.42-.59-.05-.82-.49-.39h0Zm1.32-.18h0l.24,.48h.28l-.03,1.04-.44,.93-.61-.78v-1.25l.56-.42h0Zm.67,1.88h0l1.2,.6,.09,1.07-.25,1.12-.86,.88-.36,.07-.72-.94-.09-.6,.31-.98,.39-.9,.29-.33h0Zm1.34-.78h0l.78,.77,.52-.92,.42-.34,.31,1.92,.22,.69v.58l-.33,.58-.35,.2-1.01-.38-.42-1.68-.24-.42,.11-.99h0Zm-5.65-2.5h0l1.01-.98,.59-.31,1.71,.06,.86,.25h.82l.79,.44,.71,.75,.39,.99-.06,.84-.41,.87-.9-.97-.33-1.22-.53-.81h-.98l.87,.44,.44,.96,.3,.77v1.41l-.81-.54-.22-1.34-.35-.37-.04-.45-.6-.94-1.02-.54h-.33l.25-.24-.29,.09-.24,.38h-.33l-.54,.58,.72-.25,.42-.22,.91,.27,.47,.53v1.04l-.61-.21-.49-.86,.35-.24h-1.44l-.49,.19-.59-.37h0Zm2.49-1.53h-.08v-.48l.46-.06,.42,.09,.49,.21,1.04,.42-1.26-.09-1.07-.09h0Zm-.61-1.21h0l-.44,.65-.29,.71,1.01-.16,.1-.42-.09-.52-.29-.26h0Zm-.95,.24h0l-.39,1.15-.24,.6,.25-.08,.25-.31,.31-.61-.18-.76h0Zm-1.71,.98h0l-.03,.35,.11,.39,.04,.29,.29,.32,.24-.03,.31-.61,.14-.77-.33-.76-.12,.52-.35,.37-.29-.08h0Z"/></g><path class="k" d="M50.43,54.03c-.08,.49-.6,1.88,.58,2.26,1.18,.38,1.32,.04,2.06,.07,.74,.04,1.75,.87,1.93,1.45,.18,.58-.06,1.81-.4,2.04-.34,.22-.92,.55-.92,.55,0,0-.25-.49-.49-.56-.24-.07-.82,.18-.82,.18,0,0-.14-.39-.06-.75,.08-.36,.06-.73,.07-.79,.01-.06,.36-.2,.46-.26,.09-.06-.74,.04-1.24-.05-.49-.08-1.87-.62-1.99-1.08-.12-.46-.46-1.27-.31-1.64,.15-.36,1.12-1.42,1.12-1.42h0Z"/><polygon class="ag" points="48.99 58.49 48.75 59.04 49.14 58.62 48.99 58.49 48.99 58.49"/><path class="ag" d="M49.57,59.94s-.04-.31-.04-.31l-.79-.02-.18,.59,.32-.36,.69,.09h0Z"/><polygon class="ag" points="49.99 60.37 49.21 60.3 50.02 60.62 49.99 60.37 49.99 60.37"/><polygon class="ag" points="49.19 53.88 49.53 54.43 49.9 54.39 49.49 54.02 50.45 53.86 49.19 53.88 49.19 53.88"/><polygon class="ag" points="49.01 54.79 48.94 54.38 49.72 54.65 49.16 54.61 49.01 54.79 49.01 54.79"/><polygon class="ag" points="48.75 54.95 49.03 55.48 49.09 54.97 48.75 54.95 48.75 54.95"/><polygon class="ag" points="48.78 55.93 49.38 56.21 49.67 56.49 50.09 56.49 49.57 55.94 48.78 55.93 48.78 55.93"/><polygon class="r" points="49.18 55.49 49.97 55.95 49.61 55.33 49.18 55.49 49.18 55.49"/><polygon class="ag" points="48.86 56.51 49.12 57.06 49.16 56.59 48.86 56.51 48.86 56.51"/><polygon class="r" points="49.44 57.06 50.12 57 49.79 57.14 49.44 57.06 49.44 57.06"/><path class="r" d="M53.5,56.69l.14,.67s-.21,.92-.2,.89c.01-.03,.57-.87,.57-.87l-.51-.69h0Z"/><path class="r" d="M52.02,56.71c.07,.09,.64,.96,.64,.96l-.02-.61-.63-.35h0Z"/><polygon class="r" points="50.98 56.54 51.18 57.43 51.11 57.86 51.57 57.42 50.98 56.54 50.98 56.54"/><polygon class="r" points="50.41 56.26 50.15 56.74 50.61 56.64 50.41 56.26 50.41 56.26"/><path class="r" d="M54.6,58.78l-.67,.13s-.92-.22-.89-.21c.03,.01,.87,.58,.87,.58l.69-.51h0Z"/><polygon class="r" points="52.81 59.11 52.55 59.59 53.01 59.49 52.81 59.11 52.81 59.11"/><polygon class="r" points="52.92 66.13 53.48 66.5 53.43 66.14 52.92 66.13 52.92 66.13"/><path class="j" d="M40.17,57.44l-.67,1.55,.04,2.15-.58-.45-.57-.77,.6-.18-.2-1.33s.52,.07,.52,.01,.21-1.01,.21-1.01h.65Z"/><polygon class="j" points="40.74 65.41 42.27 68.85 40.64 68.13 41.1 67.66 39.8 66.84 40.72 66.5 40.74 65.41 40.74 65.41"/><path class="j" d="M44.56,71.74l1.06,1.27,1.09,1.08-1.26,.12s-.07-.74-.15-.74-1.14-.22-1.14-.22l.73-.57-.33-.94h0Z"/><polygon class="j" points="50.68 76.16 52.82 77.31 55.86 77.29 54.12 78.33 53.5 77.76 52.16 78.35 52.37 77.64 50.94 76.89 50.68 76.16 50.68 76.16"/></g></g></g></g></svg>