<?xml version="1.0" encoding="UTF-8"?><svg id="a" xmlns="http://www.w3.org/2000/svg" xmlns:xlink="http://www.w3.org/1999/xlink" viewBox="0 0 120 120"><defs><style>.c{clip-rule:evenodd;}.c,.d{fill:#ccc;}.e{fill:#f29534;}.f{fill:#f0f0f0;}.g{fill:#1266c5;}.h{fill:#4dac2d;}.d{fill-rule:evenodd;}.i{clip-path:url(#b);}</style><clipPath id="b"><path class="c" d="M60-.05C93.14-.05,120,26.81,120,59.95s-26.86,60-60,60S0,93.09,0,59.95,26.86-.05,60-.05h0Z"/></clipPath></defs><path class="d" d="M60-.05C93.14-.05,120,26.81,120,59.95s-26.86,60-60,60S0,93.09,0,59.95,26.86-.05,60-.05h0Z"/><g class="i"><g><polygon class="f" points="-30 39.95 150 39.95 150 79.95 -30 79.95 -30 39.95 -30 39.95"/><path class="g" d="M78,59.95c0,9.94-8.06,18-18,18s-18-8.06-18-18,8.06-18,18-18,18,8.06,18,18h0Zm-18.28,3.22c-.1,0-.19-.02-.28-.04l-.54,3.06-2.93,9.09c.32,.09,.65,.16,.98,.22,.07-.55,.58-.93,1.13-.86,.55,.07,.94,.58,.86,1.12,.33,.02,.67,.03,1,.04l-.48-9.54,.27-3.09h0Zm-1.89,2.74l1.06-2.92c-.09-.03-.18-.07-.26-.11l-1.31,2.81-5.18,8.02c.29,.17,.59,.32,.89,.47,.21-.51,.8-.75,1.31-.54,.51,.21,.75,.8,.54,1.31,.32,.11,.64,.21,.96,.29l2.01-9.34h0Zm.31-3.31c-.08-.05-.15-.11-.23-.17l-2,2.38-7.08,6.4c.24,.24,.48,.46,.73,.68,.34-.44,.97-.52,1.41-.18,.44,.34,.52,.97,.19,1.41,.28,.19,.56,.36,.85,.53l4.35-8.5,1.78-2.55h0Zm-3,1.43l2.38-2c-.06-.07-.12-.15-.17-.23l-2.55,1.78-8.5,4.35c.17,.29,.35,.57,.53,.85,.44-.34,1.07-.25,1.41,.19,.34,.44,.25,1.07-.19,1.41,.22,.25,.45,.5,.68,.73l6.41-7.08h0Zm1.92-2.71c-.04-.09-.08-.17-.11-.26l-2.92,1.06-9.34,2.01c.09,.32,.19,.64,.29,.96,.51-.21,1.1,.03,1.31,.54,.21,.51-.03,1.1-.54,1.31,.15,.3,.3,.6,.47,.89l8.02-5.18,2.81-1.31h0Zm-3.31-.26l3.06-.54c-.02-.09-.03-.19-.04-.28l-3.09,.27-9.54-.48c0,.33,.01,.67,.04,1,.55-.07,1.05,.31,1.13,.86,.07,.55-.31,1.05-.86,1.13,.06,.33,.14,.65,.23,.98l9.09-2.93h0Zm3.02-1.39c0-.1,.02-.19,.04-.28l-3.06-.54-9.09-2.93c-.09,.32-.16,.65-.23,.98,.55,.07,.94,.58,.86,1.12-.07,.55-.58,.94-1.13,.86-.02,.33-.03,.67-.04,1l9.54-.48,3.09,.27h0Zm-2.74-1.89l2.92,1.06c.03-.09,.07-.18,.11-.26l-2.81-1.31-8.02-5.18c-.17,.29-.32,.59-.47,.89,.51,.21,.75,.8,.54,1.31-.21,.51-.8,.75-1.31,.54-.11,.32-.21,.64-.29,.96l9.34,2.01h0Zm3.31,.31c.05-.08,.11-.15,.17-.23l-2.38-2-6.41-7.08c-.24,.24-.46,.48-.68,.73,.44,.34,.52,.97,.19,1.41-.34,.44-.97,.52-1.41,.18-.19,.28-.36,.56-.53,.85l8.5,4.35,2.55,1.78h0Zm-1.43-3l2,2.38c.07-.06,.15-.12,.23-.17l-1.78-2.55-4.35-8.5c-.29,.17-.57,.35-.85,.53,.34,.44,.25,1.07-.19,1.41-.44,.34-1.07,.25-1.41-.19-.25,.22-.5,.45-.73,.68l7.08,6.4h0Zm2.71,1.92c.09-.04,.17-.08,.26-.11l-1.06-2.92-2.01-9.34c-.32,.09-.64,.19-.96,.29,.21,.51-.03,1.1-.54,1.31-.51,.21-1.1-.03-1.31-.54-.3,.15-.6,.3-.89,.47l5.18,8.02,1.31,2.81h0Zm.26-3.31l.54,3.06c.09-.02,.19-.03,.28-.04l-.27-3.09,.48-9.54c-.33,0-.67,.01-1,.04,.07,.55-.31,1.05-.86,1.12-.55,.07-1.05-.31-1.13-.86-.33,.06-.65,.14-.98,.22l2.93,9.09h0Zm1.39,3.02c.1,0,.19,.02,.28,.04l.54-3.06,2.93-9.09c-.32-.09-.65-.16-.98-.22-.07,.55-.58,.94-1.13,.86-.55-.07-.93-.58-.86-1.12-.33-.02-.67-.03-1-.04l.48,9.54-.27,3.09h0Zm1.89-2.74l-1.06,2.92c.09,.03,.18,.07,.26,.11l1.31-2.81,5.18-8.02c-.29-.17-.58-.32-.89-.47-.21,.51-.8,.75-1.31,.54-.51-.21-.75-.8-.54-1.31-.32-.11-.64-.21-.96-.29l-2.01,9.34h0Zm-.31,3.31c.08,.05,.15,.11,.23,.17l2-2.38,7.08-6.4c-.24-.24-.48-.46-.73-.68-.34,.44-.97,.52-1.41,.19-.44-.34-.52-.97-.18-1.41-.28-.19-.56-.36-.85-.53l-4.35,8.5-1.78,2.55h0Zm3-1.43l-2.38,2c.06,.07,.12,.15,.17,.23l2.55-1.78,8.5-4.35c-.17-.29-.35-.57-.53-.85-.44,.34-1.07,.25-1.41-.18-.34-.44-.25-1.07,.18-1.41-.22-.25-.45-.5-.68-.73l-6.4,7.08h0Zm-1.92,2.71c.04,.09,.08,.17,.11,.26l2.92-1.06,9.34-2.01c-.09-.32-.19-.64-.29-.96-.51,.21-1.1-.03-1.31-.54-.21-.51,.03-1.1,.54-1.31-.15-.3-.3-.6-.47-.89l-8.02,5.18-2.81,1.31h0Zm3.31,.26l-3.06,.54c.02,.09,.03,.19,.04,.28l3.09-.27,9.54,.48c0-.33-.01-.67-.04-1-.55,.07-1.05-.31-1.12-.86-.07-.55,.31-1.05,.86-1.12-.06-.33-.14-.65-.22-.98l-9.09,2.93h0Zm-3.02,1.38c0,.1-.02,.19-.04,.28l3.06,.54,9.09,2.93c.09-.32,.16-.65,.22-.98-.55-.07-.93-.58-.86-1.13,.07-.55,.58-.94,1.12-.86,.02-.33,.03-.67,.04-1l-9.54,.48-3.09-.27h0Zm2.74,1.89l-2.92-1.06c-.03,.09-.07,.18-.11,.26l2.81,1.31,8.02,5.18c.17-.29,.32-.59,.47-.89-.51-.21-.75-.8-.54-1.31,.21-.51,.8-.75,1.31-.54,.11-.32,.21-.64,.29-.96l-9.34-2.01h0Zm-3.31-.31c-.05,.08-.11,.15-.17,.23l2.38,2,6.4,7.08c.24-.24,.46-.48,.68-.73-.44-.34-.52-.97-.18-1.41,.34-.44,.97-.52,1.41-.19,.19-.28,.36-.56,.53-.85l-8.5-4.35-2.55-1.78h0Zm1.43,3l-2-2.38c-.07,.06-.15,.12-.23,.17l1.78,2.55,4.35,8.5c.29-.17,.57-.35,.85-.53-.34-.44-.25-1.07,.18-1.41,.44-.34,1.07-.25,1.41,.18,.25-.22,.5-.45,.73-.68l-7.08-6.4h0Zm-2.71-1.92c-.09,.04-.17,.08-.26,.11l1.06,2.92,2.01,9.34c.32-.09,.64-.19,.96-.29-.21-.51,.03-1.1,.54-1.31,.51-.21,1.1,.03,1.31,.54,.3-.15,.6-.3,.89-.47l-5.18-8.02-1.31-2.81h0Zm-.26,3.31l-.54-3.06c-.09,.02-.19,.03-.28,.04l.27,3.09-.48,9.54c.33,0,.67-.01,1-.04-.07-.55,.31-1.05,.86-1.12,.55-.07,1.05,.31,1.13,.86,.33-.06,.65-.14,.98-.22l-2.93-9.09h0Z"/><polygon class="e" points="-30 -.05 150 -.05 150 39.95 -30 39.95 -30 -.05 -30 -.05"/><polygon class="h" points="-30 79.95 150 79.95 150 119.95 -30 119.95 -30 79.95 -30 79.95"/></g></g></svg>