<?xml version="1.0" encoding="UTF-8"?><svg id="a" xmlns="http://www.w3.org/2000/svg" xmlns:xlink="http://www.w3.org/1999/xlink" viewBox="0 0 120 120"><defs><style>.c{clip-rule:evenodd;}.c,.d{fill:#ccc;}.e{fill:#fc1d23;}.f{fill:#f0f0f0;}.g{fill:#fff;}.d{fill-rule:evenodd;}.h{clip-path:url(#b);}</style><clipPath id="b"><path class="c" d="M60,0c33.14,0,60,26.86,60,60s-26.86,60-60,60S0,93.14,0,60,26.86,0,60,0h0Z"/></clipPath></defs><g><path class="d" d="M60,0c33.14,0,60,26.86,60,60s-26.86,60-60,60S0,93.14,0,60,26.86,0,60,0h0Z"/><g class="h"><g><polygon class="f" points="-30 120 150 120 150 60 -30 60 -30 120 -30 120"/><polygon class="e" points="-30 60 150 60 150 0 -30 0 -30 60 -30 60"/></g></g></g><g><path class="g" d="M62.72,46.21c-8.8,0-15.93-7.13-15.93-15.93s7.13-15.93,15.93-15.93h.03c-2.12-.92-4.46-1.44-6.92-1.44-9.59,0-17.37,7.78-17.37,17.37s7.78,17.37,17.37,17.37c2.46,0,4.8-.51,6.92-1.44h-.04Z"/><polygon class="g" points="66.16 22.23 62.99 24.92 64.41 20.96 61.03 18.89 65.08 18.91 66.16 15.16 67.24 18.91 71.29 18.89 67.9 20.96 69.33 24.92 66.16 22.23"/><g><polygon class="g" points="71.29 39.22 68.12 41.91 69.54 37.95 66.16 35.88 70.21 35.9 71.29 32.16 72.36 35.9 76.41 35.88 73.03 37.95 74.46 41.91 71.29 39.22"/><polygon class="g" points="61.03 39.22 57.86 41.91 59.28 37.95 55.9 35.88 59.95 35.9 61.03 32.16 62.11 35.9 66.16 35.88 62.77 37.95 64.2 41.91 61.03 39.22"/></g><g><polygon class="g" points="57.32 28.98 54.15 31.67 55.57 27.71 52.19 25.64 56.24 25.66 57.32 21.91 58.4 25.66 62.45 25.64 59.06 27.71 60.49 31.67 57.32 28.98"/><polygon class="g" points="75 28.98 71.83 31.67 73.25 27.71 69.87 25.64 73.92 25.66 75 21.91 76.07 25.66 80.12 25.64 76.74 27.71 78.17 31.67 75 28.98"/></g></g></svg>