<?xml version="1.0" encoding="UTF-8"?><svg id="a" xmlns="http://www.w3.org/2000/svg" xmlns:xlink="http://www.w3.org/1999/xlink" viewBox="0 0 120 120"><defs><style>.e{fill:url(#d);}.f{clip-rule:evenodd;}.f,.g{fill:#ccc;}.h,.i{fill:#fc1d23;}.j{fill:#f9e237;}.j,.i,.k,.l,.g,.m,.n{fill-rule:evenodd;}.k{fill:#4eaaf3;}.l{fill:#0d44a5;}.m{fill:#f0f0f0;}.n{fill:#fff;}.o{clip-path:url(#c);}.p{clip-path:url(#b);}</style><clipPath id="b"><path class="f" d="M-102.82,4.13c33.14,0,60,26.86,60,60s-26.86,60-60,60-60-26.86-60-60S-135.96,4.13-102.82,4.13h0Z"/></clipPath><clipPath id="c"><path class="f" d="M60,0c33.14,0,60,26.86,60,60s-26.86,60-60,60S0,93.14,0,60,26.86,0,60,0h0Z"/></clipPath><linearGradient id="d" x1="-479.82" y1="1042.65" x2="-638.13" y2="1103.42" gradientTransform="translate(345.13 -814.91) scale(.59 .79)" gradientUnits="userSpaceOnUse"><stop offset="0" stop-color="#f0f0f0"/><stop offset=".45" stop-color="#f0f0f0"/><stop offset=".8" stop-color="#f0f0f0"/><stop offset="1" stop-color="#f0f0f0"/></linearGradient></defs><g><path class="g" d="M-102.82,4.13c33.14,0,60,26.86,60,60s-26.86,60-60,60-60-26.86-60-60S-135.96,4.13-102.82,4.13h0Z"/><g class="p"><polygon class="k" points="-162.82 4.13 17.18 4.13 17.18 124.13 -162.82 124.13 -162.82 4.13 -162.82 4.13"/><polygon class="j" points="-162.76 83.34 17.24 83.34 17.24 90.44 -162.76 90.44 -162.76 83.34 -162.76 83.34"/><polygon class="j" points="-162.76 97.1 17.24 97.1 17.24 104.2 -162.76 104.2 -162.76 97.1 -162.76 97.1"/></g></g><g><path class="g" d="M60,0c33.14,0,60,26.86,60,60s-26.86,60-60,60S0,93.14,0,60,26.86,0,60,0h0Z"/><g class="o"><g><polygon class="l" points="-30 0 60 0 150 0 150 120 60 120 -30 120 -30 0 -30 0"/><polygon class="e" points="60 52.58 26.13 30 60 7.42 60 0 48.87 0 15 22.58 -18.87 0 -30 0 -30 7.42 3.87 30 -30 52.58 -30 60 -18.87 60 15 37.42 48.87 60 60 60 60 52.58 60 52.58"/><polygon class="h" points="60 57.22 19.18 30 60 2.78 60 0 55.83 0 15 27.22 -25.82 0 -30 0 -30 2.78 10.83 30 -30 57.22 -30 60 -25.82 60 15 32.78 55.83 60 60 60 60 57.22 60 57.22"/><polygon class="m" points="7.57 0 15 0 22.43 0 22.43 20.09 60 20.09 60 39.91 22.43 39.91 22.43 60 15 60 7.57 60 7.57 39.91 -30 39.91 -30 20.09 7.57 20.09 7.57 0 7.57 0"/><polygon class="i" points="19.64 0 19.64 23.81 60 23.81 60 36.19 19.64 36.19 19.64 60 15 60 10.36 60 10.36 36.19 -30 36.19 -30 23.81 10.36 23.81 10.36 0 15 0 19.64 0 19.64 0"/><polygon class="n" points="105 78.41 106.24 82.27 110.03 80.83 107.79 84.2 111.27 86.27 107.23 86.62 107.79 90.63 105 87.7 102.21 90.63 102.77 86.62 98.73 86.27 102.21 84.2 99.97 80.83 103.76 82.27 105 78.41 105 78.41"/><polygon class="n" points="82.5 42.79 83.74 46.64 87.53 45.21 85.29 48.58 88.77 50.65 84.73 51 85.29 55.01 82.5 52.07 79.71 55.01 80.27 51 76.23 50.65 79.71 48.58 77.47 45.21 81.26 46.64 82.5 42.79 82.5 42.79"/><polygon class="n" points="105 18.41 106.24 22.27 110.03 20.83 107.79 24.2 111.27 26.27 107.23 26.62 107.79 30.63 105 27.7 102.21 30.63 102.77 26.62 98.73 26.27 102.21 24.2 99.97 20.83 103.76 22.27 105 18.41 105 18.41"/><polygon class="n" points="125 36.79 126.24 40.64 130.03 39.21 127.79 42.58 131.27 44.65 127.23 45 127.79 49.01 125 46.07 122.21 49.01 122.77 45 118.73 44.65 122.21 42.58 119.97 39.21 123.76 40.64 125 36.79 125 36.79"/><polygon class="n" points="114 54.84 114.98 57.24 117.57 57.43 115.59 59.11 116.2 61.62 114 60.26 111.8 61.62 112.42 59.11 110.43 57.43 113.02 57.24 114 54.84 114 54.84"/><polygon class="m" points="15 75.76 17.6 83.85 25.56 80.84 20.85 87.92 28.16 92.26 19.69 93 20.86 101.42 15 95.26 9.14 101.42 10.31 93 1.84 92.26 9.15 87.92 4.45 80.84 12.4 83.85 15 75.76 15 75.76"/></g></g></g></svg>