<?xml version="1.0" encoding="UTF-8"?><svg id="a" xmlns="http://www.w3.org/2000/svg" xmlns:xlink="http://www.w3.org/1999/xlink" viewBox="0 0 120 120"><defs><style>.e{clip-rule:evenodd;}.e,.f{fill:#ccc;}.g,.h{fill:#fc1d23;}.i,.j{fill:#f0f0f0;}.k{fill:#231f20;}.l{fill:#0d44a5;}.h,.m,.f,.j{fill-rule:evenodd;}.m{fill:#4dac2d;}.n{clip-path:url(#c);}.o{clip-path:url(#b);}.p{clip-path:url(#d);}</style><clipPath id="b"><path class="e" d="M200.9,0c33.14,0,60,26.86,60,60s-26.86,60-60,60-60-26.86-60-60S167.77,0,200.9,0h0Z"/></clipPath><clipPath id="c"><path class="e" d="M60,0c33.14,0,60,26.86,60,60s-26.86,60-60,60S0,93.14,0,60,26.86,0,60,0h0Z"/></clipPath><clipPath id="d"><path class="e" d="M-80.9,0C-47.77,0-20.9,26.86-20.9,60s-26.86,60-60,60-60-26.86-60-60S-114.04,0-80.9,0h0Z"/></clipPath></defs><g><path class="f" d="M200.9,0c33.14,0,60,26.86,60,60s-26.86,60-60,60-60-26.86-60-60S167.77,0,200.9,0h0Z"/><g class="o"><polygon class="j" points="110.9 0 290.9 0 290.9 80.05 110.9 80.05 110.9 0 110.9 0"/><polygon class="h" points="110.9 120 290.9 120 290.9 80.05 110.9 80.05 110.9 120 110.9 120"/></g></g><g><path class="f" d="M60,0c33.14,0,60,26.86,60,60s-26.86,60-60,60S0,93.14,0,60,26.86,0,60,0h0Z"/><g class="n"><polygon class="i" points="-30 0 150 0 150 120 -30 120 -30 0 -30 0"/><path class="k" d="M93.28,19.78l7.63,11.44-4.16,2.77-7.63-11.44,4.16-2.77h0Zm2.08,81.82l7.63-11.44,4.16,2.77-7.63,11.44-4.16-2.77h0Zm9.01-13.52l7.63-11.44,4.16,2.77-7.63,11.44-4.16-2.77h0Zm-2.77,17.68l7.63-11.44,4.16,2.77-7.63,11.44-4.16-2.77h0Zm9.01-13.52l7.63-11.44,4.16,2.77-7.63,11.44-4.16-2.77h0ZM10.08,44.75L26.72,19.78l4.16,2.77L14.24,47.52l-4.16-2.77h0Zm-6.24-4.16L20.48,15.62l4.16,2.77L8,43.36l-4.16-2.77h0Zm-6.24-4.16L14.24,11.46l4.16,2.77L1.76,39.2l-4.16-2.77h0Zm91.53,61.02l7.63-11.44,4.16,2.77-7.63,11.44-4.16-2.77h0Zm13.17-64.14l7.63,11.44-4.16,2.77-7.63-11.44,4.16-2.77h0Zm-2.77-17.68l16.64,24.96-4.16,2.77-16.64-24.96,4.16-2.77h0Zm6.24-4.16l7.63,11.44-4.16,2.77-7.63-11.44,4.16-2.77h0Zm9.01,13.52l7.63,11.44-4.16,2.77-7.63-11.44,4.16-2.77h0ZM14.24,72.48l16.64,24.96-4.16,2.77-16.64-24.96,4.16-2.77h0Zm-6.24,4.16l7.63,11.44-4.16,2.77-7.63-11.44,4.16-2.77h0Zm9.01,13.52l7.63,11.44-4.16,2.77-7.63-11.44,4.16-2.77h0ZM1.76,80.8l16.64,24.96-4.16,2.77L-2.4,83.57l4.16-2.77h0Zm96.38,3.12l7.63-11.44,4.16,2.77-7.63,11.44-4.16-2.77h0Z"/><path class="g" d="M34.83,43.68c9.08-14.01,27.92-17.91,41.81-8.65,13.68,9.12,17.45,27.53,8.53,41.28,4.33-6.86,2.41-15.95-4.37-20.48-6.89-4.6-16.21-2.73-20.8,4.16-4.6,6.89-13.91,8.76-20.8,4.16-6.79-4.52-8.7-13.62-4.37-20.48h0Z"/><path class="l" d="M35.04,43.36c-9.19,13.79-5.47,32.41,8.32,41.6,13.79,9.19,32.41,5.47,41.6-8.32,4.6-6.89,2.73-16.21-4.16-20.8-6.89-4.6-16.21-2.73-20.8,4.16-4.6,6.89-13.91,8.76-20.8,4.16-6.89-4.6-8.76-13.91-4.16-20.8h0Z"/></g></g><g><path class="f" d="M-80.9,0C-47.77,0-20.9,26.86-20.9,60s-26.86,60-60,60-60-26.86-60-60S-114.04,0-80.9,0h0Z"/><g class="p"><g><polygon class="j" points="-140.9 80 39.1 80 39.1 40 -140.9 40 -140.9 80 -140.9 80"/><polygon class="m" points="-140.9 40 39.1 40 39.1 0 -140.9 0 -140.9 40 -140.9 40"/><polygon class="h" points="-140.9 120 39.1 120 39.1 80 -140.9 80 -140.9 120 -140.9 120"/></g></g></g></svg>