<?xml version="1.0" encoding="UTF-8"?><svg id="a" xmlns="http://www.w3.org/2000/svg" xmlns:xlink="http://www.w3.org/1999/xlink" viewBox="0 0 120 120"><defs><style>.c{clip-rule:evenodd;}.c,.d{fill:#ccc;}.e{fill:#fcd150;}.f{fill:#1266c5;}.d{fill-rule:evenodd;}.g{clip-path:url(#b);}</style><clipPath id="b"><path class="c" d="M60,0c33.14,0,60,26.86,60,60s-26.86,60-60,60S0,93.14,0,60,26.86,0,60,0h0Z"/></clipPath></defs><path class="d" d="M60,0c33.14,0,60,26.86,60,60s-26.86,60-60,60S0,93.14,0,60,26.86,0,60,0h0Z"/><g class="g"><g><polygon class="f" points="-24 0 156 0 156 120 -24 120 -24 0 -24 0"/><polygon class="e" points="32.25 0 54.75 0 54.75 48.75 156 48.75 156 71.25 54.75 71.25 54.75 120 32.25 120 32.25 71.25 -24 71.25 -24 48.75 32.25 48.75 32.25 0 32.25 0"/></g></g></svg>