<?xml version="1.0" encoding="UTF-8"?><svg id="a" xmlns="http://www.w3.org/2000/svg" xmlns:xlink="http://www.w3.org/1999/xlink" viewBox="0 0 120 120"><defs><style>.f{fill:url(#c);}.f,.g,.h,.i,.j{fill-rule:evenodd;}.k{clip-rule:evenodd;}.k,.i{fill:#ccc;}.l{fill:#fc1d23;}.m,.j{fill:#f0f0f0;}.n{fill:#fbf9f8;}.o{fill:#1c1c1c;}.p{fill:#0d44a5;}.q,.h{fill:#4dac2d;}.g{fill:#4eaaf3;}.r{clip-path:url(#b);}.s{clip-path:url(#e);}.t{clip-path:url(#d);}</style><clipPath id="b"><path class="k" d="M-80.9,0C-47.77,0-20.9,26.86-20.9,60s-26.86,60-60,60-60-26.86-60-60S-114.04,0-80.9,0h0Z"/></clipPath><linearGradient id="c" x1="-1245.55" y1="326.12" x2="-1063.17" y2="342.08" gradientTransform="translate(1073.46 -274.1)" gradientUnits="userSpaceOnUse"><stop offset="0" stop-color="#ba1822"/><stop offset=".47" stop-color="#eb212e"/><stop offset="1" stop-color="#ba1822"/></linearGradient><clipPath id="d"><path class="k" d="M60,0c33.14,0,60,26.86,60,60s-26.86,60-60,60S0,93.14,0,60,26.86,0,60,0h0Z"/></clipPath><clipPath id="e"><path class="k" d="M200.9,0c33.14,0,60,26.86,60,60s-26.86,60-60,60-60-26.86-60-60S167.77,0,200.9,0h0Z"/></clipPath></defs><g><path class="i" d="M-80.9,0C-47.77,0-20.9,26.86-20.9,60s-26.86,60-60,60-60-26.86-60-60S-114.04,0-80.9,0h0Z"/><g class="r"><polygon class="j" points="-170.9 120 9.1 120 9.1 0 -170.9 0 -170.9 120 -170.9 120"/><polygon class="g" points="-170.9 38.4 9.1 38.4 9.1 0 -170.9 0 -170.9 38.4 -170.9 38.4"/><path class="f" d="M-170.9,81.6H9.1v-2.4H-170.9v2.4h0ZM9.1,40.8v-2.4H-170.9v2.4H9.1Z"/><polygon class="h" points="-170.9 120 9.1 120 9.1 81.6 -170.9 81.6 -170.9 120 -170.9 120"/></g></g><g><path class="i" d="M60,0c33.14,0,60,26.86,60,60s-26.86,60-60,60S0,93.14,0,60,26.86,0,60,0h0Z"/><g class="t"><polygon class="l" points=".04 0 45.04 0 45.04 120 .04 120 .04 0 .04 0"/><polygon class="q" points="45.04 0 180.04 0 180.04 40 45.04 40 45.04 0 45.04 0"/><polygon class="m" points="45.04 40 180.04 40 180.04 80 45.04 80 45.04 40 45.04 40"/><polygon class="o" points="45.04 80 180.04 80 180.04 120 45.04 120 45.04 80 45.04 80"/></g></g><g><path class="i" d="M200.9,0c33.14,0,60,26.86,60,60s-26.86,60-60,60-60-26.86-60-60S167.77,0,200.9,0h0Z"/><g class="s"><polygon class="m" points="110.9 0 290.9 0 290.9 120 110.9 120 110.9 0 110.9 0"/><path class="l" d="M110.9,110.77h180v9.23H110.9v-9.23h0ZM110.9,0h180V9.23H110.9V0h0Zm0,18.46h180v9.23H110.9v-9.23h0Zm0,18.46h180v9.23H110.9v-9.23h0Zm0,18.46h180v9.23H110.9v-9.23h0Zm0,18.46h180v9.23H110.9v-9.23h0Zm0,18.46h180v9.23H110.9v-9.23h0Z"/><polygon class="p" points="110.9 0 202.11 0 202.11 64.62 110.9 64.62 110.9 0 110.9 0"/><path class="n" d="M195.14,18.21l-.83-2.56-.83,2.56h-2.68l2.17,1.58-.83,2.55,2.17-1.58,2.17,1.58-.83-2.55,2.17-1.58h-2.68ZM120.05,6.82l2.17-1.58h-2.68l-.83-2.55-.83,2.55h-2.68l2.17,1.58-.83,2.55,2.17-1.58,2.17,1.58-.83-2.55h0Zm15.12,0l2.17-1.58h-2.68l-.83-2.55-.83,2.55h-2.68l2.17,1.58-.83,2.55,2.17-1.58,2.17,1.58-.83-2.55h0Zm15.12,0l2.17-1.58h-2.69l-.83-2.55-.83,2.55h-2.69l2.17,1.58-.83,2.55,2.17-1.58,2.17,1.58-.83-2.55h0Zm15.12,0l2.17-1.58h-2.69l-.83-2.55-.83,2.55h-2.69l2.17,1.58-.83,2.55,2.17-1.58,2.17,1.58-.83-2.55h0Zm-37.4,45.05l2.17-1.58h-2.68l-.83-2.55-.83,2.55h-2.68l2.17,1.58-.83,2.55,2.17-1.58,2.17,1.58-.83-2.55h0Zm-1.34-.44h0Zm1.04-12.15l2.17-1.58h-2.68l-.83-2.55-.83,2.55h-2.69l2.17,1.58-.83,2.55,2.17-1.58,2.17,1.58-.83-2.56h0Zm.08-12.52l2.17-1.58h-2.68l-.83-2.56-.83,2.56h-2.69l2.17,1.58-.83,2.55,2.17-1.58,2.17,1.58-.83-2.55h0ZM180.53,6.82l2.17-1.58h-2.68l-.83-2.55-.83,2.55h-2.69l2.17,1.58-.83,2.55,2.17-1.58,2.17,1.58-.83-2.55h0Zm15.12,0l2.17-1.58h-2.69l-.83-2.55-.83,2.55h-2.68l2.17,1.58-.83,2.55,2.17-1.58,2.17,1.58-.83-2.55h0Zm-52.74,19.94l2.17-1.58h-2.68l-.83-2.56-.83,2.56h-2.68l2.17,1.58-.83,2.55,2.17-1.58,2.17,1.58-.83-2.55h0Zm-.08,12.52l2.17-1.58h-2.69l-.83-2.55-.83,2.55h-2.68l2.17,1.58-.83,2.55,2.17-1.58,2.17,1.58-.83-2.56h0Zm.3,12.59l2.17-1.58h-2.69l-.83-2.55-.83,2.55h-2.69l2.17,1.58-.83,2.55,2.17-1.58,2.17,1.58-.83-2.55h0Zm-1.34-.44h0Zm16.46,.44l2.17-1.58h-2.68l-.83-2.55-.83,2.55h-2.68l2.17,1.58-.83,2.55,2.17-1.58,2.17,1.58-.83-2.55h0Zm-.3-12.59l2.17-1.58h-2.68l-.83-2.55-.83,2.55h-2.69l2.17,1.58-.83,2.55,2.17-1.58,2.17,1.58-.83-2.56h0Zm.08-12.52l2.17-1.58h-2.69l-.83-2.56-.83,2.56h-2.68l2.17,1.58-.83,2.55,2.17-1.58,2.17,1.58-.83-2.55h0Zm-30.42-13.46l2.17-1.58h-2.69l-.83-2.55-.83,2.55h-2.69l2.17,1.58-.83,2.55,2.17-1.58,2.17,1.58-.83-2.55h0Zm15.12,0l2.17-1.58h-2.69l-.83-2.55-.83,2.55h-2.69l2.17,1.58-.83,2.55,2.17-1.58,2.17,1.58-.83-2.55h0Zm30.42,13.46l2.17-1.58h-2.69l-.83-2.56-.83,2.56h-2.69l2.17,1.58-.83,2.55,2.17-1.58,2.17,1.58-.83-2.55h0Zm-.08,12.52l2.17-1.58h-2.69l-.83-2.55-.83,2.55h-2.68l2.17,1.58-.83,2.56,2.17-1.58,2.17,1.58-.83-2.56h0Zm.3,12.59l2.17-1.58h-2.69l-.83-2.55-.83,2.55h-2.69l2.17,1.58-.83,2.56,2.17-1.58,2.17,1.58-.83-2.55h0Zm15.12,0l2.17-1.58h-2.68l-.83-2.55-.83,2.55h-2.68l2.17,1.58-.83,2.55,2.17-1.58,2.17,1.58-.83-2.55h0Zm-1.34-.44h0Zm1.04-12.15l2.17-1.58h-2.69l-.83-2.55-.83,2.55h-2.68l2.17,1.58-.83,2.56,2.17-1.58,2.17,1.58-.83-2.55h0Zm.08-12.52l2.17-1.58h-2.69l-.83-2.56-.83,2.56h-2.69l2.17,1.58-.83,2.55,2.17-1.58,2.17,1.58-.83-2.55h0Zm-30.42-13.46l2.17-1.58h-2.68l-.83-2.55-.83,2.55h-2.69l2.17,1.58-.83,2.55,2.17-1.58,2.17,1.58-.83-2.55h0Zm15.12,0l2.17-1.58h-2.69l-.83-2.55-.83,2.55h-2.69l2.17,1.58-.83,2.55,2.17-1.58,2.17,1.58-.83-2.55h0Zm15.12,0l2.17-1.58h-2.68l-.83-2.55-.83,2.55h-2.69l2.17,1.58-.83,2.55,2.17-1.58,2.17,1.58-.83-2.55h0ZM120.45,58.36l2.17-1.58h-2.68l-.83-2.55-.83,2.55h-2.68l2.17,1.58-.83,2.55,2.17-1.58,2.17,1.58-.83-2.55h0Zm-.3-12.59l2.17-1.58h-2.68l-.83-2.55-.83,2.55h-2.69l2.17,1.58-.83,2.55,2.17-1.58,2.17,1.58-.83-2.55h0Zm.08-12.52l2.17-1.58h-2.68l-.83-2.56-.83,2.56h-2.68l2.17,1.58-.83,2.55,2.17-1.58,2.17,1.58-.83-2.55h0Zm15.12,0l2.17-1.58h-2.68l-.83-2.56-.83,2.56h-2.69l2.17,1.58-.83,2.55,2.17-1.58,2.17,1.58-.83-2.55h0Zm-.08,12.52l2.17-1.58h-2.69l-.83-2.55-.83,2.55h-2.68l2.17,1.58-.83,2.55,2.17-1.58,2.17,1.58-.83-2.55h0Zm.3,12.59l2.17-1.58h-2.69l-.83-2.55-.83,2.55h-2.69l2.17,1.58-.83,2.55,2.17-1.58,2.17,1.58-.83-2.55h0Zm15.12,0l2.17-1.58h-2.69l-.83-2.55-.83,2.55h-2.69l2.17,1.58-.83,2.55,2.17-1.58,2.17,1.58-.83-2.55h0Zm-.3-12.59l2.17-1.58h-2.69l-.83-2.55-.83,2.55h-2.69l2.17,1.58-.83,2.55,2.17-1.58,2.17,1.58-.83-2.55h0Zm.08-12.52l2.17-1.58h-2.69l-.83-2.56-.83,2.56h-2.69l2.17,1.58-.83,2.55,2.17-1.58,2.17,1.58-.83-2.55h0Zm-30.42-13.46l2.17-1.58h-2.68l-.83-2.56-.83,2.56h-2.68l2.17,1.58-.83,2.55,2.17-1.58,2.17,1.58-.83-2.55h0Zm15.12,0l2.17-1.58h-2.68l-.83-2.56-.83,2.56h-2.68l2.17,1.58-.83,2.55,2.17-1.58,2.17,1.58-.83-2.55h0Zm30.42,13.46l2.17-1.58h-2.68l-.83-2.56-.83,2.56h-2.69l2.17,1.58-.83,2.55,2.17-1.58,2.17,1.58-.83-2.55h0Zm-.08,12.52l2.17-1.58h-2.68l-.83-2.55-.83,2.55h-2.69l2.17,1.58-.83,2.55,2.17-1.58,2.17,1.58-.83-2.55h0Zm.3,12.59l2.17-1.58h-2.68l-.83-2.55-.83,2.55h-2.69l2.17,1.58-.83,2.55,2.17-1.58,2.17,1.58-.83-2.55h0Zm15.12,0l2.17-1.58h-2.68l-.83-2.55-.83,2.55h-2.68l2.17,1.58-.83,2.55,2.17-1.58,2.17,1.58-.83-2.55h0Zm15.12,0l2.17-1.58h-2.69l-.83-2.55-.83,2.55h-2.68l2.17,1.58-.83,2.55,2.17-1.58,2.17,1.58-.83-2.55h0Zm-15.42-12.59l2.17-1.58h-2.69l-.83-2.55-.83,2.55h-2.68l2.17,1.58-.83,2.55,2.17-1.58,2.17,1.58-.83-2.55h0Zm15.12,0l2.17-1.58h-2.68l-.83-2.55-.83,2.55h-2.68l2.17,1.58-.83,2.55,2.17-1.58,2.17,1.58-.83-2.55h0Zm-15.04-12.52l2.17-1.58h-2.68l-.83-2.56-.83,2.56h-2.68l2.17,1.58-.83,2.55,2.17-1.58,2.17,1.58-.83-2.55h0Zm15.12,0l2.17-1.58h-2.69l-.83-2.56-.83,2.56h-2.68l2.17,1.58-.83,2.55,2.17-1.58,2.17,1.58-.83-2.55h0Zm-45.54-13.46l2.17-1.58h-2.68l-.83-2.56-.83,2.56h-2.69l2.17,1.58-.83,2.55,2.17-1.58,2.17,1.58-.83-2.55h0Zm15.12,0l2.17-1.58h-2.69l-.83-2.56-.83,2.56h-2.69l2.17,1.58-.83,2.55,2.17-1.58,2.17,1.58-.83-2.55h0Zm15.12,0l2.17-1.58h-2.68l-.83-2.56-.83,2.56h-2.68l2.17,1.58-.83,2.55,2.17-1.58,2.17,1.58-.83-2.55h0Z"/></g></g></svg>