<?xml version="1.0" encoding="UTF-8"?><svg id="a" xmlns="http://www.w3.org/2000/svg" xmlns:xlink="http://www.w3.org/1999/xlink" viewBox="0 0 120 120"><defs><style>.c{clip-rule:evenodd;}.c,.d{fill:#ccc;}.e,.f,.g{fill:#fc1d23;}.h,.i{fill:#f0f0f0;}.f{stroke:#f5f5f5;stroke-miterlimit:2.41;stroke-width:1.06px;}.f,.g,.j,.d,.i{fill-rule:evenodd;}.j{fill:#0d44a5;}.k{clip-path:url(#b);}</style><clipPath id="b"><path class="c" d="M60,0c33.14,0,60,26.86,60,60s-26.86,60-60,60S0,93.14,0,60,26.86,0,60,0h0Z"/></clipPath></defs><path class="d" d="M60,0c33.14,0,60,26.86,60,60s-26.86,60-60,60S0,93.14,0,60,26.86,0,60,0h0Z"/><g class="k"><polygon class="j" points="-30 0 60 0 150 0 150 120 60 120 -30 120 -30 0 -30 0"/><polygon class="h" points="60 52.58 26.13 30 60 7.42 60 0 48.87 0 15 22.58 -18.87 0 -30 0 -30 7.42 3.87 30 -30 52.58 -30 60 -18.87 60 15 37.42 48.87 60 60 60 60 52.58 60 52.58"/><polygon class="e" points="60 57.22 19.17 30 60 2.78 60 0 55.83 0 15 27.22 -25.83 0 -30 0 -30 2.78 10.83 30 -30 57.22 -30 60 -25.83 60 15 32.78 55.83 60 60 60 60 57.22 60 57.22"/><polygon class="i" points="7.57 0 15 0 22.43 0 22.43 20.09 60 20.09 60 39.91 22.43 39.91 22.43 60 15 60 7.57 60 7.57 39.91 -30 39.91 -30 20.09 7.57 20.09 7.57 0 7.57 0"/><polygon class="g" points="19.64 0 19.64 23.81 60 23.81 60 36.19 19.64 36.19 19.64 60 15 60 10.36 60 10.36 36.19 -30 36.19 -30 23.81 10.36 23.81 10.36 0 15 0 19.64 0 19.64 0"/><path class="f" d="M106.68,79.08l1.17,3.62h3.8l-3.08,2.22,1.18,3.61-3.07-2.24-3.07,2.24,1.18-3.61-3.08-2.23h3.8l1.17-3.61h0Zm19.71-40.35l1.17,3.62h3.8l-3.08,2.22,1.18,3.61-3.07-2.24-3.07,2.24,1.18-3.61-3.08-2.23h3.8l1.17-3.61h0Zm-41.54,5.69l1.17,3.62h3.8l-3.08,2.22,1.18,3.61-3.07-2.24-3.07,2.24,1.18-3.61-3.08-2.23h3.8l1.17-3.61h0Zm22.23-22.23l1.17,3.62h3.8l-3.08,2.22,1.18,3.61-3.07-2.24-3.07,2.24,1.18-3.61-3.08-2.23h3.8l1.17-3.61h0Z"/></g></svg>