<?xml version="1.0" encoding="UTF-8"?><svg id="a" xmlns="http://www.w3.org/2000/svg" xmlns:xlink="http://www.w3.org/1999/xlink" viewBox="0 0 120 120"><defs><style>.d{clip-rule:evenodd;}.d,.e{fill:#ccc;}.f{fill:#fc1d23;}.g{fill:#fff;}.h{fill:#fbe450;}.i{fill:#0d44a5;}.j{fill:#4bb42c;}.k{fill:#4dac2d;}.e{fill-rule:evenodd;}.l{clip-path:url(#c);}.m{clip-path:url(#b);}</style><clipPath id="b"><path class="d" d="M60,0c33.14,0,60,26.86,60,60s-26.86,60-60,60S0,93.14,0,60,26.86,0,60,0h0Z"/></clipPath><clipPath id="c"><path class="d" d="M-106.08,0c33.14,0,60,26.86,60,60s-26.86,60-60,60-60-26.86-60-60S-139.22,0-106.08,0h0Z"/></clipPath></defs><g><path class="e" d="M60,0c33.14,0,60,26.86,60,60s-26.86,60-60,60S0,93.14,0,60,26.86,0,60,0h0Z"/><g class="m"><g><polygon class="k" points="-30 0 -30 120 150 120 150 0 -30 0 -30 0"/><polygon class="h" points="134.64 60 59.99 107.64 -14.64 60 59.99 12.36 134.64 60 134.64 60"/><path class="g" d="M27.96,52.65h0s0,0,0,0h0Z"/><path class="i" d="M29.82,52.25c-.64,2.48-.97,5.07-.97,7.75,0,17.2,13.95,31.15,31.15,31.15,13.96,0,25.78-9.19,29.74-21.85-3.36-3.11-13.37-11.41-28.66-15.66-14.21-3.83-26.72-2.27-31.26-1.39h0Zm32.39-2.83c15.48,4.39,24.29,11.32,28.62,15.05,.21-1.46,.32-2.95,.32-4.47,0-17.2-13.95-31.15-31.15-31.15-12.74,0-23.7,7.65-28.52,18.61,4.02-.64,16.52-2.08,30.74,1.96h0Z"/><path class="g" d="M62.21,49.42c-14.22-4.03-26.72-2.6-30.74-1.96-.68,1.54-1.23,3.13-1.66,4.79,4.54-.88,17.05-2.44,31.26,1.39,15.28,4.25,25.29,12.55,28.66,15.66,.49-1.56,.86-3.18,1.09-4.83-4.32-3.73-13.14-10.66-28.62-15.05h0Z"/><path class="j" d="M33.22,47.9c.21-.03,.42,0,.6,.06,.19,.07,.35,.17,.5,.31,.14,.14,.26,.31,.35,.5,.09,.2,.15,.41,.17,.64,.02,.23,0,.44-.05,.62-.05,.19-.14,.34-.25,.48-.12,.14-.26,.24-.43,.33-.17,.08-.36,.14-.56,.16-.21,.03-.4,.02-.58-.02-.18-.04-.34-.11-.48-.21-.14-.1-.26-.23-.35-.4-.09-.17-.16-.36-.19-.59-.03-.23-.02-.46,.02-.68,.05-.22,.13-.41,.24-.58,.12-.17,.26-.31,.43-.43,.17-.11,.37-.18,.58-.2h0Zm56.18,16.19c-.1-.18-.23-.34-.41-.48-.17-.13-.35-.22-.54-.27-.19-.04-.38-.05-.57,0-.19,.04-.37,.12-.54,.25-.18,.12-.33,.28-.47,.48-.14,.2-.24,.4-.3,.61-.06,.21-.08,.41-.06,.61,.02,.2,.07,.39,.17,.56,.09,.18,.22,.33,.39,.46,.17,.13,.34,.22,.53,.27,.19,.04,.38,.05,.56,.01,.19-.04,.37-.11,.55-.23,.18-.11,.34-.27,.49-.46,.15-.19,.26-.4,.32-.61,.06-.21,.09-.42,.07-.63-.02-.2-.08-.4-.17-.58h0Zm-.44,1.03h0c-.05,.14-.12,.28-.23,.42-.1,.14-.21,.25-.33,.33-.12,.08-.23,.14-.35,.16-.12,.03-.24,.03-.35,0-.12-.03-.22-.08-.33-.16-.1-.08-.18-.17-.23-.28-.06-.11-.08-.22-.09-.35,0-.12,.02-.26,.06-.4,.04-.14,.12-.28,.22-.42,.1-.14,.21-.25,.32-.34,.12-.08,.23-.14,.35-.17,.12-.03,.24-.03,.35,0,.12,.03,.23,.08,.33,.16,.1,.08,.18,.18,.24,.29,.06,.11,.09,.23,.1,.36,0,.13-.02,.26-.06,.4h0Zm-2.83-3.61c-.09-.13-.21-.25-.36-.35-.14-.1-.28-.17-.42-.21-.14-.04-.27-.05-.4-.04-.13,.01-.24,.05-.35,.12-.11,.07-.19,.16-.27,.27-.07,.1-.11,.21-.13,.31-.02,.1-.01,.21,.01,.31,.03,.11,.08,.22,.16,.34,.08,.12,.17,.25,.3,.38,.11,.12,.2,.22,.27,.3,.07,.09,.12,.16,.15,.23,.03,.07,.05,.13,.04,.18,0,.06-.02,.11-.06,.16-.04,.05-.08,.09-.13,.12-.05,.03-.11,.04-.18,.03-.06,0-.13-.02-.2-.05-.07-.03-.15-.07-.22-.12-.08-.06-.15-.12-.2-.19-.06-.07-.1-.15-.12-.23-.03-.08-.03-.17-.02-.27,0-.09,.04-.19,.09-.29-.18-.13-.27-.19-.46-.32-.09,.15-.15,.3-.19,.46-.03,.16-.03,.31,0,.46,.03,.15,.1,.3,.2,.44,.1,.14,.24,.28,.41,.41,.13,.1,.27,.17,.42,.21,.14,.04,.28,.06,.41,.05,.13-.01,.26-.05,.37-.12,.12-.07,.21-.16,.3-.28,.07-.1,.12-.2,.14-.3,.02-.1,.03-.19,.02-.29-.01-.09-.04-.18-.08-.27-.04-.09-.09-.17-.14-.26-.06-.08-.12-.16-.18-.24-.07-.08-.13-.15-.2-.22-.07-.08-.14-.15-.18-.21-.05-.06-.08-.12-.11-.17-.02-.05-.03-.1-.03-.14,0-.04,.01-.08,.04-.12,.06-.09,.15-.14,.27-.14,.12,0,.25,.06,.41,.17,.32,.22,.39,.51,.22,.83,.18,.13,.27,.2,.45,.33,.09-.14,.15-.29,.18-.44,.03-.15,.02-.3-.01-.44-.03-.14-.1-.28-.19-.41h0Zm-3.15-2.14c-.1-.12-.22-.23-.38-.33-.15-.09-.29-.15-.43-.19-.14-.03-.28-.04-.41-.02-.13,.02-.24,.06-.34,.13-.1,.07-.19,.16-.26,.27-.06,.11-.1,.21-.12,.31-.01,.1,0,.2,.03,.31,.03,.1,.09,.21,.17,.33,.08,.11,.18,.24,.31,.36,.11,.11,.21,.2,.28,.29,.07,.08,.13,.16,.16,.22,.04,.07,.06,.13,.06,.18s-.02,.11-.05,.16c-.03,.05-.08,.09-.13,.12-.05,.03-.11,.04-.18,.04-.06,0-.13-.01-.21-.04-.07-.03-.15-.06-.23-.11-.08-.05-.15-.12-.21-.18-.06-.07-.1-.14-.13-.23-.03-.08-.04-.17-.03-.26,0-.09,.03-.19,.08-.29-.19-.12-.28-.18-.47-.3-.08,.15-.14,.3-.17,.45-.03,.15-.02,.3,.02,.45,.04,.15,.11,.29,.22,.43,.11,.14,.25,.27,.43,.39,.14,.09,.28,.16,.42,.19,.14,.04,.28,.05,.42,.03,.13-.02,.25-.06,.37-.13,.11-.07,.21-.17,.29-.29,.07-.1,.11-.2,.13-.3,.02-.1,.02-.19,0-.28-.02-.09-.05-.18-.09-.26-.04-.08-.09-.17-.16-.25-.06-.08-.13-.15-.19-.23-.07-.07-.14-.14-.21-.21-.08-.08-.14-.14-.19-.2-.05-.06-.09-.11-.11-.16-.03-.05-.04-.09-.04-.13,0-.04,0-.08,.03-.12,.06-.1,.15-.14,.26-.15,.12,0,.26,.05,.42,.15,.33,.21,.41,.48,.26,.81,.19,.12,.28,.18,.47,.3,.09-.15,.14-.29,.16-.44,.02-.15,.01-.29-.03-.43-.04-.14-.11-.27-.21-.39h0Zm-3.08-1.2c.11-.19,.16-.28,.27-.47-.8-.47-1.21-.69-2.02-1.13-.6,1.09-.89,1.6-1.5,2.67,.81,.45,1.21,.69,2,1.17,.11-.18,.16-.28,.27-.46-.6-.36-.91-.54-1.52-.89,.16-.28,.24-.41,.39-.69,.56,.31,.83,.47,1.38,.8,.11-.18,.16-.27,.27-.45-.55-.33-.83-.49-1.39-.8,.14-.24,.2-.36,.34-.61,.6,.34,.9,.51,1.5,.86h0Zm-3.34-2.23c-.03-.07-.06-.13-.11-.18-.04-.05-.09-.1-.15-.15-.06-.04-.12-.08-.18-.12-.07-.04-.14-.07-.21-.11-.5-.25-.75-.37-1.25-.61-.55,1.09-.82,1.61-1.36,2.69,.2,.1,.3,.15,.5,.25,.22-.43,.33-.65,.56-1.08,.22,.11,.33,.16,.55,.27,.06,.03,.1,.06,.15,.11,.04,.04,.07,.09,.1,.14,.02,.05,.04,.11,.05,.16,0,.06,0,.12,0,.18-.05,.34-.08,.51-.13,.86,.21,.11,.32,.17,.54,.28,.06-.38,.09-.57,.14-.94,.03-.23-.07-.54-.06-.56,0,0,.33-.02,.48-.09,.14-.08,.26-.19,.35-.36,.03-.06,.05-.11,.07-.18,.02-.06,.03-.13,.04-.19,0-.06,0-.13,0-.19,0-.06-.02-.13-.05-.19h0Zm-.58,.47h0c-.03,.06-.07,.12-.12,.15-.04,.03-.09,.06-.15,.06-.06,0-.12,0-.19-.02-.07-.02-.15-.06-.25-.1-.27-.14-.41-.2-.69-.34,.15-.28,.22-.42,.36-.7,.3,.14,.45,.22,.74,.37,.16,.08,.26,.17,.31,.26,.05,.1,.04,.2-.03,.32h0Zm-3.25-2.54c-.13-.11-.28-.2-.45-.28-.2-.09-.4-.13-.6-.14-.2,0-.39,.03-.56,.1-.18,.07-.33,.18-.47,.33-.14,.15-.26,.33-.36,.55-.09,.21-.14,.42-.15,.62,0,.2,.02,.39,.08,.56,.06,.17,.16,.33,.3,.46,.13,.14,.3,.25,.5,.33,.17,.07,.32,.12,.47,.13,.15,.02,.29,0,.42-.03-.01,.09-.02,.13-.03,.22,.16,.07,.23,.1,.39,.18,.28-.58,.42-.88,.71-1.46-.48-.22-.72-.33-1.21-.53-.09,.19-.13,.28-.22,.47,.28,.12,.41,.18,.69,.3-.05,.11-.08,.17-.14,.28-.13,.07-.27,.1-.42,.1-.14,0-.3-.04-.47-.12-.12-.05-.22-.12-.3-.21-.08-.09-.14-.18-.17-.3-.03-.11-.05-.24-.03-.37,.01-.13,.05-.28,.12-.43,.07-.15,.15-.28,.24-.38,.09-.1,.19-.18,.3-.23,.11-.05,.23-.08,.35-.08,.12,0,.24,.03,.37,.08,.1,.04,.19,.1,.26,.16,.07,.06,.13,.13,.17,.2,.04,.07,.06,.15,.06,.23,0,.08,0,.16-.04,.25,.21,.1,.32,.14,.54,.24,.06-.15,.08-.31,.07-.46-.01-.15-.05-.29-.12-.43-.07-.13-.17-.26-.3-.37h0Zm-3.61-1.39c-.14-.13-.32-.24-.52-.31-.2-.07-.4-.11-.6-.1-.2,0-.38,.05-.55,.14-.17,.08-.32,.2-.46,.36-.13,.16-.24,.34-.32,.56-.08,.22-.11,.43-.11,.63,0,.2,.04,.39,.11,.56,.07,.17,.18,.32,.32,.45,.14,.13,.31,.23,.5,.3,.2,.07,.39,.1,.58,.09,.19,0,.37-.05,.54-.14,.17-.08,.32-.2,.46-.35,.14-.15,.25-.33,.34-.54,.09-.21,.14-.42,.14-.62,0-.2-.03-.39-.11-.56-.07-.17-.18-.32-.33-.46h0Zm-.25,1.44h0c-.06,.15-.14,.28-.22,.39-.09,.1-.18,.19-.29,.24-.11,.06-.22,.09-.33,.1-.12,0-.24,0-.36-.05-.12-.04-.22-.11-.3-.19-.08-.08-.15-.18-.19-.28-.04-.11-.06-.23-.06-.37,0-.14,.03-.28,.09-.44,.06-.15,.13-.28,.21-.39,.09-.11,.18-.19,.29-.25,.11-.06,.22-.09,.34-.1,.12,0,.24,.01,.36,.06,.12,.04,.22,.1,.31,.19,.09,.08,.15,.18,.19,.29,.04,.11,.06,.23,.05,.37,0,.14-.04,.28-.1,.43h0Zm-3.24-2.56c-.04-.06-.09-.12-.14-.16-.05-.05-.11-.08-.17-.12-.06-.03-.13-.06-.2-.09-.07-.03-.15-.05-.23-.08-.53-.16-.8-.24-1.34-.39-.34,1.15-.5,1.72-.84,2.87,.21,.06,.32,.09,.53,.15,.14-.46,.21-.69,.35-1.15,.23,.07,.35,.1,.58,.17,.06,.02,.11,.05,.16,.08,.05,.03,.09,.08,.12,.12,.03,.05,.06,.1,.08,.15,.02,.06,.03,.11,.03,.17,0,.34,.01,.52,.02,.86,.23,.07,.34,.11,.57,.18,0-.38-.01-.56-.03-.94,0-.22-.16-.51-.15-.53,0,0,.32-.08,.45-.17,.13-.1,.22-.23,.28-.41,.02-.06,.03-.12,.04-.18,0-.06,0-.13,0-.19,0-.06-.02-.13-.04-.19-.02-.06-.05-.12-.08-.17h0Zm-.48,.55h0c-.02,.07-.05,.13-.09,.17-.04,.04-.08,.07-.13,.09-.05,.02-.12,.02-.19,.01-.07,0-.16-.03-.26-.06-.29-.09-.44-.13-.73-.22,.09-.3,.14-.45,.23-.75,.32,.09,.47,.14,.79,.24,.17,.05,.29,.12,.35,.21,.06,.08,.07,.19,.03,.32h0Zm-3.2-1.75c-.07-.06-.14-.12-.23-.17-.09-.05-.18-.09-.28-.13-.1-.04-.21-.07-.32-.09-.5-.12-.75-.17-1.25-.28-.29,1.17-.44,1.75-.73,2.91,.23,.05,.35,.08,.58,.13,.11-.44,.17-.66,.28-1.09,.26,.06,.39,.09,.65,.15,.4,.09,.72,.09,.97-.02,.25-.1,.42-.31,.51-.62,.03-.12,.05-.22,.04-.32,0-.1-.03-.18-.07-.26-.04-.08-.09-.15-.16-.21h0Zm-.43,.65h0c-.02,.07-.05,.13-.08,.17-.04,.05-.09,.08-.14,.11-.06,.02-.13,.04-.21,.04-.08,0-.18-.01-.28-.04-.27-.06-.4-.09-.67-.15,.08-.33,.13-.49,.21-.82,.26,.06,.4,.09,.66,.15,.08,.02,.16,.04,.23,.07,.07,.03,.13,.06,.18,.1,.05,.04,.08,.09,.1,.15,.02,.06,.02,.13,0,.21h0Zm-5.93,.86c-.84-.15-1.26-.22-2.11-.35,.17-1.05,.25-1.58,.42-2.64,.85,.13,1.28,.2,2.13,.36-.03,.18-.05,.27-.09,.45-.63-.11-.95-.17-1.58-.27-.04,.24-.06,.36-.1,.59,.59,.09,.88,.14,1.47,.25-.03,.18-.05,.27-.09,.45-.58-.1-.87-.15-1.46-.25-.05,.27-.07,.41-.11,.68,.64,.1,.96,.16,1.6,.27-.03,.18-.05,.27-.09,.45h0Zm-5.57-.82c-.21-.02-.32-.04-.53-.06,.07-.74,.1-1.12,.17-1.88-.33,.73-.49,1.1-.8,1.82-.18-.02-.28-.03-.46-.04-.19-.76-.29-1.14-.5-1.93-.05,.77-.08,1.14-.13,1.88-.21-.02-.32-.02-.53-.04,.08-1.14,.11-1.74,.18-2.98,.3,.02,.45,.03,.74,.06,.22,.9,.33,1.34,.54,2.2,.34-.81,.52-1.23,.88-2.06,.3,.03,.44,.05,.74,.08-.12,1.2-.17,1.79-.29,2.96h0Zm-4.09-.27c-.91-.05-1.36-.07-2.27-.09,.03-1.12,.03-1.71,.06-3,.91,.02,1.37,.04,2.28,.1,0,.22-.02,.32-.02,.54-.68-.04-1.02-.05-1.7-.07,0,.28,0,.42-.02,.7,.63,.02,.95,.03,1.58,.06,0,.21-.01,.31-.02,.51-.63-.03-.94-.04-1.57-.06,0,.31-.01,.46-.02,.76,.69,.02,1.04,.03,1.73,.07,0,.2-.01,.3-.02,.49h0Zm-3.62-1.56c0,1.01-.52,1.45-1.53,1.47-.39,0-.59,.01-.98,.02-.01-1.08-.04-1.67-.07-3.02,.41-.01,.61-.01,1.02-.02,1.05-.01,1.57,.56,1.57,1.55h0Zm-.58,0h0c0-.15-.02-.29-.05-.41-.03-.12-.09-.23-.16-.31-.08-.09-.18-.15-.3-.2-.13-.05-.29-.07-.48-.06-.17,0-.26,0-.43,0,.01,.84,.03,1.24,.04,1.97,.17,0,.26,0,.43,0,.19,0,.34-.03,.47-.07,.12-.04,.22-.11,.3-.19,.07-.08,.13-.18,.16-.3,.03-.12,.04-.26,.04-.42h0Zm-3.16,1.54c-.24,.01-.36,.02-.6,.03-.13-.28-.19-.43-.32-.73-.02-.05-.05-.1-.09-.14-.04-.04-.08-.08-.13-.11-.05-.03-.1-.05-.16-.07-.06-.02-.12-.02-.18-.02-.24,.02-.36,.03-.61,.05,.03,.47,.05,.69,.07,1.12-.22,.02-.33,.03-.55,.04-.06-1.05-.12-1.63-.2-3.02,.55-.05,.83-.07,1.38-.1,.08,0,.16,0,.24,0,.07,0,.15,0,.22,.02,.07,.01,.14,.03,.2,.06,.06,.03,.13,.07,.19,.12,.05,.04,.1,.09,.14,.15,.04,.06,.07,.11,.1,.18,.03,.06,.05,.13,.07,.19,.01,.07,.02,.13,.03,.2,0,.19-.03,.36-.11,.49-.08,.14-.36,.32-.36,.32,0,.02,.25,.23,.34,.43,.14,.33,.21,.49,.35,.8h0Zm-2.11-1.51h0c.3-.02,.45-.04,.75-.06,.1,0,.19-.02,.26-.04,.07-.02,.13-.05,.17-.08,.05-.04,.08-.08,.09-.14,.02-.05,.03-.12,.02-.2,0-.14-.05-.24-.14-.31-.09-.06-.22-.09-.4-.08-.33,.02-.49,.03-.82,.06,.02,.35,.03,.51,.05,.84h0Zm-2.97,1.54h0c.13-.02,.24-.05,.34-.11,.1-.06,.19-.13,.26-.22,.07-.09,.12-.2,.15-.33,.03-.13,.04-.28,.02-.44-.02-.17-.05-.32-.11-.45-.06-.13-.13-.24-.22-.33-.09-.09-.19-.15-.3-.19-.11-.04-.23-.05-.36-.04-.13,.02-.25,.06-.35,.13-.11,.07-.19,.15-.26,.26-.07,.11-.12,.24-.15,.38-.03,.14-.03,.3-.01,.46,.02,.17,.06,.3,.12,.42,.06,.12,.13,.21,.22,.28,.09,.07,.18,.12,.3,.15,.11,.03,.23,.04,.35,.02h0Z"/><path class="g" d="M37.33,66.18l.3,.93h.98l-.79,.58,.3,.93-.79-.58-.79,.58,.3-.93-.79-.58h.98l.3-.93h0Zm22.67,17.74l.1,.32h.33l-.27,.2,.1,.32-.27-.2-.27,.2,.1-.32-.27-.2h.33l.1-.32h0Zm6.86-7.32l.19,.59h.62l-.5,.36,.19,.59-.5-.37-.5,.37,.19-.59-.5-.36h.62l.19-.59h0Zm5.12,.8l.19,.59h.62l-.5,.36,.19,.59-.5-.37-.5,.37,.19-.59-.5-.36h.62l.19-.59h0Zm3.48-1.09l.19,.59h.62l-.5,.36,.19,.59-.5-.36-.5,.36,.19-.59-.5-.36h.62l.19-.59h0Zm10.68-5.95l.19,.59h.62l-.5,.36,.19,.59-.5-.36-.5,.36,.19-.59-.5-.36h.62l.19-.59h0Zm-10.61,12.16l.19,.59h.62l-.5,.36,.19,.59-.5-.36-.5,.36,.19-.59-.5-.36h.62l.19-.59h0Zm3.16-5.63l.19,.59h.62l-.5,.36,.19,.59-.5-.36-.5,.36,.19-.59-.5-.36h.62l.19-.59h0Zm-10.23-19.28l.19,.59h.62l-.5,.36,.19,.59-.5-.37-.5,.37,.19-.59-.5-.36h.62l.19-.59h0Zm-11.6,9.33l.19,.59h.62l-.5,.36,.19,.59-.5-.37-.5,.37,.19-.59-.5-.36h.62l.19-.59h0Zm-23.33,2.49l.19,.59h.62l-.5,.36,.19,.59-.5-.36-.5,.36,.19-.59-.5-.36h.62l.19-.59h0Zm49.56,3.17l.25,.76h.79l-.64,.47,.25,.76-.64-.47-.64,.47,.25-.76-.64-.47h.8l.25-.76h0Zm-1.92,2.52l.25,.76h.8l-.64,.47,.25,.76-.64-.47-.65,.47,.25-.76-.64-.47h.8l.25-.76h0Zm-11.86,4.75l.25,.76h.8l-.64,.47,.25,.76-.64-.47-.64,.47,.25-.76-.64-.47h.8l.25-.76h0Zm6.3-.73l.25,.76h.8l-.64,.47,.25,.76-.64-.47-.64,.47,.25-.76-.64-.47h.79l.25-.76h0Zm-32.75-6.53l.25,.76h.8l-.64,.47,.25,.76-.64-.47-.64,.47,.25-.76-.65-.47h.8l.25-.76h0Zm20.73-5.9l.25,.76h.8l-.64,.47,.25,.76-.64-.47-.64,.47,.25-.76-.64-.47h.79l.25-.76h0Zm-3.58-2.78l.25,.76h.79l-.64,.47,.25,.76-.64-.47-.64,.47,.25-.76-.64-.47h.79l.25-.76h0Zm-11.85-3.75l.25,.76h.8l-.64,.47,.25,.76-.64-.47-.64,.47,.25-.76-.64-.47h.8l.25-.76h0Zm-4.34,9.35l.25,.76h.8l-.64,.47,.25,.76-.64-.47-.64,.47,.25-.76-.64-.47h.8l.25-.76h0Zm14.63-.17l.13,.41h.43l-.35,.26,.13,.41-.35-.25-.35,.25,.13-.41-.35-.26h.43l.13-.41h0Zm-18.05-4.36l.13,.41h.43l-.35,.26,.13,.41-.35-.26-.35,.26,.13-.41-.35-.26h.43l.13-.41h0Zm29.27-15.97l.3,.93h.98l-.79,.58,.3,.93-.79-.58-.79,.58,.3-.93-.79-.58h.98l.3-.93h0Zm12.17,20.54l.3,.93h.98l-.79,.58,.3,.93-.79-.58-.79,.58,.3-.93-.79-.58h.98l.3-.93h0Zm-47.25-16.5l.3,.93h.98l-.79,.58,.3,.93-.79-.58-.79,.58,.3-.93-.79-.58h.98l.3-.93h0Zm25.43,19.55l.3,.93h.98l-.79,.58,.3,.93-.79-.58-.79,.58,.3-.93-.79-.58h.98l.3-.93h0Zm-12.51,2.55l.3,.93h.98l-.79,.58,.3,.93-.79-.58-.79,.58,.3-.93-.79-.58h.98l.3-.93h0Z"/></g></g></g><g><path class="e" d="M-106.08,0c33.14,0,60,26.86,60,60s-26.86,60-60,60-60-26.86-60-60S-139.22,0-106.08,0h0Z"/><g class="l"><g><polygon class="f" points="-139.48 0 13.92 0 13.92 80 -139.48 80 -139.48 0 -139.48 0"/><polygon class="k" points="-139.48 80 13.92 80 13.92 120 -139.48 120 -139.48 80 -139.48 80"/></g></g></g></svg>