<?xml version="1.0" encoding="UTF-8"?>
<svg width="22px" height="22px" viewBox="0 0 22 22" version="1.1" xmlns="http://www.w3.org/2000/svg" xmlns:xlink="http://www.w3.org/1999/xlink">
    <title>Group 5</title>
    <g id="Page-1" stroke="none" stroke-width="1" fill="none" fill-rule="evenodd">
        <g id="-" transform="translate(-215.000000, -157.000000)" fill="#FE6800" fill-rule="nonzero">
            <g id="Group-5" transform="translate(226.089500, 167.731795) scale(1, -1) rotate(-45.000000) translate(-226.089500, -167.731795) translate(218.500000, 160.144245)">
                <path d="M15.1787,11.587 C15.1787,12.4154271 14.5071271,13.087 13.6787,13.087 C12.8502729,13.087 12.1787,12.4154271 12.1787,11.587 L12.178,5.12 L2.56048595,14.7359344 C1.97460331,15.3216246 1.02485585,15.3214686 0.439165636,14.735586 C-0.146524582,14.1497033 -0.146368592,13.1999559 0.43951405,12.6142656 L10.057,2.999 L3.5917,3 C2.81200388,3 2.17125132,2.40511192 2.09856658,1.64446001 L2.0917,1.5 C2.0917,0.671572875 2.76327288,3.49118759e-13 3.5917,3.49118759e-13 L13.6792464,0.000100020235 C13.8027833,0.000120310449 13.9263178,0.0153067164 14.0468174,0.0456587401 C14.0659923,0.0503478683 14.0844964,0.0554079261 14.1028542,0.0608096782 C14.1134995,0.0640551131 14.1246106,0.0674533299 14.1356888,0.0709833956 C14.2137929,0.095876558 14.2885327,0.126796289 14.3599622,0.163273074 C14.3858126,0.176298643 14.4112782,0.190223711 14.4364072,0.204941903 C14.4538361,0.21538386 14.4710105,0.225928148 14.4879518,0.236803924 C14.505256,0.247655868 14.5224006,0.259161534 14.5393541,0.271058992 C14.5634405,0.288221605 14.5870084,0.305815792 14.6100277,0.324071581 C14.6238575,0.334809471 14.6372867,0.345853395 14.6505652,0.357166122 C14.6739301,0.377269984 14.6969046,0.398076759 14.7192152,0.419568089 C14.7262998,0.426200971 14.7330912,0.43286869 14.7398344,0.43961405 L14.7591319,0.459484813 C14.7806232,0.481795371 14.80143,0.504769947 14.8215184,0.528374736 L14.7398344,0.43961405 C14.7818855,0.481678971 14.8209166,0.525619573 14.8569278,0.571166446 C14.8706708,0.588969088 14.8846786,0.607563777 14.8982569,0.626487502 C14.9424221,0.687523168 14.980808,0.750572676 15.0141396,0.815545598 C15.0212258,0.830018643 15.0284014,0.844565042 15.0353457,0.859242185 C15.1302361,1.05946229 15.1780144,1.27632088 15.1789849,1.49334851 L15.1787,11.587 Z" id="Combined-Shape"></path>
            </g>
        </g>
    </g>
</svg>