<?xml version="1.0" encoding="utf-8"?>
<svg width="25px" height="25px" viewBox="0 0 25 25" version="1.1" xmlns:xlink="http://www.w3.org/1999/xlink" xmlns="http://www.w3.org/2000/svg">
  <defs>
    <path d="M12.5 25C19.4036 25 25 19.4036 25 12.5C25 5.59644 19.4036 0 12.5 0C5.59644 0 0 5.59644 0 12.5C0 19.4036 5.59644 25 12.5 25Z" id="path_1" />
    <clipPath id="clip_1">
      <use xlink:href="#path_1" />
    </clipPath>
  </defs>
  <g id="Group-17">
    <g id="!" transform="translate(11.049906 6.2680936)">
      <path d="M0.708188 8.226C0.608063 7.47787 0.515016 6.70683 0.429047 5.91286C0.343078 5.11889 0.274078 4.32792 0.222047 3.53995C0.170016 2.75198 0.144 2.004 0.144 1.296L0.144 0L2.83219 0L2.83219 1.296C2.83219 2.02387 2.80617 2.78981 2.75414 3.59381C2.70211 4.39781 2.63311 5.19483 2.54714 5.98486C2.46117 6.77489 2.36813 7.52194 2.268 8.226L0.708188 8.226ZM1.458 12.9299C0.998062 12.9299 0.640078 12.7969 0.384047 12.531C0.128016 12.265 0 11.888 0 11.3999C0 10.9559 0.134016 10.5879 0.402047 10.2959C0.670078 10.0038 1.02206 9.85781 1.458 9.85781C1.91812 9.85781 2.27616 9.99084 2.53209 10.2569C2.78803 10.523 2.916 10.904 2.916 11.3999C2.916 11.852 2.78203 12.22 2.51409 12.504C2.24616 12.7879 1.89412 12.9299 1.458 12.9299Z" id="Shape" fill="#FE6800" stroke="none" />
    </g>
    <g id="Oval">
      <g clip-path="url(#clip_1)">
        <use xlink:href="#path_1" fill="none" stroke="#FE6800" stroke-width="4" />
      </g>
    </g>
  </g>
</svg>