<svg xmlns="http://www.w3.org/2000/svg" xmlns:xlink="http://www.w3.org/1999/xlink" width="77" height="79">
  <defs>
    <linearGradient id="c" x1="50%" x2="50%" y1="0%" y2="100%">
      <stop offset="0%" stop-color="#244074"/>
      <stop offset="100%" stop-color="#1B1B3C"/>
    </linearGradient>
    <filter id="a" width="196.1%" height="192.5%" x="-48%" y="-27.4%" filterUnits="objectBoundingBox">
      <feOffset dy="10" in="SourceAlpha" result="shadowOffsetOuter1"/>
      <feGaussianBlur in="shadowOffsetOuter1" result="shadowBlurOuter1" stdDeviation="6.5"/>
      <feColorMatrix in="shadowBlurOuter1" values="0 0 0 0 0.0290039062 0 0 0 0 0.0290039062 0 0 0 0 0.0835597826 0 0 0 0.5 0"/>
    </filter>
    <rect id="b" width="51" height="53" x="0" y="0" rx="15"/>
    <path id="d" d="M0 0h26v26H0z"/>
  </defs>
  <g fill="none" fill-rule="evenodd" transform="translate(13 3)">
    <use fill="#000" filter="url(#a)" xlink:href="#b"/>
    <use fill="url(#c)" xlink:href="#b"/>
    <g transform="translate(12 12)">
      <mask id="e" fill="#fff">
        <use xlink:href="#d"/>
      </mask>
      <path fill="#FFF" d="M13 0c-.27 0-.539.1-.748.3L.336 11.675a1.083 1.083 0 00.747 1.867h1.084v11.375c0 .598.485 1.083 1.083 1.083h5.417c.598 0 1.083-.485 1.083-1.083v-7.584h6.5v7.584c0 .598.485 1.083 1.083 1.083h5.417c.598 0 1.083-.485 1.083-1.083V13.542h1.084a1.084 1.084 0 00.747-1.867L13.748.3C13.538.1 13.269 0 13 0zm0 1.083l11.917 11.375H22.75v12.459h-5.417V16.25H8.667v8.667H3.25V12.458H1.083L13 1.083z" mask="url(#e)"/>
    </g>
  </g>
</svg>
