<?xml version="1.0" encoding="utf-8"?>
<svg width="52px" height="52px" viewBox="0 0 52 52" version="1.1" xmlns:xlink="http://www.w3.org/1999/xlink" xmlns="http://www.w3.org/2000/svg">
  <defs>
    <path d="M0 0L52 0L52 51.9998L0 51.9998L0 0Z" id="path_1" />
    <path d="M0 52L52 52L52 0L0 0L0 52Z" id="path_2" />
    <clipPath id="mask_1">
      <use xlink:href="#path_1" />
    </clipPath>
    <clipPath id="mask_2">
      <use xlink:href="#path_2" />
    </clipPath>
  </defs>
  <g id="Group-8">
    <g id="Group-3">
      <path d="M0 0L52 0L52 51.9998L0 51.9998L0 0Z" id="Clip-2" fill="none" fill-rule="evenodd" stroke="none" />
      <g clip-path="url(#mask_1)">
        <path d="M26.0017 -0.00017175C11.6408 -0.00017175 0 11.6393 0 26C0 40.3583 11.6408 51.9998 26.0017 51.9998C40.3592 51.9998 52 40.3583 52 26C52 11.6393 40.3592 -0.00017175 26.0017 -0.00017175M26.0017 2.17349C39.1394 2.17349 49.8274 12.8622 49.8274 26C49.8274 39.1378 39.1394 49.8262 26.0017 49.8262C12.8623 49.8262 2.17256 39.1378 2.17256 26C2.17256 12.8622 12.8623 2.17349 26.0017 2.17349" id="Fill-1" fill="#FFFFFF" fill-rule="evenodd" stroke="none" />
      </g>
    </g>
    <path d="M0 52L52 52L52 0L0 0L0 52Z" id="Clip-5" fill="none" fill-rule="evenodd" stroke="none" />
    <g clip-path="url(#mask_2)">
      <path d="M13.2692 37.6434L19.172 37.6434L19.172 19.8813L13.2692 19.8813L13.2692 37.6434Z" id="Fill-4" fill="#FFFFFF" fill-rule="evenodd" stroke="none" />
      <path d="M16.2192 17.4575L16.1831 17.4575C14.2014 17.4575 12.9219 16.0924 12.9219 14.3873C12.9219 12.645 14.2402 11.3198 16.2576 11.3198C18.2777 11.3198 19.5216 12.645 19.5577 14.3873C19.5577 16.0924 18.2777 17.4575 16.2192 17.4575" id="Fill-6" fill="#FFFFFF" fill-rule="evenodd" stroke="none" />
      <path d="M40.4483 37.6434L34.5486 37.6434L34.5486 28.1412C34.5486 25.7539 33.6927 24.1247 31.5593 24.1247C29.9275 24.1247 28.9562 25.2232 28.5319 26.2842C28.3729 26.6631 28.3365 27.1938 28.3365 27.7242L28.3365 37.6434L22.4358 37.6434C22.4358 37.6434 22.513 21.5477 22.4358 19.8814L28.3365 19.8814L28.3365 22.3993C29.1179 21.1895 30.5204 19.4651 33.6567 19.4651C37.5363 19.4651 40.4483 22.0035 40.4483 27.459L40.4483 37.6434Z" id="Fill-7" fill="#FFFFFF" fill-rule="evenodd" stroke="none" />
    </g>
  </g>
</svg>