<?xml version="1.0" encoding="utf-8"?>
<!-- Generator: Adobe Illustrator 26.2.1, SVG Export Plug-In . SVG Version: 6.00 Build 0)  -->
<svg version="1.1" id="Layer_1" xmlns="http://www.w3.org/2000/svg" xmlns:xlink="http://www.w3.org/1999/xlink" x="0px" y="0px"
	 viewBox="0 0 66 64" style="enable-background:new 0 0 66 64;" xml:space="preserve">
<style type="text/css">
	.st0{fill:none;stroke:#1B1B3C;stroke-width:1.535;stroke-linecap:round;stroke-linejoin:round;}
	.st1{fill:none;stroke:#FFFFFF;stroke-width:1.535;stroke-linecap:round;stroke-linejoin:round;}
</style>
<g>
	<path class="st0" d="M63.2,32c0,16.7-13.5,30.2-30.2,30.2C16.3,62.2,2.8,48.7,2.8,32S16.3,1.8,33,1.8c8.3,0,15.9,3.4,21.4,8.8"/>
	<line class="st0" x1="33" y1="32" x2="59.6" y2="5.4"/>
	<circle class="st0" cx="33" cy="32" r="1.2"/>
	<path class="st0" d="M47.5,17.5c-3.7-3.7-8.9-6-14.5-6c-4.4,0-8.4,1.4-11.8,3.7"/>
	<path class="st0" d="M43.9,32c0,6-4.9,10.9-10.9,10.9c-6,0-10.9-4.9-10.9-10.9S27,21.1,33,21.1c3,0,5.7,1.2,7.7,3.2"/>
	<path class="st0" d="M36.6,52.2c9.6-1.7,17-10.1,17-20.2"/>
	<path class="st0" d="M16.2,20.2c-2.3,3.3-3.7,7.4-3.7,11.8c0,10.1,7.3,18.5,17,20.2"/>
	<circle class="st1" cx="18.5" cy="17.5" r="3.6"/>
	<circle class="st1" cx="33" cy="52.5" r="3.6"/>
</g>
</svg>
