<?xml version="1.0" encoding="utf-8"?>
<!-- Generator: Adobe Illustrator 26.2.1, SVG Export Plug-In . SVG Version: 6.00 Build 0)  -->
<svg version="1.1" id="Layer_1" xmlns="http://www.w3.org/2000/svg" xmlns:xlink="http://www.w3.org/1999/xlink" x="0px" y="0px"
	 viewBox="0 0 66 64" style="enable-background:new 0 0 66 64;" xml:space="preserve">
<style type="text/css">
	.st0{fill:none;stroke:#1B1B3C;stroke-width:1.535;stroke-linecap:round;stroke-linejoin:round;}
	.st1{fill:none;stroke:#FF6900;stroke-width:1.535;stroke-linecap:round;stroke-miterlimit:10;}
	.st2{fill:none;stroke:#FF6900;stroke-width:1.535;stroke-miterlimit:10;}
</style>
<path class="st0" d="M31,1.1C15.3,1.1,5.8,9.8,5.8,24.3c0,6.3,1.9,10.5,3.5,13.8c1,2,1.7,3.6,1.8,5.3c-0.1-1.7-0.8-3.3-1.8-5.3
	c-1.5-3.3-3.5-7.5-3.5-13.8C5.8,9.8,15.2,1.1,31,1.1z"/>
<path class="st0" d="M29.1,12.1l3.1,2.2L29.1,12.1z"/>
<path class="st0" d="M33.4,29.2c-0.9-0.8-1.7-1.5-2.5-2c-2.9-2-5.4-4.6-3.8-5.5c2.7-1.1,9.1,1,12.8,2.4c1.7,0.6,3.6,0.1,4.7-1.5
	c1.1-1.6,0.8-3.7-0.6-5c-3-2.7-8-7.4-10.9-10.1c-0.6-0.6-1.4-0.9-2.2-0.8c-13.2,0.3-19.2,7.5-19.2,17.9c0,9.3,5.2,12.7,5.2,18.8
	c0,1.7-3.1,5.8-4.6,7.1c-1.5,1.3-1.7,3.8-1.7,3.8h14h-14c0,0,0.1-2.5,1.7-3.8c1.5-1.3,4.6-5.4,4.6-7.1c0-6.1-5.2-9.5-5.2-18.8
	c0-10.5,6-17.7,19.2-17.9c0.8,0,1.6,0.3,2.2,0.8c2.9,2.7,7.9,7.3,10.9,10.1c1.4,1.3,1.7,3.4,0.6,5c-1,1.5-2.9,2.2-4.7,1.5
	c-3.8-1.5-10.1-3.6-12.8-2.4c-1.5,0.9,0.9,3.5,3.8,5.5C31.7,27.7,32.5,28.4,33.4,29.2z"/>
<polygon class="st0" points="17,54.4 6.9,54.4 6.9,60.8 26.7,60.8 6.9,60.8 6.9,54.4 "/>
<path class="st1" d="M48.4,43.1c0-2-2-3.6-4.4-3.6c-2.4,0-4.4,1.7-4.4,3.6c0,2,1.5,3.6,4.4,3.6c2.8,0,4.4,1.7,4.4,3.6
	c0,2-2,3.6-4.4,3.6c-2.4,0-4.4-1.7-4.4-3.6c0,2,2,3.6,4.4,3.6c2.4,0,4.4-1.7,4.4-3.6c0-2-1.5-3.6-4.4-3.6c-2.9,0-4.4-1.7-4.4-3.6
	c0-2,2-3.6,4.4-3.6C46.5,39.4,48.4,41.1,48.4,43.1z"/>
<path class="st1" d="M44,39.1v-2.4V39.1z"/>
<path class="st1" d="M44,56.9v-2.4V56.9z"/>
<ellipse class="st2" cx="44" cy="46.8" rx="16.2" ry="16.2"/>
</svg>
