<?xml version="1.0" encoding="utf-8"?>
<!-- Generator: Adobe Illustrator 26.2.1, SVG Export Plug-In . SVG Version: 6.00 Build 0)  -->
<svg version="1.1" id="Layer_1" xmlns="http://www.w3.org/2000/svg" xmlns:xlink="http://www.w3.org/1999/xlink" x="0px" y="0px"
	 viewBox="0 0 66 64" style="enable-background:new 0 0 66 64;" xml:space="preserve">
<style type="text/css">
	.st0{fill:none;stroke:#FFFFFF;stroke-width:1.535;stroke-linejoin:round;}
	.st1{fill:none;stroke:#FFFFFF;stroke-width:1.535;stroke-linecap:round;stroke-linejoin:round;}
	.st2{fill:none;stroke:#1B1B3C;stroke-width:1.535;stroke-linecap:round;stroke-linejoin:round;}
	.st3{fill:none;stroke:#1B1B3C;stroke-width:1.535;stroke-linecap:round;stroke-linejoin:round;stroke-dasharray:0,0,0,4.7798;}
	.st4{fill:none;stroke:#1B1B3C;stroke-width:1.535;stroke-linecap:round;stroke-linejoin:round;stroke-dasharray:0,4.6913;}
	.st5{fill:none;stroke:#1B1B3C;stroke-width:1.535;stroke-linecap:round;stroke-linejoin:round;stroke-dasharray:0,0,0,4.6913;}
</style>
<path class="st0" d="M33,52.6c7.9,0,14.4-6.4,14.4-14.4C47.4,27.7,33,19.1,33,11.9c0,7.2-14.4,15.7-14.4,26.3
	C18.6,46.2,25.1,52.6,33,52.6z"/>
<path class="st1" d="M33,45.5c-4,0-7.2-3.2-7.2-7.2"/>
<g>
	<path class="st2" d="M33,62.2c-16.5,0-29.9-13.4-29.9-29.9"/>
	<path class="st3" d="M62.8,32.3c0,16.5-13.4,29.9-29.9,29.9"/>
	<path class="st2" d="M33,2.4c16.5,0,29.9,13.4,29.9,29.9"/>
	<g>
		<g>
			<line class="st2" x1="3.1" y1="32.3" x2="3.1" y2="32.3"/>
			<path class="st4" d="M3.1,32.3c0-0.4,0-0.7,0-1.1"/>
			<path class="st5" d="M3.5,27.6C5.7,14.1,16.9,3.6,30.6,2.5"/>
			<line class="st2" x1="33" y1="2.4" x2="33" y2="2.4"/>
		</g>
	</g>
</g>
</svg>
