<svg xmlns="http://www.w3.org/2000/svg" width="59" height="60">
  <g fill="none" fill-rule="evenodd" stroke-width="1.576">
    <path stroke="#343844" d="M1 40.53l3.278-2.187a6.544 6.544 0 002.475-3.1l1.368-5.045 4.904-17.6a3.282 3.282 0 013.95-2.436 3.284 3.284 0 012.433 3.954l2.291-7.475a3.28 3.28 0 116.384 1.517l1.489-4.633a3.28 3.28 0 116.382 1.52L31.79 20.93l6.044-2.693c1.755-.782 3.656-1.31 5.577-1.31h4.816c2.236 0 3.949 2.544 3.025 4.818-.536 1.318-1.894 2.111-3.315 2.111h-3.981c-.917 0-1.803.334-2.492.942l-5.748 5.074a3.98 3.98 0 00-1.081 1.564l-2.993 7.86a2.637 2.637 0 001.214 3.262L39.59 48l7.614.359c1.866.317 3.106 2.09 2.788 3.958-.298 1.75-1.729 3.284-3.501 3.284-1.54 0-4.812.043-4.812.043l-12.9-.226-7.925-.125a6.435 6.435 0 00-2.79.608L12.9 58.324l5.162-2.424a6.435 6.435 0 012.791-.608l7.925.125 12.9.226s3.272-.043 4.812-.043c1.772 0 3.203-1.535 3.501-3.284.318-1.868-.922-3.641-2.788-3.958L39.59 48l-6.735-5.44a2.637 2.637 0 01-1.214-3.263l2.993-7.86a3.98 3.98 0 011.08-1.564l5.75-5.074a3.766 3.766 0 012.49-.942h3.982c1.421 0 2.78-.793 3.315-2.11.924-2.275-.79-4.818-3.025-4.818H43.41c-1.921 0-3.822.527-5.577 1.31l-6.044 2.692 4.165-15.887a3.28 3.28 0 10-6.382-1.52l-1.49 4.634a3.28 3.28 0 10-6.384-1.518l-2.29 7.476a3.284 3.284 0 00-2.433-3.954 3.282 3.282 0 00-3.95 2.435L8.121 30.198l-1.368 5.045a6.544 6.544 0 01-2.475 3.1L1 40.529zm18.408-26.414l-3.078 9.687 3.078-9.687zm8.674-5.957L23.79 21.88l4.292-13.722z"/>
    <path stroke="#1B1B3C" d="M57.721 33.105c0-2.144-2.075-3.882-4.636-3.882-2.56 0-4.636 1.738-4.636 3.882s1.541 3.882 4.636 3.882c2.997 0 4.636 1.739 4.636 3.882 0 2.144-2.075 3.88-4.636 3.88-2.56 0-4.636-1.736-4.636-3.88 0 2.144 2.075 3.88 4.636 3.88s4.636-1.736 4.636-3.88c0-2.143-1.639-3.882-4.636-3.882-3.095 0-4.636-1.738-4.636-3.882s2.075-3.882 4.636-3.882 4.636 1.738 4.636 3.882zm-4.636-4.646v-2.667 2.667zm0 19.724v-2.668 2.668z"/>
  </g>
</svg>
