<?xml version="1.0" encoding="utf-8"?>
<!-- Generator: Adobe Illustrator 26.5.0, SVG Export Plug-In . SVG Version: 6.00 Build 0)  -->
<svg version="1.1" id="Layer_1" xmlns="http://www.w3.org/2000/svg" xmlns:xlink="http://www.w3.org/1999/xlink" x="0px" y="0px"
	 viewBox="0 0 562.6 176.6" style="enable-background:new 0 0 562.6 176.6;" xml:space="preserve">
<style type="text/css">
	.st0{fill:#FFFFFF;}
	.st1{fill:#FC8721;}
	.st2{fill:#FF6900;}
</style>
<g>
	<polygon class="st0" points="409.9,63.2 409.9,44.1 370.4,44.1 358.9,44.1 351.3,44.1 348.8,44.1 327.5,44.1 308.2,74.6 287,44.1 
		265,44.1 262.5,44.1 243.4,44.1 243.4,78.7 210.1,78.7 210.1,44.1 188.5,44.1 188.5,132.5 210.1,132.5 210.1,98.2 243.4,98.2 
		243.4,132.5 265,132.5 265,47.7 297.3,93.4 297.3,132.5 319,132.5 319,93.1 348.8,48 348.8,132.5 370.4,132.5 370.4,98.7 
		404.9,98.7 404.9,80.6 370.4,80.6 370.4,63.2 	"/>
	<path class="st0" d="M516.4,44.1v21.1c0,2.8,0,5.3,0,7.8v25.1l-39.8-54h-19.3v88.4h8.5h12.6v-29v-24l39.4,53h19.6V44.1H516.4z"/>
	<g>
		<g>
			<path class="st0" d="M550.7,48.6h4c0.7,0,1.2,0.1,1.6,0.3c0.8,0.4,1.2,1.1,1.2,2.1c0,0.5-0.1,0.9-0.3,1.3
				c-0.2,0.3-0.5,0.6-0.9,0.8c0.3,0.1,0.6,0.3,0.8,0.5c0.2,0.2,0.3,0.6,0.3,1.1l0,1.2c0,0.3,0,0.6,0.1,0.7c0.1,0.3,0.2,0.5,0.4,0.5
				v0.2h-1.4c0-0.1-0.1-0.2-0.1-0.3c0-0.1,0-0.3-0.1-0.7l-0.1-1.5c0-0.6-0.2-1-0.6-1.1c-0.2-0.1-0.6-0.2-1-0.2h-2.6v3.7h-1.2V48.6z
				 M554.5,52.6c0.5,0,1-0.1,1.3-0.3c0.3-0.2,0.5-0.6,0.5-1.2c0-0.6-0.2-1-0.7-1.3c-0.2-0.1-0.5-0.2-0.9-0.2h-2.8v3H554.5z"/>
		</g>
		<path class="st0" d="M553.9,61.7c-4.8,0-8.8-3.9-8.8-8.8c0-4.8,3.9-8.8,8.8-8.8c4.8,0,8.8,3.9,8.8,8.8
			C562.6,57.7,558.7,61.7,553.9,61.7z M553.9,45.1c-4.3,0-7.8,3.5-7.8,7.8s3.5,7.8,7.8,7.8s7.8-3.5,7.8-7.8S558.2,45.1,553.9,45.1z"
			/>
	</g>
	<rect x="422.8" y="44.1" class="st0" width="21.6" height="88.4"/>
</g>
<polygon class="st0" points="0,44.1 0,132.5 76.6,176.6 76.6,88.4 "/>
<polygon class="st1" points="112,156 153.1,132.5 153.1,44.1 112,67.7 "/>
<polygon class="st2" points="76.6,0 153.1,44.1 112,67.7 35.5,23.5 "/>
</svg>
