<?xml version="1.0" encoding="UTF-8"?>
<svg width="563px" height="177px" viewBox="0 0 563 177" version="1.1" xmlns="http://www.w3.org/2000/svg" xmlns:xlink="http://www.w3.org/1999/xlink">
    <title>logo</title>
    <g id="Page-1" stroke="none" stroke-width="1" fill="none" fill-rule="evenodd">
        <g id="01-Home" transform="translate(-452.000000, -2858.000000)" fill-rule="nonzero">
            <g id="logo" transform="translate(452.000000, 2858.000000)">
                <g id="Group" transform="translate(188.500000, 44.100000)" fill="#FFFFFF">
                    <polygon id="Path" points="221.4 19.1 221.4 7.10542736e-15 181.9 7.10542736e-15 170.4 7.10542736e-15 162.8 7.10542736e-15 160.3 7.10542736e-15 139 7.10542736e-15 119.7 30.5 98.5 7.10542736e-15 76.5 7.10542736e-15 74 7.10542736e-15 54.9 7.10542736e-15 54.9 34.6 21.6 34.6 21.6 7.10542736e-15 0 7.10542736e-15 0 88.4 21.6 88.4 21.6 54.1 54.9 54.1 54.9 88.4 76.5 88.4 76.5 3.6 108.8 49.3 108.8 88.4 130.5 88.4 130.5 49 160.3 3.9 160.3 88.4 181.9 88.4 181.9 54.6 216.4 54.6 216.4 36.5 181.9 36.5 181.9 19.1"></polygon>
                    <path d="M327.9,0 L327.9,21.1 C327.9,23.9 327.9,26.4 327.9,28.9 L327.9,54 L288.1,0 L268.8,0 L268.8,88.4 L277.3,88.4 L289.9,88.4 L289.9,59.4 L289.9,35.4 L329.3,88.4 L348.9,88.4 L348.9,0 L327.9,0 Z" id="Path"></path>
                    <g transform="translate(356.600000, 0.000000)" id="Shape">
                        <path d="M5.6,4.5 L9.6,4.5 C10.3,4.5 10.8,4.6 11.2,4.8 C12,5.2 12.4,5.9 12.4,6.9 C12.4,7.4 12.3,7.8 12.1,8.2 C11.9,8.5 11.6,8.8 11.2,9 C11.5,9.1 11.8,9.3 12,9.5 C12.2,9.7 12.3,10.1 12.3,10.6 L12.3,11.8 C12.3,12.1 12.3,12.4 12.4,12.5 C12.5,12.8 12.6,13 12.8,13 L12.8,13.2 L11.4,13.2 C11.4,13.1 11.3,13 11.3,12.9 C11.3,12.8 11.3,12.6 11.2,12.2 L11.1,10.7 C11.1,10.1 10.9,9.7 10.5,9.6 C10.3,9.5 9.9,9.4 9.5,9.4 L6.9,9.4 L6.9,13.1 L5.7,13.1 L5.7,4.5 L5.6,4.5 Z M9.4,8.5 C9.9,8.5 10.4,8.4 10.7,8.2 C11,8 11.2,7.6 11.2,7 C11.2,6.4 11,6 10.5,5.7 C10.3,5.6 10,5.5 9.6,5.5 L6.8,5.5 L6.8,8.5 L9.4,8.5 Z"></path>
                        <path d="M8.8,17.6 C4,17.6 0,13.7 0,8.8 C0,4 3.9,0 8.8,0 C13.6,0 17.6,3.9 17.6,8.8 C17.5,13.6 13.6,17.6 8.8,17.6 Z M8.8,1 C4.5,1 1,4.5 1,8.8 C1,13.1 4.5,16.6 8.8,16.6 C13.1,16.6 16.6,13.1 16.6,8.8 C16.6,4.5 13.1,1 8.8,1 Z"></path>
                    </g>
                    <rect id="Rectangle" x="234.3" y="7.10542736e-15" width="21.6" height="88.4"></rect>
                </g>
                <polygon id="Path" fill="#FFFFFF" points="0 44.1 0 132.5 76.6 176.6 76.6 88.4"></polygon>
                <polygon id="Path" fill="#FC8721" points="112 156 153.1 132.5 153.1 44.1 112 67.7"></polygon>
                <polygon id="Path" fill="#FF6900" points="76.6 0 153.1 44.1 112 67.7 35.5 23.5"></polygon>
            </g>
        </g>
    </g>
</svg>