<?xml version="1.0" encoding="UTF-8"?>
<svg width="109px" height="118px" viewBox="0 0 109 118" version="1.1" xmlns="http://www.w3.org/2000/svg" xmlns:xlink="http://www.w3.org/1999/xlink">
    <title>Group 33</title>
    <g id="Page-1" stroke="none" stroke-width="1" fill="none" fill-rule="evenodd" stroke-linecap="round" stroke-linejoin="round">
        <g id="Artboard" transform="translate(-1615.000000, -4554.000000)" stroke-width="3">
            <g id="Group-22" transform="translate(0.000000, 4092.000000)">
                <g id="Group-33" transform="translate(1617.000000, 464.000000)">
                    <path d="M52,13.68 C52,6.12522639 45.9260537,0 38.4345283,0 C34.3943303,0 30.7753112,1.79135834 28.2911354,4.61899094 C27.9070046,4.58556274 27.520924,4.56 27.1309435,4.56 C20.1463927,4.56 14.4019799,9.88294955 13.6532173,16.7219664 C8.34168292,18.5762484 4.52182391,23.6534023 4.52182391,29.6390168 C4.52182391,32.0832083 5.16334183,34.3700906 6.27478626,36.356119 C2.50562472,38.7845796 0,43.0338939 0,47.8790168 C0,51.388978 1.320084,54.5784217 3.47277636,56.9990168 C1.320084,59.4215783 0,62.611022 0,66.1190168 C0,70.610194 2.15464227,74.5842173 5.46947653,77.0795343 C4.86500675,78.6290298 4.52182391,80.312238 4.52182391,82.08 C4.52182391,88.0479172 8.31828409,93.1113066 13.6044698,94.9793532 C13.5888706,95.2389133 13.5654717,95.4965071 13.5654717,95.76 C13.5654717,103.314774 19.6374681,109.44 27.1309435,109.44 C27.520924,109.44 27.9070046,109.414437 28.2911354,109.381009 C30.7753112,112.208642 34.3943303,114 38.4345283,114 C45.9260537,114 52,107.874774 52,100.32" id="Stroke-1" stroke="#1B1B3E"></path>
                    <path d="M23,25 C30.7314935,25 37,31.2685065 37,39" id="Stroke-3" stroke="#1B1B3E"></path>
                    <path d="M25,86 C32.7314935,86 39,92.2685065 39,100" id="Stroke-5" stroke="#FF6900"></path>
                    <path d="M53,45 C53,52.7314935 46.7314935,59 39,59" id="Stroke-7" stroke="#1B1B3E"></path>
                    <path d="M17,53 C13,48.305668 13,40.694332 17,36" id="Stroke-9" stroke="#FF6900"></path>
                    <path d="M27,68 C21.9683053,68.3808768 18,72.7073993 18,78" id="Stroke-11" stroke="#1B1B3E"></path>
                    <path d="M44,13 C36.4013821,13 30.2297725,18.7846336 30,26" id="Stroke-13" stroke="#1B1B3E"></path>
                    <path d="M29.6666667,50 C29.6666667,50 25,52.2990082 25,59.2 C25,66.8210436 31.2685065,73 39,73" id="Stroke-15" stroke="#1B1B3E"></path>
                    <path d="M53,13.68 C53,6.12522639 59.0739463,0 66.5654717,0 C70.6056697,0 74.2246888,1.79135834 76.7088646,4.61899094 C77.0929954,4.58556274 77.4771261,4.56 77.8690565,4.56 C84.8536073,4.56 90.5980201,9.88294955 91.3467827,16.7219664 C96.6583171,18.5762484 100.478176,23.6534023 100.478176,29.6390168 C100.478176,32.0832083 99.8366582,34.3700906 98.7252137,36.356119 C102.494375,38.7845796 105,43.0338939 105,47.8790168 C105,51.388978 103.679916,54.5784217 101.525274,56.9990168 C103.679916,59.4215783 105,62.611022 105,66.1190168 C105,70.610194 102.845358,74.5842173 99.5305235,77.0795343 C100.134993,78.6290298 100.478176,80.312238 100.478176,82.08 C100.478176,88.0479172 96.6817159,93.1113066 91.3955302,94.9793532 C91.4111294,95.2389133 91.4345283,95.4965071 91.4345283,95.76 C91.4345283,103.314774 85.3625319,109.44 77.8690565,109.44 C77.4771261,109.44 77.0929954,109.414437 76.7088646,109.381009 C74.2246888,112.208642 70.6056697,114 66.5654717,114 C59.0739463,114 53,107.874774 53,100.32 L53,13.68 Z" id="Stroke-17" stroke="#1B1B3E"></path>
                    <path d="M82,25 C74.2685065,25 68,31.2685065 68,39" id="Stroke-19" stroke="#1B1B3E"></path>
                    <path d="M80,86 C72.2685065,86 66,92.2685065 66,100" id="Stroke-21" stroke="#FF6900"></path>
                    <path d="M53,45 C53,52.7314935 59.2685065,59 67,59" id="Stroke-23" stroke="#1B1B3E"></path>
                    <path d="M88,53 C92,48.305668 92,40.694332 88,36" id="Stroke-25" stroke="#FF6900"></path>
                    <path d="M78,68 C83.0316947,68.3808768 87,72.7073993 87,78" id="Stroke-27" stroke="#1B1B3E"></path>
                    <path d="M61,14 C68.5986179,14 74.7702275,19.7846336 75,27" id="Stroke-29" stroke="#1B1B3E"></path>
                    <path d="M75.3333333,50 C75.3333333,50 80,52.2990082 80,59.2 C80,66.8210436 73.7314935,73 66,73" id="Stroke-31" stroke="#1B1B3E"></path>
                </g>
            </g>
        </g>
    </g>
</svg>