<?xml version="1.0" encoding="utf-8"?>
<!-- Generator: Adobe Illustrator 26.2.1, SVG Export Plug-In . SVG Version: 6.00 Build 0)  -->
<svg version="1.1" id="Layer_1" xmlns="http://www.w3.org/2000/svg" xmlns:xlink="http://www.w3.org/1999/xlink" x="0px" y="0px"
	 viewBox="0 0 107.6 116.7" style="enable-background:new 0 0 107.6 116.7;" xml:space="preserve">
<style type="text/css">
	.st0{fill:none;stroke:#1B1B3E;stroke-width:3.0071;stroke-linecap:round;stroke-linejoin:round;}
	.st1{fill:none;stroke:#FF6900;stroke-width:3.0071;stroke-linecap:round;stroke-linejoin:round;}
</style>
<path class="st0" d="M53.8,87.9v13.6c0,7.5-6.1,13.6-13.6,13.6c-4.1,0-7.7-1.8-10.2-4.6c-0.4,0-0.8,0.1-1.2,0.1
	c-7,0-12.8-5.3-13.6-12.1c-5.3-1.8-9.2-6.9-9.2-12.9c0-2.4,0.6-4.7,1.8-6.7C4,76.5,1.5,72.3,1.5,67.5c0-3.5,1.3-6.7,3.5-9.1
	c-2.2-2.4-3.5-5.6-3.5-9.1c0-4.5,2.2-8.4,5.5-10.9c-0.6-1.5-1-3.2-1-5c0-6,3.8-11,9.1-12.9c0-0.3,0-0.5,0-0.8
	c0-7.5,6.1-13.6,13.6-13.6c0.4,0,0.8,0,1.2,0.1c2.5-2.8,6.1-4.6,10.2-4.6c7.5,0,13.6,6.1,13.6,13.6v13.6"/>
<path class="st0" d="M30,6.1c-2.7,2.7-3.7,5.9-3.4,9.1"/>
<path class="st0" d="M26.5,28.8c7.5,0,13.6-6.1,13.6-13.6"/>
<path class="st0" d="M18.6,62.5C14,67,14,74.4,18.6,79"/>
<path class="st0" d="M40.2,42.4c-7.5,0-13.6,6.1-13.6,13.6"/>
<path class="st0" d="M30.1,46.9C25,46.6,21,42.3,21,37.1"/>
<path class="st0" d="M44.7,101.6c-7.4,0-13.4-5.9-13.6-13.2"/>
<path class="st0" d="M33.3,67.5c0,0,4.5,2.3,4.5,9.1c0,7.5-6.1,13.6-13.6,13.6"/>
<polyline class="st1" points="99.3,74.3 99.3,65.2 49.3,65.2 "/>
<polyline class="st1" points="99.3,42.4 99.3,51.5 49.3,51.5 "/>
<polyline class="st1" points="49.3,78.8 78.8,78.8 78.8,97 "/>
<polyline class="st1" points="49.3,37.9 78.8,37.9 78.8,19.7 "/>
<circle class="st1" cx="99.3" cy="81.1" r="6.8"/>
<circle class="st1" cx="99.3" cy="35.6" r="6.8"/>
<circle class="st1" cx="78.8" cy="12.9" r="6.8"/>
<circle class="st1" cx="78.8" cy="103.9" r="6.8"/>
</svg>
