<?xml version="1.0" encoding="UTF-8"?>
<svg width="67px" height="63px" viewBox="0 0 67 63" version="1.1" xmlns="http://www.w3.org/2000/svg" xmlns:xlink="http://www.w3.org/1999/xlink">
    <title>Group 17</title>
    <g id="Page-1" stroke="none" stroke-width="1" fill="none" fill-rule="evenodd" stroke-linecap="round" stroke-linejoin="round">
        <g id="Artboard" transform="translate(-1146.000000, -2150.000000)" stroke-width="1.704">
            <g id="Group-17" transform="translate(1147.000000, 2151.000000)">
                <line x1="25.2871" y1="21.6746" x2="2.2021" y2="21.6746" id="Stroke-1" stroke="#1B1B3E"></line>
                <line x1="2.2025" y1="43.349" x2="53.1885" y2="43.349" id="Stroke-3" stroke="#1B1B3E"></line>
                <line x1="65.0235" y1="36.1242" x2="55.6225" y2="26.7232" id="Stroke-5" stroke="#1B1B3E"></line>
                <path d="M27.1936,4.8433 C20.1116,5.3963 14.4496,17.5683 14.4496,32.5123 C14.4496,47.8073 20.3806,60.2073 27.6956,60.2073 C34.4826,60.2073 40.0746,49.5303 40.8466,35.7723" id="Stroke-7" stroke="#1B1B3E"></path>
                <path d="M27.202,4.8293 C12.135,5.0933 3.55271368e-15,17.3813 3.55271368e-15,32.5123 C3.55271368e-15,47.8073 12.4,60.2073 27.695,60.2073 C42.733,60.2073 54.958,48.2183 55.366,33.2793" id="Stroke-9" stroke="#1B1B3E"></path>
                <path d="M60.207,15.654 C60.207,24.3 53.199,31.308 44.553,31.308 C35.907,31.308 28.9,24.3 28.9,15.654 C28.9,7.008 35.907,0 44.553,0 C53.199,0 60.207,7.008 60.207,15.654 Z" id="Stroke-11" stroke="#1B1B3E"></path>
                <path d="M49.3698,10.8374 C49.3698,13.4974 47.2138,15.6544 44.5528,15.6544 C41.8928,15.6544 39.7368,13.4974 39.7368,10.8374 C39.7368,8.1774 41.8928,6.0204 44.5528,6.0204 C47.2138,6.0204 49.3698,8.1774 49.3698,10.8374 Z" id="Stroke-13" stroke="#FF6900"></path>
                <path d="M52.9822,22.8788 C52.9822,18.8368 49.2062,16.8578 44.5532,16.8578 C39.9002,16.8578 36.1242,18.8368 36.1242,22.8788" id="Stroke-15" stroke="#FF6900"></path>
            </g>
        </g>
    </g>
</svg>